%TF.GenerationSoftware,KiCad,Pcbnew,8.0.2*%
%TF.CreationDate,2024-05-13T00:00:15+01:00*%
%TF.ProjectId,Left_Controller_PCB_Bluetooth,4c656674-5f43-46f6-9e74-726f6c6c6572,V1.2*%
%TF.SameCoordinates,Original*%
%TF.FileFunction,Copper,L1,Top*%
%TF.FilePolarity,Positive*%
%FSLAX46Y46*%
G04 Gerber Fmt 4.6, Leading zero omitted, Abs format (unit mm)*
G04 Created by KiCad (PCBNEW 8.0.2) date 2024-05-13 00:00:15*
%MOMM*%
%LPD*%
G01*
G04 APERTURE LIST*
%ADD10C,0.300000*%
%TA.AperFunction,NonConductor*%
%ADD11C,0.300000*%
%TD*%
%TA.AperFunction,ComponentPad*%
%ADD12C,1.524000*%
%TD*%
%TA.AperFunction,ComponentPad*%
%ADD13C,2.000000*%
%TD*%
%TA.AperFunction,ComponentPad*%
%ADD14R,1.600000X1.600000*%
%TD*%
%TA.AperFunction,ComponentPad*%
%ADD15O,1.600000X1.600000*%
%TD*%
%TA.AperFunction,WasherPad*%
%ADD16C,2.300000*%
%TD*%
%TA.AperFunction,ComponentPad*%
%ADD17R,4.020000X2.410000*%
%TD*%
%TA.AperFunction,ComponentPad*%
%ADD18O,4.020000X2.410000*%
%TD*%
%TA.AperFunction,Conductor*%
%ADD19C,1.000000*%
%TD*%
%TA.AperFunction,Conductor*%
%ADD20C,0.900000*%
%TD*%
G04 APERTURE END LIST*
D10*
D11*
X156840225Y-146382828D02*
X157340225Y-147882828D01*
X157340225Y-147882828D02*
X157840225Y-146382828D01*
X159125939Y-147882828D02*
X158268796Y-147882828D01*
X158697367Y-147882828D02*
X158697367Y-146382828D01*
X158697367Y-146382828D02*
X158554510Y-146597114D01*
X158554510Y-146597114D02*
X158411653Y-146739971D01*
X158411653Y-146739971D02*
X158268796Y-146811400D01*
X159768795Y-147739971D02*
X159840224Y-147811400D01*
X159840224Y-147811400D02*
X159768795Y-147882828D01*
X159768795Y-147882828D02*
X159697367Y-147811400D01*
X159697367Y-147811400D02*
X159768795Y-147739971D01*
X159768795Y-147739971D02*
X159768795Y-147882828D01*
X160411653Y-146525685D02*
X160483081Y-146454257D01*
X160483081Y-146454257D02*
X160625939Y-146382828D01*
X160625939Y-146382828D02*
X160983081Y-146382828D01*
X160983081Y-146382828D02*
X161125939Y-146454257D01*
X161125939Y-146454257D02*
X161197367Y-146525685D01*
X161197367Y-146525685D02*
X161268796Y-146668542D01*
X161268796Y-146668542D02*
X161268796Y-146811400D01*
X161268796Y-146811400D02*
X161197367Y-147025685D01*
X161197367Y-147025685D02*
X160340224Y-147882828D01*
X160340224Y-147882828D02*
X161268796Y-147882828D01*
D12*
%TO.P,JoystickL1,1,GND*%
%TO.N,GND*%
X158563250Y-79080000D03*
%TO.P,JoystickL1,2,+5V*%
%TO.N,+3.3V*%
X158563250Y-76540000D03*
%TO.P,JoystickL1,3,VRX*%
%TO.N,/Analog_X_L*%
X158563250Y-74000000D03*
%TO.P,JoystickL1,4,VRY*%
%TO.N,/Analog_Y_L*%
X158563250Y-71460000D03*
%TO.P,JoystickL1,5,SW*%
%TO.N,/SEL_JOY_L*%
X158563250Y-68920000D03*
%TD*%
D13*
%TO.P,SEL_L1,1,1*%
%TO.N,/SEL_L*%
X166500000Y-61000000D03*
X160000000Y-61000000D03*
%TO.P,SEL_L1,2,2*%
%TO.N,GND*%
X166500000Y-56500000D03*
X160000000Y-56500000D03*
%TD*%
%TO.P,DOWN1,1,1*%
%TO.N,/DOWN*%
X139500000Y-107000000D03*
X146000000Y-107000000D03*
%TO.P,DOWN1,2,2*%
%TO.N,GND*%
X139500000Y-111500000D03*
X146000000Y-111500000D03*
%TD*%
%TO.P,LEFT1,1,1*%
%TO.N,GND*%
X130500000Y-98250000D03*
X137000000Y-98250000D03*
%TO.P,LEFT1,2,2*%
%TO.N,/LEFT*%
X130500000Y-102750000D03*
X137000000Y-102750000D03*
%TD*%
%TO.P,LEFT_SHOULDER1,1,1*%
%TO.N,/LEFT_SHOULDER*%
X138380800Y-53649932D03*
X131880800Y-53649932D03*
%TO.P,LEFT_SHOULDER1,2,2*%
%TO.N,GND*%
X138380800Y-49149932D03*
X131880800Y-49149932D03*
%TD*%
%TO.P,RIGHT1,1,1*%
%TO.N,/RIGHT*%
X148250000Y-98250000D03*
X154750000Y-98250000D03*
%TO.P,RIGHT1,2,2*%
%TO.N,GND*%
X148250000Y-102750000D03*
X154750000Y-102750000D03*
%TD*%
%TO.P,UP1,1,1*%
%TO.N,/UP*%
X139500000Y-89250000D03*
X146000000Y-89250000D03*
%TO.P,UP1,2,2*%
%TO.N,GND*%
X139500000Y-93750000D03*
X146000000Y-93750000D03*
%TD*%
D14*
%TO.P,CentralBoard1,1,D1/TX*%
%TO.N,unconnected-(CentralBoard1-D1{slash}TX-Pad1)*%
X162712400Y-141245532D03*
D15*
%TO.P,CentralBoard1,2,D0/RX*%
%TO.N,unconnected-(CentralBoard1-D0{slash}RX-Pad2)*%
X160172400Y-141245532D03*
%TO.P,CentralBoard1,3,~{RESET}*%
%TO.N,unconnected-(CentralBoard1-~{RESET}-Pad3)*%
X157632400Y-141245532D03*
%TO.P,CentralBoard1,4,GND*%
%TO.N,GND*%
X155092400Y-141245532D03*
%TO.P,CentralBoard1,5,D2*%
%TO.N,unconnected-(CentralBoard1-D2-Pad5)*%
X152552400Y-141245532D03*
%TO.P,CentralBoard1,6,D3*%
%TO.N,unconnected-(CentralBoard1-D3-Pad6)*%
X150012400Y-141245532D03*
%TO.P,CentralBoard1,7,D4*%
%TO.N,unconnected-(CentralBoard1-D4-Pad7)*%
X147472400Y-141245532D03*
%TO.P,CentralBoard1,8,D5*%
%TO.N,unconnected-(CentralBoard1-D5-Pad8)*%
X144932400Y-141245532D03*
%TO.P,CentralBoard1,9,D6*%
%TO.N,/SEL_L*%
X142392400Y-141245532D03*
%TO.P,CentralBoard1,10,D7*%
%TO.N,/SEL_JOY_L*%
X139852400Y-141245532D03*
%TO.P,CentralBoard1,11,D8*%
%TO.N,unconnected-(CentralBoard1-D8-Pad11)*%
X137312400Y-141245532D03*
%TO.P,CentralBoard1,12,D9*%
%TO.N,/DOWN*%
X134772400Y-141245532D03*
%TO.P,CentralBoard1,13,D10*%
%TO.N,/RIGHT*%
X132232400Y-141245532D03*
%TO.P,CentralBoard1,14,D11*%
%TO.N,/LEFT*%
X129692400Y-141245532D03*
%TO.P,CentralBoard1,15,D12*%
%TO.N,/UP*%
X127152400Y-141245532D03*
%TO.P,CentralBoard1,16,D13*%
%TO.N,/LEFT_SHOULDER*%
X127152400Y-126005532D03*
%TO.P,CentralBoard1,17,3V3*%
%TO.N,+3.3V*%
X129692400Y-126005532D03*
%TO.P,CentralBoard1,18,AREF*%
%TO.N,unconnected-(CentralBoard1-AREF-Pad18)*%
X132232400Y-126005532D03*
%TO.P,CentralBoard1,19,A0*%
%TO.N,/Analog_X_L*%
X134772400Y-126005532D03*
%TO.P,CentralBoard1,20,A1*%
%TO.N,/Analog_Y_L*%
X137312400Y-126005532D03*
%TO.P,CentralBoard1,21,A2*%
%TO.N,unconnected-(CentralBoard1-A2-Pad21)*%
X139852400Y-126005532D03*
%TO.P,CentralBoard1,22,A3*%
%TO.N,unconnected-(CentralBoard1-A3-Pad22)*%
X142392400Y-126005532D03*
%TO.P,CentralBoard1,23,A4*%
%TO.N,unconnected-(CentralBoard1-A4-Pad23)*%
X144932400Y-126005532D03*
%TO.P,CentralBoard1,24,A5*%
%TO.N,unconnected-(CentralBoard1-A5-Pad24)*%
X147472400Y-126005532D03*
%TO.P,CentralBoard1,25,A6*%
%TO.N,unconnected-(CentralBoard1-A6-Pad25)*%
X150012400Y-126005532D03*
%TO.P,CentralBoard1,26,A7*%
%TO.N,unconnected-(CentralBoard1-A7-Pad26)*%
X152552400Y-126005532D03*
%TO.P,CentralBoard1,27,+5V*%
%TO.N,unconnected-(CentralBoard1-+5V-Pad27)*%
X155092400Y-126005532D03*
%TO.P,CentralBoard1,28,~{RESET}*%
%TO.N,unconnected-(CentralBoard1-~{RESET}-Pad28)*%
X157632400Y-126005532D03*
%TO.P,CentralBoard1,29,GND*%
%TO.N,GND*%
X160172400Y-126005532D03*
%TO.P,CentralBoard1,30,VIN*%
%TO.N,+9V*%
X162712400Y-126005532D03*
%TD*%
D16*
%TO.P,BAT9V1,*%
%TO.N,*%
X134880000Y-109210000D03*
X157230000Y-95720000D03*
X134880000Y-82240000D03*
D17*
%TO.P,BAT9V1,1,+*%
%TO.N,+9V*%
X152500000Y-121500000D03*
D18*
%TO.P,BAT9V1,2,-*%
%TO.N,GND*%
X139620000Y-121500000D03*
%TD*%
D19*
%TO.N,+9V*%
X159338238Y-121500000D02*
X162712400Y-124874162D01*
X152500000Y-121500000D02*
X159338238Y-121500000D01*
X162712400Y-124874162D02*
X162712400Y-126005532D01*
%TO.N,GND*%
X118008400Y-137258400D02*
X118008400Y-103987600D01*
X152492428Y-146500000D02*
X129000000Y-146500000D01*
X158000000Y-56500000D02*
X160000000Y-56500000D01*
X154750000Y-102750000D02*
X151500000Y-99500000D01*
X146000000Y-93750000D02*
X142750000Y-90500000D01*
X137000000Y-96250000D02*
X139500000Y-93750000D01*
X156210000Y-58290000D02*
X158000000Y-56500000D01*
X142750000Y-90500000D02*
X142750000Y-84000000D01*
X118008400Y-103987600D02*
X122176800Y-99819200D01*
X142750000Y-84000000D02*
X134500000Y-75750000D01*
X146000000Y-111500000D02*
X149500000Y-111500000D01*
X142025000Y-123905000D02*
X158360296Y-123905000D01*
X151500000Y-99500000D02*
X151500000Y-96500000D01*
X160172400Y-125717104D02*
X160172400Y-126005532D01*
X160036000Y-56388000D02*
X160072000Y-56424000D01*
X129000000Y-146500000D02*
X120939172Y-138439172D01*
X134500000Y-75750000D02*
X122176800Y-75750000D01*
X138380800Y-49149932D02*
X156899932Y-49149932D01*
X122176800Y-72750000D02*
X122176800Y-58853932D01*
X151500000Y-96500000D02*
X148750000Y-93750000D01*
X154750000Y-106250000D02*
X154750000Y-102750000D01*
X155092400Y-143900028D02*
X152492428Y-146500000D01*
X155092400Y-141245532D02*
X155092400Y-143900028D01*
X158360296Y-123905000D02*
X160172400Y-125717104D01*
X160000000Y-52250000D02*
X160000000Y-56500000D01*
X156899932Y-49149932D02*
X160000000Y-52250000D01*
X158563250Y-79080000D02*
X157080000Y-79080000D01*
X122176800Y-99819200D02*
X122176800Y-75750000D01*
X119189172Y-138439172D02*
X118008400Y-137258400D01*
X157080000Y-79080000D02*
X156210000Y-78210000D01*
X139620000Y-121500000D02*
X142025000Y-123905000D01*
X156210000Y-78210000D02*
X156210000Y-58290000D01*
X149500000Y-111500000D02*
X154750000Y-106250000D01*
X122176800Y-58853932D02*
X131880800Y-49149932D01*
X122176800Y-75750000D02*
X122176800Y-72750000D01*
X148750000Y-93750000D02*
X146000000Y-93750000D01*
X137000000Y-98250000D02*
X137000000Y-96250000D01*
X120939172Y-138439172D02*
X119189172Y-138439172D01*
%TO.N,/LEFT_SHOULDER*%
X127152400Y-119848005D02*
X127152400Y-126005532D01*
D20*
X138380800Y-53649932D02*
X149399932Y-53649932D01*
D19*
X157750000Y-90250000D02*
X159768800Y-92268800D01*
X131400405Y-115600000D02*
X127152400Y-119848005D01*
D20*
X149399932Y-53649932D02*
X151250000Y-55500000D01*
D19*
X151250000Y-55500000D02*
X151250000Y-90250000D01*
X151250000Y-90250000D02*
X157750000Y-90250000D01*
X159768800Y-92268800D02*
X159768800Y-109819932D01*
X159768800Y-109819932D02*
X153988732Y-115600000D01*
X153988732Y-115600000D02*
X131400405Y-115600000D01*
%TO.N,/UP*%
X119708400Y-135743335D02*
X120704237Y-136739172D01*
X123489172Y-136739172D02*
X127152400Y-140402400D01*
X120704237Y-136739172D02*
X123489172Y-136739172D01*
X135794000Y-89250000D02*
X119708400Y-105335600D01*
X119708400Y-105335600D02*
X119708400Y-135743335D01*
X127152400Y-140402400D02*
X127152400Y-141245532D01*
X139500000Y-89250000D02*
X135794000Y-89250000D01*
%TO.N,/Analog_X_L*%
X158797938Y-74000000D02*
X163324800Y-78526862D01*
X163324800Y-78526862D02*
X163324800Y-111597932D01*
X163324800Y-111597932D02*
X155922732Y-119000000D01*
X158563250Y-74000000D02*
X158797938Y-74000000D01*
X135750000Y-119000000D02*
X134772400Y-119977600D01*
X134772400Y-119977600D02*
X134772400Y-126005532D01*
X155922732Y-119000000D02*
X135750000Y-119000000D01*
%TO.N,/Analog_Y_L*%
X139402372Y-130750000D02*
X137312400Y-128660028D01*
X158563250Y-71460000D02*
X158797938Y-71460000D01*
X165102800Y-130750000D02*
X139402372Y-130750000D01*
X158797938Y-71460000D02*
X165102800Y-77764862D01*
X137312400Y-128660028D02*
X137312400Y-126005532D01*
X165102800Y-77764862D02*
X165102800Y-130750000D01*
%TO.N,/LEFT*%
X129692400Y-141245532D02*
X129692400Y-140114162D01*
X126361270Y-102750000D02*
X130500000Y-102750000D01*
X129692400Y-140114162D02*
X124617410Y-135039172D01*
X121408400Y-107702870D02*
X126361270Y-102750000D01*
X124617410Y-135039172D02*
X121408400Y-135039172D01*
X121408400Y-135039172D02*
X121408400Y-107702870D01*
%TO.N,/DOWN*%
X137250000Y-110774000D02*
X135524000Y-112500000D01*
X134772400Y-138022400D02*
X134772400Y-141245532D01*
X124815600Y-128065600D02*
X134772400Y-138022400D01*
X130500000Y-112500000D02*
X124815600Y-118184400D01*
X139500000Y-107000000D02*
X137250000Y-109250000D01*
X135524000Y-112500000D02*
X130500000Y-112500000D01*
X124815600Y-118184400D02*
X124815600Y-128065600D01*
X137250000Y-109250000D02*
X137250000Y-110774000D01*
%TO.N,/RIGHT*%
X145000000Y-98250000D02*
X148250000Y-98250000D01*
X123108400Y-115025437D02*
X131273837Y-106860000D01*
X123108400Y-133224489D02*
X123108400Y-115025437D01*
X136390000Y-106860000D02*
X145000000Y-98250000D01*
X131273837Y-106860000D02*
X136390000Y-106860000D01*
X132232400Y-140249998D02*
X125206891Y-133224489D01*
X125206891Y-133224489D02*
X123108400Y-133224489D01*
X132232400Y-141245532D02*
X132232400Y-140249998D01*
%TO.N,/SEL_JOY_L*%
X142500000Y-134500000D02*
X139852400Y-137147600D01*
X139852400Y-137147600D02*
X139852400Y-141245532D01*
X167222800Y-77344862D02*
X167222800Y-134500000D01*
X167222800Y-134500000D02*
X142500000Y-134500000D01*
X158563250Y-68920000D02*
X158797938Y-68920000D01*
X158797938Y-68920000D02*
X167222800Y-77344862D01*
%TO.N,+3.3V*%
X129692400Y-120954800D02*
X129692400Y-126005532D01*
X133347200Y-117300000D02*
X129692400Y-120954800D01*
X161468800Y-79210862D02*
X161468800Y-110524096D01*
X158797938Y-76540000D02*
X161468800Y-79210862D01*
X158563250Y-76540000D02*
X158797938Y-76540000D01*
X154692896Y-117300000D02*
X133347200Y-117300000D01*
X161468800Y-110524096D02*
X154692896Y-117300000D01*
%TO.N,/SEL_L*%
X169000000Y-136750000D02*
X169000000Y-63500000D01*
X144000000Y-136750000D02*
X169000000Y-136750000D01*
X142392400Y-141245532D02*
X142392400Y-138357600D01*
X169000000Y-63500000D02*
X166500000Y-61000000D01*
X142392400Y-138357600D02*
X144000000Y-136750000D01*
%TD*%
%TA.AperFunction,Conductor*%
%TO.N,GND*%
G36*
X131389722Y-47520185D02*
G01*
X131435477Y-47572989D01*
X131445421Y-47642147D01*
X131416396Y-47705703D01*
X131362946Y-47741781D01*
X131276196Y-47771562D01*
X131276190Y-47771564D01*
X131057561Y-47889881D01*
X131010742Y-47926320D01*
X131010742Y-47926322D01*
X131710565Y-48626144D01*
X131668508Y-48637414D01*
X131543092Y-48709822D01*
X131440690Y-48812224D01*
X131368282Y-48937640D01*
X131357012Y-48979696D01*
X130657364Y-48280048D01*
X130557067Y-48433564D01*
X130457212Y-48661214D01*
X130396187Y-48902193D01*
X130396185Y-48902202D01*
X130375659Y-49149926D01*
X130375659Y-49149937D01*
X130396185Y-49397661D01*
X130396187Y-49397670D01*
X130457212Y-49638649D01*
X130557066Y-49866296D01*
X130657364Y-50019814D01*
X131357012Y-49320166D01*
X131368282Y-49362224D01*
X131440690Y-49487640D01*
X131543092Y-49590042D01*
X131668508Y-49662450D01*
X131710565Y-49673719D01*
X131010742Y-50373541D01*
X131057568Y-50409987D01*
X131057570Y-50409988D01*
X131276185Y-50528296D01*
X131276196Y-50528301D01*
X131511306Y-50609015D01*
X131756507Y-50649932D01*
X132005093Y-50649932D01*
X132250293Y-50609015D01*
X132485403Y-50528301D01*
X132485414Y-50528296D01*
X132704028Y-50409989D01*
X132704031Y-50409987D01*
X132750856Y-50373541D01*
X132051034Y-49673719D01*
X132093092Y-49662450D01*
X132218508Y-49590042D01*
X132320910Y-49487640D01*
X132393318Y-49362224D01*
X132404587Y-49320167D01*
X133104234Y-50019814D01*
X133204531Y-49866301D01*
X133304387Y-49638649D01*
X133365412Y-49397670D01*
X133365414Y-49397661D01*
X133385941Y-49149937D01*
X133385941Y-49149926D01*
X133365414Y-48902202D01*
X133365412Y-48902193D01*
X133304387Y-48661214D01*
X133204531Y-48433562D01*
X133104234Y-48280048D01*
X132404587Y-48979696D01*
X132393318Y-48937640D01*
X132320910Y-48812224D01*
X132218508Y-48709822D01*
X132093092Y-48637414D01*
X132051035Y-48626144D01*
X132750857Y-47926322D01*
X132750856Y-47926321D01*
X132704029Y-47889875D01*
X132485414Y-47771567D01*
X132485403Y-47771562D01*
X132398654Y-47741781D01*
X132341639Y-47701395D01*
X132315508Y-47636596D01*
X132328560Y-47567956D01*
X132376648Y-47517268D01*
X132438917Y-47500500D01*
X137822683Y-47500500D01*
X137889722Y-47520185D01*
X137935477Y-47572989D01*
X137945421Y-47642147D01*
X137916396Y-47705703D01*
X137862946Y-47741781D01*
X137776196Y-47771562D01*
X137776190Y-47771564D01*
X137557561Y-47889881D01*
X137510742Y-47926320D01*
X137510742Y-47926322D01*
X138210565Y-48626144D01*
X138168508Y-48637414D01*
X138043092Y-48709822D01*
X137940690Y-48812224D01*
X137868282Y-48937640D01*
X137857012Y-48979696D01*
X137157364Y-48280048D01*
X137057067Y-48433564D01*
X136957212Y-48661214D01*
X136896187Y-48902193D01*
X136896185Y-48902202D01*
X136875659Y-49149926D01*
X136875659Y-49149937D01*
X136896185Y-49397661D01*
X136896187Y-49397670D01*
X136957212Y-49638649D01*
X137057066Y-49866296D01*
X137157364Y-50019814D01*
X137857012Y-49320166D01*
X137868282Y-49362224D01*
X137940690Y-49487640D01*
X138043092Y-49590042D01*
X138168508Y-49662450D01*
X138210565Y-49673719D01*
X137510742Y-50373541D01*
X137557568Y-50409987D01*
X137557570Y-50409988D01*
X137776185Y-50528296D01*
X137776196Y-50528301D01*
X138011306Y-50609015D01*
X138256507Y-50649932D01*
X138505093Y-50649932D01*
X138750293Y-50609015D01*
X138985403Y-50528301D01*
X138985414Y-50528296D01*
X139204028Y-50409989D01*
X139204031Y-50409987D01*
X139250856Y-50373541D01*
X138551034Y-49673719D01*
X138593092Y-49662450D01*
X138718508Y-49590042D01*
X138820910Y-49487640D01*
X138893318Y-49362224D01*
X138904587Y-49320167D01*
X139604234Y-50019814D01*
X139704531Y-49866301D01*
X139804387Y-49638649D01*
X139865412Y-49397670D01*
X139865414Y-49397661D01*
X139885941Y-49149937D01*
X139885941Y-49149926D01*
X139865414Y-48902202D01*
X139865412Y-48902193D01*
X139804387Y-48661214D01*
X139704531Y-48433562D01*
X139604234Y-48280048D01*
X138904587Y-48979696D01*
X138893318Y-48937640D01*
X138820910Y-48812224D01*
X138718508Y-48709822D01*
X138593092Y-48637414D01*
X138551035Y-48626144D01*
X139250857Y-47926322D01*
X139250856Y-47926321D01*
X139204029Y-47889875D01*
X138985414Y-47771567D01*
X138985403Y-47771562D01*
X138898654Y-47741781D01*
X138841639Y-47701395D01*
X138815508Y-47636596D01*
X138828560Y-47567956D01*
X138876648Y-47517268D01*
X138938917Y-47500500D01*
X169375500Y-47500500D01*
X169442539Y-47520185D01*
X169488294Y-47572989D01*
X169499500Y-47624500D01*
X169499500Y-62002374D01*
X169479815Y-62069413D01*
X169427011Y-62115168D01*
X169357853Y-62125112D01*
X169294297Y-62096087D01*
X169287819Y-62090055D01*
X168238409Y-61040646D01*
X168204924Y-60979323D01*
X168202438Y-60962240D01*
X168186222Y-60745843D01*
X168129508Y-60497363D01*
X168036393Y-60260112D01*
X167908959Y-60039388D01*
X167750050Y-59840123D01*
X167563217Y-59666768D01*
X167352634Y-59523195D01*
X167352630Y-59523193D01*
X167352627Y-59523191D01*
X167352626Y-59523190D01*
X167123006Y-59412612D01*
X167123008Y-59412612D01*
X166879466Y-59337489D01*
X166879462Y-59337488D01*
X166879458Y-59337487D01*
X166758231Y-59319214D01*
X166627440Y-59299500D01*
X166627435Y-59299500D01*
X166372565Y-59299500D01*
X166372559Y-59299500D01*
X166215609Y-59323157D01*
X166120542Y-59337487D01*
X166120539Y-59337488D01*
X166120533Y-59337489D01*
X165876992Y-59412612D01*
X165647373Y-59523190D01*
X165647372Y-59523191D01*
X165436782Y-59666768D01*
X165249952Y-59840121D01*
X165249950Y-59840123D01*
X165091041Y-60039388D01*
X164963608Y-60260109D01*
X164870492Y-60497362D01*
X164870490Y-60497369D01*
X164813777Y-60745845D01*
X164794732Y-60999995D01*
X164794732Y-61000004D01*
X164813777Y-61254154D01*
X164813778Y-61254157D01*
X164870492Y-61502637D01*
X164963607Y-61739888D01*
X165091041Y-61960612D01*
X165249950Y-62159877D01*
X165436783Y-62333232D01*
X165647366Y-62476805D01*
X165647371Y-62476807D01*
X165647372Y-62476808D01*
X165647373Y-62476809D01*
X165769328Y-62535538D01*
X165876992Y-62587387D01*
X165876993Y-62587387D01*
X165876996Y-62587389D01*
X166120542Y-62662513D01*
X166372565Y-62700500D01*
X166451374Y-62700500D01*
X166518413Y-62720185D01*
X166539055Y-62736819D01*
X167763181Y-63960944D01*
X167796666Y-64022267D01*
X167799500Y-64048625D01*
X167799500Y-75924436D01*
X167779815Y-75991475D01*
X167727011Y-76037230D01*
X167657853Y-76047174D01*
X167594297Y-76018149D01*
X167587819Y-76012117D01*
X159914650Y-68338948D01*
X159888775Y-68301076D01*
X159853889Y-68221542D01*
X159721325Y-68018637D01*
X159702658Y-67998359D01*
X159557169Y-67840316D01*
X159557164Y-67840312D01*
X159557162Y-67840310D01*
X159365911Y-67691453D01*
X159365900Y-67691446D01*
X159152749Y-67576095D01*
X159152746Y-67576094D01*
X159152743Y-67576092D01*
X159152737Y-67576090D01*
X159152735Y-67576089D01*
X158923506Y-67497393D01*
X158744202Y-67467473D01*
X158684436Y-67457500D01*
X158442064Y-67457500D01*
X158394250Y-67465478D01*
X158202993Y-67497393D01*
X157973764Y-67576089D01*
X157973750Y-67576095D01*
X157760599Y-67691446D01*
X157760588Y-67691453D01*
X157569337Y-67840310D01*
X157569334Y-67840313D01*
X157405174Y-68018637D01*
X157272611Y-68221541D01*
X157175251Y-68443501D01*
X157115753Y-68678451D01*
X157115751Y-68678463D01*
X157095738Y-68919994D01*
X157095738Y-68920005D01*
X157115751Y-69161536D01*
X157115753Y-69161548D01*
X157175251Y-69396498D01*
X157272611Y-69618458D01*
X157405174Y-69821362D01*
X157405177Y-69821365D01*
X157569331Y-69999684D01*
X157629077Y-70046186D01*
X157688127Y-70092147D01*
X157728940Y-70148857D01*
X157732614Y-70218630D01*
X157697982Y-70279313D01*
X157688127Y-70287853D01*
X157569333Y-70380314D01*
X157405174Y-70558637D01*
X157272611Y-70761541D01*
X157175251Y-70983501D01*
X157115753Y-71218451D01*
X157115751Y-71218463D01*
X157095738Y-71459994D01*
X157095738Y-71460005D01*
X157115751Y-71701536D01*
X157115753Y-71701548D01*
X157175251Y-71936498D01*
X157272611Y-72158458D01*
X157405174Y-72361362D01*
X157405177Y-72361365D01*
X157569331Y-72539684D01*
X157629077Y-72586186D01*
X157688127Y-72632147D01*
X157728940Y-72688857D01*
X157732614Y-72758630D01*
X157697982Y-72819313D01*
X157688127Y-72827853D01*
X157569333Y-72920314D01*
X157405174Y-73098637D01*
X157272611Y-73301541D01*
X157175251Y-73523501D01*
X157115753Y-73758451D01*
X157115751Y-73758463D01*
X157095738Y-73999994D01*
X157095738Y-74000005D01*
X157115751Y-74241536D01*
X157115753Y-74241548D01*
X157175251Y-74476498D01*
X157272611Y-74698458D01*
X157405174Y-74901362D01*
X157405177Y-74901365D01*
X157569331Y-75079684D01*
X157629077Y-75126186D01*
X157688127Y-75172147D01*
X157728940Y-75228857D01*
X157732614Y-75298630D01*
X157697982Y-75359313D01*
X157688127Y-75367853D01*
X157569333Y-75460314D01*
X157405174Y-75638637D01*
X157272611Y-75841541D01*
X157175251Y-76063501D01*
X157115753Y-76298451D01*
X157115751Y-76298463D01*
X157095738Y-76539994D01*
X157095738Y-76540005D01*
X157115751Y-76781536D01*
X157115753Y-76781548D01*
X157175251Y-77016498D01*
X157272611Y-77238458D01*
X157405174Y-77441362D01*
X157405177Y-77441365D01*
X157569331Y-77619684D01*
X157569334Y-77619686D01*
X157569337Y-77619689D01*
X157760588Y-77768546D01*
X157760598Y-77768553D01*
X157808878Y-77794680D01*
X157852225Y-77818138D01*
X157901816Y-77867357D01*
X157916924Y-77935573D01*
X157892754Y-78001129D01*
X157865080Y-78028039D01*
X157865060Y-78028257D01*
X158375460Y-78538657D01*
X158342659Y-78547447D01*
X158212341Y-78622687D01*
X158105937Y-78729091D01*
X158030697Y-78859409D01*
X158021907Y-78892210D01*
X157511508Y-78381811D01*
X157466151Y-78446590D01*
X157372829Y-78646720D01*
X157372825Y-78646729D01*
X157315676Y-78860013D01*
X157315674Y-78860023D01*
X157296429Y-79079999D01*
X157296429Y-79080000D01*
X157315674Y-79299976D01*
X157315676Y-79299986D01*
X157372825Y-79513270D01*
X157372830Y-79513284D01*
X157466148Y-79713405D01*
X157466151Y-79713411D01*
X157511508Y-79778187D01*
X157511509Y-79778188D01*
X158021907Y-79267789D01*
X158030697Y-79300591D01*
X158105937Y-79430909D01*
X158212341Y-79537313D01*
X158342659Y-79612553D01*
X158375460Y-79621342D01*
X157865060Y-80131740D01*
X157929840Y-80177099D01*
X157929842Y-80177100D01*
X158129965Y-80270419D01*
X158129979Y-80270424D01*
X158343263Y-80327573D01*
X158343273Y-80327575D01*
X158563249Y-80346821D01*
X158563251Y-80346821D01*
X158783226Y-80327575D01*
X158783236Y-80327573D01*
X158996520Y-80270424D01*
X158996534Y-80270419D01*
X159196657Y-80177100D01*
X159196667Y-80177094D01*
X159261438Y-80131741D01*
X158751039Y-79621342D01*
X158783841Y-79612553D01*
X158914159Y-79537313D01*
X159020563Y-79430909D01*
X159095803Y-79300591D01*
X159104592Y-79267789D01*
X159614991Y-79778188D01*
X159660344Y-79713417D01*
X159660350Y-79713407D01*
X159753669Y-79513284D01*
X159753672Y-79513276D01*
X159765660Y-79468533D01*
X159802024Y-79408872D01*
X159864870Y-79378341D01*
X159934246Y-79386635D01*
X159973117Y-79412943D01*
X160231981Y-79671807D01*
X160265466Y-79733130D01*
X160268300Y-79759488D01*
X160268300Y-90771174D01*
X160248615Y-90838213D01*
X160195811Y-90883968D01*
X160126653Y-90893912D01*
X160063097Y-90864887D01*
X160056619Y-90858855D01*
X158532076Y-89334312D01*
X158532074Y-89334310D01*
X158379199Y-89223240D01*
X158210836Y-89137454D01*
X158031118Y-89079059D01*
X157844486Y-89049500D01*
X157844481Y-89049500D01*
X152574500Y-89049500D01*
X152507461Y-89029815D01*
X152461706Y-88977011D01*
X152450500Y-88925500D01*
X152450500Y-85843762D01*
X152470185Y-85776723D01*
X152522989Y-85730968D01*
X152592147Y-85721024D01*
X152652753Y-85747573D01*
X152730353Y-85810705D01*
X152975882Y-85960015D01*
X153162737Y-86041176D01*
X153239442Y-86074494D01*
X153516142Y-86152021D01*
X153766420Y-86186421D01*
X153800821Y-86191150D01*
X153800822Y-86191150D01*
X154088179Y-86191150D01*
X154118870Y-86186931D01*
X154372858Y-86152021D01*
X154649558Y-86074494D01*
X154762515Y-86025429D01*
X154913117Y-85960015D01*
X154913120Y-85960013D01*
X154913125Y-85960011D01*
X155158647Y-85810705D01*
X155381553Y-85629358D01*
X155577689Y-85419348D01*
X155743401Y-85184586D01*
X155875604Y-84929447D01*
X155971834Y-84658682D01*
X156030298Y-84377336D01*
X156049908Y-84090650D01*
X156030298Y-83803964D01*
X155971834Y-83522618D01*
X155947769Y-83454907D01*
X155875605Y-83251856D01*
X155875606Y-83251856D01*
X155743401Y-82996714D01*
X155577687Y-82761949D01*
X155499054Y-82677755D01*
X155381553Y-82551942D01*
X155170140Y-82379945D01*
X155158646Y-82370594D01*
X154913117Y-82221284D01*
X154649563Y-82106808D01*
X154649561Y-82106807D01*
X154649558Y-82106806D01*
X154520078Y-82070527D01*
X154372864Y-82029280D01*
X154372859Y-82029279D01*
X154372858Y-82029279D01*
X154230518Y-82009714D01*
X154088179Y-81990150D01*
X154088178Y-81990150D01*
X153800822Y-81990150D01*
X153800821Y-81990150D01*
X153516142Y-82029279D01*
X153516135Y-82029280D01*
X153308361Y-82087495D01*
X153239442Y-82106806D01*
X153239439Y-82106806D01*
X153239436Y-82106808D01*
X153239435Y-82106808D01*
X152975882Y-82221284D01*
X152730354Y-82370594D01*
X152652754Y-82433726D01*
X152588328Y-82460764D01*
X152519512Y-82448678D01*
X152468154Y-82401306D01*
X152450500Y-82337537D01*
X152450500Y-65691247D01*
X152470185Y-65624208D01*
X152522989Y-65578453D01*
X152592147Y-65568509D01*
X152652752Y-65595057D01*
X152720353Y-65650055D01*
X152916542Y-65769361D01*
X152965882Y-65799365D01*
X153152737Y-65880526D01*
X153229442Y-65913844D01*
X153506142Y-65991371D01*
X153756420Y-66025771D01*
X153790821Y-66030500D01*
X153790822Y-66030500D01*
X154078179Y-66030500D01*
X154108870Y-66026281D01*
X154362858Y-65991371D01*
X154639558Y-65913844D01*
X154752515Y-65864779D01*
X154903117Y-65799365D01*
X154903120Y-65799363D01*
X154903125Y-65799361D01*
X155148647Y-65650055D01*
X155371553Y-65468708D01*
X155567689Y-65258698D01*
X155733401Y-65023936D01*
X155865604Y-64768797D01*
X155961834Y-64498032D01*
X156020298Y-64216686D01*
X156039908Y-63930000D01*
X156020298Y-63643314D01*
X155961834Y-63361968D01*
X155865605Y-63091206D01*
X155865606Y-63091206D01*
X155733401Y-62836064D01*
X155567687Y-62601299D01*
X155451420Y-62476809D01*
X155371553Y-62391292D01*
X155148647Y-62209945D01*
X155148646Y-62209944D01*
X154903117Y-62060634D01*
X154639563Y-61946158D01*
X154639561Y-61946157D01*
X154639558Y-61946156D01*
X154510078Y-61909877D01*
X154362864Y-61868630D01*
X154362859Y-61868629D01*
X154362858Y-61868629D01*
X154144603Y-61838630D01*
X154078179Y-61829500D01*
X154078178Y-61829500D01*
X153790822Y-61829500D01*
X153790821Y-61829500D01*
X153506142Y-61868629D01*
X153506135Y-61868630D01*
X153336514Y-61916156D01*
X153229442Y-61946156D01*
X153229439Y-61946156D01*
X153229436Y-61946158D01*
X153229435Y-61946158D01*
X152965882Y-62060634D01*
X152720353Y-62209944D01*
X152652755Y-62264940D01*
X152588329Y-62291979D01*
X152519512Y-62279893D01*
X152468154Y-62232521D01*
X152450500Y-62168752D01*
X152450500Y-60999995D01*
X158294732Y-60999995D01*
X158294732Y-61000004D01*
X158313777Y-61254154D01*
X158313778Y-61254157D01*
X158370492Y-61502637D01*
X158463607Y-61739888D01*
X158591041Y-61960612D01*
X158749950Y-62159877D01*
X158936783Y-62333232D01*
X159147366Y-62476805D01*
X159147371Y-62476807D01*
X159147372Y-62476808D01*
X159147373Y-62476809D01*
X159269328Y-62535538D01*
X159376992Y-62587387D01*
X159376993Y-62587387D01*
X159376996Y-62587389D01*
X159620542Y-62662513D01*
X159872565Y-62700500D01*
X160127435Y-62700500D01*
X160379458Y-62662513D01*
X160623004Y-62587389D01*
X160852634Y-62476805D01*
X161063217Y-62333232D01*
X161250050Y-62159877D01*
X161408959Y-61960612D01*
X161536393Y-61739888D01*
X161629508Y-61502637D01*
X161686222Y-61254157D01*
X161705268Y-61000000D01*
X161686222Y-60745843D01*
X161629508Y-60497363D01*
X161536393Y-60260112D01*
X161408959Y-60039388D01*
X161250050Y-59840123D01*
X161063217Y-59666768D01*
X160852634Y-59523195D01*
X160852630Y-59523193D01*
X160852627Y-59523191D01*
X160852626Y-59523190D01*
X160623006Y-59412612D01*
X160623008Y-59412612D01*
X160379466Y-59337489D01*
X160379462Y-59337488D01*
X160379458Y-59337487D01*
X160258231Y-59319214D01*
X160127440Y-59299500D01*
X160127435Y-59299500D01*
X159872565Y-59299500D01*
X159872559Y-59299500D01*
X159715609Y-59323157D01*
X159620542Y-59337487D01*
X159620539Y-59337488D01*
X159620533Y-59337489D01*
X159376992Y-59412612D01*
X159147373Y-59523190D01*
X159147372Y-59523191D01*
X158936782Y-59666768D01*
X158749952Y-59840121D01*
X158749950Y-59840123D01*
X158591041Y-60039388D01*
X158463608Y-60260109D01*
X158370492Y-60497362D01*
X158370490Y-60497369D01*
X158313777Y-60745845D01*
X158294732Y-60999995D01*
X152450500Y-60999995D01*
X152450500Y-56499994D01*
X158494859Y-56499994D01*
X158494859Y-56500005D01*
X158515385Y-56747729D01*
X158515387Y-56747738D01*
X158576412Y-56988717D01*
X158676266Y-57216364D01*
X158776564Y-57369882D01*
X159476212Y-56670234D01*
X159487482Y-56712292D01*
X159559890Y-56837708D01*
X159662292Y-56940110D01*
X159787708Y-57012518D01*
X159829765Y-57023787D01*
X159129942Y-57723609D01*
X159176768Y-57760055D01*
X159176770Y-57760056D01*
X159395385Y-57878364D01*
X159395396Y-57878369D01*
X159630506Y-57959083D01*
X159875707Y-58000000D01*
X160124293Y-58000000D01*
X160369493Y-57959083D01*
X160604603Y-57878369D01*
X160604614Y-57878364D01*
X160823228Y-57760057D01*
X160823231Y-57760055D01*
X160870056Y-57723609D01*
X160170234Y-57023787D01*
X160212292Y-57012518D01*
X160337708Y-56940110D01*
X160440110Y-56837708D01*
X160512518Y-56712292D01*
X160523787Y-56670235D01*
X161223434Y-57369882D01*
X161323731Y-57216369D01*
X161423587Y-56988717D01*
X161484612Y-56747738D01*
X161484614Y-56747729D01*
X161505141Y-56500005D01*
X161505141Y-56499994D01*
X164994859Y-56499994D01*
X164994859Y-56500005D01*
X165015385Y-56747729D01*
X165015387Y-56747738D01*
X165076412Y-56988717D01*
X165176266Y-57216364D01*
X165276564Y-57369882D01*
X165976212Y-56670234D01*
X165987482Y-56712292D01*
X166059890Y-56837708D01*
X166162292Y-56940110D01*
X166287708Y-57012518D01*
X166329765Y-57023787D01*
X165629942Y-57723609D01*
X165676768Y-57760055D01*
X165676770Y-57760056D01*
X165895385Y-57878364D01*
X165895396Y-57878369D01*
X166130506Y-57959083D01*
X166375707Y-58000000D01*
X166624293Y-58000000D01*
X166869493Y-57959083D01*
X167104603Y-57878369D01*
X167104614Y-57878364D01*
X167323228Y-57760057D01*
X167323231Y-57760055D01*
X167370056Y-57723609D01*
X166670234Y-57023787D01*
X166712292Y-57012518D01*
X166837708Y-56940110D01*
X166940110Y-56837708D01*
X167012518Y-56712292D01*
X167023787Y-56670234D01*
X167723434Y-57369882D01*
X167823731Y-57216369D01*
X167923587Y-56988717D01*
X167984612Y-56747738D01*
X167984614Y-56747729D01*
X168005141Y-56500005D01*
X168005141Y-56499994D01*
X167984614Y-56252270D01*
X167984612Y-56252261D01*
X167923587Y-56011282D01*
X167823731Y-55783630D01*
X167723434Y-55630116D01*
X167023787Y-56329764D01*
X167012518Y-56287708D01*
X166940110Y-56162292D01*
X166837708Y-56059890D01*
X166712292Y-55987482D01*
X166670235Y-55976212D01*
X167370057Y-55276390D01*
X167370056Y-55276389D01*
X167323229Y-55239943D01*
X167104614Y-55121635D01*
X167104603Y-55121630D01*
X166869493Y-55040916D01*
X166624293Y-55000000D01*
X166375707Y-55000000D01*
X166130506Y-55040916D01*
X165895396Y-55121630D01*
X165895390Y-55121632D01*
X165676761Y-55239949D01*
X165629942Y-55276388D01*
X165629942Y-55276390D01*
X166329765Y-55976212D01*
X166287708Y-55987482D01*
X166162292Y-56059890D01*
X166059890Y-56162292D01*
X165987482Y-56287708D01*
X165976212Y-56329764D01*
X165276564Y-55630116D01*
X165176267Y-55783632D01*
X165076412Y-56011282D01*
X165015387Y-56252261D01*
X165015385Y-56252270D01*
X164994859Y-56499994D01*
X161505141Y-56499994D01*
X161484614Y-56252270D01*
X161484612Y-56252261D01*
X161423587Y-56011282D01*
X161323731Y-55783630D01*
X161223434Y-55630116D01*
X160523787Y-56329764D01*
X160512518Y-56287708D01*
X160440110Y-56162292D01*
X160337708Y-56059890D01*
X160212292Y-55987482D01*
X160170235Y-55976212D01*
X160870057Y-55276390D01*
X160870056Y-55276389D01*
X160823229Y-55239943D01*
X160604614Y-55121635D01*
X160604603Y-55121630D01*
X160369493Y-55040916D01*
X160124293Y-55000000D01*
X159875707Y-55000000D01*
X159630506Y-55040916D01*
X159395396Y-55121630D01*
X159395390Y-55121632D01*
X159176761Y-55239949D01*
X159129942Y-55276388D01*
X159129942Y-55276390D01*
X159829765Y-55976212D01*
X159787708Y-55987482D01*
X159662292Y-56059890D01*
X159559890Y-56162292D01*
X159487482Y-56287708D01*
X159476212Y-56329764D01*
X158776564Y-55630116D01*
X158676267Y-55783632D01*
X158576412Y-56011282D01*
X158515387Y-56252261D01*
X158515385Y-56252270D01*
X158494859Y-56499994D01*
X152450500Y-56499994D01*
X152450500Y-55405513D01*
X152420940Y-55218881D01*
X152362545Y-55039163D01*
X152276759Y-54870800D01*
X152252021Y-54836751D01*
X152165690Y-54717927D01*
X152032073Y-54584310D01*
X151879199Y-54473240D01*
X151879198Y-54473239D01*
X151879196Y-54473238D01*
X151837760Y-54452125D01*
X151806375Y-54429322D01*
X150281825Y-52904772D01*
X150281816Y-52904762D01*
X150227554Y-52850500D01*
X150149433Y-52772379D01*
X150149429Y-52772376D01*
X150149425Y-52772372D01*
X150002929Y-52665938D01*
X150002928Y-52665937D01*
X150002926Y-52665936D01*
X149951232Y-52639596D01*
X149841571Y-52583720D01*
X149841568Y-52583719D01*
X149669342Y-52527761D01*
X149579909Y-52513596D01*
X149490478Y-52499431D01*
X149309386Y-52499431D01*
X149304275Y-52499431D01*
X149304251Y-52499432D01*
X139689622Y-52499432D01*
X139622583Y-52479747D01*
X139605284Y-52466333D01*
X139444017Y-52316700D01*
X139233434Y-52173127D01*
X139233430Y-52173125D01*
X139233427Y-52173123D01*
X139233426Y-52173122D01*
X139003806Y-52062544D01*
X139003808Y-52062544D01*
X138760266Y-51987421D01*
X138760262Y-51987420D01*
X138760258Y-51987419D01*
X138639031Y-51969146D01*
X138508240Y-51949432D01*
X138508235Y-51949432D01*
X138253365Y-51949432D01*
X138253359Y-51949432D01*
X138096409Y-51973089D01*
X138001342Y-51987419D01*
X138001339Y-51987420D01*
X138001333Y-51987421D01*
X137757792Y-52062544D01*
X137528173Y-52173122D01*
X137528172Y-52173123D01*
X137317582Y-52316700D01*
X137130752Y-52490053D01*
X137130750Y-52490055D01*
X136971841Y-52689320D01*
X136844408Y-52910041D01*
X136751292Y-53147294D01*
X136751290Y-53147301D01*
X136694577Y-53395777D01*
X136675532Y-53649927D01*
X136675532Y-53649936D01*
X136694577Y-53904086D01*
X136694578Y-53904089D01*
X136751292Y-54152569D01*
X136844407Y-54389820D01*
X136971841Y-54610544D01*
X137130750Y-54809809D01*
X137317583Y-54983164D01*
X137528166Y-55126737D01*
X137528171Y-55126739D01*
X137528172Y-55126740D01*
X137528173Y-55126741D01*
X137650128Y-55185470D01*
X137757792Y-55237319D01*
X137757793Y-55237319D01*
X137757796Y-55237321D01*
X138001342Y-55312445D01*
X138253365Y-55350432D01*
X138508235Y-55350432D01*
X138760258Y-55312445D01*
X139003804Y-55237321D01*
X139233434Y-55126737D01*
X139444017Y-54983164D01*
X139605282Y-54833532D01*
X139667813Y-54802365D01*
X139689622Y-54800432D01*
X148872017Y-54800432D01*
X148939056Y-54820117D01*
X148959698Y-54836751D01*
X150013181Y-55890234D01*
X150046666Y-55951557D01*
X150049500Y-55977915D01*
X150049500Y-90344486D01*
X150079059Y-90531118D01*
X150137454Y-90710836D01*
X150212874Y-90858855D01*
X150223240Y-90879199D01*
X150334310Y-91032073D01*
X150467927Y-91165690D01*
X150620801Y-91276760D01*
X150700347Y-91317290D01*
X150789163Y-91362545D01*
X150789165Y-91362545D01*
X150789168Y-91362547D01*
X150885497Y-91393846D01*
X150968881Y-91420940D01*
X151155514Y-91450500D01*
X151155519Y-91450500D01*
X157201374Y-91450500D01*
X157268413Y-91470185D01*
X157289055Y-91486819D01*
X158531981Y-92729745D01*
X158565466Y-92791068D01*
X158568300Y-92817426D01*
X158568300Y-94162557D01*
X158548615Y-94229596D01*
X158495811Y-94275351D01*
X158426653Y-94285295D01*
X158369990Y-94261824D01*
X158233013Y-94159285D01*
X158233005Y-94159280D01*
X158000694Y-94032428D01*
X158000690Y-94032426D01*
X157752673Y-93939921D01*
X157494034Y-93883658D01*
X157494027Y-93883657D01*
X157230001Y-93864773D01*
X157229999Y-93864773D01*
X156965972Y-93883657D01*
X156965965Y-93883658D01*
X156707326Y-93939921D01*
X156459309Y-94032426D01*
X156459305Y-94032428D01*
X156226994Y-94159280D01*
X156226986Y-94159285D01*
X156015092Y-94317906D01*
X156015074Y-94317922D01*
X155827922Y-94505074D01*
X155827906Y-94505092D01*
X155669285Y-94716986D01*
X155669280Y-94716994D01*
X155542428Y-94949305D01*
X155542426Y-94949309D01*
X155449921Y-95197326D01*
X155393658Y-95455965D01*
X155393657Y-95455972D01*
X155374773Y-95719998D01*
X155374773Y-95720001D01*
X155393657Y-95984027D01*
X155393658Y-95984034D01*
X155449921Y-96242673D01*
X155542426Y-96490690D01*
X155542431Y-96490701D01*
X155545421Y-96496176D01*
X155560273Y-96564449D01*
X155535856Y-96629913D01*
X155479922Y-96671784D01*
X155410230Y-96676768D01*
X155382792Y-96667324D01*
X155373008Y-96662612D01*
X155129466Y-96587489D01*
X155129462Y-96587488D01*
X155129458Y-96587487D01*
X155008231Y-96569214D01*
X154877440Y-96549500D01*
X154877435Y-96549500D01*
X154622565Y-96549500D01*
X154622559Y-96549500D01*
X154465609Y-96573157D01*
X154370542Y-96587487D01*
X154370539Y-96587488D01*
X154370533Y-96587489D01*
X154126992Y-96662612D01*
X153897373Y-96773190D01*
X153897372Y-96773191D01*
X153686782Y-96916768D01*
X153499952Y-97090121D01*
X153499950Y-97090123D01*
X153341041Y-97289388D01*
X153213608Y-97510109D01*
X153120492Y-97747362D01*
X153120490Y-97747369D01*
X153063777Y-97995845D01*
X153044732Y-98249995D01*
X153044732Y-98250004D01*
X153063777Y-98504154D01*
X153117314Y-98738717D01*
X153120492Y-98752637D01*
X153213607Y-98989888D01*
X153341041Y-99210612D01*
X153499950Y-99409877D01*
X153686783Y-99583232D01*
X153897366Y-99726805D01*
X153897371Y-99726807D01*
X153897372Y-99726808D01*
X153897373Y-99726809D01*
X154019328Y-99785538D01*
X154126992Y-99837387D01*
X154126993Y-99837387D01*
X154126996Y-99837389D01*
X154370542Y-99912513D01*
X154622565Y-99950500D01*
X154877435Y-99950500D01*
X155129458Y-99912513D01*
X155373004Y-99837389D01*
X155602634Y-99726805D01*
X155813217Y-99583232D01*
X156000050Y-99409877D01*
X156158959Y-99210612D01*
X156286393Y-98989888D01*
X156379508Y-98752637D01*
X156436222Y-98504157D01*
X156455268Y-98250000D01*
X156436222Y-97995843D01*
X156379508Y-97747363D01*
X156311066Y-97572979D01*
X156304898Y-97503384D01*
X156337335Y-97441500D01*
X156398080Y-97406978D01*
X156467847Y-97410776D01*
X156469762Y-97411472D01*
X156707322Y-97500077D01*
X156965974Y-97556343D01*
X157198598Y-97572981D01*
X157229999Y-97575227D01*
X157230000Y-97575227D01*
X157230001Y-97575227D01*
X157261402Y-97572981D01*
X157494026Y-97556343D01*
X157752678Y-97500077D01*
X158000689Y-97407574D01*
X158233011Y-97280716D01*
X158369990Y-97178174D01*
X158435454Y-97153758D01*
X158503727Y-97168610D01*
X158553132Y-97218015D01*
X158568300Y-97277442D01*
X158568300Y-109271306D01*
X158548615Y-109338345D01*
X158531981Y-109358987D01*
X153527787Y-114363181D01*
X153466464Y-114396666D01*
X153440106Y-114399500D01*
X131305918Y-114399500D01*
X131119290Y-114429059D01*
X130939570Y-114487454D01*
X130771205Y-114573240D01*
X130618328Y-114684312D01*
X126236706Y-119065934D01*
X126234378Y-119068660D01*
X126175866Y-119106844D01*
X126105998Y-119107332D01*
X126046957Y-119069970D01*
X126017489Y-119006619D01*
X126016100Y-118988114D01*
X126016100Y-118733025D01*
X126035785Y-118665986D01*
X126052419Y-118645344D01*
X130960944Y-113736819D01*
X131022267Y-113703334D01*
X131048625Y-113700500D01*
X135618486Y-113700500D01*
X135805118Y-113670940D01*
X135984832Y-113612547D01*
X136153199Y-113526760D01*
X136306074Y-113415690D01*
X137852719Y-111869043D01*
X137914038Y-111835561D01*
X137983729Y-111840545D01*
X138039663Y-111882416D01*
X138060602Y-111926286D01*
X138076411Y-111988717D01*
X138176266Y-112216364D01*
X138276564Y-112369882D01*
X138976212Y-111670233D01*
X138987482Y-111712292D01*
X139059890Y-111837708D01*
X139162292Y-111940110D01*
X139287708Y-112012518D01*
X139329765Y-112023787D01*
X138629942Y-112723609D01*
X138676768Y-112760055D01*
X138676770Y-112760056D01*
X138895385Y-112878364D01*
X138895396Y-112878369D01*
X139130506Y-112959083D01*
X139375707Y-113000000D01*
X139624293Y-113000000D01*
X139869493Y-112959083D01*
X140104603Y-112878369D01*
X140104614Y-112878364D01*
X140323228Y-112760057D01*
X140323231Y-112760055D01*
X140370056Y-112723609D01*
X139670234Y-112023787D01*
X139712292Y-112012518D01*
X139837708Y-111940110D01*
X139940110Y-111837708D01*
X140012518Y-111712292D01*
X140023787Y-111670234D01*
X140723434Y-112369882D01*
X140823731Y-112216369D01*
X140923587Y-111988717D01*
X140984612Y-111747738D01*
X140984614Y-111747729D01*
X141005141Y-111500005D01*
X141005141Y-111499994D01*
X144494859Y-111499994D01*
X144494859Y-111500005D01*
X144515385Y-111747729D01*
X144515387Y-111747738D01*
X144576412Y-111988717D01*
X144676266Y-112216364D01*
X144776564Y-112369882D01*
X145476212Y-111670234D01*
X145487482Y-111712292D01*
X145559890Y-111837708D01*
X145662292Y-111940110D01*
X145787708Y-112012518D01*
X145829765Y-112023787D01*
X145129942Y-112723609D01*
X145176768Y-112760055D01*
X145176770Y-112760056D01*
X145395385Y-112878364D01*
X145395396Y-112878369D01*
X145630506Y-112959083D01*
X145875707Y-113000000D01*
X146124293Y-113000000D01*
X146369493Y-112959083D01*
X146604603Y-112878369D01*
X146604614Y-112878364D01*
X146823228Y-112760057D01*
X146823231Y-112760055D01*
X146870056Y-112723609D01*
X146170234Y-112023787D01*
X146212292Y-112012518D01*
X146337708Y-111940110D01*
X146440110Y-111837708D01*
X146512518Y-111712292D01*
X146523787Y-111670234D01*
X147223434Y-112369882D01*
X147323731Y-112216369D01*
X147423587Y-111988717D01*
X147484612Y-111747738D01*
X147484614Y-111747729D01*
X147505141Y-111500005D01*
X147505141Y-111499994D01*
X147484614Y-111252270D01*
X147484612Y-111252261D01*
X147423587Y-111011282D01*
X147323731Y-110783630D01*
X147223434Y-110630116D01*
X146523787Y-111329764D01*
X146512518Y-111287708D01*
X146440110Y-111162292D01*
X146337708Y-111059890D01*
X146212292Y-110987482D01*
X146170235Y-110976212D01*
X146870057Y-110276390D01*
X146870056Y-110276389D01*
X146823229Y-110239943D01*
X146604614Y-110121635D01*
X146604603Y-110121630D01*
X146369493Y-110040916D01*
X146124293Y-110000000D01*
X145875707Y-110000000D01*
X145630506Y-110040916D01*
X145395396Y-110121630D01*
X145395390Y-110121632D01*
X145176761Y-110239949D01*
X145129942Y-110276388D01*
X145129942Y-110276390D01*
X145829765Y-110976212D01*
X145787708Y-110987482D01*
X145662292Y-111059890D01*
X145559890Y-111162292D01*
X145487482Y-111287708D01*
X145476212Y-111329764D01*
X144776564Y-110630116D01*
X144676267Y-110783632D01*
X144576412Y-111011282D01*
X144515387Y-111252261D01*
X144515385Y-111252270D01*
X144494859Y-111499994D01*
X141005141Y-111499994D01*
X140984614Y-111252270D01*
X140984612Y-111252261D01*
X140923587Y-111011282D01*
X140823731Y-110783630D01*
X140723434Y-110630116D01*
X140023787Y-111329764D01*
X140012518Y-111287708D01*
X139940110Y-111162292D01*
X139837708Y-111059890D01*
X139712292Y-110987482D01*
X139670233Y-110976212D01*
X140370057Y-110276389D01*
X140323229Y-110239943D01*
X140104614Y-110121635D01*
X140104603Y-110121630D01*
X139869493Y-110040916D01*
X139624293Y-110000000D01*
X139375707Y-110000000D01*
X139130506Y-110040916D01*
X138895396Y-110121630D01*
X138895385Y-110121635D01*
X138676771Y-110239942D01*
X138676763Y-110239948D01*
X138650661Y-110260264D01*
X138585667Y-110285906D01*
X138517127Y-110272339D01*
X138466803Y-110223870D01*
X138450500Y-110162410D01*
X138450500Y-109798625D01*
X138470185Y-109731586D01*
X138486819Y-109710944D01*
X139460944Y-108736819D01*
X139522267Y-108703334D01*
X139548625Y-108700500D01*
X139627435Y-108700500D01*
X139879458Y-108662513D01*
X140123004Y-108587389D01*
X140352634Y-108476805D01*
X140563217Y-108333232D01*
X140750050Y-108159877D01*
X140908959Y-107960612D01*
X141036393Y-107739888D01*
X141129508Y-107502637D01*
X141186222Y-107254157D01*
X141205268Y-107000000D01*
X141205268Y-106999995D01*
X144294732Y-106999995D01*
X144294732Y-107000004D01*
X144313777Y-107254154D01*
X144313778Y-107254157D01*
X144370492Y-107502637D01*
X144463607Y-107739888D01*
X144591041Y-107960612D01*
X144749950Y-108159877D01*
X144936783Y-108333232D01*
X145147366Y-108476805D01*
X145147371Y-108476807D01*
X145147372Y-108476808D01*
X145147373Y-108476809D01*
X145269328Y-108535538D01*
X145376992Y-108587387D01*
X145376993Y-108587387D01*
X145376996Y-108587389D01*
X145620542Y-108662513D01*
X145872565Y-108700500D01*
X146127435Y-108700500D01*
X146379458Y-108662513D01*
X146623004Y-108587389D01*
X146852634Y-108476805D01*
X147063217Y-108333232D01*
X147250050Y-108159877D01*
X147408959Y-107960612D01*
X147536393Y-107739888D01*
X147629508Y-107502637D01*
X147686222Y-107254157D01*
X147705268Y-107000000D01*
X147686222Y-106745843D01*
X147629508Y-106497363D01*
X147536393Y-106260112D01*
X147408959Y-106039388D01*
X147250050Y-105840123D01*
X147063217Y-105666768D01*
X146852634Y-105523195D01*
X146852630Y-105523193D01*
X146852627Y-105523191D01*
X146852626Y-105523190D01*
X146623006Y-105412612D01*
X146623008Y-105412612D01*
X146379466Y-105337489D01*
X146379462Y-105337488D01*
X146379458Y-105337487D01*
X146258231Y-105319214D01*
X146127440Y-105299500D01*
X146127435Y-105299500D01*
X145872565Y-105299500D01*
X145872559Y-105299500D01*
X145715609Y-105323157D01*
X145620542Y-105337487D01*
X145620539Y-105337488D01*
X145620533Y-105337489D01*
X145376992Y-105412612D01*
X145147373Y-105523190D01*
X145147372Y-105523191D01*
X144936782Y-105666768D01*
X144749952Y-105840121D01*
X144749950Y-105840123D01*
X144591041Y-106039388D01*
X144463608Y-106260109D01*
X144370492Y-106497362D01*
X144370490Y-106497369D01*
X144313777Y-106745845D01*
X144294732Y-106999995D01*
X141205268Y-106999995D01*
X141186222Y-106745843D01*
X141129508Y-106497363D01*
X141036393Y-106260112D01*
X140908959Y-106039388D01*
X140750050Y-105840123D01*
X140563217Y-105666768D01*
X140352634Y-105523195D01*
X140352630Y-105523193D01*
X140352627Y-105523191D01*
X140352626Y-105523190D01*
X140123006Y-105412612D01*
X140123008Y-105412612D01*
X139879461Y-105337487D01*
X139879046Y-105337393D01*
X139878912Y-105337318D01*
X139875024Y-105336119D01*
X139875280Y-105335287D01*
X139818064Y-105303291D01*
X139785199Y-105241633D01*
X139790886Y-105171995D01*
X139818942Y-105128820D01*
X142197768Y-102749994D01*
X146744859Y-102749994D01*
X146744859Y-102750005D01*
X146765385Y-102997729D01*
X146765387Y-102997738D01*
X146826412Y-103238717D01*
X146926266Y-103466364D01*
X147026564Y-103619882D01*
X147726212Y-102920234D01*
X147737482Y-102962292D01*
X147809890Y-103087708D01*
X147912292Y-103190110D01*
X148037708Y-103262518D01*
X148079765Y-103273787D01*
X147379942Y-103973609D01*
X147426768Y-104010055D01*
X147426770Y-104010056D01*
X147645385Y-104128364D01*
X147645396Y-104128369D01*
X147880506Y-104209083D01*
X148125707Y-104250000D01*
X148374293Y-104250000D01*
X148619493Y-104209083D01*
X148854603Y-104128369D01*
X148854614Y-104128364D01*
X149073228Y-104010057D01*
X149073231Y-104010055D01*
X149120056Y-103973609D01*
X148420234Y-103273787D01*
X148462292Y-103262518D01*
X148587708Y-103190110D01*
X148690110Y-103087708D01*
X148762518Y-102962292D01*
X148773787Y-102920235D01*
X149473434Y-103619882D01*
X149573731Y-103466369D01*
X149673587Y-103238717D01*
X149734612Y-102997738D01*
X149734614Y-102997729D01*
X149755141Y-102750005D01*
X149755141Y-102749994D01*
X153244859Y-102749994D01*
X153244859Y-102750005D01*
X153265385Y-102997729D01*
X153265387Y-102997738D01*
X153326412Y-103238717D01*
X153426266Y-103466364D01*
X153526564Y-103619882D01*
X154226212Y-102920234D01*
X154237482Y-102962292D01*
X154309890Y-103087708D01*
X154412292Y-103190110D01*
X154537708Y-103262518D01*
X154579765Y-103273787D01*
X153879942Y-103973609D01*
X153926768Y-104010055D01*
X153926770Y-104010056D01*
X154145385Y-104128364D01*
X154145396Y-104128369D01*
X154380506Y-104209083D01*
X154625707Y-104250000D01*
X154874293Y-104250000D01*
X155119493Y-104209083D01*
X155354603Y-104128369D01*
X155354614Y-104128364D01*
X155573228Y-104010057D01*
X155573231Y-104010055D01*
X155620056Y-103973609D01*
X154920234Y-103273787D01*
X154962292Y-103262518D01*
X155087708Y-103190110D01*
X155190110Y-103087708D01*
X155262518Y-102962292D01*
X155273787Y-102920235D01*
X155973434Y-103619882D01*
X156073731Y-103466369D01*
X156173587Y-103238717D01*
X156234612Y-102997738D01*
X156234614Y-102997729D01*
X156255141Y-102750005D01*
X156255141Y-102749994D01*
X156234614Y-102502270D01*
X156234612Y-102502261D01*
X156173587Y-102261282D01*
X156073731Y-102033630D01*
X155973434Y-101880116D01*
X155273787Y-102579764D01*
X155262518Y-102537708D01*
X155190110Y-102412292D01*
X155087708Y-102309890D01*
X154962292Y-102237482D01*
X154920235Y-102226212D01*
X155620057Y-101526390D01*
X155620056Y-101526389D01*
X155573229Y-101489943D01*
X155354614Y-101371635D01*
X155354603Y-101371630D01*
X155119493Y-101290916D01*
X154874293Y-101250000D01*
X154625707Y-101250000D01*
X154380506Y-101290916D01*
X154145396Y-101371630D01*
X154145390Y-101371632D01*
X153926761Y-101489949D01*
X153879942Y-101526388D01*
X153879942Y-101526390D01*
X154579765Y-102226212D01*
X154537708Y-102237482D01*
X154412292Y-102309890D01*
X154309890Y-102412292D01*
X154237482Y-102537708D01*
X154226212Y-102579764D01*
X153526564Y-101880116D01*
X153426267Y-102033632D01*
X153326412Y-102261282D01*
X153265387Y-102502261D01*
X153265385Y-102502270D01*
X153244859Y-102749994D01*
X149755141Y-102749994D01*
X149734614Y-102502270D01*
X149734612Y-102502261D01*
X149673587Y-102261282D01*
X149573731Y-102033630D01*
X149473434Y-101880116D01*
X148773787Y-102579764D01*
X148762518Y-102537708D01*
X148690110Y-102412292D01*
X148587708Y-102309890D01*
X148462292Y-102237482D01*
X148420235Y-102226212D01*
X149120057Y-101526390D01*
X149120056Y-101526389D01*
X149073229Y-101489943D01*
X148854614Y-101371635D01*
X148854603Y-101371630D01*
X148619493Y-101290916D01*
X148374293Y-101250000D01*
X148125707Y-101250000D01*
X147880506Y-101290916D01*
X147645396Y-101371630D01*
X147645390Y-101371632D01*
X147426761Y-101489949D01*
X147379942Y-101526388D01*
X147379942Y-101526390D01*
X148079765Y-102226212D01*
X148037708Y-102237482D01*
X147912292Y-102309890D01*
X147809890Y-102412292D01*
X147737482Y-102537708D01*
X147726212Y-102579764D01*
X147026564Y-101880116D01*
X146926267Y-102033632D01*
X146826412Y-102261282D01*
X146765387Y-102502261D01*
X146765385Y-102502270D01*
X146744859Y-102749994D01*
X142197768Y-102749994D01*
X145460944Y-99486819D01*
X145522267Y-99453334D01*
X145548625Y-99450500D01*
X146995065Y-99450500D01*
X147062104Y-99470185D01*
X147079403Y-99483599D01*
X147186783Y-99583232D01*
X147397366Y-99726805D01*
X147397371Y-99726807D01*
X147397372Y-99726808D01*
X147397373Y-99726809D01*
X147519328Y-99785538D01*
X147626992Y-99837387D01*
X147626993Y-99837387D01*
X147626996Y-99837389D01*
X147870542Y-99912513D01*
X148122565Y-99950500D01*
X148377435Y-99950500D01*
X148629458Y-99912513D01*
X148873004Y-99837389D01*
X149102634Y-99726805D01*
X149313217Y-99583232D01*
X149500050Y-99409877D01*
X149658959Y-99210612D01*
X149786393Y-98989888D01*
X149879508Y-98752637D01*
X149936222Y-98504157D01*
X149955268Y-98250000D01*
X149936222Y-97995843D01*
X149879508Y-97747363D01*
X149786393Y-97510112D01*
X149658959Y-97289388D01*
X149500050Y-97090123D01*
X149313217Y-96916768D01*
X149102634Y-96773195D01*
X149102630Y-96773193D01*
X149102627Y-96773191D01*
X149102626Y-96773190D01*
X148873006Y-96662612D01*
X148873008Y-96662612D01*
X148629466Y-96587489D01*
X148629462Y-96587488D01*
X148629458Y-96587487D01*
X148508231Y-96569214D01*
X148377440Y-96549500D01*
X148377435Y-96549500D01*
X148122565Y-96549500D01*
X148122559Y-96549500D01*
X147965609Y-96573157D01*
X147870542Y-96587487D01*
X147870539Y-96587488D01*
X147870533Y-96587489D01*
X147626992Y-96662612D01*
X147397373Y-96773190D01*
X147397372Y-96773191D01*
X147186782Y-96916768D01*
X147079406Y-97016399D01*
X147016874Y-97047567D01*
X146995065Y-97049500D01*
X144905514Y-97049500D01*
X144718881Y-97079059D01*
X144539163Y-97137454D01*
X144370800Y-97223240D01*
X144296199Y-97277442D01*
X144217927Y-97334310D01*
X144217925Y-97334312D01*
X144217924Y-97334312D01*
X138903163Y-102649072D01*
X138841840Y-102682557D01*
X138772148Y-102677573D01*
X138716215Y-102635701D01*
X138691829Y-102570657D01*
X138686222Y-102495844D01*
X138629509Y-102247369D01*
X138629508Y-102247363D01*
X138536393Y-102010112D01*
X138408959Y-101789388D01*
X138250050Y-101590123D01*
X138063217Y-101416768D01*
X137852634Y-101273195D01*
X137852630Y-101273193D01*
X137852627Y-101273191D01*
X137852626Y-101273190D01*
X137623006Y-101162612D01*
X137623008Y-101162612D01*
X137379466Y-101087489D01*
X137379462Y-101087488D01*
X137379458Y-101087487D01*
X137258231Y-101069214D01*
X137127440Y-101049500D01*
X137127435Y-101049500D01*
X136872565Y-101049500D01*
X136872559Y-101049500D01*
X136715609Y-101073157D01*
X136620542Y-101087487D01*
X136620539Y-101087488D01*
X136620533Y-101087489D01*
X136376992Y-101162612D01*
X136147373Y-101273190D01*
X136147372Y-101273191D01*
X135936782Y-101416768D01*
X135749952Y-101590121D01*
X135749950Y-101590123D01*
X135591041Y-101789388D01*
X135463608Y-102010109D01*
X135370492Y-102247362D01*
X135370490Y-102247369D01*
X135313777Y-102495845D01*
X135294732Y-102749995D01*
X135294732Y-102750004D01*
X135313777Y-103004154D01*
X135367314Y-103238717D01*
X135370492Y-103252637D01*
X135463607Y-103489888D01*
X135591041Y-103710612D01*
X135749950Y-103909877D01*
X135936783Y-104083232D01*
X136147366Y-104226805D01*
X136147371Y-104226807D01*
X136147372Y-104226808D01*
X136147373Y-104226809D01*
X136269328Y-104285538D01*
X136376992Y-104337387D01*
X136376993Y-104337387D01*
X136376996Y-104337389D01*
X136620542Y-104412513D01*
X136828832Y-104443908D01*
X136892189Y-104473365D01*
X136929562Y-104532399D01*
X136929087Y-104602267D01*
X136898031Y-104654204D01*
X135929055Y-105623181D01*
X135867732Y-105656666D01*
X135841374Y-105659500D01*
X131179351Y-105659500D01*
X130992718Y-105689059D01*
X130813000Y-105747454D01*
X130644637Y-105833240D01*
X130635164Y-105840123D01*
X130491764Y-105944310D01*
X130491762Y-105944312D01*
X130491761Y-105944312D01*
X122820581Y-113615492D01*
X122759258Y-113648977D01*
X122689566Y-113643993D01*
X122633633Y-113602121D01*
X122609216Y-113536657D01*
X122608900Y-113527811D01*
X122608900Y-108251495D01*
X122628585Y-108184456D01*
X122645219Y-108163814D01*
X126822214Y-103986819D01*
X126883537Y-103953334D01*
X126909895Y-103950500D01*
X129245065Y-103950500D01*
X129312104Y-103970185D01*
X129329403Y-103983599D01*
X129436783Y-104083232D01*
X129647366Y-104226805D01*
X129647371Y-104226807D01*
X129647372Y-104226808D01*
X129647373Y-104226809D01*
X129769328Y-104285538D01*
X129876992Y-104337387D01*
X129876993Y-104337387D01*
X129876996Y-104337389D01*
X130120542Y-104412513D01*
X130372565Y-104450500D01*
X130627435Y-104450500D01*
X130879458Y-104412513D01*
X131123004Y-104337389D01*
X131352634Y-104226805D01*
X131563217Y-104083232D01*
X131750050Y-103909877D01*
X131908959Y-103710612D01*
X132036393Y-103489888D01*
X132129508Y-103252637D01*
X132186222Y-103004157D01*
X132205268Y-102750000D01*
X132199840Y-102677573D01*
X132189359Y-102537708D01*
X132186222Y-102495843D01*
X132129508Y-102247363D01*
X132036393Y-102010112D01*
X131908959Y-101789388D01*
X131750050Y-101590123D01*
X131563217Y-101416768D01*
X131352634Y-101273195D01*
X131352630Y-101273193D01*
X131352627Y-101273191D01*
X131352626Y-101273190D01*
X131123006Y-101162612D01*
X131123008Y-101162612D01*
X130879466Y-101087489D01*
X130879462Y-101087488D01*
X130879458Y-101087487D01*
X130758231Y-101069214D01*
X130627440Y-101049500D01*
X130627435Y-101049500D01*
X130372565Y-101049500D01*
X130372559Y-101049500D01*
X130215609Y-101073157D01*
X130120542Y-101087487D01*
X130120539Y-101087488D01*
X130120533Y-101087489D01*
X129876992Y-101162612D01*
X129647373Y-101273190D01*
X129647372Y-101273191D01*
X129436782Y-101416768D01*
X129329406Y-101516399D01*
X129266874Y-101547567D01*
X129245065Y-101549500D01*
X126266784Y-101549500D01*
X126080151Y-101579059D01*
X125900433Y-101637454D01*
X125732070Y-101723240D01*
X125644849Y-101786610D01*
X125579197Y-101834310D01*
X125579195Y-101834312D01*
X125579194Y-101834312D01*
X121120581Y-106292925D01*
X121059258Y-106326410D01*
X120989566Y-106321426D01*
X120933633Y-106279554D01*
X120909216Y-106214090D01*
X120908900Y-106205244D01*
X120908900Y-105884224D01*
X120928585Y-105817185D01*
X120945214Y-105796548D01*
X128801125Y-97940637D01*
X128862444Y-97907155D01*
X128932136Y-97912139D01*
X128988069Y-97954011D01*
X129012486Y-98019475D01*
X129012379Y-98038560D01*
X128994859Y-98250004D01*
X128994859Y-98250005D01*
X129015385Y-98497729D01*
X129015387Y-98497738D01*
X129076412Y-98738717D01*
X129176266Y-98966364D01*
X129276564Y-99119882D01*
X129976212Y-98420233D01*
X129987482Y-98462292D01*
X130059890Y-98587708D01*
X130162292Y-98690110D01*
X130287708Y-98762518D01*
X130329765Y-98773787D01*
X129629942Y-99473609D01*
X129676768Y-99510055D01*
X129676770Y-99510056D01*
X129895385Y-99628364D01*
X129895396Y-99628369D01*
X130130506Y-99709083D01*
X130375707Y-99750000D01*
X130624293Y-99750000D01*
X130869493Y-99709083D01*
X131104603Y-99628369D01*
X131104614Y-99628364D01*
X131323228Y-99510057D01*
X131323231Y-99510055D01*
X131370056Y-99473609D01*
X130670234Y-98773787D01*
X130712292Y-98762518D01*
X130837708Y-98690110D01*
X130940110Y-98587708D01*
X131012518Y-98462292D01*
X131023787Y-98420234D01*
X131723434Y-99119882D01*
X131823731Y-98966369D01*
X131923587Y-98738717D01*
X131984612Y-98497738D01*
X131984614Y-98497729D01*
X132005141Y-98250005D01*
X132005141Y-98249994D01*
X135494859Y-98249994D01*
X135494859Y-98250005D01*
X135515385Y-98497729D01*
X135515387Y-98497738D01*
X135576412Y-98738717D01*
X135676266Y-98966364D01*
X135776564Y-99119882D01*
X136476212Y-98420234D01*
X136487482Y-98462292D01*
X136559890Y-98587708D01*
X136662292Y-98690110D01*
X136787708Y-98762518D01*
X136829765Y-98773787D01*
X136129942Y-99473609D01*
X136176768Y-99510055D01*
X136176770Y-99510056D01*
X136395385Y-99628364D01*
X136395396Y-99628369D01*
X136630506Y-99709083D01*
X136875707Y-99750000D01*
X137124293Y-99750000D01*
X137369493Y-99709083D01*
X137604603Y-99628369D01*
X137604614Y-99628364D01*
X137823228Y-99510057D01*
X137823231Y-99510055D01*
X137870056Y-99473609D01*
X137170234Y-98773787D01*
X137212292Y-98762518D01*
X137337708Y-98690110D01*
X137440110Y-98587708D01*
X137512518Y-98462292D01*
X137523787Y-98420235D01*
X138223434Y-99119882D01*
X138323731Y-98966369D01*
X138423587Y-98738717D01*
X138484612Y-98497738D01*
X138484614Y-98497729D01*
X138505141Y-98250005D01*
X138505141Y-98249994D01*
X138484614Y-98002270D01*
X138484612Y-98002261D01*
X138423587Y-97761282D01*
X138323731Y-97533630D01*
X138223434Y-97380116D01*
X137523787Y-98079764D01*
X137512518Y-98037708D01*
X137440110Y-97912292D01*
X137337708Y-97809890D01*
X137212292Y-97737482D01*
X137170235Y-97726212D01*
X137870057Y-97026390D01*
X137870056Y-97026389D01*
X137823229Y-96989943D01*
X137604614Y-96871635D01*
X137604603Y-96871630D01*
X137369493Y-96790916D01*
X137124293Y-96750000D01*
X136875707Y-96750000D01*
X136630506Y-96790916D01*
X136395396Y-96871630D01*
X136395390Y-96871632D01*
X136176761Y-96989949D01*
X136129942Y-97026388D01*
X136129942Y-97026390D01*
X136829765Y-97726212D01*
X136787708Y-97737482D01*
X136662292Y-97809890D01*
X136559890Y-97912292D01*
X136487482Y-98037708D01*
X136476212Y-98079764D01*
X135776564Y-97380116D01*
X135676267Y-97533632D01*
X135576412Y-97761282D01*
X135515387Y-98002261D01*
X135515385Y-98002270D01*
X135494859Y-98249994D01*
X132005141Y-98249994D01*
X131984614Y-98002270D01*
X131984612Y-98002261D01*
X131923587Y-97761282D01*
X131823731Y-97533630D01*
X131723434Y-97380116D01*
X131023787Y-98079764D01*
X131012518Y-98037708D01*
X130940110Y-97912292D01*
X130837708Y-97809890D01*
X130712292Y-97737482D01*
X130670233Y-97726212D01*
X131370057Y-97026389D01*
X131323229Y-96989943D01*
X131104614Y-96871635D01*
X131104603Y-96871630D01*
X130869493Y-96790916D01*
X130624293Y-96750000D01*
X130375706Y-96750000D01*
X130296649Y-96763192D01*
X130227284Y-96754810D01*
X130173462Y-96710257D01*
X130152272Y-96643678D01*
X130170440Y-96576212D01*
X130188551Y-96553211D01*
X132991768Y-93749994D01*
X137994859Y-93749994D01*
X137994859Y-93750005D01*
X138015385Y-93997729D01*
X138015387Y-93997738D01*
X138076412Y-94238717D01*
X138176266Y-94466364D01*
X138276564Y-94619882D01*
X138976212Y-93920234D01*
X138987482Y-93962292D01*
X139059890Y-94087708D01*
X139162292Y-94190110D01*
X139287708Y-94262518D01*
X139329765Y-94273787D01*
X138629942Y-94973609D01*
X138676768Y-95010055D01*
X138676770Y-95010056D01*
X138895385Y-95128364D01*
X138895396Y-95128369D01*
X139130506Y-95209083D01*
X139375707Y-95250000D01*
X139624293Y-95250000D01*
X139869493Y-95209083D01*
X140104603Y-95128369D01*
X140104614Y-95128364D01*
X140323228Y-95010057D01*
X140323231Y-95010055D01*
X140370056Y-94973609D01*
X139670234Y-94273787D01*
X139712292Y-94262518D01*
X139837708Y-94190110D01*
X139940110Y-94087708D01*
X140012518Y-93962292D01*
X140023787Y-93920234D01*
X140723434Y-94619882D01*
X140823731Y-94466369D01*
X140923587Y-94238717D01*
X140984612Y-93997738D01*
X140984614Y-93997729D01*
X141005141Y-93750005D01*
X141005141Y-93749994D01*
X144494859Y-93749994D01*
X144494859Y-93750005D01*
X144515385Y-93997729D01*
X144515387Y-93997738D01*
X144576412Y-94238717D01*
X144676266Y-94466364D01*
X144776564Y-94619882D01*
X145476212Y-93920234D01*
X145487482Y-93962292D01*
X145559890Y-94087708D01*
X145662292Y-94190110D01*
X145787708Y-94262518D01*
X145829765Y-94273787D01*
X145129942Y-94973609D01*
X145176768Y-95010055D01*
X145176770Y-95010056D01*
X145395385Y-95128364D01*
X145395396Y-95128369D01*
X145630506Y-95209083D01*
X145875707Y-95250000D01*
X146124293Y-95250000D01*
X146369493Y-95209083D01*
X146604603Y-95128369D01*
X146604614Y-95128364D01*
X146823228Y-95010057D01*
X146823231Y-95010055D01*
X146870056Y-94973609D01*
X146170234Y-94273787D01*
X146212292Y-94262518D01*
X146337708Y-94190110D01*
X146440110Y-94087708D01*
X146512518Y-93962292D01*
X146523787Y-93920234D01*
X147223434Y-94619882D01*
X147323731Y-94466369D01*
X147423587Y-94238717D01*
X147484612Y-93997738D01*
X147484614Y-93997729D01*
X147505141Y-93750005D01*
X147505141Y-93749994D01*
X147484614Y-93502270D01*
X147484612Y-93502261D01*
X147423587Y-93261282D01*
X147323731Y-93033630D01*
X147223434Y-92880116D01*
X146523787Y-93579764D01*
X146512518Y-93537708D01*
X146440110Y-93412292D01*
X146337708Y-93309890D01*
X146212292Y-93237482D01*
X146170235Y-93226212D01*
X146870057Y-92526390D01*
X146870056Y-92526389D01*
X146823229Y-92489943D01*
X146604614Y-92371635D01*
X146604603Y-92371630D01*
X146369493Y-92290916D01*
X146124293Y-92250000D01*
X145875707Y-92250000D01*
X145630506Y-92290916D01*
X145395396Y-92371630D01*
X145395390Y-92371632D01*
X145176761Y-92489949D01*
X145129942Y-92526388D01*
X145129942Y-92526390D01*
X145829765Y-93226212D01*
X145787708Y-93237482D01*
X145662292Y-93309890D01*
X145559890Y-93412292D01*
X145487482Y-93537708D01*
X145476212Y-93579764D01*
X144776564Y-92880116D01*
X144676267Y-93033632D01*
X144576412Y-93261282D01*
X144515387Y-93502261D01*
X144515385Y-93502270D01*
X144494859Y-93749994D01*
X141005141Y-93749994D01*
X140984614Y-93502270D01*
X140984612Y-93502261D01*
X140923587Y-93261282D01*
X140823731Y-93033630D01*
X140723434Y-92880116D01*
X140023787Y-93579764D01*
X140012518Y-93537708D01*
X139940110Y-93412292D01*
X139837708Y-93309890D01*
X139712292Y-93237482D01*
X139670235Y-93226212D01*
X140370057Y-92526390D01*
X140370056Y-92526389D01*
X140323229Y-92489943D01*
X140104614Y-92371635D01*
X140104603Y-92371630D01*
X139869493Y-92290916D01*
X139624293Y-92250000D01*
X139375707Y-92250000D01*
X139130506Y-92290916D01*
X138895396Y-92371630D01*
X138895390Y-92371632D01*
X138676761Y-92489949D01*
X138629942Y-92526388D01*
X138629942Y-92526390D01*
X139329765Y-93226212D01*
X139287708Y-93237482D01*
X139162292Y-93309890D01*
X139059890Y-93412292D01*
X138987482Y-93537708D01*
X138976212Y-93579764D01*
X138276564Y-92880116D01*
X138176267Y-93033632D01*
X138076412Y-93261282D01*
X138015387Y-93502261D01*
X138015385Y-93502270D01*
X137994859Y-93749994D01*
X132991768Y-93749994D01*
X136254944Y-90486819D01*
X136316267Y-90453334D01*
X136342625Y-90450500D01*
X138245065Y-90450500D01*
X138312104Y-90470185D01*
X138329403Y-90483599D01*
X138436783Y-90583232D01*
X138647366Y-90726805D01*
X138647371Y-90726807D01*
X138647372Y-90726808D01*
X138647373Y-90726809D01*
X138739499Y-90771174D01*
X138876992Y-90837387D01*
X138876993Y-90837387D01*
X138876996Y-90837389D01*
X139120542Y-90912513D01*
X139372565Y-90950500D01*
X139627435Y-90950500D01*
X139879458Y-90912513D01*
X140123004Y-90837389D01*
X140352634Y-90726805D01*
X140563217Y-90583232D01*
X140750050Y-90409877D01*
X140908959Y-90210612D01*
X141036393Y-89989888D01*
X141129508Y-89752637D01*
X141186222Y-89504157D01*
X141205268Y-89250000D01*
X141205268Y-89249995D01*
X144294732Y-89249995D01*
X144294732Y-89250004D01*
X144313777Y-89504154D01*
X144313778Y-89504157D01*
X144370492Y-89752637D01*
X144463607Y-89989888D01*
X144591041Y-90210612D01*
X144749950Y-90409877D01*
X144936783Y-90583232D01*
X145147366Y-90726805D01*
X145147371Y-90726807D01*
X145147372Y-90726808D01*
X145147373Y-90726809D01*
X145239499Y-90771174D01*
X145376992Y-90837387D01*
X145376993Y-90837387D01*
X145376996Y-90837389D01*
X145620542Y-90912513D01*
X145872565Y-90950500D01*
X146127435Y-90950500D01*
X146379458Y-90912513D01*
X146623004Y-90837389D01*
X146852634Y-90726805D01*
X147063217Y-90583232D01*
X147250050Y-90409877D01*
X147408959Y-90210612D01*
X147536393Y-89989888D01*
X147629508Y-89752637D01*
X147686222Y-89504157D01*
X147705268Y-89250000D01*
X147686222Y-88995843D01*
X147629508Y-88747363D01*
X147536393Y-88510112D01*
X147408959Y-88289388D01*
X147250050Y-88090123D01*
X147063217Y-87916768D01*
X146852634Y-87773195D01*
X146852630Y-87773193D01*
X146852627Y-87773191D01*
X146852626Y-87773190D01*
X146623006Y-87662612D01*
X146623008Y-87662612D01*
X146379466Y-87587489D01*
X146379462Y-87587488D01*
X146379458Y-87587487D01*
X146258231Y-87569214D01*
X146127440Y-87549500D01*
X146127435Y-87549500D01*
X145872565Y-87549500D01*
X145872559Y-87549500D01*
X145715609Y-87573157D01*
X145620542Y-87587487D01*
X145620539Y-87587488D01*
X145620533Y-87587489D01*
X145376992Y-87662612D01*
X145147373Y-87773190D01*
X145147372Y-87773191D01*
X144936782Y-87916768D01*
X144749952Y-88090121D01*
X144749950Y-88090123D01*
X144591041Y-88289388D01*
X144463608Y-88510109D01*
X144370492Y-88747362D01*
X144370490Y-88747369D01*
X144313777Y-88995845D01*
X144294732Y-89249995D01*
X141205268Y-89249995D01*
X141186222Y-88995843D01*
X141129508Y-88747363D01*
X141036393Y-88510112D01*
X140908959Y-88289388D01*
X140750050Y-88090123D01*
X140563217Y-87916768D01*
X140352634Y-87773195D01*
X140352630Y-87773193D01*
X140352627Y-87773191D01*
X140352626Y-87773190D01*
X140123006Y-87662612D01*
X140123008Y-87662612D01*
X139879466Y-87587489D01*
X139879462Y-87587488D01*
X139879458Y-87587487D01*
X139758231Y-87569214D01*
X139627440Y-87549500D01*
X139627435Y-87549500D01*
X139372565Y-87549500D01*
X139372559Y-87549500D01*
X139215609Y-87573157D01*
X139120542Y-87587487D01*
X139120539Y-87587488D01*
X139120533Y-87587489D01*
X138876992Y-87662612D01*
X138647373Y-87773190D01*
X138647372Y-87773191D01*
X138436782Y-87916768D01*
X138329406Y-88016399D01*
X138266874Y-88047567D01*
X138245065Y-88049500D01*
X135699514Y-88049500D01*
X135512881Y-88079059D01*
X135333163Y-88137454D01*
X135164800Y-88223240D01*
X135077579Y-88286610D01*
X135011927Y-88334310D01*
X135011925Y-88334312D01*
X135011924Y-88334312D01*
X118792712Y-104553523D01*
X118681640Y-104706400D01*
X118595854Y-104874763D01*
X118537459Y-105054481D01*
X118507900Y-105241113D01*
X118507900Y-135837821D01*
X118537459Y-136024453D01*
X118595854Y-136204171D01*
X118678069Y-136365525D01*
X118681640Y-136372534D01*
X118792710Y-136525409D01*
X119922163Y-137654862D01*
X120075038Y-137765932D01*
X120243405Y-137851719D01*
X120423119Y-137910112D01*
X120491472Y-137920938D01*
X120609750Y-137939672D01*
X120609755Y-137939672D01*
X120609756Y-137939672D01*
X122940546Y-137939672D01*
X123007585Y-137959357D01*
X123028227Y-137975991D01*
X125694792Y-140642556D01*
X125728277Y-140703879D01*
X125727317Y-140760677D01*
X125667292Y-140997707D01*
X125667290Y-140997719D01*
X125646757Y-141245526D01*
X125646757Y-141245537D01*
X125667290Y-141493344D01*
X125667292Y-141493356D01*
X125728336Y-141734413D01*
X125828226Y-141962138D01*
X125964233Y-142170314D01*
X125964235Y-142170316D01*
X125964236Y-142170317D01*
X126132656Y-142353270D01*
X126328891Y-142506006D01*
X126547590Y-142624360D01*
X126782786Y-142705103D01*
X127028065Y-142746032D01*
X127276735Y-142746032D01*
X127522014Y-142705103D01*
X127757210Y-142624360D01*
X127975909Y-142506006D01*
X128172144Y-142353270D01*
X128331171Y-142180520D01*
X128391057Y-142144531D01*
X128460895Y-142146631D01*
X128513628Y-142180520D01*
X128672656Y-142353270D01*
X128868891Y-142506006D01*
X129087590Y-142624360D01*
X129322786Y-142705103D01*
X129568065Y-142746032D01*
X129816735Y-142746032D01*
X130062014Y-142705103D01*
X130297210Y-142624360D01*
X130515909Y-142506006D01*
X130712144Y-142353270D01*
X130871171Y-142180520D01*
X130931057Y-142144531D01*
X131000895Y-142146631D01*
X131053628Y-142180520D01*
X131212656Y-142353270D01*
X131408891Y-142506006D01*
X131627590Y-142624360D01*
X131862786Y-142705103D01*
X132108065Y-142746032D01*
X132356735Y-142746032D01*
X132602014Y-142705103D01*
X132837210Y-142624360D01*
X133055909Y-142506006D01*
X133252144Y-142353270D01*
X133411171Y-142180520D01*
X133471057Y-142144531D01*
X133540895Y-142146631D01*
X133593628Y-142180520D01*
X133752656Y-142353270D01*
X133948891Y-142506006D01*
X134167590Y-142624360D01*
X134402786Y-142705103D01*
X134648065Y-142746032D01*
X134896735Y-142746032D01*
X135142014Y-142705103D01*
X135377210Y-142624360D01*
X135595909Y-142506006D01*
X135792144Y-142353270D01*
X135951171Y-142180520D01*
X136011057Y-142144531D01*
X136080895Y-142146631D01*
X136133628Y-142180520D01*
X136292656Y-142353270D01*
X136488891Y-142506006D01*
X136707590Y-142624360D01*
X136942786Y-142705103D01*
X137188065Y-142746032D01*
X137436735Y-142746032D01*
X137682014Y-142705103D01*
X137917210Y-142624360D01*
X138135909Y-142506006D01*
X138332144Y-142353270D01*
X138491171Y-142180520D01*
X138551057Y-142144531D01*
X138620895Y-142146631D01*
X138673628Y-142180520D01*
X138832656Y-142353270D01*
X139028891Y-142506006D01*
X139247590Y-142624360D01*
X139482786Y-142705103D01*
X139728065Y-142746032D01*
X139976735Y-142746032D01*
X140222014Y-142705103D01*
X140457210Y-142624360D01*
X140675909Y-142506006D01*
X140872144Y-142353270D01*
X141031171Y-142180520D01*
X141091057Y-142144531D01*
X141160895Y-142146631D01*
X141213628Y-142180520D01*
X141372656Y-142353270D01*
X141568891Y-142506006D01*
X141787590Y-142624360D01*
X142022786Y-142705103D01*
X142268065Y-142746032D01*
X142516735Y-142746032D01*
X142762014Y-142705103D01*
X142997210Y-142624360D01*
X143215909Y-142506006D01*
X143412144Y-142353270D01*
X143571171Y-142180520D01*
X143631057Y-142144531D01*
X143700895Y-142146631D01*
X143753628Y-142180520D01*
X143912656Y-142353270D01*
X144108891Y-142506006D01*
X144327590Y-142624360D01*
X144562786Y-142705103D01*
X144808065Y-142746032D01*
X145056735Y-142746032D01*
X145302014Y-142705103D01*
X145537210Y-142624360D01*
X145755909Y-142506006D01*
X145952144Y-142353270D01*
X146111171Y-142180520D01*
X146171057Y-142144531D01*
X146240895Y-142146631D01*
X146293628Y-142180520D01*
X146452656Y-142353270D01*
X146648891Y-142506006D01*
X146867590Y-142624360D01*
X147102786Y-142705103D01*
X147348065Y-142746032D01*
X147596735Y-142746032D01*
X147842014Y-142705103D01*
X148077210Y-142624360D01*
X148295909Y-142506006D01*
X148492144Y-142353270D01*
X148651171Y-142180520D01*
X148711057Y-142144531D01*
X148780895Y-142146631D01*
X148833628Y-142180520D01*
X148992656Y-142353270D01*
X149188891Y-142506006D01*
X149407590Y-142624360D01*
X149642786Y-142705103D01*
X149888065Y-142746032D01*
X150136735Y-142746032D01*
X150382014Y-142705103D01*
X150617210Y-142624360D01*
X150835909Y-142506006D01*
X151032144Y-142353270D01*
X151191171Y-142180520D01*
X151251057Y-142144531D01*
X151320895Y-142146631D01*
X151373628Y-142180520D01*
X151532656Y-142353270D01*
X151728891Y-142506006D01*
X151947590Y-142624360D01*
X152182786Y-142705103D01*
X152428065Y-142746032D01*
X152676735Y-142746032D01*
X152922014Y-142705103D01*
X153157210Y-142624360D01*
X153375909Y-142506006D01*
X153572144Y-142353270D01*
X153740564Y-142170317D01*
X153839357Y-142019101D01*
X153892503Y-141973745D01*
X153961734Y-141964321D01*
X154025070Y-141993823D01*
X154044741Y-142015800D01*
X154092739Y-142084349D01*
X154253579Y-142245189D01*
X154439917Y-142375666D01*
X154646073Y-142471797D01*
X154646082Y-142471801D01*
X154842399Y-142524404D01*
X154842400Y-142524403D01*
X154842400Y-141678544D01*
X154899407Y-141711457D01*
X155026574Y-141745532D01*
X155158226Y-141745532D01*
X155285393Y-141711457D01*
X155342400Y-141678544D01*
X155342400Y-142524404D01*
X155538717Y-142471801D01*
X155538726Y-142471797D01*
X155744882Y-142375666D01*
X155931220Y-142245189D01*
X156092058Y-142084351D01*
X156140057Y-142015801D01*
X156194634Y-141972175D01*
X156264132Y-141964981D01*
X156326487Y-141996503D01*
X156345442Y-142019101D01*
X156444236Y-142170317D01*
X156612656Y-142353270D01*
X156808891Y-142506006D01*
X157027590Y-142624360D01*
X157262786Y-142705103D01*
X157508065Y-142746032D01*
X157756735Y-142746032D01*
X158002014Y-142705103D01*
X158237210Y-142624360D01*
X158455909Y-142506006D01*
X158652144Y-142353270D01*
X158811171Y-142180520D01*
X158871057Y-142144531D01*
X158940895Y-142146631D01*
X158993628Y-142180520D01*
X159152656Y-142353270D01*
X159348891Y-142506006D01*
X159567590Y-142624360D01*
X159802786Y-142705103D01*
X160048065Y-142746032D01*
X160296735Y-142746032D01*
X160542014Y-142705103D01*
X160777210Y-142624360D01*
X160995909Y-142506006D01*
X161141710Y-142392524D01*
X161206702Y-142366882D01*
X161275242Y-142380448D01*
X161323987Y-142426227D01*
X161356928Y-142480717D01*
X161356931Y-142480721D01*
X161477211Y-142601001D01*
X161477213Y-142601002D01*
X161477215Y-142601004D01*
X161622794Y-142689010D01*
X161785204Y-142739618D01*
X161855784Y-142746032D01*
X161855787Y-142746032D01*
X163569013Y-142746032D01*
X163569016Y-142746032D01*
X163639596Y-142739618D01*
X163802006Y-142689010D01*
X163947585Y-142601004D01*
X164067872Y-142480717D01*
X164155878Y-142335138D01*
X164206486Y-142172728D01*
X164212900Y-142102148D01*
X164212900Y-140388916D01*
X164206486Y-140318336D01*
X164155878Y-140155926D01*
X164067872Y-140010347D01*
X164067870Y-140010345D01*
X164067869Y-140010343D01*
X163947588Y-139890062D01*
X163908949Y-139866704D01*
X163802006Y-139802054D01*
X163639596Y-139751446D01*
X163639594Y-139751445D01*
X163639592Y-139751445D01*
X163590178Y-139746955D01*
X163569016Y-139745032D01*
X161855784Y-139745032D01*
X161836545Y-139746780D01*
X161785207Y-139751445D01*
X161622793Y-139802054D01*
X161477211Y-139890062D01*
X161356930Y-140010343D01*
X161323987Y-140064837D01*
X161272458Y-140112023D01*
X161203599Y-140123861D01*
X161141709Y-140098539D01*
X160995906Y-139985056D01*
X160777211Y-139866704D01*
X160777202Y-139866701D01*
X160542016Y-139785961D01*
X160296735Y-139745032D01*
X160048065Y-139745032D01*
X159802783Y-139785961D01*
X159567597Y-139866701D01*
X159567588Y-139866704D01*
X159348893Y-139985056D01*
X159152657Y-140137793D01*
X158993630Y-140310542D01*
X158933742Y-140346533D01*
X158863904Y-140344432D01*
X158811170Y-140310542D01*
X158756670Y-140251340D01*
X158652144Y-140137794D01*
X158455909Y-139985058D01*
X158455907Y-139985057D01*
X158455906Y-139985056D01*
X158237211Y-139866704D01*
X158237202Y-139866701D01*
X158002016Y-139785961D01*
X157756735Y-139745032D01*
X157508065Y-139745032D01*
X157262783Y-139785961D01*
X157027597Y-139866701D01*
X157027588Y-139866704D01*
X156808893Y-139985056D01*
X156612657Y-140137793D01*
X156444232Y-140320751D01*
X156345441Y-140471962D01*
X156292295Y-140517318D01*
X156223064Y-140526742D01*
X156159728Y-140497240D01*
X156140058Y-140475263D01*
X156092059Y-140406713D01*
X155931220Y-140245874D01*
X155744882Y-140115397D01*
X155538728Y-140019266D01*
X155342400Y-139966659D01*
X155342400Y-140812520D01*
X155285393Y-140779607D01*
X155158226Y-140745532D01*
X155026574Y-140745532D01*
X154899407Y-140779607D01*
X154842400Y-140812520D01*
X154842400Y-139966659D01*
X154646071Y-140019266D01*
X154439917Y-140115397D01*
X154253579Y-140245874D01*
X154092742Y-140406711D01*
X154044741Y-140475264D01*
X153990163Y-140518889D01*
X153920665Y-140526081D01*
X153858310Y-140494559D01*
X153839357Y-140471961D01*
X153740566Y-140320749D01*
X153712347Y-140290095D01*
X153572144Y-140137794D01*
X153375909Y-139985058D01*
X153375907Y-139985057D01*
X153375906Y-139985056D01*
X153157211Y-139866704D01*
X153157202Y-139866701D01*
X152922016Y-139785961D01*
X152676735Y-139745032D01*
X152428065Y-139745032D01*
X152182783Y-139785961D01*
X151947597Y-139866701D01*
X151947588Y-139866704D01*
X151728893Y-139985056D01*
X151532657Y-140137793D01*
X151373630Y-140310542D01*
X151313742Y-140346533D01*
X151243904Y-140344432D01*
X151191170Y-140310542D01*
X151136670Y-140251340D01*
X151032144Y-140137794D01*
X150835909Y-139985058D01*
X150835907Y-139985057D01*
X150835906Y-139985056D01*
X150617211Y-139866704D01*
X150617202Y-139866701D01*
X150382016Y-139785961D01*
X150136735Y-139745032D01*
X149888065Y-139745032D01*
X149642783Y-139785961D01*
X149407597Y-139866701D01*
X149407588Y-139866704D01*
X149188893Y-139985056D01*
X148992657Y-140137793D01*
X148833630Y-140310542D01*
X148773742Y-140346533D01*
X148703904Y-140344432D01*
X148651170Y-140310542D01*
X148596670Y-140251340D01*
X148492144Y-140137794D01*
X148295909Y-139985058D01*
X148295907Y-139985057D01*
X148295906Y-139985056D01*
X148077211Y-139866704D01*
X148077202Y-139866701D01*
X147842016Y-139785961D01*
X147596735Y-139745032D01*
X147348065Y-139745032D01*
X147102783Y-139785961D01*
X146867597Y-139866701D01*
X146867588Y-139866704D01*
X146648893Y-139985056D01*
X146452657Y-140137793D01*
X146293630Y-140310542D01*
X146233742Y-140346533D01*
X146163904Y-140344432D01*
X146111170Y-140310542D01*
X146056670Y-140251340D01*
X145952144Y-140137794D01*
X145755909Y-139985058D01*
X145755907Y-139985057D01*
X145755906Y-139985056D01*
X145537211Y-139866704D01*
X145537202Y-139866701D01*
X145302016Y-139785961D01*
X145056735Y-139745032D01*
X144808065Y-139745032D01*
X144562783Y-139785961D01*
X144327597Y-139866701D01*
X144327588Y-139866704D01*
X144108893Y-139985056D01*
X143930557Y-140123861D01*
X143912656Y-140137794D01*
X143813162Y-140245874D01*
X143808130Y-140251340D01*
X143748243Y-140287330D01*
X143678405Y-140285230D01*
X143620788Y-140245706D01*
X143593687Y-140181307D01*
X143592900Y-140167357D01*
X143592900Y-138906225D01*
X143612585Y-138839186D01*
X143629219Y-138818544D01*
X144460944Y-137986819D01*
X144522267Y-137953334D01*
X144548625Y-137950500D01*
X169094486Y-137950500D01*
X169184963Y-137936169D01*
X169281118Y-137920940D01*
X169281123Y-137920938D01*
X169281125Y-137920938D01*
X169314443Y-137910112D01*
X169337180Y-137902723D01*
X169407021Y-137900727D01*
X169466854Y-137936806D01*
X169497683Y-137999507D01*
X169499500Y-138020654D01*
X169499500Y-148375500D01*
X169479815Y-148442539D01*
X169427011Y-148488294D01*
X169375500Y-148499500D01*
X162250021Y-148499500D01*
X162182982Y-148479815D01*
X162137227Y-148427011D01*
X162126021Y-148375500D01*
X162126021Y-145524484D01*
X155983000Y-145524484D01*
X155983000Y-148375500D01*
X155963315Y-148442539D01*
X155910511Y-148488294D01*
X155859000Y-148499500D01*
X117624500Y-148499500D01*
X117557461Y-148479815D01*
X117511706Y-148427011D01*
X117500500Y-148375500D01*
X117500500Y-144878711D01*
X119149500Y-144878711D01*
X119149500Y-145121288D01*
X119181161Y-145361785D01*
X119243947Y-145596104D01*
X119336773Y-145820205D01*
X119336776Y-145820212D01*
X119458064Y-146030289D01*
X119458066Y-146030292D01*
X119458067Y-146030293D01*
X119605733Y-146222736D01*
X119605739Y-146222743D01*
X119777256Y-146394260D01*
X119777262Y-146394265D01*
X119969711Y-146541936D01*
X120179788Y-146663224D01*
X120403900Y-146756054D01*
X120638211Y-146818838D01*
X120818586Y-146842584D01*
X120878711Y-146850500D01*
X120878712Y-146850500D01*
X121121289Y-146850500D01*
X121169388Y-146844167D01*
X121361789Y-146818838D01*
X121596100Y-146756054D01*
X121820212Y-146663224D01*
X122030289Y-146541936D01*
X122222738Y-146394265D01*
X122394265Y-146222738D01*
X122541936Y-146030289D01*
X122663224Y-145820212D01*
X122756054Y-145596100D01*
X122818838Y-145361789D01*
X122850500Y-145121288D01*
X122850500Y-144878712D01*
X122850500Y-144878711D01*
X164149500Y-144878711D01*
X164149500Y-145121288D01*
X164181161Y-145361785D01*
X164243947Y-145596104D01*
X164336773Y-145820205D01*
X164336776Y-145820212D01*
X164458064Y-146030289D01*
X164458066Y-146030292D01*
X164458067Y-146030293D01*
X164605733Y-146222736D01*
X164605739Y-146222743D01*
X164777256Y-146394260D01*
X164777262Y-146394265D01*
X164969711Y-146541936D01*
X165179788Y-146663224D01*
X165403900Y-146756054D01*
X165638211Y-146818838D01*
X165818586Y-146842584D01*
X165878711Y-146850500D01*
X165878712Y-146850500D01*
X166121289Y-146850500D01*
X166169388Y-146844167D01*
X166361789Y-146818838D01*
X166596100Y-146756054D01*
X166820212Y-146663224D01*
X167030289Y-146541936D01*
X167222738Y-146394265D01*
X167394265Y-146222738D01*
X167541936Y-146030289D01*
X167663224Y-145820212D01*
X167756054Y-145596100D01*
X167818838Y-145361789D01*
X167850500Y-145121288D01*
X167850500Y-144878712D01*
X167818838Y-144638211D01*
X167756054Y-144403900D01*
X167663224Y-144179788D01*
X167541936Y-143969711D01*
X167394265Y-143777262D01*
X167394260Y-143777256D01*
X167222743Y-143605739D01*
X167222736Y-143605733D01*
X167030293Y-143458067D01*
X167030292Y-143458066D01*
X167030289Y-143458064D01*
X166820212Y-143336776D01*
X166820205Y-143336773D01*
X166596104Y-143243947D01*
X166361785Y-143181161D01*
X166121289Y-143149500D01*
X166121288Y-143149500D01*
X165878712Y-143149500D01*
X165878711Y-143149500D01*
X165638214Y-143181161D01*
X165403895Y-143243947D01*
X165179794Y-143336773D01*
X165179785Y-143336777D01*
X164969706Y-143458067D01*
X164777263Y-143605733D01*
X164777256Y-143605739D01*
X164605739Y-143777256D01*
X164605733Y-143777263D01*
X164458067Y-143969706D01*
X164336777Y-144179785D01*
X164336773Y-144179794D01*
X164243947Y-144403895D01*
X164181161Y-144638214D01*
X164149500Y-144878711D01*
X122850500Y-144878711D01*
X122818838Y-144638211D01*
X122756054Y-144403900D01*
X122663224Y-144179788D01*
X122541936Y-143969711D01*
X122394265Y-143777262D01*
X122394260Y-143777256D01*
X122222743Y-143605739D01*
X122222736Y-143605733D01*
X122030293Y-143458067D01*
X122030292Y-143458066D01*
X122030289Y-143458064D01*
X121820212Y-143336776D01*
X121820205Y-143336773D01*
X121596104Y-143243947D01*
X121361785Y-143181161D01*
X121121289Y-143149500D01*
X121121288Y-143149500D01*
X120878712Y-143149500D01*
X120878711Y-143149500D01*
X120638214Y-143181161D01*
X120403895Y-143243947D01*
X120179794Y-143336773D01*
X120179785Y-143336777D01*
X119969706Y-143458067D01*
X119777263Y-143605733D01*
X119777256Y-143605739D01*
X119605739Y-143777256D01*
X119605733Y-143777263D01*
X119458067Y-143969706D01*
X119336777Y-144179785D01*
X119336773Y-144179794D01*
X119243947Y-144403895D01*
X119181161Y-144638214D01*
X119149500Y-144878711D01*
X117500500Y-144878711D01*
X117500500Y-84100000D01*
X125709092Y-84100000D01*
X125728701Y-84386680D01*
X125787166Y-84668034D01*
X125787167Y-84668037D01*
X125883394Y-84938793D01*
X125883393Y-84938793D01*
X126015598Y-85193935D01*
X126181312Y-85428700D01*
X126266423Y-85519831D01*
X126377447Y-85638708D01*
X126600353Y-85820055D01*
X126830506Y-85960015D01*
X126845882Y-85969365D01*
X127032737Y-86050526D01*
X127109442Y-86083844D01*
X127386142Y-86161371D01*
X127636420Y-86195771D01*
X127670821Y-86200500D01*
X127670822Y-86200500D01*
X127958179Y-86200500D01*
X127988870Y-86196281D01*
X128242858Y-86161371D01*
X128519558Y-86083844D01*
X128632515Y-86034779D01*
X128783117Y-85969365D01*
X128783120Y-85969363D01*
X128783125Y-85969361D01*
X129028647Y-85820055D01*
X129251553Y-85638708D01*
X129447689Y-85428698D01*
X129613401Y-85193936D01*
X129745604Y-84938797D01*
X129841834Y-84668032D01*
X129900298Y-84386686D01*
X129919908Y-84100000D01*
X129900298Y-83813314D01*
X129841834Y-83531968D01*
X129814446Y-83454907D01*
X129745605Y-83261206D01*
X129745606Y-83261206D01*
X129613401Y-83006064D01*
X129447687Y-82771299D01*
X129299767Y-82612917D01*
X129251553Y-82561292D01*
X129028647Y-82379945D01*
X129028646Y-82379944D01*
X128798515Y-82239998D01*
X133024773Y-82239998D01*
X133024773Y-82240001D01*
X133043657Y-82504027D01*
X133043658Y-82504034D01*
X133099921Y-82762673D01*
X133192426Y-83010690D01*
X133192428Y-83010694D01*
X133319280Y-83243005D01*
X133319285Y-83243013D01*
X133477906Y-83454907D01*
X133477922Y-83454925D01*
X133665074Y-83642077D01*
X133665092Y-83642093D01*
X133876986Y-83800714D01*
X133876994Y-83800719D01*
X134109305Y-83927571D01*
X134109309Y-83927573D01*
X134109311Y-83927574D01*
X134357322Y-84020077D01*
X134357325Y-84020077D01*
X134357326Y-84020078D01*
X134552552Y-84062546D01*
X134615974Y-84076343D01*
X134859660Y-84093772D01*
X134879999Y-84095227D01*
X134880000Y-84095227D01*
X134880001Y-84095227D01*
X134898885Y-84093876D01*
X135144026Y-84076343D01*
X135402678Y-84020077D01*
X135650689Y-83927574D01*
X135883011Y-83800716D01*
X136094915Y-83642087D01*
X136282087Y-83454915D01*
X136440716Y-83243011D01*
X136567574Y-83010689D01*
X136660077Y-82762678D01*
X136716343Y-82504026D01*
X136735227Y-82240000D01*
X136734557Y-82230639D01*
X136726369Y-82116156D01*
X136716343Y-81975974D01*
X136660077Y-81717322D01*
X136567574Y-81469311D01*
X136440716Y-81236989D01*
X136440714Y-81236986D01*
X136282093Y-81025092D01*
X136282077Y-81025074D01*
X136094925Y-80837922D01*
X136094907Y-80837906D01*
X135883013Y-80679285D01*
X135883005Y-80679280D01*
X135650694Y-80552428D01*
X135650690Y-80552426D01*
X135402673Y-80459921D01*
X135144034Y-80403658D01*
X135144027Y-80403657D01*
X134880001Y-80384773D01*
X134879999Y-80384773D01*
X134615972Y-80403657D01*
X134615965Y-80403658D01*
X134357326Y-80459921D01*
X134109309Y-80552426D01*
X134109305Y-80552428D01*
X133876994Y-80679280D01*
X133876986Y-80679285D01*
X133665092Y-80837906D01*
X133665074Y-80837922D01*
X133477922Y-81025074D01*
X133477906Y-81025092D01*
X133319285Y-81236986D01*
X133319280Y-81236994D01*
X133192428Y-81469305D01*
X133192426Y-81469309D01*
X133099921Y-81717326D01*
X133043658Y-81975965D01*
X133043657Y-81975972D01*
X133024773Y-82239998D01*
X128798515Y-82239998D01*
X128783117Y-82230634D01*
X128519563Y-82116158D01*
X128519561Y-82116157D01*
X128519558Y-82116156D01*
X128390078Y-82079877D01*
X128242864Y-82038630D01*
X128242859Y-82038629D01*
X128242858Y-82038629D01*
X128100518Y-82019064D01*
X127958179Y-81999500D01*
X127958178Y-81999500D01*
X127670822Y-81999500D01*
X127670821Y-81999500D01*
X127386142Y-82038629D01*
X127386135Y-82038630D01*
X127178361Y-82096845D01*
X127109442Y-82116156D01*
X127109439Y-82116156D01*
X127109436Y-82116158D01*
X127109435Y-82116158D01*
X126845882Y-82230634D01*
X126600353Y-82379944D01*
X126377450Y-82561289D01*
X126181312Y-82771299D01*
X126015598Y-83006064D01*
X125883394Y-83261206D01*
X125787167Y-83531962D01*
X125787166Y-83531965D01*
X125728701Y-83813319D01*
X125709092Y-84100000D01*
X117500500Y-84100000D01*
X117500500Y-63900000D01*
X125709092Y-63900000D01*
X125728701Y-64186680D01*
X125787166Y-64468034D01*
X125787167Y-64468037D01*
X125883394Y-64738793D01*
X125883393Y-64738793D01*
X126015598Y-64993935D01*
X126181312Y-65228700D01*
X126266423Y-65319831D01*
X126377447Y-65438708D01*
X126414325Y-65468710D01*
X126600353Y-65620055D01*
X126845882Y-65769365D01*
X127032737Y-65850526D01*
X127109442Y-65883844D01*
X127386142Y-65961371D01*
X127636420Y-65995771D01*
X127670821Y-66000500D01*
X127670822Y-66000500D01*
X127958179Y-66000500D01*
X127988870Y-65996281D01*
X128242858Y-65961371D01*
X128519558Y-65883844D01*
X128714049Y-65799365D01*
X128783117Y-65769365D01*
X128783120Y-65769363D01*
X128783125Y-65769361D01*
X129028647Y-65620055D01*
X129251553Y-65438708D01*
X129447689Y-65228698D01*
X129613401Y-64993936D01*
X129745604Y-64738797D01*
X129841834Y-64468032D01*
X129900298Y-64186686D01*
X129919908Y-63900000D01*
X129900298Y-63613314D01*
X129841834Y-63331968D01*
X129745605Y-63061206D01*
X129745606Y-63061206D01*
X129613401Y-62806064D01*
X129447687Y-62571299D01*
X129369054Y-62487105D01*
X129251553Y-62361292D01*
X129028647Y-62179945D01*
X129028646Y-62179944D01*
X128783117Y-62030634D01*
X128519563Y-61916158D01*
X128519561Y-61916157D01*
X128519558Y-61916156D01*
X128390078Y-61879877D01*
X128242864Y-61838630D01*
X128242859Y-61838629D01*
X128242858Y-61838629D01*
X128100518Y-61819064D01*
X127958179Y-61799500D01*
X127958178Y-61799500D01*
X127670822Y-61799500D01*
X127670821Y-61799500D01*
X127386142Y-61838629D01*
X127386135Y-61838630D01*
X127178361Y-61896845D01*
X127109442Y-61916156D01*
X127109439Y-61916156D01*
X127109436Y-61916158D01*
X127109435Y-61916158D01*
X126845882Y-62030634D01*
X126600353Y-62179944D01*
X126377450Y-62361289D01*
X126181312Y-62571299D01*
X126015598Y-62806064D01*
X125883394Y-63061206D01*
X125787167Y-63331962D01*
X125787166Y-63331965D01*
X125728701Y-63613319D01*
X125709092Y-63900000D01*
X117500500Y-63900000D01*
X117500500Y-53649927D01*
X130175532Y-53649927D01*
X130175532Y-53649936D01*
X130194577Y-53904086D01*
X130194578Y-53904089D01*
X130251292Y-54152569D01*
X130344407Y-54389820D01*
X130471841Y-54610544D01*
X130630750Y-54809809D01*
X130817583Y-54983164D01*
X131028166Y-55126737D01*
X131028171Y-55126739D01*
X131028172Y-55126740D01*
X131028173Y-55126741D01*
X131150128Y-55185470D01*
X131257792Y-55237319D01*
X131257793Y-55237319D01*
X131257796Y-55237321D01*
X131501342Y-55312445D01*
X131753365Y-55350432D01*
X132008235Y-55350432D01*
X132260258Y-55312445D01*
X132503804Y-55237321D01*
X132733434Y-55126737D01*
X132944017Y-54983164D01*
X133130850Y-54809809D01*
X133289759Y-54610544D01*
X133417193Y-54389820D01*
X133510308Y-54152569D01*
X133567022Y-53904089D01*
X133586068Y-53649932D01*
X133567022Y-53395775D01*
X133510308Y-53147295D01*
X133417193Y-52910044D01*
X133289759Y-52689320D01*
X133130850Y-52490055D01*
X132944017Y-52316700D01*
X132733434Y-52173127D01*
X132733430Y-52173125D01*
X132733427Y-52173123D01*
X132733426Y-52173122D01*
X132503806Y-52062544D01*
X132503808Y-52062544D01*
X132260266Y-51987421D01*
X132260262Y-51987420D01*
X132260258Y-51987419D01*
X132139031Y-51969146D01*
X132008240Y-51949432D01*
X132008235Y-51949432D01*
X131753365Y-51949432D01*
X131753359Y-51949432D01*
X131596409Y-51973089D01*
X131501342Y-51987419D01*
X131501339Y-51987420D01*
X131501333Y-51987421D01*
X131257792Y-52062544D01*
X131028173Y-52173122D01*
X131028172Y-52173123D01*
X130817582Y-52316700D01*
X130630752Y-52490053D01*
X130630750Y-52490055D01*
X130471841Y-52689320D01*
X130344408Y-52910041D01*
X130251292Y-53147294D01*
X130251290Y-53147301D01*
X130194577Y-53395777D01*
X130175532Y-53649927D01*
X117500500Y-53649927D01*
X117500500Y-50878711D01*
X119149500Y-50878711D01*
X119149500Y-51121288D01*
X119181161Y-51361785D01*
X119243947Y-51596104D01*
X119336773Y-51820205D01*
X119336776Y-51820212D01*
X119458064Y-52030289D01*
X119458066Y-52030292D01*
X119458067Y-52030293D01*
X119605733Y-52222736D01*
X119605739Y-52222743D01*
X119777256Y-52394260D01*
X119777262Y-52394265D01*
X119969711Y-52541936D01*
X120179788Y-52663224D01*
X120403900Y-52756054D01*
X120638211Y-52818838D01*
X120818586Y-52842584D01*
X120878711Y-52850500D01*
X120878712Y-52850500D01*
X121121289Y-52850500D01*
X121169388Y-52844167D01*
X121361789Y-52818838D01*
X121596100Y-52756054D01*
X121820212Y-52663224D01*
X122030289Y-52541936D01*
X122222738Y-52394265D01*
X122394265Y-52222738D01*
X122541936Y-52030289D01*
X122663224Y-51820212D01*
X122756054Y-51596100D01*
X122818838Y-51361789D01*
X122850500Y-51121288D01*
X122850500Y-50878712D01*
X122850500Y-50878711D01*
X164149500Y-50878711D01*
X164149500Y-51121288D01*
X164181161Y-51361785D01*
X164243947Y-51596104D01*
X164336773Y-51820205D01*
X164336776Y-51820212D01*
X164458064Y-52030289D01*
X164458066Y-52030292D01*
X164458067Y-52030293D01*
X164605733Y-52222736D01*
X164605739Y-52222743D01*
X164777256Y-52394260D01*
X164777262Y-52394265D01*
X164969711Y-52541936D01*
X165179788Y-52663224D01*
X165403900Y-52756054D01*
X165638211Y-52818838D01*
X165818586Y-52842584D01*
X165878711Y-52850500D01*
X165878712Y-52850500D01*
X166121289Y-52850500D01*
X166169388Y-52844167D01*
X166361789Y-52818838D01*
X166596100Y-52756054D01*
X166820212Y-52663224D01*
X167030289Y-52541936D01*
X167222738Y-52394265D01*
X167394265Y-52222738D01*
X167541936Y-52030289D01*
X167663224Y-51820212D01*
X167756054Y-51596100D01*
X167818838Y-51361789D01*
X167850500Y-51121288D01*
X167850500Y-50878712D01*
X167818838Y-50638211D01*
X167756054Y-50403900D01*
X167663224Y-50179788D01*
X167541936Y-49969711D01*
X167394265Y-49777262D01*
X167394260Y-49777256D01*
X167222743Y-49605739D01*
X167222736Y-49605733D01*
X167030293Y-49458067D01*
X167030292Y-49458066D01*
X167030289Y-49458064D01*
X166820212Y-49336776D01*
X166820205Y-49336773D01*
X166596104Y-49243947D01*
X166361785Y-49181161D01*
X166121289Y-49149500D01*
X166121288Y-49149500D01*
X165878712Y-49149500D01*
X165878711Y-49149500D01*
X165638214Y-49181161D01*
X165403895Y-49243947D01*
X165179794Y-49336773D01*
X165179785Y-49336777D01*
X164969706Y-49458067D01*
X164777263Y-49605733D01*
X164777256Y-49605739D01*
X164605739Y-49777256D01*
X164605733Y-49777263D01*
X164458067Y-49969706D01*
X164336777Y-50179785D01*
X164336773Y-50179794D01*
X164243947Y-50403895D01*
X164181161Y-50638214D01*
X164149500Y-50878711D01*
X122850500Y-50878711D01*
X122818838Y-50638211D01*
X122756054Y-50403900D01*
X122663224Y-50179788D01*
X122541936Y-49969711D01*
X122394265Y-49777262D01*
X122394260Y-49777256D01*
X122222743Y-49605739D01*
X122222736Y-49605733D01*
X122030293Y-49458067D01*
X122030292Y-49458066D01*
X122030289Y-49458064D01*
X121820212Y-49336776D01*
X121820205Y-49336773D01*
X121596104Y-49243947D01*
X121361785Y-49181161D01*
X121121289Y-49149500D01*
X121121288Y-49149500D01*
X120878712Y-49149500D01*
X120878711Y-49149500D01*
X120638214Y-49181161D01*
X120403895Y-49243947D01*
X120179794Y-49336773D01*
X120179785Y-49336777D01*
X119969706Y-49458067D01*
X119777263Y-49605733D01*
X119777256Y-49605739D01*
X119605739Y-49777256D01*
X119605733Y-49777263D01*
X119458067Y-49969706D01*
X119336777Y-50179785D01*
X119336773Y-50179794D01*
X119243947Y-50403895D01*
X119181161Y-50638214D01*
X119149500Y-50878711D01*
X117500500Y-50878711D01*
X117500500Y-47624500D01*
X117520185Y-47557461D01*
X117572989Y-47511706D01*
X117624500Y-47500500D01*
X131322683Y-47500500D01*
X131389722Y-47520185D01*
G37*
%TD.AperFunction*%
%TA.AperFunction,Conductor*%
G36*
X160422400Y-127284404D02*
G01*
X160618717Y-127231801D01*
X160618726Y-127231797D01*
X160824882Y-127135666D01*
X161011220Y-127005189D01*
X161172058Y-126844351D01*
X161220057Y-126775801D01*
X161274634Y-126732175D01*
X161344132Y-126724981D01*
X161406487Y-126756503D01*
X161425442Y-126779101D01*
X161524236Y-126930317D01*
X161692656Y-127113270D01*
X161888891Y-127266006D01*
X162107590Y-127384360D01*
X162342786Y-127465103D01*
X162588065Y-127506032D01*
X162836735Y-127506032D01*
X163082014Y-127465103D01*
X163317210Y-127384360D01*
X163535909Y-127266006D01*
X163702138Y-127136625D01*
X163767132Y-127110982D01*
X163835672Y-127124549D01*
X163885996Y-127173017D01*
X163902300Y-127234478D01*
X163902300Y-129425500D01*
X163882615Y-129492539D01*
X163829811Y-129538294D01*
X163778300Y-129549500D01*
X139950997Y-129549500D01*
X139883958Y-129529815D01*
X139863316Y-129513181D01*
X138549219Y-128199083D01*
X138515734Y-128137760D01*
X138512900Y-128111402D01*
X138512900Y-127083706D01*
X138532585Y-127016667D01*
X138585389Y-126970912D01*
X138654547Y-126960968D01*
X138718103Y-126989993D01*
X138728117Y-126999711D01*
X138832656Y-127113270D01*
X139028891Y-127266006D01*
X139247590Y-127384360D01*
X139482786Y-127465103D01*
X139728065Y-127506032D01*
X139976735Y-127506032D01*
X140222014Y-127465103D01*
X140457210Y-127384360D01*
X140675909Y-127266006D01*
X140872144Y-127113270D01*
X141031171Y-126940520D01*
X141091057Y-126904531D01*
X141160895Y-126906631D01*
X141213628Y-126940520D01*
X141372656Y-127113270D01*
X141568891Y-127266006D01*
X141787590Y-127384360D01*
X142022786Y-127465103D01*
X142268065Y-127506032D01*
X142516735Y-127506032D01*
X142762014Y-127465103D01*
X142997210Y-127384360D01*
X143215909Y-127266006D01*
X143412144Y-127113270D01*
X143571171Y-126940520D01*
X143631057Y-126904531D01*
X143700895Y-126906631D01*
X143753628Y-126940520D01*
X143912656Y-127113270D01*
X144108891Y-127266006D01*
X144327590Y-127384360D01*
X144562786Y-127465103D01*
X144808065Y-127506032D01*
X145056735Y-127506032D01*
X145302014Y-127465103D01*
X145537210Y-127384360D01*
X145755909Y-127266006D01*
X145952144Y-127113270D01*
X146111171Y-126940520D01*
X146171057Y-126904531D01*
X146240895Y-126906631D01*
X146293628Y-126940520D01*
X146452656Y-127113270D01*
X146648891Y-127266006D01*
X146867590Y-127384360D01*
X147102786Y-127465103D01*
X147348065Y-127506032D01*
X147596735Y-127506032D01*
X147842014Y-127465103D01*
X148077210Y-127384360D01*
X148295909Y-127266006D01*
X148492144Y-127113270D01*
X148651171Y-126940520D01*
X148711057Y-126904531D01*
X148780895Y-126906631D01*
X148833628Y-126940520D01*
X148992656Y-127113270D01*
X149188891Y-127266006D01*
X149407590Y-127384360D01*
X149642786Y-127465103D01*
X149888065Y-127506032D01*
X150136735Y-127506032D01*
X150382014Y-127465103D01*
X150617210Y-127384360D01*
X150835909Y-127266006D01*
X151032144Y-127113270D01*
X151191171Y-126940520D01*
X151251057Y-126904531D01*
X151320895Y-126906631D01*
X151373628Y-126940520D01*
X151532656Y-127113270D01*
X151728891Y-127266006D01*
X151947590Y-127384360D01*
X152182786Y-127465103D01*
X152428065Y-127506032D01*
X152676735Y-127506032D01*
X152922014Y-127465103D01*
X153157210Y-127384360D01*
X153375909Y-127266006D01*
X153572144Y-127113270D01*
X153731171Y-126940520D01*
X153791057Y-126904531D01*
X153860895Y-126906631D01*
X153913628Y-126940520D01*
X154072656Y-127113270D01*
X154268891Y-127266006D01*
X154487590Y-127384360D01*
X154722786Y-127465103D01*
X154968065Y-127506032D01*
X155216735Y-127506032D01*
X155462014Y-127465103D01*
X155697210Y-127384360D01*
X155915909Y-127266006D01*
X156112144Y-127113270D01*
X156271171Y-126940520D01*
X156331057Y-126904531D01*
X156400895Y-126906631D01*
X156453628Y-126940520D01*
X156612656Y-127113270D01*
X156808891Y-127266006D01*
X157027590Y-127384360D01*
X157262786Y-127465103D01*
X157508065Y-127506032D01*
X157756735Y-127506032D01*
X158002014Y-127465103D01*
X158237210Y-127384360D01*
X158455909Y-127266006D01*
X158652144Y-127113270D01*
X158820564Y-126930317D01*
X158919357Y-126779101D01*
X158972503Y-126733745D01*
X159041734Y-126724321D01*
X159105070Y-126753823D01*
X159124741Y-126775800D01*
X159172739Y-126844349D01*
X159333579Y-127005189D01*
X159519917Y-127135666D01*
X159726073Y-127231797D01*
X159726082Y-127231801D01*
X159922399Y-127284404D01*
X159922400Y-127284403D01*
X159922400Y-126438544D01*
X159979407Y-126471457D01*
X160106574Y-126505532D01*
X160238226Y-126505532D01*
X160365393Y-126471457D01*
X160422400Y-126438544D01*
X160422400Y-127284404D01*
G37*
%TD.AperFunction*%
%TA.AperFunction,Conductor*%
G36*
X137478628Y-120220185D02*
G01*
X137524383Y-120272989D01*
X137534327Y-120342147D01*
X137509965Y-120399986D01*
X137394309Y-120550711D01*
X137394298Y-120550727D01*
X137282554Y-120744272D01*
X137282546Y-120744288D01*
X137197020Y-120950769D01*
X137139172Y-121166660D01*
X137128201Y-121250000D01*
X138598309Y-121250000D01*
X138550934Y-121297375D01*
X138507489Y-121372625D01*
X138485000Y-121456555D01*
X138485000Y-121543445D01*
X138507489Y-121627375D01*
X138550934Y-121702625D01*
X138598309Y-121750000D01*
X137128201Y-121750000D01*
X137139172Y-121833339D01*
X137197020Y-122049230D01*
X137282546Y-122255711D01*
X137282554Y-122255727D01*
X137394298Y-122449272D01*
X137394309Y-122449288D01*
X137530361Y-122626595D01*
X137530367Y-122626602D01*
X137688397Y-122784632D01*
X137688404Y-122784638D01*
X137865711Y-122920690D01*
X137865727Y-122920701D01*
X138059272Y-123032445D01*
X138059288Y-123032453D01*
X138265769Y-123117979D01*
X138481660Y-123175827D01*
X138703238Y-123204998D01*
X138703255Y-123205000D01*
X139370000Y-123205000D01*
X139370000Y-121830000D01*
X139870000Y-121830000D01*
X139870000Y-123205000D01*
X140536745Y-123205000D01*
X140536761Y-123204998D01*
X140758339Y-123175827D01*
X140974230Y-123117979D01*
X141180711Y-123032453D01*
X141180727Y-123032445D01*
X141374272Y-122920701D01*
X141374288Y-122920690D01*
X141551595Y-122784638D01*
X141551602Y-122784632D01*
X141709632Y-122626602D01*
X141709638Y-122626595D01*
X141845690Y-122449288D01*
X141845701Y-122449272D01*
X141957445Y-122255727D01*
X141957453Y-122255711D01*
X142042979Y-122049230D01*
X142100827Y-121833339D01*
X142111799Y-121750000D01*
X140641691Y-121750000D01*
X140689066Y-121702625D01*
X140732511Y-121627375D01*
X140755000Y-121543445D01*
X140755000Y-121456555D01*
X140732511Y-121372625D01*
X140689066Y-121297375D01*
X140641691Y-121250000D01*
X142111798Y-121250000D01*
X142100827Y-121166660D01*
X142042979Y-120950769D01*
X141957453Y-120744288D01*
X141957445Y-120744272D01*
X141845701Y-120550727D01*
X141845690Y-120550711D01*
X141730035Y-120399986D01*
X141704841Y-120334817D01*
X141718879Y-120266372D01*
X141767693Y-120216383D01*
X141828411Y-120200500D01*
X149665500Y-120200500D01*
X149732539Y-120220185D01*
X149778294Y-120272989D01*
X149789500Y-120324500D01*
X149789500Y-122761613D01*
X149795913Y-122832192D01*
X149846522Y-122994606D01*
X149934530Y-123140188D01*
X150054811Y-123260469D01*
X150054813Y-123260470D01*
X150054815Y-123260472D01*
X150200394Y-123348478D01*
X150362804Y-123399086D01*
X150433384Y-123405500D01*
X150433387Y-123405500D01*
X154566613Y-123405500D01*
X154566616Y-123405500D01*
X154637196Y-123399086D01*
X154799606Y-123348478D01*
X154945185Y-123260472D01*
X155065472Y-123140185D01*
X155153478Y-122994606D01*
X155204086Y-122832196D01*
X155205805Y-122813277D01*
X155231476Y-122748295D01*
X155288204Y-122707507D01*
X155329296Y-122700500D01*
X158789612Y-122700500D01*
X158856651Y-122720185D01*
X158877293Y-122736819D01*
X160702687Y-124562213D01*
X160736172Y-124623536D01*
X160731188Y-124693228D01*
X160689316Y-124749161D01*
X160623852Y-124773578D01*
X160582912Y-124769669D01*
X160422400Y-124726659D01*
X160422400Y-125572520D01*
X160365393Y-125539607D01*
X160238226Y-125505532D01*
X160106574Y-125505532D01*
X159979407Y-125539607D01*
X159922400Y-125572520D01*
X159922400Y-124726659D01*
X159726071Y-124779266D01*
X159519917Y-124875397D01*
X159333579Y-125005874D01*
X159172742Y-125166711D01*
X159124741Y-125235264D01*
X159070163Y-125278889D01*
X159000665Y-125286081D01*
X158938310Y-125254559D01*
X158919357Y-125231961D01*
X158820566Y-125080749D01*
X158792347Y-125050095D01*
X158652144Y-124897794D01*
X158455909Y-124745058D01*
X158455907Y-124745057D01*
X158455906Y-124745056D01*
X158237211Y-124626704D01*
X158237202Y-124626701D01*
X158002016Y-124545961D01*
X157756735Y-124505032D01*
X157508065Y-124505032D01*
X157262783Y-124545961D01*
X157027597Y-124626701D01*
X157027588Y-124626704D01*
X156808893Y-124745056D01*
X156612657Y-124897793D01*
X156453630Y-125070542D01*
X156393742Y-125106533D01*
X156323904Y-125104432D01*
X156271170Y-125070542D01*
X156216670Y-125011340D01*
X156112144Y-124897794D01*
X155915909Y-124745058D01*
X155915907Y-124745057D01*
X155915906Y-124745056D01*
X155697211Y-124626704D01*
X155697202Y-124626701D01*
X155462016Y-124545961D01*
X155216735Y-124505032D01*
X154968065Y-124505032D01*
X154722783Y-124545961D01*
X154487597Y-124626701D01*
X154487588Y-124626704D01*
X154268893Y-124745056D01*
X154072657Y-124897793D01*
X153913630Y-125070542D01*
X153853742Y-125106533D01*
X153783904Y-125104432D01*
X153731170Y-125070542D01*
X153676670Y-125011340D01*
X153572144Y-124897794D01*
X153375909Y-124745058D01*
X153375907Y-124745057D01*
X153375906Y-124745056D01*
X153157211Y-124626704D01*
X153157202Y-124626701D01*
X152922016Y-124545961D01*
X152676735Y-124505032D01*
X152428065Y-124505032D01*
X152182783Y-124545961D01*
X151947597Y-124626701D01*
X151947588Y-124626704D01*
X151728893Y-124745056D01*
X151532657Y-124897793D01*
X151373630Y-125070542D01*
X151313742Y-125106533D01*
X151243904Y-125104432D01*
X151191170Y-125070542D01*
X151136670Y-125011340D01*
X151032144Y-124897794D01*
X150835909Y-124745058D01*
X150835907Y-124745057D01*
X150835906Y-124745056D01*
X150617211Y-124626704D01*
X150617202Y-124626701D01*
X150382016Y-124545961D01*
X150136735Y-124505032D01*
X149888065Y-124505032D01*
X149642783Y-124545961D01*
X149407597Y-124626701D01*
X149407588Y-124626704D01*
X149188893Y-124745056D01*
X148992657Y-124897793D01*
X148833630Y-125070542D01*
X148773742Y-125106533D01*
X148703904Y-125104432D01*
X148651170Y-125070542D01*
X148596670Y-125011340D01*
X148492144Y-124897794D01*
X148295909Y-124745058D01*
X148295907Y-124745057D01*
X148295906Y-124745056D01*
X148077211Y-124626704D01*
X148077202Y-124626701D01*
X147842016Y-124545961D01*
X147596735Y-124505032D01*
X147348065Y-124505032D01*
X147102783Y-124545961D01*
X146867597Y-124626701D01*
X146867588Y-124626704D01*
X146648893Y-124745056D01*
X146452657Y-124897793D01*
X146293630Y-125070542D01*
X146233742Y-125106533D01*
X146163904Y-125104432D01*
X146111170Y-125070542D01*
X146056670Y-125011340D01*
X145952144Y-124897794D01*
X145755909Y-124745058D01*
X145755907Y-124745057D01*
X145755906Y-124745056D01*
X145537211Y-124626704D01*
X145537202Y-124626701D01*
X145302016Y-124545961D01*
X145056735Y-124505032D01*
X144808065Y-124505032D01*
X144562783Y-124545961D01*
X144327597Y-124626701D01*
X144327588Y-124626704D01*
X144108893Y-124745056D01*
X143912657Y-124897793D01*
X143753630Y-125070542D01*
X143693742Y-125106533D01*
X143623904Y-125104432D01*
X143571170Y-125070542D01*
X143516670Y-125011340D01*
X143412144Y-124897794D01*
X143215909Y-124745058D01*
X143215907Y-124745057D01*
X143215906Y-124745056D01*
X142997211Y-124626704D01*
X142997202Y-124626701D01*
X142762016Y-124545961D01*
X142516735Y-124505032D01*
X142268065Y-124505032D01*
X142022783Y-124545961D01*
X141787597Y-124626701D01*
X141787588Y-124626704D01*
X141568893Y-124745056D01*
X141372657Y-124897793D01*
X141213630Y-125070542D01*
X141153742Y-125106533D01*
X141083904Y-125104432D01*
X141031170Y-125070542D01*
X140976670Y-125011340D01*
X140872144Y-124897794D01*
X140675909Y-124745058D01*
X140675907Y-124745057D01*
X140675906Y-124745056D01*
X140457211Y-124626704D01*
X140457202Y-124626701D01*
X140222016Y-124545961D01*
X139976735Y-124505032D01*
X139728065Y-124505032D01*
X139482783Y-124545961D01*
X139247597Y-124626701D01*
X139247588Y-124626704D01*
X139028893Y-124745056D01*
X138832657Y-124897793D01*
X138673630Y-125070542D01*
X138613742Y-125106533D01*
X138543904Y-125104432D01*
X138491170Y-125070542D01*
X138436670Y-125011340D01*
X138332144Y-124897794D01*
X138135909Y-124745058D01*
X138135907Y-124745057D01*
X138135906Y-124745056D01*
X137917211Y-124626704D01*
X137917202Y-124626701D01*
X137682016Y-124545961D01*
X137436735Y-124505032D01*
X137188065Y-124505032D01*
X136942783Y-124545961D01*
X136707597Y-124626701D01*
X136707588Y-124626704D01*
X136488893Y-124745056D01*
X136292657Y-124897793D01*
X136292656Y-124897794D01*
X136193162Y-125005874D01*
X136188130Y-125011340D01*
X136128243Y-125047330D01*
X136058405Y-125045230D01*
X136000788Y-125005706D01*
X135973687Y-124941307D01*
X135972900Y-124927357D01*
X135972900Y-120526226D01*
X135992585Y-120459187D01*
X136009219Y-120438545D01*
X136210945Y-120236819D01*
X136272268Y-120203334D01*
X136298626Y-120200500D01*
X137411589Y-120200500D01*
X137478628Y-120220185D01*
G37*
%TD.AperFunction*%
%TD*%
M02*
