%TF.GenerationSoftware,KiCad,Pcbnew,8.0.1*%
%TF.CreationDate,2024-05-21T15:06:55+01:00*%
%TF.ProjectId,Left_Controller_PCB_Bluetooth,4c656674-5f43-46f6-9e74-726f6c6c6572,V1.2*%
%TF.SameCoordinates,Original*%
%TF.FileFunction,Copper,L1,Top*%
%TF.FilePolarity,Positive*%
%FSLAX46Y46*%
G04 Gerber Fmt 4.6, Leading zero omitted, Abs format (unit mm)*
G04 Created by KiCad (PCBNEW 8.0.1) date 2024-05-21 15:06:55*
%MOMM*%
%LPD*%
G01*
G04 APERTURE LIST*
%ADD10C,0.300000*%
%TA.AperFunction,NonConductor*%
%ADD11C,0.300000*%
%TD*%
%TA.AperFunction,ComponentPad*%
%ADD12O,1.600000X3.000000*%
%TD*%
%TA.AperFunction,ComponentPad*%
%ADD13O,3.000000X1.600000*%
%TD*%
%TA.AperFunction,ComponentPad*%
%ADD14C,3.000000*%
%TD*%
%TA.AperFunction,WasherPad*%
%ADD15C,2.300000*%
%TD*%
%TA.AperFunction,ComponentPad*%
%ADD16R,4.020000X2.410000*%
%TD*%
%TA.AperFunction,ComponentPad*%
%ADD17O,4.020000X2.410000*%
%TD*%
%TA.AperFunction,Conductor*%
%ADD18C,1.000000*%
%TD*%
G04 APERTURE END LIST*
D10*
D11*
X156840225Y-146382828D02*
X157340225Y-147882828D01*
X157340225Y-147882828D02*
X157840225Y-146382828D01*
X159125939Y-147882828D02*
X158268796Y-147882828D01*
X158697367Y-147882828D02*
X158697367Y-146382828D01*
X158697367Y-146382828D02*
X158554510Y-146597114D01*
X158554510Y-146597114D02*
X158411653Y-146739971D01*
X158411653Y-146739971D02*
X158268796Y-146811400D01*
X159768795Y-147739971D02*
X159840224Y-147811400D01*
X159840224Y-147811400D02*
X159768795Y-147882828D01*
X159768795Y-147882828D02*
X159697367Y-147811400D01*
X159697367Y-147811400D02*
X159768795Y-147739971D01*
X159768795Y-147739971D02*
X159768795Y-147882828D01*
X160411653Y-146525685D02*
X160483081Y-146454257D01*
X160483081Y-146454257D02*
X160625939Y-146382828D01*
X160625939Y-146382828D02*
X160983081Y-146382828D01*
X160983081Y-146382828D02*
X161125939Y-146454257D01*
X161125939Y-146454257D02*
X161197367Y-146525685D01*
X161197367Y-146525685D02*
X161268796Y-146668542D01*
X161268796Y-146668542D02*
X161268796Y-146811400D01*
X161268796Y-146811400D02*
X161197367Y-147025685D01*
X161197367Y-147025685D02*
X160340224Y-147882828D01*
X160340224Y-147882828D02*
X161268796Y-147882828D01*
D12*
%TO.P,CentralBoard1,1,D1/TX*%
%TO.N,unconnected-(CentralBoard1-D1{slash}TX-Pad1)*%
X125940000Y-140000000D03*
%TO.P,CentralBoard1,2,D0/RX*%
%TO.N,unconnected-(CentralBoard1-D0{slash}RX-Pad2)*%
X128480000Y-140000000D03*
%TO.P,CentralBoard1,3,~{RESET}*%
%TO.N,unconnected-(CentralBoard1-~{RESET}-Pad3)*%
X131020000Y-140000000D03*
%TO.P,CentralBoard1,4,GND*%
%TO.N,GND*%
X133560000Y-140000000D03*
%TO.P,CentralBoard1,5,D2*%
%TO.N,unconnected-(CentralBoard1-D2-Pad5)*%
X136100000Y-140000000D03*
%TO.P,CentralBoard1,6,D3*%
%TO.N,unconnected-(CentralBoard1-D3-Pad6)*%
X138640000Y-140000000D03*
%TO.P,CentralBoard1,7,D4*%
%TO.N,unconnected-(CentralBoard1-D4-Pad7)*%
X141180000Y-140000000D03*
%TO.P,CentralBoard1,8,D5*%
%TO.N,unconnected-(CentralBoard1-D5-Pad8)*%
X143720000Y-140000000D03*
%TO.P,CentralBoard1,9,D6*%
%TO.N,/SEL_L*%
X146260000Y-140000000D03*
%TO.P,CentralBoard1,10,D7*%
%TO.N,/SEL_JOY_L*%
X148800000Y-140000000D03*
%TO.P,CentralBoard1,11,D8*%
%TO.N,unconnected-(CentralBoard1-D8-Pad11)*%
X151340000Y-140000000D03*
%TO.P,CentralBoard1,12,D9*%
%TO.N,/UP*%
X153880000Y-140000000D03*
%TO.P,CentralBoard1,13,D10*%
%TO.N,/LEFT*%
X156420000Y-140000000D03*
%TO.P,CentralBoard1,14,D11*%
%TO.N,/DOWN*%
X158960000Y-140000000D03*
%TO.P,CentralBoard1,15,D12*%
%TO.N,/RIGHT*%
X161500000Y-140000000D03*
%TO.P,CentralBoard1,16,D13*%
%TO.N,/LEFT_SHOULDER*%
X161500000Y-124760000D03*
%TO.P,CentralBoard1,17,3V3*%
%TO.N,+3.3V*%
X158960000Y-124760000D03*
%TO.P,CentralBoard1,18,AREF*%
%TO.N,unconnected-(CentralBoard1-AREF-Pad18)*%
X156420000Y-124760000D03*
%TO.P,CentralBoard1,19,A0*%
%TO.N,/Analog_X_L*%
X153880000Y-124760000D03*
%TO.P,CentralBoard1,20,A1*%
%TO.N,/Analog_Y_L*%
X151340000Y-124760000D03*
%TO.P,CentralBoard1,21,A2*%
%TO.N,unconnected-(CentralBoard1-A2-Pad21)*%
X148800000Y-124760000D03*
%TO.P,CentralBoard1,22,A3*%
%TO.N,unconnected-(CentralBoard1-A3-Pad22)*%
X146260000Y-124760000D03*
%TO.P,CentralBoard1,23,A4*%
%TO.N,unconnected-(CentralBoard1-A4-Pad23)*%
X143720000Y-124760000D03*
%TO.P,CentralBoard1,24,A5*%
%TO.N,unconnected-(CentralBoard1-A5-Pad24)*%
X141180000Y-124760000D03*
%TO.P,CentralBoard1,25,A6*%
%TO.N,unconnected-(CentralBoard1-A6-Pad25)*%
X138640000Y-124760000D03*
%TO.P,CentralBoard1,26,A7*%
%TO.N,unconnected-(CentralBoard1-A7-Pad26)*%
X136100000Y-124760000D03*
%TO.P,CentralBoard1,27,+5V*%
%TO.N,unconnected-(CentralBoard1-+5V-Pad27)*%
X133560000Y-124760000D03*
%TO.P,CentralBoard1,28,~{RESET}*%
%TO.N,unconnected-(CentralBoard1-~{RESET}-Pad28)*%
X131020000Y-124760000D03*
%TO.P,CentralBoard1,29,GND*%
%TO.N,GND*%
X128480000Y-124760000D03*
%TO.P,CentralBoard1,30,VIN*%
%TO.N,+9V*%
X125940000Y-124760000D03*
%TD*%
D13*
%TO.P,JoystickL1,1,GND*%
%TO.N,GND*%
X158563250Y-79080000D03*
%TO.P,JoystickL1,2,+5V*%
%TO.N,+3.3V*%
X158563250Y-76540000D03*
%TO.P,JoystickL1,3,VRX*%
%TO.N,/Analog_X_L*%
X158563250Y-74000000D03*
%TO.P,JoystickL1,4,VRY*%
%TO.N,/Analog_Y_L*%
X158563250Y-71460000D03*
%TO.P,JoystickL1,5,SW*%
%TO.N,/SEL_JOY_L*%
X158563250Y-68920000D03*
%TD*%
D14*
%TO.P,SEL_L1,1,1*%
%TO.N,/SEL_L*%
X166500000Y-61000000D03*
X160000000Y-61000000D03*
%TO.P,SEL_L1,2,2*%
%TO.N,GND*%
X166500000Y-56500000D03*
X160000000Y-56500000D03*
%TD*%
%TO.P,DOWN1,1,1*%
%TO.N,/DOWN*%
X139500000Y-107000000D03*
X146000000Y-107000000D03*
%TO.P,DOWN1,2,2*%
%TO.N,GND*%
X139500000Y-111500000D03*
X146000000Y-111500000D03*
%TD*%
%TO.P,LEFT1,1,1*%
%TO.N,GND*%
X130500000Y-98250000D03*
X137000000Y-98250000D03*
%TO.P,LEFT1,2,2*%
%TO.N,/LEFT*%
X130500000Y-102750000D03*
X137000000Y-102750000D03*
%TD*%
%TO.P,LEFT_SHOULDER1,2,2*%
%TO.N,GND*%
X131880800Y-49149932D03*
X138380800Y-49149932D03*
%TO.P,LEFT_SHOULDER1,1,1*%
%TO.N,/LEFT_SHOULDER*%
X131880800Y-53649932D03*
X138380800Y-53649932D03*
%TD*%
%TO.P,RIGHT1,1,1*%
%TO.N,/RIGHT*%
X148250000Y-98250000D03*
X154750000Y-98250000D03*
%TO.P,RIGHT1,2,2*%
%TO.N,GND*%
X148250000Y-102750000D03*
X154750000Y-102750000D03*
%TD*%
%TO.P,UP1,1,1*%
%TO.N,/UP*%
X139500000Y-89250000D03*
X146000000Y-89250000D03*
%TO.P,UP1,2,2*%
%TO.N,GND*%
X139500000Y-93750000D03*
X146000000Y-93750000D03*
%TD*%
D15*
%TO.P,BAT9V1,*%
%TO.N,*%
X133380000Y-107210000D03*
X155730000Y-93720000D03*
X133380000Y-80240000D03*
D16*
%TO.P,BAT9V1,1,+*%
%TO.N,+9V*%
X151000000Y-119500000D03*
D17*
%TO.P,BAT9V1,2,-*%
%TO.N,GND*%
X138120000Y-119500000D03*
%TD*%
D18*
%TO.N,/RIGHT*%
X157500000Y-101000000D02*
X154750000Y-98250000D01*
X157500000Y-109000000D02*
X157500000Y-101000000D01*
X129095836Y-114500000D02*
X152000000Y-114500000D01*
X122750000Y-120845836D02*
X129095836Y-114500000D01*
X122750000Y-127654164D02*
X122750000Y-120845836D01*
X124255836Y-129160000D02*
X122750000Y-127654164D01*
X152000000Y-114500000D02*
X157500000Y-109000000D01*
X151760000Y-129160000D02*
X124255836Y-129160000D01*
X161500000Y-140000000D02*
X161500000Y-138900000D01*
X161500000Y-138900000D02*
X151760000Y-129160000D01*
%TO.N,/DOWN*%
X136940000Y-109560000D02*
X139500000Y-107000000D01*
X120950000Y-120050000D02*
X131440000Y-109560000D01*
X123551672Y-130860000D02*
X120950000Y-128258328D01*
X150808427Y-130860000D02*
X123551672Y-130860000D01*
X120950000Y-128258328D02*
X120950000Y-120050000D01*
X158960000Y-139011573D02*
X150808427Y-130860000D01*
X131440000Y-109560000D02*
X136940000Y-109560000D01*
X158960000Y-140000000D02*
X158960000Y-139011573D01*
%TO.N,/LEFT*%
X122847508Y-132560000D02*
X119250000Y-128962492D01*
X149968427Y-132560000D02*
X122847508Y-132560000D01*
X119250000Y-114000000D02*
X130500000Y-102750000D01*
X156420000Y-139011573D02*
X149968427Y-132560000D01*
X156420000Y-140000000D02*
X156420000Y-139011573D01*
X119250000Y-128962492D02*
X119250000Y-114000000D01*
%TO.N,/UP*%
X135681623Y-89250000D02*
X139500000Y-89250000D01*
X117500000Y-129616656D02*
X117500000Y-107431623D01*
X122143344Y-134260000D02*
X117500000Y-129616656D01*
X153880000Y-138900000D02*
X149240000Y-134260000D01*
X153880000Y-140000000D02*
X153880000Y-138900000D01*
X149240000Y-134260000D02*
X122143344Y-134260000D01*
X117500000Y-107431623D02*
X135681623Y-89250000D01*
%TO.N,/LEFT_SHOULDER*%
X138380800Y-64380800D02*
X138380800Y-53649932D01*
%TO.N,/SEL_JOY_L*%
X168600000Y-77100000D02*
X160420000Y-68920000D01*
X168600000Y-136428427D02*
X168600000Y-77100000D01*
X160420000Y-68920000D02*
X158563250Y-68920000D01*
X162328427Y-142700000D02*
X168600000Y-136428427D01*
X148800000Y-141100000D02*
X150400000Y-142700000D01*
X148800000Y-140000000D02*
X148800000Y-141100000D01*
X150400000Y-142700000D02*
X162328427Y-142700000D01*
%TO.N,+9V*%
X148595000Y-121905000D02*
X151000000Y-119500000D01*
X127695000Y-121905000D02*
X148595000Y-121905000D01*
X125940000Y-123660000D02*
X127695000Y-121905000D01*
X125940000Y-124760000D02*
X125940000Y-123660000D01*
%TO.N,/Analog_Y_L*%
X166900000Y-77900000D02*
X160460000Y-71460000D01*
X160460000Y-71460000D02*
X158563250Y-71460000D01*
X164044164Y-130860000D02*
X166900000Y-128004163D01*
X166900000Y-128004163D02*
X166900000Y-77900000D01*
X156451573Y-130860000D02*
X164044164Y-130860000D01*
X151340000Y-125748427D02*
X156451573Y-130860000D01*
X151340000Y-124760000D02*
X151340000Y-125748427D01*
%TO.N,/Analog_X_L*%
X159663250Y-74000000D02*
X158563250Y-74000000D01*
X165200000Y-79536750D02*
X159663250Y-74000000D01*
X165200000Y-127300000D02*
X165200000Y-79536750D01*
X157291573Y-129160000D02*
X163340000Y-129160000D01*
X153880000Y-125748427D02*
X157291573Y-129160000D01*
X163340000Y-129160000D02*
X165200000Y-127300000D01*
X153880000Y-124760000D02*
X153880000Y-125748427D01*
%TO.N,+3.3V*%
X159663250Y-76540000D02*
X158563250Y-76540000D01*
X163500000Y-80376750D02*
X159663250Y-76540000D01*
X160671573Y-127460000D02*
X162328427Y-127460000D01*
X162328427Y-127460000D02*
X163500000Y-126288427D01*
X158960000Y-125748427D02*
X160671573Y-127460000D01*
X158960000Y-124760000D02*
X158960000Y-125748427D01*
X163500000Y-126288427D02*
X163500000Y-80376750D01*
%TO.N,/LEFT_SHOULDER*%
X161500000Y-124760000D02*
X161500000Y-87500000D01*
X161500000Y-87500000D02*
X138380800Y-64380800D01*
%TO.N,GND*%
X160036000Y-56388000D02*
X160072000Y-56424000D01*
%TD*%
%TA.AperFunction,Conductor*%
%TO.N,GND*%
G36*
X130600599Y-47520185D02*
G01*
X130621241Y-47536819D01*
X131710566Y-48626144D01*
X131668508Y-48637414D01*
X131543092Y-48709822D01*
X131440690Y-48812224D01*
X131368282Y-48937640D01*
X131357012Y-48979697D01*
X130300683Y-47923368D01*
X130300682Y-47923369D01*
X130193996Y-48065885D01*
X130193991Y-48065893D01*
X130056891Y-48316973D01*
X129956909Y-48585036D01*
X129896100Y-48864569D01*
X129875691Y-49149930D01*
X129875691Y-49149933D01*
X129896100Y-49435294D01*
X129956909Y-49714827D01*
X130056891Y-49982890D01*
X130193991Y-50233970D01*
X130193996Y-50233978D01*
X130300682Y-50376493D01*
X130300683Y-50376494D01*
X131357012Y-49320165D01*
X131368282Y-49362224D01*
X131440690Y-49487640D01*
X131543092Y-49590042D01*
X131668508Y-49662450D01*
X131710565Y-49673719D01*
X130654236Y-50730047D01*
X130796760Y-50836739D01*
X130796761Y-50836740D01*
X131047842Y-50973840D01*
X131047841Y-50973840D01*
X131315904Y-51073822D01*
X131595437Y-51134631D01*
X131880799Y-51155041D01*
X131880801Y-51155041D01*
X132166162Y-51134631D01*
X132445695Y-51073822D01*
X132713758Y-50973840D01*
X132964847Y-50836735D01*
X133107361Y-50730048D01*
X133107362Y-50730047D01*
X132051035Y-49673719D01*
X132093092Y-49662450D01*
X132218508Y-49590042D01*
X132320910Y-49487640D01*
X132393318Y-49362224D01*
X132404587Y-49320166D01*
X133460915Y-50376494D01*
X133460916Y-50376493D01*
X133567603Y-50233979D01*
X133704708Y-49982890D01*
X133804690Y-49714827D01*
X133865499Y-49435294D01*
X133885909Y-49149933D01*
X133885909Y-49149930D01*
X133865499Y-48864569D01*
X133804690Y-48585036D01*
X133704708Y-48316973D01*
X133567608Y-48065893D01*
X133567607Y-48065892D01*
X133460915Y-47923368D01*
X132404587Y-48979696D01*
X132393318Y-48937640D01*
X132320910Y-48812224D01*
X132218508Y-48709822D01*
X132093092Y-48637414D01*
X132051034Y-48626144D01*
X133140359Y-47536819D01*
X133201682Y-47503334D01*
X133228040Y-47500500D01*
X137033560Y-47500500D01*
X137100599Y-47520185D01*
X137121241Y-47536819D01*
X138210566Y-48626144D01*
X138168508Y-48637414D01*
X138043092Y-48709822D01*
X137940690Y-48812224D01*
X137868282Y-48937640D01*
X137857012Y-48979697D01*
X136800683Y-47923368D01*
X136800682Y-47923369D01*
X136693996Y-48065885D01*
X136693991Y-48065893D01*
X136556891Y-48316973D01*
X136456909Y-48585036D01*
X136396100Y-48864569D01*
X136375691Y-49149930D01*
X136375691Y-49149933D01*
X136396100Y-49435294D01*
X136456909Y-49714827D01*
X136556891Y-49982890D01*
X136693991Y-50233970D01*
X136693996Y-50233978D01*
X136800682Y-50376493D01*
X136800683Y-50376494D01*
X137857012Y-49320165D01*
X137868282Y-49362224D01*
X137940690Y-49487640D01*
X138043092Y-49590042D01*
X138168508Y-49662450D01*
X138210565Y-49673719D01*
X137154236Y-50730047D01*
X137296760Y-50836739D01*
X137296761Y-50836740D01*
X137547842Y-50973840D01*
X137547841Y-50973840D01*
X137815904Y-51073822D01*
X138095437Y-51134631D01*
X138380799Y-51155041D01*
X138380801Y-51155041D01*
X138666162Y-51134631D01*
X138727498Y-51121288D01*
X164149500Y-51121288D01*
X164181161Y-51361785D01*
X164243947Y-51596104D01*
X164303615Y-51740154D01*
X164336776Y-51820212D01*
X164458064Y-52030289D01*
X164458066Y-52030292D01*
X164458067Y-52030293D01*
X164605733Y-52222736D01*
X164605739Y-52222743D01*
X164777256Y-52394260D01*
X164777262Y-52394265D01*
X164969711Y-52541936D01*
X165179788Y-52663224D01*
X165403900Y-52756054D01*
X165638211Y-52818838D01*
X165818586Y-52842584D01*
X165878711Y-52850500D01*
X165878712Y-52850500D01*
X166121289Y-52850500D01*
X166169388Y-52844167D01*
X166361789Y-52818838D01*
X166596100Y-52756054D01*
X166820212Y-52663224D01*
X167030289Y-52541936D01*
X167222738Y-52394265D01*
X167394265Y-52222738D01*
X167541936Y-52030289D01*
X167663224Y-51820212D01*
X167756054Y-51596100D01*
X167818838Y-51361789D01*
X167850500Y-51121288D01*
X167850500Y-50878712D01*
X167818838Y-50638211D01*
X167756054Y-50403900D01*
X167663224Y-50179788D01*
X167541936Y-49969711D01*
X167394265Y-49777262D01*
X167394260Y-49777256D01*
X167222743Y-49605739D01*
X167222736Y-49605733D01*
X167030293Y-49458067D01*
X167030292Y-49458066D01*
X167030289Y-49458064D01*
X166820212Y-49336776D01*
X166820205Y-49336773D01*
X166596104Y-49243947D01*
X166361785Y-49181161D01*
X166121289Y-49149500D01*
X166121288Y-49149500D01*
X165878712Y-49149500D01*
X165878711Y-49149500D01*
X165638214Y-49181161D01*
X165403895Y-49243947D01*
X165179794Y-49336773D01*
X165179785Y-49336777D01*
X164969706Y-49458067D01*
X164777263Y-49605733D01*
X164777256Y-49605739D01*
X164605739Y-49777256D01*
X164605733Y-49777263D01*
X164458067Y-49969706D01*
X164336777Y-50179785D01*
X164336773Y-50179794D01*
X164243947Y-50403895D01*
X164181161Y-50638214D01*
X164149500Y-50878711D01*
X164149500Y-51121288D01*
X138727498Y-51121288D01*
X138945695Y-51073822D01*
X139213758Y-50973840D01*
X139464847Y-50836735D01*
X139607361Y-50730048D01*
X139607362Y-50730047D01*
X138551035Y-49673719D01*
X138593092Y-49662450D01*
X138718508Y-49590042D01*
X138820910Y-49487640D01*
X138893318Y-49362224D01*
X138904587Y-49320166D01*
X139960915Y-50376494D01*
X139960916Y-50376493D01*
X140067603Y-50233979D01*
X140204708Y-49982890D01*
X140304690Y-49714827D01*
X140365499Y-49435294D01*
X140385909Y-49149933D01*
X140385909Y-49149930D01*
X140365499Y-48864569D01*
X140304690Y-48585036D01*
X140204708Y-48316973D01*
X140067608Y-48065893D01*
X140067607Y-48065892D01*
X139960915Y-47923368D01*
X138904587Y-48979696D01*
X138893318Y-48937640D01*
X138820910Y-48812224D01*
X138718508Y-48709822D01*
X138593092Y-48637414D01*
X138551034Y-48626144D01*
X139640359Y-47536819D01*
X139701682Y-47503334D01*
X139728040Y-47500500D01*
X169375500Y-47500500D01*
X169442539Y-47520185D01*
X169488294Y-47572989D01*
X169499500Y-47624500D01*
X169499500Y-76002374D01*
X169479815Y-76069413D01*
X169427011Y-76115168D01*
X169357853Y-76125112D01*
X169294297Y-76096087D01*
X169287819Y-76090055D01*
X161202076Y-68004312D01*
X161202075Y-68004311D01*
X161202074Y-68004310D01*
X161049199Y-67893240D01*
X160880836Y-67807454D01*
X160701118Y-67749059D01*
X160514486Y-67719500D01*
X160514481Y-67719500D01*
X160203997Y-67719500D01*
X160136958Y-67699815D01*
X160131112Y-67695818D01*
X160049686Y-67636659D01*
X160049685Y-67636658D01*
X160049683Y-67636657D01*
X159983965Y-67603172D01*
X159839246Y-67529433D01*
X159614618Y-67456446D01*
X159381347Y-67419500D01*
X159381342Y-67419500D01*
X157745158Y-67419500D01*
X157745153Y-67419500D01*
X157511881Y-67456446D01*
X157287253Y-67529433D01*
X157076816Y-67636657D01*
X156995389Y-67695818D01*
X156885740Y-67775483D01*
X156885738Y-67775485D01*
X156885737Y-67775485D01*
X156718735Y-67942487D01*
X156718735Y-67942488D01*
X156718733Y-67942490D01*
X156673818Y-68004310D01*
X156579907Y-68133566D01*
X156472683Y-68344003D01*
X156399696Y-68568631D01*
X156362750Y-68801902D01*
X156362750Y-69038097D01*
X156399696Y-69271368D01*
X156472683Y-69495996D01*
X156579907Y-69706433D01*
X156718733Y-69897510D01*
X156885740Y-70064517D01*
X156920377Y-70089683D01*
X156963042Y-70145013D01*
X156969021Y-70214626D01*
X156936415Y-70276421D01*
X156920380Y-70290315D01*
X156902615Y-70303222D01*
X156885738Y-70315484D01*
X156718735Y-70482487D01*
X156718735Y-70482488D01*
X156718733Y-70482490D01*
X156659112Y-70564550D01*
X156579907Y-70673566D01*
X156472683Y-70884003D01*
X156399696Y-71108631D01*
X156362750Y-71341902D01*
X156362750Y-71578097D01*
X156399696Y-71811368D01*
X156472683Y-72035996D01*
X156579907Y-72246433D01*
X156718733Y-72437510D01*
X156885740Y-72604517D01*
X156920377Y-72629683D01*
X156963042Y-72685013D01*
X156969021Y-72754626D01*
X156936415Y-72816421D01*
X156920380Y-72830315D01*
X156902615Y-72843222D01*
X156885738Y-72855484D01*
X156718735Y-73022487D01*
X156718735Y-73022488D01*
X156718733Y-73022490D01*
X156659112Y-73104550D01*
X156579907Y-73213566D01*
X156472683Y-73424003D01*
X156399696Y-73648631D01*
X156362750Y-73881902D01*
X156362750Y-74118097D01*
X156399696Y-74351368D01*
X156472683Y-74575996D01*
X156579907Y-74786433D01*
X156718733Y-74977510D01*
X156885740Y-75144517D01*
X156920377Y-75169683D01*
X156963042Y-75225013D01*
X156969021Y-75294626D01*
X156936415Y-75356421D01*
X156920380Y-75370315D01*
X156902615Y-75383222D01*
X156885738Y-75395484D01*
X156718735Y-75562487D01*
X156718735Y-75562488D01*
X156718733Y-75562490D01*
X156659112Y-75644550D01*
X156579907Y-75753566D01*
X156472683Y-75964003D01*
X156399696Y-76188631D01*
X156362750Y-76421902D01*
X156362750Y-76658097D01*
X156399696Y-76891368D01*
X156472683Y-77115996D01*
X156579907Y-77326433D01*
X156718733Y-77517510D01*
X156885740Y-77684517D01*
X157076817Y-77823343D01*
X157076823Y-77823347D01*
X157080969Y-77825888D01*
X157080200Y-77827142D01*
X157126225Y-77870607D01*
X157143023Y-77938427D01*
X157120489Y-78004563D01*
X157092023Y-78033439D01*
X157016363Y-78088410D01*
X157016354Y-78088417D01*
X156871667Y-78233104D01*
X156871667Y-78233105D01*
X156751390Y-78398650D01*
X156658494Y-78580970D01*
X156595259Y-78775586D01*
X156586641Y-78830000D01*
X158047676Y-78830000D01*
X158030697Y-78859409D01*
X157991750Y-79004761D01*
X157991750Y-79155239D01*
X158030697Y-79300591D01*
X158047676Y-79330000D01*
X156586641Y-79330000D01*
X156595259Y-79384413D01*
X156658494Y-79579029D01*
X156751390Y-79761349D01*
X156871667Y-79926894D01*
X156871667Y-79926895D01*
X157016354Y-80071582D01*
X157181900Y-80191859D01*
X157364218Y-80284755D01*
X157558832Y-80347990D01*
X157760933Y-80380000D01*
X158313250Y-80380000D01*
X158313250Y-79595573D01*
X158342659Y-79612553D01*
X158488011Y-79651500D01*
X158638489Y-79651500D01*
X158783841Y-79612553D01*
X158813250Y-79595573D01*
X158813250Y-80380000D01*
X159365567Y-80380000D01*
X159567667Y-80347990D01*
X159762281Y-80284755D01*
X159944599Y-80191859D01*
X160110144Y-80071582D01*
X160110145Y-80071582D01*
X160254832Y-79926895D01*
X160254832Y-79926894D01*
X160375109Y-79761349D01*
X160468005Y-79579031D01*
X160531239Y-79384420D01*
X160531270Y-79384226D01*
X160531302Y-79384157D01*
X160532375Y-79379689D01*
X160533313Y-79379914D01*
X160561197Y-79321090D01*
X160620507Y-79284156D01*
X160690370Y-79285152D01*
X160741423Y-79315937D01*
X160894792Y-79469305D01*
X162263181Y-80837694D01*
X162296666Y-80899017D01*
X162299500Y-80925375D01*
X162299500Y-86302374D01*
X162279815Y-86369413D01*
X162227011Y-86415168D01*
X162157853Y-86425112D01*
X162094297Y-86396087D01*
X162087819Y-86390055D01*
X139627764Y-63930000D01*
X151829092Y-63930000D01*
X151848701Y-64216680D01*
X151907166Y-64498034D01*
X151907167Y-64498037D01*
X152003394Y-64768793D01*
X152003393Y-64768793D01*
X152135598Y-65023935D01*
X152301312Y-65258700D01*
X152386423Y-65349831D01*
X152497447Y-65468708D01*
X152720353Y-65650055D01*
X152916542Y-65769361D01*
X152965882Y-65799365D01*
X153152737Y-65880526D01*
X153229442Y-65913844D01*
X153506142Y-65991371D01*
X153756420Y-66025771D01*
X153790821Y-66030500D01*
X153790822Y-66030500D01*
X154078179Y-66030500D01*
X154108870Y-66026281D01*
X154362858Y-65991371D01*
X154639558Y-65913844D01*
X154752515Y-65864779D01*
X154903117Y-65799365D01*
X154903120Y-65799363D01*
X154903125Y-65799361D01*
X155148647Y-65650055D01*
X155371553Y-65468708D01*
X155567689Y-65258698D01*
X155733401Y-65023936D01*
X155865604Y-64768797D01*
X155961834Y-64498032D01*
X156020298Y-64216686D01*
X156039908Y-63930000D01*
X156020298Y-63643314D01*
X155961834Y-63361968D01*
X155865605Y-63091206D01*
X155865606Y-63091206D01*
X155733401Y-62836064D01*
X155567687Y-62601299D01*
X155489054Y-62517105D01*
X155371553Y-62391292D01*
X155148647Y-62209945D01*
X155148646Y-62209944D01*
X154903117Y-62060634D01*
X154639563Y-61946158D01*
X154639561Y-61946157D01*
X154639558Y-61946156D01*
X154510078Y-61909877D01*
X154362864Y-61868630D01*
X154362859Y-61868629D01*
X154362858Y-61868629D01*
X154220518Y-61849064D01*
X154078179Y-61829500D01*
X154078178Y-61829500D01*
X153790822Y-61829500D01*
X153790821Y-61829500D01*
X153506142Y-61868629D01*
X153506135Y-61868630D01*
X153336514Y-61916156D01*
X153229442Y-61946156D01*
X153229439Y-61946156D01*
X153229436Y-61946158D01*
X153229435Y-61946158D01*
X152965882Y-62060634D01*
X152720353Y-62209944D01*
X152497450Y-62391289D01*
X152301312Y-62601299D01*
X152135598Y-62836064D01*
X152003394Y-63091206D01*
X151907167Y-63361962D01*
X151907166Y-63361965D01*
X151848701Y-63643319D01*
X151829092Y-63930000D01*
X139627764Y-63930000D01*
X139617619Y-63919855D01*
X139584134Y-63858532D01*
X139581300Y-63832174D01*
X139581300Y-61000000D01*
X157794778Y-61000000D01*
X157813644Y-61287837D01*
X157813646Y-61287849D01*
X157869917Y-61570745D01*
X157869921Y-61570760D01*
X157962642Y-61843905D01*
X158090219Y-62102606D01*
X158090223Y-62102613D01*
X158250478Y-62342452D01*
X158440672Y-62559327D01*
X158657547Y-62749521D01*
X158897386Y-62909776D01*
X158897393Y-62909780D01*
X158970370Y-62945768D01*
X159156098Y-63037359D01*
X159429247Y-63130081D01*
X159712161Y-63186356D01*
X160000000Y-63205222D01*
X160287839Y-63186356D01*
X160570753Y-63130081D01*
X160843902Y-63037359D01*
X161102611Y-62909778D01*
X161342454Y-62749520D01*
X161559327Y-62559327D01*
X161749520Y-62342454D01*
X161909778Y-62102611D01*
X162037359Y-61843902D01*
X162130081Y-61570753D01*
X162186356Y-61287839D01*
X162205222Y-61000000D01*
X164294778Y-61000000D01*
X164313644Y-61287837D01*
X164313646Y-61287849D01*
X164369917Y-61570745D01*
X164369921Y-61570760D01*
X164462642Y-61843905D01*
X164590219Y-62102606D01*
X164590223Y-62102613D01*
X164750478Y-62342452D01*
X164940672Y-62559327D01*
X165157547Y-62749521D01*
X165397386Y-62909776D01*
X165397393Y-62909780D01*
X165470370Y-62945768D01*
X165656098Y-63037359D01*
X165929247Y-63130081D01*
X166212161Y-63186356D01*
X166500000Y-63205222D01*
X166787839Y-63186356D01*
X167070753Y-63130081D01*
X167343902Y-63037359D01*
X167602611Y-62909778D01*
X167842454Y-62749520D01*
X168059327Y-62559327D01*
X168249520Y-62342454D01*
X168409778Y-62102611D01*
X168537359Y-61843902D01*
X168630081Y-61570753D01*
X168686356Y-61287839D01*
X168705222Y-61000000D01*
X168686356Y-60712161D01*
X168630081Y-60429247D01*
X168537359Y-60156098D01*
X168409778Y-59897389D01*
X168249520Y-59657546D01*
X168059327Y-59440672D01*
X167842452Y-59250478D01*
X167602613Y-59090223D01*
X167602606Y-59090219D01*
X167343905Y-58962642D01*
X167070760Y-58869921D01*
X167070754Y-58869919D01*
X167070753Y-58869919D01*
X167070751Y-58869918D01*
X167070745Y-58869917D01*
X166787849Y-58813646D01*
X166787839Y-58813644D01*
X166500000Y-58794778D01*
X166212161Y-58813644D01*
X166212155Y-58813645D01*
X166212150Y-58813646D01*
X165929254Y-58869917D01*
X165929239Y-58869921D01*
X165656094Y-58962642D01*
X165397393Y-59090219D01*
X165397386Y-59090223D01*
X165157547Y-59250478D01*
X164940672Y-59440672D01*
X164750478Y-59657547D01*
X164590223Y-59897386D01*
X164590219Y-59897393D01*
X164462642Y-60156094D01*
X164369921Y-60429239D01*
X164369917Y-60429254D01*
X164313646Y-60712150D01*
X164313644Y-60712162D01*
X164294778Y-61000000D01*
X162205222Y-61000000D01*
X162186356Y-60712161D01*
X162130081Y-60429247D01*
X162037359Y-60156098D01*
X161909778Y-59897389D01*
X161749520Y-59657546D01*
X161559327Y-59440672D01*
X161342452Y-59250478D01*
X161102613Y-59090223D01*
X161102606Y-59090219D01*
X160843905Y-58962642D01*
X160570760Y-58869921D01*
X160570754Y-58869919D01*
X160570753Y-58869919D01*
X160570751Y-58869918D01*
X160570745Y-58869917D01*
X160287849Y-58813646D01*
X160287839Y-58813644D01*
X160000000Y-58794778D01*
X159712161Y-58813644D01*
X159712155Y-58813645D01*
X159712150Y-58813646D01*
X159429254Y-58869917D01*
X159429239Y-58869921D01*
X159156094Y-58962642D01*
X158897393Y-59090219D01*
X158897386Y-59090223D01*
X158657547Y-59250478D01*
X158440672Y-59440672D01*
X158250478Y-59657547D01*
X158090223Y-59897386D01*
X158090219Y-59897393D01*
X157962642Y-60156094D01*
X157869921Y-60429239D01*
X157869917Y-60429254D01*
X157813646Y-60712150D01*
X157813644Y-60712162D01*
X157794778Y-61000000D01*
X139581300Y-61000000D01*
X139581300Y-56500001D01*
X157994891Y-56500001D01*
X158015300Y-56785362D01*
X158076109Y-57064895D01*
X158176091Y-57332958D01*
X158313191Y-57584038D01*
X158313196Y-57584046D01*
X158419882Y-57726561D01*
X158419883Y-57726562D01*
X159476212Y-56670233D01*
X159487482Y-56712292D01*
X159559890Y-56837708D01*
X159662292Y-56940110D01*
X159787708Y-57012518D01*
X159829765Y-57023787D01*
X158773436Y-58080115D01*
X158915960Y-58186807D01*
X158915961Y-58186808D01*
X159167042Y-58323908D01*
X159167041Y-58323908D01*
X159435104Y-58423890D01*
X159714637Y-58484699D01*
X159999999Y-58505109D01*
X160000001Y-58505109D01*
X160285362Y-58484699D01*
X160564895Y-58423890D01*
X160832958Y-58323908D01*
X161084047Y-58186803D01*
X161226561Y-58080116D01*
X161226562Y-58080115D01*
X160170235Y-57023787D01*
X160212292Y-57012518D01*
X160337708Y-56940110D01*
X160440110Y-56837708D01*
X160512518Y-56712292D01*
X160523787Y-56670234D01*
X161580115Y-57726562D01*
X161580116Y-57726561D01*
X161686803Y-57584047D01*
X161823908Y-57332958D01*
X161923890Y-57064895D01*
X161984699Y-56785362D01*
X162005109Y-56500001D01*
X164494891Y-56500001D01*
X164515300Y-56785362D01*
X164576109Y-57064895D01*
X164676091Y-57332958D01*
X164813191Y-57584038D01*
X164813196Y-57584046D01*
X164919882Y-57726561D01*
X164919883Y-57726562D01*
X165976212Y-56670233D01*
X165987482Y-56712292D01*
X166059890Y-56837708D01*
X166162292Y-56940110D01*
X166287708Y-57012518D01*
X166329765Y-57023787D01*
X165273436Y-58080115D01*
X165415960Y-58186807D01*
X165415961Y-58186808D01*
X165667042Y-58323908D01*
X165667041Y-58323908D01*
X165935104Y-58423890D01*
X166214637Y-58484699D01*
X166499999Y-58505109D01*
X166500001Y-58505109D01*
X166785362Y-58484699D01*
X167064895Y-58423890D01*
X167332958Y-58323908D01*
X167584047Y-58186803D01*
X167726561Y-58080116D01*
X167726562Y-58080115D01*
X166670235Y-57023787D01*
X166712292Y-57012518D01*
X166837708Y-56940110D01*
X166940110Y-56837708D01*
X167012518Y-56712292D01*
X167023787Y-56670234D01*
X168080115Y-57726562D01*
X168080116Y-57726561D01*
X168186803Y-57584047D01*
X168323908Y-57332958D01*
X168423890Y-57064895D01*
X168484699Y-56785362D01*
X168505109Y-56500001D01*
X168505109Y-56499998D01*
X168484699Y-56214637D01*
X168423890Y-55935104D01*
X168323908Y-55667041D01*
X168186808Y-55415961D01*
X168186807Y-55415960D01*
X168080115Y-55273436D01*
X167023787Y-56329764D01*
X167012518Y-56287708D01*
X166940110Y-56162292D01*
X166837708Y-56059890D01*
X166712292Y-55987482D01*
X166670234Y-55976212D01*
X167726562Y-54919883D01*
X167726561Y-54919882D01*
X167584046Y-54813196D01*
X167584038Y-54813191D01*
X167332957Y-54676091D01*
X167332958Y-54676091D01*
X167064895Y-54576109D01*
X166785362Y-54515300D01*
X166500001Y-54494891D01*
X166499999Y-54494891D01*
X166214637Y-54515300D01*
X165935104Y-54576109D01*
X165667041Y-54676091D01*
X165415961Y-54813191D01*
X165415953Y-54813196D01*
X165273437Y-54919882D01*
X165273436Y-54919883D01*
X166329766Y-55976212D01*
X166287708Y-55987482D01*
X166162292Y-56059890D01*
X166059890Y-56162292D01*
X165987482Y-56287708D01*
X165976212Y-56329765D01*
X164919883Y-55273436D01*
X164919882Y-55273437D01*
X164813196Y-55415953D01*
X164813191Y-55415961D01*
X164676091Y-55667041D01*
X164576109Y-55935104D01*
X164515300Y-56214637D01*
X164494891Y-56499998D01*
X164494891Y-56500001D01*
X162005109Y-56500001D01*
X162005109Y-56499998D01*
X161984699Y-56214637D01*
X161923890Y-55935104D01*
X161823908Y-55667041D01*
X161686808Y-55415961D01*
X161686807Y-55415960D01*
X161580115Y-55273436D01*
X160523787Y-56329764D01*
X160512518Y-56287708D01*
X160440110Y-56162292D01*
X160337708Y-56059890D01*
X160212292Y-55987482D01*
X160170234Y-55976212D01*
X161226562Y-54919883D01*
X161226561Y-54919882D01*
X161084046Y-54813196D01*
X161084038Y-54813191D01*
X160832957Y-54676091D01*
X160832958Y-54676091D01*
X160564895Y-54576109D01*
X160285362Y-54515300D01*
X160000001Y-54494891D01*
X159999999Y-54494891D01*
X159714637Y-54515300D01*
X159435104Y-54576109D01*
X159167041Y-54676091D01*
X158915961Y-54813191D01*
X158915953Y-54813196D01*
X158773437Y-54919882D01*
X158773436Y-54919883D01*
X159829766Y-55976212D01*
X159787708Y-55987482D01*
X159662292Y-56059890D01*
X159559890Y-56162292D01*
X159487482Y-56287708D01*
X159476212Y-56329765D01*
X158419883Y-55273436D01*
X158419882Y-55273437D01*
X158313196Y-55415953D01*
X158313191Y-55415961D01*
X158176091Y-55667041D01*
X158076109Y-55935104D01*
X158015300Y-56214637D01*
X157994891Y-56499998D01*
X157994891Y-56500001D01*
X139581300Y-56500001D01*
X139581300Y-55560581D01*
X139600985Y-55493542D01*
X139636407Y-55457480D01*
X139723254Y-55399452D01*
X139940127Y-55209259D01*
X140130320Y-54992386D01*
X140290578Y-54752543D01*
X140418159Y-54493834D01*
X140510881Y-54220685D01*
X140567156Y-53937771D01*
X140586022Y-53649932D01*
X140567156Y-53362093D01*
X140510881Y-53079179D01*
X140418159Y-52806030D01*
X140290578Y-52547321D01*
X140130320Y-52307478D01*
X139940127Y-52090604D01*
X139723252Y-51900410D01*
X139483413Y-51740155D01*
X139483406Y-51740151D01*
X139224705Y-51612574D01*
X138951560Y-51519853D01*
X138951554Y-51519851D01*
X138951553Y-51519851D01*
X138951551Y-51519850D01*
X138951545Y-51519849D01*
X138668649Y-51463578D01*
X138668639Y-51463576D01*
X138380800Y-51444710D01*
X138092961Y-51463576D01*
X138092955Y-51463577D01*
X138092950Y-51463578D01*
X137810054Y-51519849D01*
X137810039Y-51519853D01*
X137536894Y-51612574D01*
X137278193Y-51740151D01*
X137278186Y-51740155D01*
X137038347Y-51900410D01*
X136821472Y-52090604D01*
X136631278Y-52307479D01*
X136471023Y-52547318D01*
X136471019Y-52547325D01*
X136343442Y-52806026D01*
X136250721Y-53079171D01*
X136250717Y-53079186D01*
X136194446Y-53362082D01*
X136194444Y-53362094D01*
X136175578Y-53649932D01*
X136194444Y-53937769D01*
X136194446Y-53937781D01*
X136250717Y-54220677D01*
X136250721Y-54220692D01*
X136343442Y-54493837D01*
X136471019Y-54752538D01*
X136471023Y-54752545D01*
X136631278Y-54992384D01*
X136821472Y-55209259D01*
X137038342Y-55399449D01*
X137038344Y-55399450D01*
X137038346Y-55399452D01*
X137125191Y-55457480D01*
X137169995Y-55511090D01*
X137180300Y-55560581D01*
X137180300Y-64475286D01*
X137209859Y-64661918D01*
X137268254Y-64841636D01*
X137346301Y-64994810D01*
X137354040Y-65009999D01*
X137465110Y-65162874D01*
X137465112Y-65162876D01*
X154080705Y-81778469D01*
X154114190Y-81839792D01*
X154109206Y-81909484D01*
X154067334Y-81965417D01*
X154001870Y-81989834D01*
X153993024Y-81990150D01*
X153800821Y-81990150D01*
X153516142Y-82029279D01*
X153516135Y-82029280D01*
X153308361Y-82087495D01*
X153239442Y-82106806D01*
X153239439Y-82106806D01*
X153239436Y-82106808D01*
X153239435Y-82106808D01*
X152975882Y-82221284D01*
X152730353Y-82370594D01*
X152507450Y-82551939D01*
X152507447Y-82551941D01*
X152507447Y-82551942D01*
X152498715Y-82561292D01*
X152311312Y-82761949D01*
X152145598Y-82996714D01*
X152013394Y-83251856D01*
X151917167Y-83522612D01*
X151917166Y-83522615D01*
X151858701Y-83803969D01*
X151839092Y-84090650D01*
X151858701Y-84377330D01*
X151917166Y-84658684D01*
X151917167Y-84658687D01*
X152013394Y-84929443D01*
X152013393Y-84929443D01*
X152145598Y-85184585D01*
X152311312Y-85419350D01*
X152396423Y-85510481D01*
X152507447Y-85629358D01*
X152730353Y-85810705D01*
X152975882Y-85960015D01*
X153162737Y-86041176D01*
X153239442Y-86074494D01*
X153516142Y-86152021D01*
X153766420Y-86186421D01*
X153800821Y-86191150D01*
X153800822Y-86191150D01*
X154088179Y-86191150D01*
X154118870Y-86186931D01*
X154372858Y-86152021D01*
X154649558Y-86074494D01*
X154762515Y-86025429D01*
X154913117Y-85960015D01*
X154913120Y-85960013D01*
X154913125Y-85960011D01*
X155158647Y-85810705D01*
X155381553Y-85629358D01*
X155577689Y-85419348D01*
X155743401Y-85184586D01*
X155875604Y-84929447D01*
X155971834Y-84658682D01*
X156030298Y-84377336D01*
X156049908Y-84090650D01*
X156047305Y-84052603D01*
X156062368Y-83984379D01*
X156111926Y-83935127D01*
X156180244Y-83920486D01*
X156245633Y-83945105D01*
X156258697Y-83956461D01*
X160263181Y-87960945D01*
X160296666Y-88022268D01*
X160299500Y-88048626D01*
X160299500Y-122978111D01*
X160279815Y-123045150D01*
X160227011Y-123090905D01*
X160157853Y-123100849D01*
X160094297Y-123071824D01*
X160087819Y-123065792D01*
X159937512Y-122915485D01*
X159937510Y-122915483D01*
X159746433Y-122776657D01*
X159535996Y-122669433D01*
X159311368Y-122596446D01*
X159078097Y-122559500D01*
X159078092Y-122559500D01*
X158841908Y-122559500D01*
X158841903Y-122559500D01*
X158608631Y-122596446D01*
X158384003Y-122669433D01*
X158173566Y-122776657D01*
X158080719Y-122844115D01*
X157982490Y-122915483D01*
X157982488Y-122915485D01*
X157982487Y-122915485D01*
X157815484Y-123082488D01*
X157790318Y-123117127D01*
X157734987Y-123159792D01*
X157665374Y-123165771D01*
X157603579Y-123133165D01*
X157589682Y-123117127D01*
X157564517Y-123082490D01*
X157397510Y-122915483D01*
X157206433Y-122776657D01*
X156995996Y-122669433D01*
X156771368Y-122596446D01*
X156538097Y-122559500D01*
X156538092Y-122559500D01*
X156301908Y-122559500D01*
X156301903Y-122559500D01*
X156068631Y-122596446D01*
X155844003Y-122669433D01*
X155633566Y-122776657D01*
X155540719Y-122844115D01*
X155442490Y-122915483D01*
X155442488Y-122915485D01*
X155442487Y-122915485D01*
X155275484Y-123082488D01*
X155250318Y-123117127D01*
X155194987Y-123159792D01*
X155125374Y-123165771D01*
X155063579Y-123133165D01*
X155049682Y-123117127D01*
X155024517Y-123082490D01*
X154857510Y-122915483D01*
X154666433Y-122776657D01*
X154455996Y-122669433D01*
X154231368Y-122596446D01*
X153998097Y-122559500D01*
X153998092Y-122559500D01*
X153761908Y-122559500D01*
X153761903Y-122559500D01*
X153528631Y-122596446D01*
X153304003Y-122669433D01*
X153093566Y-122776657D01*
X153000719Y-122844115D01*
X152902490Y-122915483D01*
X152902488Y-122915485D01*
X152902487Y-122915485D01*
X152735484Y-123082488D01*
X152710318Y-123117127D01*
X152654987Y-123159792D01*
X152585374Y-123165771D01*
X152523579Y-123133165D01*
X152509682Y-123117127D01*
X152484517Y-123082490D01*
X152317510Y-122915483D01*
X152126433Y-122776657D01*
X151915996Y-122669433D01*
X151691368Y-122596446D01*
X151458097Y-122559500D01*
X151458092Y-122559500D01*
X151221908Y-122559500D01*
X151221903Y-122559500D01*
X150988631Y-122596446D01*
X150764003Y-122669433D01*
X150553566Y-122776657D01*
X150460719Y-122844115D01*
X150362490Y-122915483D01*
X150362488Y-122915485D01*
X150362487Y-122915485D01*
X150195484Y-123082488D01*
X150170318Y-123117127D01*
X150114987Y-123159792D01*
X150045374Y-123165771D01*
X149983579Y-123133165D01*
X149969682Y-123117127D01*
X149944517Y-123082490D01*
X149777510Y-122915483D01*
X149608133Y-122792423D01*
X149565468Y-122737093D01*
X149559489Y-122667479D01*
X149592095Y-122605684D01*
X149593264Y-122604498D01*
X150755944Y-121441819D01*
X150817267Y-121408334D01*
X150843625Y-121405500D01*
X153066613Y-121405500D01*
X153066616Y-121405500D01*
X153137196Y-121399086D01*
X153299606Y-121348478D01*
X153445185Y-121260472D01*
X153565472Y-121140185D01*
X153653478Y-120994606D01*
X153704086Y-120832196D01*
X153710500Y-120761616D01*
X153710500Y-118238384D01*
X153704086Y-118167804D01*
X153653478Y-118005394D01*
X153565472Y-117859815D01*
X153565470Y-117859813D01*
X153565469Y-117859811D01*
X153445188Y-117739530D01*
X153299606Y-117651522D01*
X153137196Y-117600914D01*
X153137194Y-117600913D01*
X153137192Y-117600913D01*
X153087778Y-117596423D01*
X153066616Y-117594500D01*
X148933384Y-117594500D01*
X148914145Y-117596248D01*
X148862807Y-117600913D01*
X148700393Y-117651522D01*
X148554811Y-117739530D01*
X148434530Y-117859811D01*
X148346522Y-118005393D01*
X148295913Y-118167807D01*
X148289500Y-118238386D01*
X148289500Y-120461374D01*
X148269815Y-120528413D01*
X148253181Y-120549055D01*
X148134055Y-120668181D01*
X148072732Y-120701666D01*
X148046374Y-120704500D01*
X140401307Y-120704500D01*
X140334268Y-120684815D01*
X140288513Y-120632011D01*
X140278569Y-120562853D01*
X140302931Y-120505014D01*
X140345690Y-120449288D01*
X140345701Y-120449272D01*
X140457445Y-120255727D01*
X140457453Y-120255711D01*
X140542979Y-120049230D01*
X140600827Y-119833339D01*
X140611799Y-119750000D01*
X139141691Y-119750000D01*
X139189066Y-119702625D01*
X139232511Y-119627375D01*
X139255000Y-119543445D01*
X139255000Y-119456555D01*
X139232511Y-119372625D01*
X139189066Y-119297375D01*
X139141691Y-119250000D01*
X140611798Y-119250000D01*
X140600827Y-119166660D01*
X140542979Y-118950769D01*
X140457453Y-118744288D01*
X140457445Y-118744272D01*
X140345701Y-118550727D01*
X140345690Y-118550711D01*
X140209638Y-118373404D01*
X140209632Y-118373397D01*
X140051602Y-118215367D01*
X140051595Y-118215361D01*
X139874288Y-118079309D01*
X139874272Y-118079298D01*
X139680727Y-117967554D01*
X139680711Y-117967546D01*
X139474230Y-117882020D01*
X139258339Y-117824172D01*
X139036761Y-117795001D01*
X139036745Y-117795000D01*
X138370000Y-117795000D01*
X138370000Y-119170000D01*
X137870000Y-119170000D01*
X137870000Y-117795000D01*
X137203255Y-117795000D01*
X137203238Y-117795001D01*
X136981660Y-117824172D01*
X136765769Y-117882020D01*
X136559288Y-117967546D01*
X136559272Y-117967554D01*
X136365727Y-118079298D01*
X136365711Y-118079309D01*
X136188404Y-118215361D01*
X136188397Y-118215367D01*
X136030367Y-118373397D01*
X136030361Y-118373404D01*
X135894309Y-118550711D01*
X135894298Y-118550727D01*
X135782554Y-118744272D01*
X135782546Y-118744288D01*
X135697020Y-118950769D01*
X135639172Y-119166660D01*
X135628201Y-119250000D01*
X137098309Y-119250000D01*
X137050934Y-119297375D01*
X137007489Y-119372625D01*
X136985000Y-119456555D01*
X136985000Y-119543445D01*
X137007489Y-119627375D01*
X137050934Y-119702625D01*
X137098309Y-119750000D01*
X135628201Y-119750000D01*
X135639172Y-119833339D01*
X135697020Y-120049230D01*
X135782546Y-120255711D01*
X135782554Y-120255727D01*
X135894298Y-120449272D01*
X135894309Y-120449288D01*
X135937069Y-120505014D01*
X135962263Y-120570183D01*
X135948225Y-120638628D01*
X135899411Y-120688617D01*
X135838693Y-120704500D01*
X127600514Y-120704500D01*
X127413881Y-120734059D01*
X127234163Y-120792454D01*
X127065800Y-120878240D01*
X126978579Y-120941610D01*
X126912927Y-120989310D01*
X126912925Y-120989312D01*
X126912924Y-120989312D01*
X125058119Y-122844115D01*
X125043325Y-122856751D01*
X124962490Y-122915482D01*
X124795485Y-123082487D01*
X124795485Y-123082488D01*
X124795483Y-123082490D01*
X124739501Y-123159543D01*
X124656657Y-123273566D01*
X124549433Y-123484003D01*
X124476446Y-123708631D01*
X124439500Y-123941902D01*
X124439500Y-125578097D01*
X124476446Y-125811368D01*
X124549433Y-126035996D01*
X124631486Y-126197032D01*
X124656657Y-126246433D01*
X124795483Y-126437510D01*
X124962490Y-126604517D01*
X125153567Y-126743343D01*
X125252991Y-126794002D01*
X125364003Y-126850566D01*
X125364005Y-126850566D01*
X125364008Y-126850568D01*
X125467575Y-126884219D01*
X125588631Y-126923553D01*
X125821903Y-126960500D01*
X125821908Y-126960500D01*
X126058097Y-126960500D01*
X126291368Y-126923553D01*
X126515992Y-126850568D01*
X126726433Y-126743343D01*
X126917510Y-126604517D01*
X127084517Y-126437510D01*
X127223343Y-126246433D01*
X127223347Y-126246426D01*
X127225888Y-126242281D01*
X127227145Y-126243051D01*
X127270592Y-126197032D01*
X127338410Y-126180225D01*
X127404549Y-126202751D01*
X127433440Y-126231226D01*
X127488417Y-126306894D01*
X127488417Y-126306895D01*
X127633104Y-126451582D01*
X127798650Y-126571859D01*
X127980968Y-126664754D01*
X128175578Y-126727988D01*
X128230000Y-126736607D01*
X128230000Y-125193012D01*
X128287007Y-125225925D01*
X128414174Y-125260000D01*
X128545826Y-125260000D01*
X128672993Y-125225925D01*
X128730000Y-125193012D01*
X128730000Y-126736606D01*
X128784421Y-126727988D01*
X128979031Y-126664754D01*
X129161349Y-126571859D01*
X129326894Y-126451582D01*
X129326895Y-126451582D01*
X129471582Y-126306895D01*
X129471587Y-126306889D01*
X129526559Y-126231227D01*
X129581888Y-126188561D01*
X129651502Y-126182582D01*
X129713297Y-126215187D01*
X129733539Y-126242631D01*
X129734112Y-126242281D01*
X129736652Y-126246426D01*
X129736656Y-126246432D01*
X129736657Y-126246433D01*
X129875483Y-126437510D01*
X130042490Y-126604517D01*
X130233567Y-126743343D01*
X130332991Y-126794002D01*
X130444003Y-126850566D01*
X130444005Y-126850566D01*
X130444008Y-126850568D01*
X130547575Y-126884219D01*
X130668631Y-126923553D01*
X130901903Y-126960500D01*
X130901908Y-126960500D01*
X131138097Y-126960500D01*
X131371368Y-126923553D01*
X131595992Y-126850568D01*
X131806433Y-126743343D01*
X131997510Y-126604517D01*
X132164517Y-126437510D01*
X132189682Y-126402872D01*
X132245011Y-126360207D01*
X132314625Y-126354228D01*
X132376420Y-126386833D01*
X132390315Y-126402870D01*
X132415483Y-126437510D01*
X132582490Y-126604517D01*
X132773567Y-126743343D01*
X132872991Y-126794002D01*
X132984003Y-126850566D01*
X132984005Y-126850566D01*
X132984008Y-126850568D01*
X133087575Y-126884219D01*
X133208631Y-126923553D01*
X133441903Y-126960500D01*
X133441908Y-126960500D01*
X133678097Y-126960500D01*
X133911368Y-126923553D01*
X134135992Y-126850568D01*
X134346433Y-126743343D01*
X134537510Y-126604517D01*
X134704517Y-126437510D01*
X134729682Y-126402872D01*
X134785011Y-126360207D01*
X134854625Y-126354228D01*
X134916420Y-126386833D01*
X134930315Y-126402870D01*
X134955483Y-126437510D01*
X135122490Y-126604517D01*
X135313567Y-126743343D01*
X135412991Y-126794002D01*
X135524003Y-126850566D01*
X135524005Y-126850566D01*
X135524008Y-126850568D01*
X135627575Y-126884219D01*
X135748631Y-126923553D01*
X135981903Y-126960500D01*
X135981908Y-126960500D01*
X136218097Y-126960500D01*
X136451368Y-126923553D01*
X136675992Y-126850568D01*
X136886433Y-126743343D01*
X137077510Y-126604517D01*
X137244517Y-126437510D01*
X137269682Y-126402872D01*
X137325011Y-126360207D01*
X137394625Y-126354228D01*
X137456420Y-126386833D01*
X137470315Y-126402870D01*
X137495483Y-126437510D01*
X137662490Y-126604517D01*
X137853567Y-126743343D01*
X137952991Y-126794002D01*
X138064003Y-126850566D01*
X138064005Y-126850566D01*
X138064008Y-126850568D01*
X138167575Y-126884219D01*
X138288631Y-126923553D01*
X138521903Y-126960500D01*
X138521908Y-126960500D01*
X138758097Y-126960500D01*
X138991368Y-126923553D01*
X139215992Y-126850568D01*
X139426433Y-126743343D01*
X139617510Y-126604517D01*
X139784517Y-126437510D01*
X139809682Y-126402872D01*
X139865011Y-126360207D01*
X139934625Y-126354228D01*
X139996420Y-126386833D01*
X140010315Y-126402870D01*
X140035483Y-126437510D01*
X140202490Y-126604517D01*
X140393567Y-126743343D01*
X140492991Y-126794002D01*
X140604003Y-126850566D01*
X140604005Y-126850566D01*
X140604008Y-126850568D01*
X140707575Y-126884219D01*
X140828631Y-126923553D01*
X141061903Y-126960500D01*
X141061908Y-126960500D01*
X141298097Y-126960500D01*
X141531368Y-126923553D01*
X141755992Y-126850568D01*
X141966433Y-126743343D01*
X142157510Y-126604517D01*
X142324517Y-126437510D01*
X142349682Y-126402872D01*
X142405011Y-126360207D01*
X142474625Y-126354228D01*
X142536420Y-126386833D01*
X142550315Y-126402870D01*
X142575483Y-126437510D01*
X142742490Y-126604517D01*
X142933567Y-126743343D01*
X143032991Y-126794002D01*
X143144003Y-126850566D01*
X143144005Y-126850566D01*
X143144008Y-126850568D01*
X143247575Y-126884219D01*
X143368631Y-126923553D01*
X143601903Y-126960500D01*
X143601908Y-126960500D01*
X143838097Y-126960500D01*
X144071368Y-126923553D01*
X144295992Y-126850568D01*
X144506433Y-126743343D01*
X144697510Y-126604517D01*
X144864517Y-126437510D01*
X144889682Y-126402872D01*
X144945011Y-126360207D01*
X145014625Y-126354228D01*
X145076420Y-126386833D01*
X145090315Y-126402870D01*
X145115483Y-126437510D01*
X145282490Y-126604517D01*
X145473567Y-126743343D01*
X145572991Y-126794002D01*
X145684003Y-126850566D01*
X145684005Y-126850566D01*
X145684008Y-126850568D01*
X145787575Y-126884219D01*
X145908631Y-126923553D01*
X146141903Y-126960500D01*
X146141908Y-126960500D01*
X146378097Y-126960500D01*
X146611368Y-126923553D01*
X146835992Y-126850568D01*
X147046433Y-126743343D01*
X147237510Y-126604517D01*
X147404517Y-126437510D01*
X147429682Y-126402872D01*
X147485011Y-126360207D01*
X147554625Y-126354228D01*
X147616420Y-126386833D01*
X147630315Y-126402870D01*
X147655483Y-126437510D01*
X147822490Y-126604517D01*
X148013567Y-126743343D01*
X148112991Y-126794002D01*
X148224003Y-126850566D01*
X148224005Y-126850566D01*
X148224008Y-126850568D01*
X148327575Y-126884219D01*
X148448631Y-126923553D01*
X148681903Y-126960500D01*
X148681908Y-126960500D01*
X148918097Y-126960500D01*
X149151368Y-126923553D01*
X149375992Y-126850568D01*
X149586433Y-126743343D01*
X149777510Y-126604517D01*
X149944517Y-126437510D01*
X149969682Y-126402872D01*
X150025011Y-126360207D01*
X150094625Y-126354228D01*
X150156420Y-126386833D01*
X150170315Y-126402870D01*
X150195483Y-126437510D01*
X150362490Y-126604517D01*
X150553567Y-126743343D01*
X150706486Y-126821259D01*
X150737871Y-126844062D01*
X151641628Y-127747819D01*
X151675113Y-127809142D01*
X151670129Y-127878834D01*
X151628257Y-127934767D01*
X151562793Y-127959184D01*
X151553947Y-127959500D01*
X124804461Y-127959500D01*
X124737422Y-127939815D01*
X124716780Y-127923181D01*
X123986819Y-127193219D01*
X123953334Y-127131896D01*
X123950500Y-127105538D01*
X123950500Y-121394462D01*
X123970185Y-121327423D01*
X123986819Y-121306781D01*
X129556781Y-115736819D01*
X129618104Y-115703334D01*
X129644462Y-115700500D01*
X152094486Y-115700500D01*
X152281118Y-115670940D01*
X152460832Y-115612547D01*
X152629199Y-115526760D01*
X152782074Y-115415690D01*
X158415690Y-109782073D01*
X158526760Y-109629199D01*
X158612547Y-109460832D01*
X158670940Y-109281118D01*
X158682961Y-109205221D01*
X158700500Y-109094486D01*
X158700500Y-100905513D01*
X158670940Y-100718881D01*
X158620500Y-100563644D01*
X158612547Y-100539168D01*
X158612545Y-100539165D01*
X158612545Y-100539163D01*
X158549779Y-100415978D01*
X158526760Y-100370801D01*
X158466136Y-100287359D01*
X158415690Y-100217926D01*
X156949914Y-98752150D01*
X156916429Y-98690827D01*
X156915978Y-98640282D01*
X156936356Y-98537839D01*
X156955222Y-98250000D01*
X156936356Y-97962161D01*
X156880081Y-97679247D01*
X156787359Y-97406098D01*
X156659778Y-97147389D01*
X156499520Y-96907546D01*
X156309327Y-96690672D01*
X156092452Y-96500478D01*
X155852613Y-96340223D01*
X155852606Y-96340219D01*
X155593905Y-96212642D01*
X155320760Y-96119921D01*
X155320754Y-96119919D01*
X155320753Y-96119919D01*
X155320751Y-96119918D01*
X155320745Y-96119917D01*
X155037849Y-96063646D01*
X155037839Y-96063644D01*
X154750000Y-96044778D01*
X154462161Y-96063644D01*
X154462155Y-96063645D01*
X154462150Y-96063646D01*
X154179254Y-96119917D01*
X154179239Y-96119921D01*
X153906094Y-96212642D01*
X153647393Y-96340219D01*
X153647386Y-96340223D01*
X153407547Y-96500478D01*
X153190672Y-96690672D01*
X153000478Y-96907547D01*
X152840223Y-97147386D01*
X152840219Y-97147393D01*
X152712642Y-97406094D01*
X152619921Y-97679239D01*
X152619917Y-97679254D01*
X152563646Y-97962150D01*
X152563644Y-97962162D01*
X152544778Y-98250000D01*
X152563644Y-98537837D01*
X152563646Y-98537849D01*
X152619917Y-98820745D01*
X152619921Y-98820760D01*
X152712642Y-99093905D01*
X152840219Y-99352606D01*
X152840223Y-99352613D01*
X153000478Y-99592452D01*
X153190672Y-99809327D01*
X153407546Y-99999520D01*
X153647389Y-100159778D01*
X153906098Y-100287359D01*
X154179247Y-100380081D01*
X154462161Y-100436356D01*
X154750000Y-100455222D01*
X155037839Y-100436356D01*
X155140280Y-100415978D01*
X155209868Y-100422204D01*
X155252150Y-100449914D01*
X155416875Y-100614639D01*
X155450360Y-100675962D01*
X155445376Y-100745654D01*
X155403504Y-100801587D01*
X155338040Y-100826004D01*
X155302836Y-100823486D01*
X155035362Y-100765300D01*
X154750001Y-100744891D01*
X154749999Y-100744891D01*
X154464637Y-100765300D01*
X154185104Y-100826109D01*
X153917041Y-100926091D01*
X153665961Y-101063191D01*
X153665953Y-101063196D01*
X153523436Y-101169882D01*
X154579765Y-102226212D01*
X154537708Y-102237482D01*
X154412292Y-102309890D01*
X154309890Y-102412292D01*
X154237482Y-102537708D01*
X154226212Y-102579765D01*
X153169883Y-101523436D01*
X153169882Y-101523437D01*
X153063196Y-101665953D01*
X153063191Y-101665961D01*
X152926091Y-101917041D01*
X152826109Y-102185104D01*
X152765300Y-102464637D01*
X152744891Y-102749998D01*
X152744891Y-102750001D01*
X152765300Y-103035362D01*
X152826109Y-103314895D01*
X152926091Y-103582958D01*
X153063191Y-103834038D01*
X153063196Y-103834046D01*
X153169882Y-103976561D01*
X153169883Y-103976562D01*
X154226212Y-102920233D01*
X154237482Y-102962292D01*
X154309890Y-103087708D01*
X154412292Y-103190110D01*
X154537708Y-103262518D01*
X154579763Y-103273787D01*
X153523436Y-104330115D01*
X153665960Y-104436807D01*
X153665961Y-104436808D01*
X153917042Y-104573908D01*
X153917041Y-104573908D01*
X154185104Y-104673890D01*
X154464637Y-104734699D01*
X154749999Y-104755109D01*
X154750001Y-104755109D01*
X155035362Y-104734699D01*
X155314895Y-104673890D01*
X155582958Y-104573908D01*
X155834038Y-104436808D01*
X155834039Y-104436807D01*
X156063065Y-104265360D01*
X156063077Y-104265350D01*
X156087819Y-104240609D01*
X156149142Y-104207124D01*
X156218834Y-104212108D01*
X156274767Y-104253980D01*
X156299184Y-104319444D01*
X156299500Y-104328290D01*
X156299500Y-108451374D01*
X156279815Y-108518413D01*
X156263181Y-108539055D01*
X151539055Y-113263181D01*
X151477732Y-113296666D01*
X151451374Y-113299500D01*
X147306059Y-113299500D01*
X147239020Y-113279815D01*
X147193265Y-113227011D01*
X147183321Y-113157853D01*
X147212346Y-113094297D01*
X147226489Y-113081128D01*
X147226562Y-113080115D01*
X146170235Y-112023787D01*
X146212292Y-112012518D01*
X146337708Y-111940110D01*
X146440110Y-111837708D01*
X146512518Y-111712292D01*
X146523787Y-111670234D01*
X147580115Y-112726562D01*
X147580116Y-112726561D01*
X147686803Y-112584047D01*
X147823908Y-112332958D01*
X147923890Y-112064895D01*
X147984699Y-111785362D01*
X148005109Y-111500001D01*
X148005109Y-111499998D01*
X147984699Y-111214637D01*
X147923890Y-110935104D01*
X147823908Y-110667041D01*
X147686808Y-110415961D01*
X147686807Y-110415960D01*
X147580115Y-110273436D01*
X146523787Y-111329764D01*
X146512518Y-111287708D01*
X146440110Y-111162292D01*
X146337708Y-111059890D01*
X146212292Y-110987482D01*
X146170234Y-110976212D01*
X147226562Y-109919883D01*
X147226561Y-109919882D01*
X147084046Y-109813196D01*
X147084038Y-109813191D01*
X146832957Y-109676091D01*
X146832958Y-109676091D01*
X146564895Y-109576109D01*
X146285362Y-109515300D01*
X146000001Y-109494891D01*
X145999999Y-109494891D01*
X145714637Y-109515300D01*
X145435104Y-109576109D01*
X145167041Y-109676091D01*
X144915961Y-109813191D01*
X144915953Y-109813196D01*
X144773437Y-109919882D01*
X144773436Y-109919883D01*
X145829766Y-110976212D01*
X145787708Y-110987482D01*
X145662292Y-111059890D01*
X145559890Y-111162292D01*
X145487482Y-111287708D01*
X145476212Y-111329765D01*
X144419883Y-110273436D01*
X144419882Y-110273437D01*
X144313196Y-110415953D01*
X144313191Y-110415961D01*
X144176091Y-110667041D01*
X144076109Y-110935104D01*
X144015300Y-111214637D01*
X143994891Y-111499998D01*
X143994891Y-111500001D01*
X144015300Y-111785362D01*
X144076109Y-112064895D01*
X144176091Y-112332958D01*
X144313191Y-112584038D01*
X144313196Y-112584046D01*
X144419882Y-112726561D01*
X144419883Y-112726562D01*
X145476212Y-111670233D01*
X145487482Y-111712292D01*
X145559890Y-111837708D01*
X145662292Y-111940110D01*
X145787708Y-112012518D01*
X145829765Y-112023787D01*
X144773436Y-113080115D01*
X144773677Y-113083482D01*
X144810122Y-113132167D01*
X144815106Y-113201859D01*
X144781621Y-113263182D01*
X144720297Y-113296666D01*
X144693940Y-113299500D01*
X140806059Y-113299500D01*
X140739020Y-113279815D01*
X140693265Y-113227011D01*
X140683321Y-113157853D01*
X140712346Y-113094297D01*
X140726489Y-113081128D01*
X140726562Y-113080115D01*
X139670235Y-112023787D01*
X139712292Y-112012518D01*
X139837708Y-111940110D01*
X139940110Y-111837708D01*
X140012518Y-111712292D01*
X140023787Y-111670234D01*
X141080115Y-112726562D01*
X141080116Y-112726561D01*
X141186803Y-112584047D01*
X141323908Y-112332958D01*
X141423890Y-112064895D01*
X141484699Y-111785362D01*
X141505109Y-111500001D01*
X141505109Y-111499998D01*
X141484699Y-111214637D01*
X141423890Y-110935104D01*
X141323908Y-110667041D01*
X141186808Y-110415961D01*
X141186807Y-110415960D01*
X141080115Y-110273436D01*
X140023787Y-111329764D01*
X140012518Y-111287708D01*
X139940110Y-111162292D01*
X139837708Y-111059890D01*
X139712292Y-110987482D01*
X139670234Y-110976212D01*
X140726562Y-109919883D01*
X140726561Y-109919882D01*
X140584046Y-109813196D01*
X140584038Y-109813191D01*
X140332957Y-109676091D01*
X140332958Y-109676091D01*
X140064895Y-109576109D01*
X139785362Y-109515300D01*
X139500001Y-109494891D01*
X139499999Y-109494891D01*
X139214637Y-109515300D01*
X138947161Y-109573486D01*
X138877469Y-109568502D01*
X138821536Y-109526630D01*
X138797119Y-109461166D01*
X138811971Y-109392893D01*
X138833118Y-109364644D01*
X138997849Y-109199912D01*
X139059170Y-109166429D01*
X139109716Y-109165978D01*
X139212161Y-109186356D01*
X139500000Y-109205222D01*
X139787839Y-109186356D01*
X140070753Y-109130081D01*
X140343902Y-109037359D01*
X140602611Y-108909778D01*
X140842454Y-108749520D01*
X141059327Y-108559327D01*
X141249520Y-108342454D01*
X141409778Y-108102611D01*
X141537359Y-107843902D01*
X141630081Y-107570753D01*
X141686356Y-107287839D01*
X141705222Y-107000000D01*
X143794778Y-107000000D01*
X143813644Y-107287837D01*
X143813646Y-107287849D01*
X143869917Y-107570745D01*
X143869921Y-107570760D01*
X143962642Y-107843905D01*
X144090219Y-108102606D01*
X144090223Y-108102613D01*
X144250478Y-108342452D01*
X144440672Y-108559327D01*
X144657546Y-108749520D01*
X144897389Y-108909778D01*
X145156098Y-109037359D01*
X145429247Y-109130081D01*
X145712161Y-109186356D01*
X146000000Y-109205222D01*
X146287839Y-109186356D01*
X146570753Y-109130081D01*
X146843902Y-109037359D01*
X147102611Y-108909778D01*
X147342454Y-108749520D01*
X147559327Y-108559327D01*
X147749520Y-108342454D01*
X147909778Y-108102611D01*
X148037359Y-107843902D01*
X148130081Y-107570753D01*
X148186356Y-107287839D01*
X148205222Y-107000000D01*
X148186356Y-106712161D01*
X148130081Y-106429247D01*
X148037359Y-106156098D01*
X147909778Y-105897389D01*
X147749520Y-105657546D01*
X147742275Y-105649285D01*
X147559327Y-105440672D01*
X147342452Y-105250478D01*
X147102613Y-105090223D01*
X147102606Y-105090219D01*
X146843905Y-104962642D01*
X146570760Y-104869921D01*
X146570754Y-104869919D01*
X146570753Y-104869919D01*
X146570751Y-104869918D01*
X146570745Y-104869917D01*
X146287849Y-104813646D01*
X146287839Y-104813644D01*
X146000000Y-104794778D01*
X145712161Y-104813644D01*
X145712155Y-104813645D01*
X145712150Y-104813646D01*
X145429254Y-104869917D01*
X145429239Y-104869921D01*
X145156094Y-104962642D01*
X144897393Y-105090219D01*
X144897386Y-105090223D01*
X144657547Y-105250478D01*
X144440672Y-105440672D01*
X144250478Y-105657547D01*
X144090223Y-105897386D01*
X144090219Y-105897393D01*
X143962642Y-106156094D01*
X143869921Y-106429239D01*
X143869917Y-106429254D01*
X143818585Y-106687322D01*
X143813644Y-106712161D01*
X143794778Y-107000000D01*
X141705222Y-107000000D01*
X141686356Y-106712161D01*
X141630081Y-106429247D01*
X141537359Y-106156098D01*
X141409778Y-105897389D01*
X141249520Y-105657546D01*
X141242275Y-105649285D01*
X141059327Y-105440672D01*
X140842452Y-105250478D01*
X140602613Y-105090223D01*
X140602606Y-105090219D01*
X140343905Y-104962642D01*
X140070760Y-104869921D01*
X140070754Y-104869919D01*
X140070753Y-104869919D01*
X140070751Y-104869918D01*
X140070745Y-104869917D01*
X139787849Y-104813646D01*
X139787839Y-104813644D01*
X139500000Y-104794778D01*
X139212161Y-104813644D01*
X139212155Y-104813645D01*
X139212150Y-104813646D01*
X138929254Y-104869917D01*
X138929239Y-104869921D01*
X138656094Y-104962642D01*
X138397393Y-105090219D01*
X138397386Y-105090223D01*
X138157547Y-105250478D01*
X137940672Y-105440672D01*
X137750478Y-105657547D01*
X137590223Y-105897386D01*
X137590219Y-105897393D01*
X137462642Y-106156094D01*
X137369921Y-106429239D01*
X137369917Y-106429254D01*
X137318585Y-106687322D01*
X137313644Y-106712161D01*
X137294778Y-107000000D01*
X137313644Y-107287837D01*
X137313646Y-107287850D01*
X137334020Y-107390279D01*
X137327793Y-107459871D01*
X137300084Y-107502151D01*
X136479055Y-108323181D01*
X136417732Y-108356666D01*
X136391374Y-108359500D01*
X135069718Y-108359500D01*
X135002679Y-108339815D01*
X134956924Y-108287011D01*
X134946980Y-108217853D01*
X134960886Y-108176073D01*
X135067571Y-107980694D01*
X135067573Y-107980690D01*
X135067574Y-107980689D01*
X135160077Y-107732678D01*
X135216343Y-107474026D01*
X135235227Y-107210000D01*
X135216343Y-106945974D01*
X135160077Y-106687322D01*
X135067574Y-106439311D01*
X135062082Y-106429254D01*
X134940719Y-106206994D01*
X134940714Y-106206986D01*
X134782093Y-105995092D01*
X134782077Y-105995074D01*
X134594925Y-105807922D01*
X134594907Y-105807906D01*
X134383013Y-105649285D01*
X134383005Y-105649280D01*
X134150694Y-105522428D01*
X134150690Y-105522426D01*
X133902673Y-105429921D01*
X133644034Y-105373658D01*
X133644027Y-105373657D01*
X133380001Y-105354773D01*
X133379999Y-105354773D01*
X133115972Y-105373657D01*
X133115965Y-105373658D01*
X132857326Y-105429921D01*
X132609309Y-105522426D01*
X132609305Y-105522428D01*
X132376994Y-105649280D01*
X132376986Y-105649285D01*
X132165092Y-105807906D01*
X132165074Y-105807922D01*
X131977922Y-105995074D01*
X131977906Y-105995092D01*
X131819285Y-106206986D01*
X131819280Y-106206994D01*
X131692428Y-106439305D01*
X131692426Y-106439309D01*
X131599921Y-106687326D01*
X131543658Y-106945965D01*
X131543657Y-106945972D01*
X131524773Y-107209998D01*
X131524773Y-107210001D01*
X131543657Y-107474027D01*
X131543658Y-107474034D01*
X131599921Y-107732673D01*
X131692426Y-107980690D01*
X131692428Y-107980694D01*
X131799114Y-108176073D01*
X131813966Y-108244346D01*
X131789549Y-108309810D01*
X131733616Y-108351682D01*
X131690282Y-108359500D01*
X131345513Y-108359500D01*
X131158885Y-108389059D01*
X130979165Y-108447454D01*
X130810800Y-108533240D01*
X130657923Y-108644312D01*
X120662181Y-118640055D01*
X120600858Y-118673540D01*
X120531166Y-118668556D01*
X120475233Y-118626684D01*
X120450816Y-118561220D01*
X120450500Y-118552374D01*
X120450500Y-114548624D01*
X120470185Y-114481585D01*
X120486814Y-114460948D01*
X129997849Y-104949912D01*
X130059170Y-104916429D01*
X130109716Y-104915978D01*
X130212161Y-104936356D01*
X130500000Y-104955222D01*
X130787839Y-104936356D01*
X131070753Y-104880081D01*
X131343902Y-104787359D01*
X131602611Y-104659778D01*
X131842454Y-104499520D01*
X132059327Y-104309327D01*
X132249520Y-104092454D01*
X132409778Y-103852611D01*
X132537359Y-103593902D01*
X132630081Y-103320753D01*
X132686356Y-103037839D01*
X132705222Y-102750000D01*
X134794778Y-102750000D01*
X134813644Y-103037837D01*
X134813646Y-103037849D01*
X134869917Y-103320745D01*
X134869921Y-103320760D01*
X134962642Y-103593905D01*
X135090219Y-103852606D01*
X135090223Y-103852613D01*
X135250478Y-104092452D01*
X135440672Y-104309327D01*
X135657546Y-104499520D01*
X135897389Y-104659778D01*
X136156098Y-104787359D01*
X136429247Y-104880081D01*
X136712161Y-104936356D01*
X137000000Y-104955222D01*
X137287839Y-104936356D01*
X137570753Y-104880081D01*
X137843902Y-104787359D01*
X138102611Y-104659778D01*
X138342454Y-104499520D01*
X138559327Y-104309327D01*
X138749520Y-104092454D01*
X138909778Y-103852611D01*
X139037359Y-103593902D01*
X139130081Y-103320753D01*
X139186356Y-103037839D01*
X139205222Y-102750001D01*
X146244891Y-102750001D01*
X146265300Y-103035362D01*
X146326109Y-103314895D01*
X146426091Y-103582958D01*
X146563191Y-103834038D01*
X146563196Y-103834046D01*
X146669882Y-103976561D01*
X146669883Y-103976562D01*
X147726212Y-102920233D01*
X147737482Y-102962292D01*
X147809890Y-103087708D01*
X147912292Y-103190110D01*
X148037708Y-103262518D01*
X148079765Y-103273787D01*
X147023436Y-104330115D01*
X147165960Y-104436807D01*
X147165961Y-104436808D01*
X147417042Y-104573908D01*
X147417041Y-104573908D01*
X147685104Y-104673890D01*
X147964637Y-104734699D01*
X148249999Y-104755109D01*
X148250001Y-104755109D01*
X148535362Y-104734699D01*
X148814895Y-104673890D01*
X149082958Y-104573908D01*
X149334047Y-104436803D01*
X149476561Y-104330116D01*
X149476562Y-104330115D01*
X148420235Y-103273787D01*
X148462292Y-103262518D01*
X148587708Y-103190110D01*
X148690110Y-103087708D01*
X148762518Y-102962292D01*
X148773787Y-102920234D01*
X149830115Y-103976562D01*
X149830116Y-103976561D01*
X149936803Y-103834047D01*
X150073908Y-103582958D01*
X150173890Y-103314895D01*
X150234699Y-103035362D01*
X150255109Y-102750001D01*
X150255109Y-102749998D01*
X150234699Y-102464637D01*
X150173890Y-102185104D01*
X150073908Y-101917041D01*
X149936808Y-101665961D01*
X149936807Y-101665960D01*
X149830115Y-101523436D01*
X148773787Y-102579764D01*
X148762518Y-102537708D01*
X148690110Y-102412292D01*
X148587708Y-102309890D01*
X148462292Y-102237482D01*
X148420234Y-102226212D01*
X149476562Y-101169883D01*
X149476561Y-101169882D01*
X149334046Y-101063196D01*
X149334038Y-101063191D01*
X149082957Y-100926091D01*
X149082958Y-100926091D01*
X148814895Y-100826109D01*
X148535362Y-100765300D01*
X148250001Y-100744891D01*
X148249999Y-100744891D01*
X147964637Y-100765300D01*
X147685104Y-100826109D01*
X147417041Y-100926091D01*
X147165961Y-101063191D01*
X147165953Y-101063196D01*
X147023437Y-101169882D01*
X147023436Y-101169883D01*
X148079766Y-102226212D01*
X148037708Y-102237482D01*
X147912292Y-102309890D01*
X147809890Y-102412292D01*
X147737482Y-102537708D01*
X147726212Y-102579765D01*
X146669883Y-101523436D01*
X146669882Y-101523437D01*
X146563196Y-101665953D01*
X146563191Y-101665961D01*
X146426091Y-101917041D01*
X146326109Y-102185104D01*
X146265300Y-102464637D01*
X146244891Y-102749998D01*
X146244891Y-102750001D01*
X139205222Y-102750001D01*
X139205222Y-102750000D01*
X139186356Y-102462161D01*
X139130081Y-102179247D01*
X139037359Y-101906098D01*
X138909778Y-101647389D01*
X138749520Y-101407546D01*
X138559327Y-101190672D01*
X138342452Y-101000478D01*
X138102613Y-100840223D01*
X138102606Y-100840219D01*
X137843905Y-100712642D01*
X137570760Y-100619921D01*
X137570754Y-100619919D01*
X137570753Y-100619919D01*
X137570751Y-100619918D01*
X137570745Y-100619917D01*
X137287849Y-100563646D01*
X137287839Y-100563644D01*
X137000000Y-100544778D01*
X136712161Y-100563644D01*
X136712155Y-100563645D01*
X136712150Y-100563646D01*
X136429254Y-100619917D01*
X136429239Y-100619921D01*
X136156094Y-100712642D01*
X135897393Y-100840219D01*
X135897386Y-100840223D01*
X135657547Y-101000478D01*
X135440672Y-101190672D01*
X135250478Y-101407547D01*
X135090223Y-101647386D01*
X135090219Y-101647393D01*
X134962642Y-101906094D01*
X134869921Y-102179239D01*
X134869917Y-102179254D01*
X134813646Y-102462150D01*
X134813644Y-102462162D01*
X134794778Y-102750000D01*
X132705222Y-102750000D01*
X132686356Y-102462161D01*
X132630081Y-102179247D01*
X132537359Y-101906098D01*
X132409778Y-101647389D01*
X132249520Y-101407546D01*
X132059327Y-101190672D01*
X131842452Y-101000478D01*
X131602613Y-100840223D01*
X131602606Y-100840219D01*
X131343905Y-100712642D01*
X131070760Y-100619921D01*
X131070754Y-100619919D01*
X131070753Y-100619919D01*
X131070751Y-100619918D01*
X131070745Y-100619917D01*
X130787849Y-100563646D01*
X130787839Y-100563644D01*
X130500000Y-100544778D01*
X130212161Y-100563644D01*
X130212155Y-100563645D01*
X130212150Y-100563646D01*
X129929254Y-100619917D01*
X129929239Y-100619921D01*
X129656094Y-100712642D01*
X129397393Y-100840219D01*
X129397386Y-100840223D01*
X129157547Y-101000478D01*
X128940672Y-101190672D01*
X128750478Y-101407547D01*
X128590223Y-101647386D01*
X128590219Y-101647393D01*
X128462642Y-101906094D01*
X128369921Y-102179239D01*
X128369917Y-102179254D01*
X128313646Y-102462150D01*
X128313644Y-102462162D01*
X128294778Y-102750000D01*
X128313644Y-103037837D01*
X128313646Y-103037850D01*
X128334020Y-103140279D01*
X128327793Y-103209871D01*
X128300084Y-103252151D01*
X118912181Y-112640055D01*
X118850858Y-112673540D01*
X118781166Y-112668556D01*
X118725233Y-112626684D01*
X118700816Y-112561220D01*
X118700500Y-112552374D01*
X118700500Y-107980247D01*
X118720185Y-107913208D01*
X118736814Y-107892571D01*
X128295190Y-98334195D01*
X128356509Y-98300713D01*
X128426201Y-98305697D01*
X128482134Y-98347569D01*
X128506551Y-98413033D01*
X128515300Y-98535362D01*
X128576109Y-98814895D01*
X128676091Y-99082958D01*
X128813191Y-99334038D01*
X128813196Y-99334046D01*
X128919882Y-99476561D01*
X128919883Y-99476562D01*
X129976212Y-98420233D01*
X129987482Y-98462292D01*
X130059890Y-98587708D01*
X130162292Y-98690110D01*
X130287708Y-98762518D01*
X130329765Y-98773787D01*
X129273436Y-99830115D01*
X129415960Y-99936807D01*
X129415961Y-99936808D01*
X129667042Y-100073908D01*
X129667041Y-100073908D01*
X129935104Y-100173890D01*
X130214637Y-100234699D01*
X130499999Y-100255109D01*
X130500001Y-100255109D01*
X130785362Y-100234699D01*
X131064895Y-100173890D01*
X131332958Y-100073908D01*
X131584047Y-99936803D01*
X131726561Y-99830116D01*
X131726562Y-99830115D01*
X130670235Y-98773787D01*
X130712292Y-98762518D01*
X130837708Y-98690110D01*
X130940110Y-98587708D01*
X131012518Y-98462292D01*
X131023787Y-98420234D01*
X132080115Y-99476562D01*
X132080116Y-99476561D01*
X132186803Y-99334047D01*
X132323908Y-99082958D01*
X132423890Y-98814895D01*
X132484699Y-98535362D01*
X132505109Y-98250001D01*
X134994891Y-98250001D01*
X135015300Y-98535362D01*
X135076109Y-98814895D01*
X135176091Y-99082958D01*
X135313191Y-99334038D01*
X135313196Y-99334046D01*
X135419882Y-99476561D01*
X135419883Y-99476562D01*
X136476212Y-98420233D01*
X136487482Y-98462292D01*
X136559890Y-98587708D01*
X136662292Y-98690110D01*
X136787708Y-98762518D01*
X136829765Y-98773787D01*
X135773436Y-99830115D01*
X135915960Y-99936807D01*
X135915961Y-99936808D01*
X136167042Y-100073908D01*
X136167041Y-100073908D01*
X136435104Y-100173890D01*
X136714637Y-100234699D01*
X136999999Y-100255109D01*
X137000001Y-100255109D01*
X137285362Y-100234699D01*
X137564895Y-100173890D01*
X137832958Y-100073908D01*
X138084047Y-99936803D01*
X138226561Y-99830116D01*
X138226562Y-99830115D01*
X137170235Y-98773787D01*
X137212292Y-98762518D01*
X137337708Y-98690110D01*
X137440110Y-98587708D01*
X137512518Y-98462292D01*
X137523787Y-98420234D01*
X138580115Y-99476562D01*
X138580116Y-99476561D01*
X138686803Y-99334047D01*
X138823908Y-99082958D01*
X138923890Y-98814895D01*
X138984699Y-98535362D01*
X139005109Y-98250001D01*
X139005109Y-98250000D01*
X146044778Y-98250000D01*
X146063644Y-98537837D01*
X146063646Y-98537849D01*
X146119917Y-98820745D01*
X146119921Y-98820760D01*
X146212642Y-99093905D01*
X146340219Y-99352606D01*
X146340223Y-99352613D01*
X146500478Y-99592452D01*
X146690672Y-99809327D01*
X146907546Y-99999520D01*
X147147389Y-100159778D01*
X147406098Y-100287359D01*
X147679247Y-100380081D01*
X147962161Y-100436356D01*
X148250000Y-100455222D01*
X148537839Y-100436356D01*
X148820753Y-100380081D01*
X149093902Y-100287359D01*
X149352611Y-100159778D01*
X149592454Y-99999520D01*
X149809327Y-99809327D01*
X149999520Y-99592454D01*
X150159778Y-99352611D01*
X150287359Y-99093902D01*
X150380081Y-98820753D01*
X150436356Y-98537839D01*
X150455222Y-98250000D01*
X150436356Y-97962161D01*
X150380081Y-97679247D01*
X150287359Y-97406098D01*
X150159778Y-97147389D01*
X149999520Y-96907546D01*
X149809327Y-96690672D01*
X149592452Y-96500478D01*
X149352613Y-96340223D01*
X149352606Y-96340219D01*
X149093905Y-96212642D01*
X148820760Y-96119921D01*
X148820754Y-96119919D01*
X148820753Y-96119919D01*
X148820751Y-96119918D01*
X148820745Y-96119917D01*
X148537849Y-96063646D01*
X148537839Y-96063644D01*
X148250000Y-96044778D01*
X147962161Y-96063644D01*
X147962155Y-96063645D01*
X147962150Y-96063646D01*
X147679254Y-96119917D01*
X147679239Y-96119921D01*
X147406094Y-96212642D01*
X147147393Y-96340219D01*
X147147386Y-96340223D01*
X146907547Y-96500478D01*
X146690672Y-96690672D01*
X146500478Y-96907547D01*
X146340223Y-97147386D01*
X146340219Y-97147393D01*
X146212642Y-97406094D01*
X146119921Y-97679239D01*
X146119917Y-97679254D01*
X146063646Y-97962150D01*
X146063644Y-97962162D01*
X146044778Y-98250000D01*
X139005109Y-98250000D01*
X139005109Y-98249998D01*
X138984699Y-97964637D01*
X138923890Y-97685104D01*
X138823908Y-97417041D01*
X138686808Y-97165961D01*
X138686807Y-97165960D01*
X138580115Y-97023436D01*
X137523787Y-98079764D01*
X137512518Y-98037708D01*
X137440110Y-97912292D01*
X137337708Y-97809890D01*
X137212292Y-97737482D01*
X137170234Y-97726212D01*
X138226562Y-96669883D01*
X138226561Y-96669882D01*
X138084046Y-96563196D01*
X138084038Y-96563191D01*
X137832957Y-96426091D01*
X137832958Y-96426091D01*
X137564895Y-96326109D01*
X137285362Y-96265300D01*
X137000001Y-96244891D01*
X136999999Y-96244891D01*
X136714637Y-96265300D01*
X136435104Y-96326109D01*
X136167041Y-96426091D01*
X135915961Y-96563191D01*
X135915953Y-96563196D01*
X135773437Y-96669882D01*
X135773436Y-96669883D01*
X136829766Y-97726212D01*
X136787708Y-97737482D01*
X136662292Y-97809890D01*
X136559890Y-97912292D01*
X136487482Y-98037708D01*
X136476212Y-98079765D01*
X135419883Y-97023436D01*
X135419882Y-97023437D01*
X135313196Y-97165953D01*
X135313191Y-97165961D01*
X135176091Y-97417041D01*
X135076109Y-97685104D01*
X135015300Y-97964637D01*
X134994891Y-98249998D01*
X134994891Y-98250001D01*
X132505109Y-98250001D01*
X132505109Y-98249998D01*
X132484699Y-97964637D01*
X132423890Y-97685104D01*
X132323908Y-97417041D01*
X132186808Y-97165961D01*
X132186807Y-97165960D01*
X132080115Y-97023436D01*
X131023787Y-98079764D01*
X131012518Y-98037708D01*
X130940110Y-97912292D01*
X130837708Y-97809890D01*
X130712292Y-97737482D01*
X130670234Y-97726212D01*
X131726562Y-96669883D01*
X131726561Y-96669882D01*
X131584046Y-96563196D01*
X131584038Y-96563191D01*
X131332957Y-96426091D01*
X131332958Y-96426091D01*
X131064895Y-96326109D01*
X130785362Y-96265300D01*
X130663033Y-96256551D01*
X130597568Y-96232134D01*
X130555697Y-96176200D01*
X130550713Y-96106509D01*
X130584195Y-96045190D01*
X132879384Y-93750001D01*
X137494891Y-93750001D01*
X137515300Y-94035362D01*
X137576109Y-94314895D01*
X137676091Y-94582958D01*
X137813191Y-94834038D01*
X137813196Y-94834046D01*
X137919882Y-94976561D01*
X137919883Y-94976562D01*
X138976212Y-93920233D01*
X138987482Y-93962292D01*
X139059890Y-94087708D01*
X139162292Y-94190110D01*
X139287708Y-94262518D01*
X139329765Y-94273787D01*
X138273436Y-95330115D01*
X138415960Y-95436807D01*
X138415961Y-95436808D01*
X138667042Y-95573908D01*
X138667041Y-95573908D01*
X138935104Y-95673890D01*
X139214637Y-95734699D01*
X139499999Y-95755109D01*
X139500001Y-95755109D01*
X139785362Y-95734699D01*
X140064895Y-95673890D01*
X140332958Y-95573908D01*
X140584047Y-95436803D01*
X140726561Y-95330116D01*
X140726562Y-95330115D01*
X139670235Y-94273787D01*
X139712292Y-94262518D01*
X139837708Y-94190110D01*
X139940110Y-94087708D01*
X140012518Y-93962292D01*
X140023787Y-93920234D01*
X141080115Y-94976562D01*
X141080116Y-94976561D01*
X141186803Y-94834047D01*
X141323908Y-94582958D01*
X141423890Y-94314895D01*
X141484699Y-94035362D01*
X141505109Y-93750001D01*
X143994891Y-93750001D01*
X144015300Y-94035362D01*
X144076109Y-94314895D01*
X144176091Y-94582958D01*
X144313191Y-94834038D01*
X144313196Y-94834046D01*
X144419882Y-94976561D01*
X144419883Y-94976562D01*
X145476212Y-93920233D01*
X145487482Y-93962292D01*
X145559890Y-94087708D01*
X145662292Y-94190110D01*
X145787708Y-94262518D01*
X145829765Y-94273787D01*
X144773436Y-95330115D01*
X144915960Y-95436807D01*
X144915961Y-95436808D01*
X145167042Y-95573908D01*
X145167041Y-95573908D01*
X145435104Y-95673890D01*
X145714637Y-95734699D01*
X145999999Y-95755109D01*
X146000001Y-95755109D01*
X146285362Y-95734699D01*
X146564895Y-95673890D01*
X146832958Y-95573908D01*
X147084047Y-95436803D01*
X147226561Y-95330116D01*
X147226562Y-95330115D01*
X146170235Y-94273787D01*
X146212292Y-94262518D01*
X146337708Y-94190110D01*
X146440110Y-94087708D01*
X146512518Y-93962292D01*
X146523787Y-93920234D01*
X147580115Y-94976562D01*
X147580116Y-94976561D01*
X147686803Y-94834047D01*
X147823908Y-94582958D01*
X147923890Y-94314895D01*
X147984699Y-94035362D01*
X148005109Y-93750001D01*
X148005109Y-93749998D01*
X148002964Y-93720001D01*
X153874773Y-93720001D01*
X153893657Y-93984027D01*
X153893658Y-93984034D01*
X153949921Y-94242673D01*
X154042426Y-94490690D01*
X154042428Y-94490694D01*
X154169280Y-94723005D01*
X154169285Y-94723013D01*
X154327906Y-94934907D01*
X154327922Y-94934925D01*
X154515074Y-95122077D01*
X154515092Y-95122093D01*
X154726986Y-95280714D01*
X154726994Y-95280719D01*
X154959305Y-95407571D01*
X154959309Y-95407573D01*
X154959311Y-95407574D01*
X155207322Y-95500077D01*
X155207325Y-95500077D01*
X155207326Y-95500078D01*
X155402552Y-95542546D01*
X155465974Y-95556343D01*
X155709660Y-95573772D01*
X155729999Y-95575227D01*
X155730000Y-95575227D01*
X155730001Y-95575227D01*
X155748885Y-95573876D01*
X155994026Y-95556343D01*
X156252678Y-95500077D01*
X156500689Y-95407574D01*
X156733011Y-95280716D01*
X156944915Y-95122087D01*
X157132087Y-94934915D01*
X157290716Y-94723011D01*
X157417574Y-94490689D01*
X157510077Y-94242678D01*
X157566343Y-93984026D01*
X157585227Y-93720000D01*
X157566343Y-93455974D01*
X157510077Y-93197322D01*
X157417574Y-92949311D01*
X157290716Y-92716989D01*
X157252517Y-92665961D01*
X157132093Y-92505092D01*
X157132077Y-92505074D01*
X156944925Y-92317922D01*
X156944907Y-92317906D01*
X156733013Y-92159285D01*
X156733005Y-92159280D01*
X156500694Y-92032428D01*
X156500690Y-92032426D01*
X156252673Y-91939921D01*
X155994034Y-91883658D01*
X155994027Y-91883657D01*
X155730001Y-91864773D01*
X155729999Y-91864773D01*
X155465972Y-91883657D01*
X155465965Y-91883658D01*
X155207326Y-91939921D01*
X154959309Y-92032426D01*
X154959305Y-92032428D01*
X154726994Y-92159280D01*
X154726986Y-92159285D01*
X154515092Y-92317906D01*
X154515074Y-92317922D01*
X154327922Y-92505074D01*
X154327906Y-92505092D01*
X154169285Y-92716986D01*
X154169280Y-92716994D01*
X154042428Y-92949305D01*
X154042426Y-92949309D01*
X153949921Y-93197326D01*
X153893658Y-93455965D01*
X153893657Y-93455972D01*
X153874773Y-93719998D01*
X153874773Y-93720001D01*
X148002964Y-93720001D01*
X147984699Y-93464637D01*
X147923890Y-93185104D01*
X147823908Y-92917041D01*
X147686808Y-92665961D01*
X147686807Y-92665960D01*
X147580115Y-92523436D01*
X146523787Y-93579764D01*
X146512518Y-93537708D01*
X146440110Y-93412292D01*
X146337708Y-93309890D01*
X146212292Y-93237482D01*
X146170234Y-93226212D01*
X147226562Y-92169883D01*
X147226561Y-92169882D01*
X147084046Y-92063196D01*
X147084038Y-92063191D01*
X146832957Y-91926091D01*
X146832958Y-91926091D01*
X146564895Y-91826109D01*
X146285362Y-91765300D01*
X146000001Y-91744891D01*
X145999999Y-91744891D01*
X145714637Y-91765300D01*
X145435104Y-91826109D01*
X145167041Y-91926091D01*
X144915961Y-92063191D01*
X144915953Y-92063196D01*
X144773437Y-92169882D01*
X144773436Y-92169883D01*
X145829766Y-93226212D01*
X145787708Y-93237482D01*
X145662292Y-93309890D01*
X145559890Y-93412292D01*
X145487482Y-93537708D01*
X145476212Y-93579765D01*
X144419883Y-92523436D01*
X144419882Y-92523437D01*
X144313196Y-92665953D01*
X144313191Y-92665961D01*
X144176091Y-92917041D01*
X144076109Y-93185104D01*
X144015300Y-93464637D01*
X143994891Y-93749998D01*
X143994891Y-93750001D01*
X141505109Y-93750001D01*
X141505109Y-93749998D01*
X141484699Y-93464637D01*
X141423890Y-93185104D01*
X141323908Y-92917041D01*
X141186808Y-92665961D01*
X141186807Y-92665960D01*
X141080115Y-92523436D01*
X140023787Y-93579764D01*
X140012518Y-93537708D01*
X139940110Y-93412292D01*
X139837708Y-93309890D01*
X139712292Y-93237482D01*
X139670234Y-93226212D01*
X140726562Y-92169883D01*
X140726561Y-92169882D01*
X140584046Y-92063196D01*
X140584038Y-92063191D01*
X140332957Y-91926091D01*
X140332958Y-91926091D01*
X140064895Y-91826109D01*
X139785362Y-91765300D01*
X139500001Y-91744891D01*
X139499999Y-91744891D01*
X139214637Y-91765300D01*
X138935104Y-91826109D01*
X138667041Y-91926091D01*
X138415961Y-92063191D01*
X138415953Y-92063196D01*
X138273437Y-92169882D01*
X138273436Y-92169883D01*
X139329766Y-93226212D01*
X139287708Y-93237482D01*
X139162292Y-93309890D01*
X139059890Y-93412292D01*
X138987482Y-93537708D01*
X138976212Y-93579765D01*
X137919883Y-92523436D01*
X137919882Y-92523437D01*
X137813196Y-92665953D01*
X137813191Y-92665961D01*
X137676091Y-92917041D01*
X137576109Y-93185104D01*
X137515300Y-93464637D01*
X137494891Y-93749998D01*
X137494891Y-93750001D01*
X132879384Y-93750001D01*
X136142567Y-90486819D01*
X136203890Y-90453334D01*
X136230248Y-90450500D01*
X137589350Y-90450500D01*
X137656389Y-90470185D01*
X137692452Y-90505609D01*
X137750481Y-90592455D01*
X137940672Y-90809327D01*
X138157546Y-90999520D01*
X138397389Y-91159778D01*
X138656098Y-91287359D01*
X138929247Y-91380081D01*
X139212161Y-91436356D01*
X139500000Y-91455222D01*
X139787839Y-91436356D01*
X140070753Y-91380081D01*
X140343902Y-91287359D01*
X140602611Y-91159778D01*
X140842454Y-90999520D01*
X141059327Y-90809327D01*
X141249520Y-90592454D01*
X141409778Y-90352611D01*
X141537359Y-90093902D01*
X141630081Y-89820753D01*
X141686356Y-89537839D01*
X141705222Y-89250000D01*
X143794778Y-89250000D01*
X143813644Y-89537837D01*
X143813646Y-89537849D01*
X143869917Y-89820745D01*
X143869921Y-89820760D01*
X143962642Y-90093905D01*
X144090219Y-90352606D01*
X144090223Y-90352613D01*
X144250478Y-90592452D01*
X144440672Y-90809327D01*
X144657546Y-90999520D01*
X144897389Y-91159778D01*
X145156098Y-91287359D01*
X145429247Y-91380081D01*
X145712161Y-91436356D01*
X146000000Y-91455222D01*
X146287839Y-91436356D01*
X146570753Y-91380081D01*
X146843902Y-91287359D01*
X147102611Y-91159778D01*
X147342454Y-90999520D01*
X147559327Y-90809327D01*
X147749520Y-90592454D01*
X147909778Y-90352611D01*
X148037359Y-90093902D01*
X148130081Y-89820753D01*
X148186356Y-89537839D01*
X148205222Y-89250000D01*
X148186356Y-88962161D01*
X148130081Y-88679247D01*
X148037359Y-88406098D01*
X147909778Y-88147389D01*
X147749520Y-87907546D01*
X147749518Y-87907544D01*
X147559327Y-87690672D01*
X147342452Y-87500478D01*
X147102613Y-87340223D01*
X147102606Y-87340219D01*
X146843905Y-87212642D01*
X146570760Y-87119921D01*
X146570754Y-87119919D01*
X146570753Y-87119919D01*
X146570751Y-87119918D01*
X146570745Y-87119917D01*
X146287849Y-87063646D01*
X146287839Y-87063644D01*
X146000000Y-87044778D01*
X145712161Y-87063644D01*
X145712155Y-87063645D01*
X145712150Y-87063646D01*
X145429254Y-87119917D01*
X145429239Y-87119921D01*
X145156094Y-87212642D01*
X144897393Y-87340219D01*
X144897386Y-87340223D01*
X144657547Y-87500478D01*
X144440672Y-87690672D01*
X144250478Y-87907547D01*
X144090223Y-88147386D01*
X144090219Y-88147393D01*
X143962642Y-88406094D01*
X143869921Y-88679239D01*
X143869917Y-88679254D01*
X143813646Y-88962150D01*
X143813644Y-88962162D01*
X143794778Y-89250000D01*
X141705222Y-89250000D01*
X141686356Y-88962161D01*
X141630081Y-88679247D01*
X141537359Y-88406098D01*
X141409778Y-88147389D01*
X141249520Y-87907546D01*
X141249518Y-87907544D01*
X141059327Y-87690672D01*
X140842452Y-87500478D01*
X140602613Y-87340223D01*
X140602606Y-87340219D01*
X140343905Y-87212642D01*
X140070760Y-87119921D01*
X140070754Y-87119919D01*
X140070753Y-87119919D01*
X140070751Y-87119918D01*
X140070745Y-87119917D01*
X139787849Y-87063646D01*
X139787839Y-87063644D01*
X139500000Y-87044778D01*
X139212161Y-87063644D01*
X139212155Y-87063645D01*
X139212150Y-87063646D01*
X138929254Y-87119917D01*
X138929239Y-87119921D01*
X138656094Y-87212642D01*
X138397393Y-87340219D01*
X138397386Y-87340223D01*
X138157547Y-87500478D01*
X137940672Y-87690672D01*
X137750481Y-87907544D01*
X137692452Y-87994391D01*
X137638840Y-88039196D01*
X137589350Y-88049500D01*
X135587137Y-88049500D01*
X135400504Y-88079059D01*
X135220786Y-88137454D01*
X135052423Y-88223240D01*
X134965202Y-88286610D01*
X134899550Y-88334310D01*
X134899548Y-88334312D01*
X134899547Y-88334312D01*
X116584308Y-106649550D01*
X116584306Y-106649552D01*
X116544761Y-106703983D01*
X116538820Y-106712161D01*
X116506030Y-106757292D01*
X116473240Y-106802423D01*
X116387454Y-106970786D01*
X116329059Y-107150504D01*
X116299500Y-107337136D01*
X116299500Y-129711142D01*
X116329059Y-129897774D01*
X116387454Y-130077492D01*
X116473240Y-130245855D01*
X116584310Y-130398730D01*
X121361270Y-135175690D01*
X121514145Y-135286760D01*
X121682512Y-135372547D01*
X121862226Y-135430940D01*
X121932214Y-135442025D01*
X122048857Y-135460500D01*
X122048862Y-135460500D01*
X122048863Y-135460500D01*
X148691374Y-135460500D01*
X148758413Y-135480185D01*
X148779055Y-135496819D01*
X150943707Y-137661471D01*
X150977192Y-137722794D01*
X150972208Y-137792486D01*
X150930336Y-137848419D01*
X150894346Y-137867082D01*
X150863136Y-137877223D01*
X150764003Y-137909433D01*
X150553566Y-138016657D01*
X150460721Y-138084114D01*
X150362490Y-138155483D01*
X150362488Y-138155485D01*
X150362487Y-138155485D01*
X150195484Y-138322488D01*
X150170318Y-138357127D01*
X150114987Y-138399792D01*
X150045374Y-138405771D01*
X149983579Y-138373165D01*
X149969682Y-138357127D01*
X149944517Y-138322490D01*
X149777510Y-138155483D01*
X149586433Y-138016657D01*
X149375996Y-137909433D01*
X149151368Y-137836446D01*
X148918097Y-137799500D01*
X148918092Y-137799500D01*
X148681908Y-137799500D01*
X148681903Y-137799500D01*
X148448631Y-137836446D01*
X148224003Y-137909433D01*
X148013566Y-138016657D01*
X147920721Y-138084114D01*
X147822490Y-138155483D01*
X147822488Y-138155485D01*
X147822487Y-138155485D01*
X147655484Y-138322488D01*
X147630318Y-138357127D01*
X147574987Y-138399792D01*
X147505374Y-138405771D01*
X147443579Y-138373165D01*
X147429682Y-138357127D01*
X147404517Y-138322490D01*
X147237510Y-138155483D01*
X147046433Y-138016657D01*
X146835996Y-137909433D01*
X146611368Y-137836446D01*
X146378097Y-137799500D01*
X146378092Y-137799500D01*
X146141908Y-137799500D01*
X146141903Y-137799500D01*
X145908631Y-137836446D01*
X145684003Y-137909433D01*
X145473566Y-138016657D01*
X145380721Y-138084114D01*
X145282490Y-138155483D01*
X145282488Y-138155485D01*
X145282487Y-138155485D01*
X145115484Y-138322488D01*
X145090318Y-138357127D01*
X145034987Y-138399792D01*
X144965374Y-138405771D01*
X144903579Y-138373165D01*
X144889682Y-138357127D01*
X144864517Y-138322490D01*
X144697510Y-138155483D01*
X144506433Y-138016657D01*
X144295996Y-137909433D01*
X144071368Y-137836446D01*
X143838097Y-137799500D01*
X143838092Y-137799500D01*
X143601908Y-137799500D01*
X143601903Y-137799500D01*
X143368631Y-137836446D01*
X143144003Y-137909433D01*
X142933566Y-138016657D01*
X142840721Y-138084114D01*
X142742490Y-138155483D01*
X142742488Y-138155485D01*
X142742487Y-138155485D01*
X142575484Y-138322488D01*
X142550318Y-138357127D01*
X142494987Y-138399792D01*
X142425374Y-138405771D01*
X142363579Y-138373165D01*
X142349682Y-138357127D01*
X142324517Y-138322490D01*
X142157510Y-138155483D01*
X141966433Y-138016657D01*
X141755996Y-137909433D01*
X141531368Y-137836446D01*
X141298097Y-137799500D01*
X141298092Y-137799500D01*
X141061908Y-137799500D01*
X141061903Y-137799500D01*
X140828631Y-137836446D01*
X140604003Y-137909433D01*
X140393566Y-138016657D01*
X140300721Y-138084114D01*
X140202490Y-138155483D01*
X140202488Y-138155485D01*
X140202487Y-138155485D01*
X140035484Y-138322488D01*
X140010318Y-138357127D01*
X139954987Y-138399792D01*
X139885374Y-138405771D01*
X139823579Y-138373165D01*
X139809682Y-138357127D01*
X139784517Y-138322490D01*
X139617510Y-138155483D01*
X139426433Y-138016657D01*
X139215996Y-137909433D01*
X138991368Y-137836446D01*
X138758097Y-137799500D01*
X138758092Y-137799500D01*
X138521908Y-137799500D01*
X138521903Y-137799500D01*
X138288631Y-137836446D01*
X138064003Y-137909433D01*
X137853566Y-138016657D01*
X137760721Y-138084114D01*
X137662490Y-138155483D01*
X137662488Y-138155485D01*
X137662487Y-138155485D01*
X137495484Y-138322488D01*
X137470318Y-138357127D01*
X137414987Y-138399792D01*
X137345374Y-138405771D01*
X137283579Y-138373165D01*
X137269682Y-138357127D01*
X137244517Y-138322490D01*
X137077510Y-138155483D01*
X136886433Y-138016657D01*
X136675996Y-137909433D01*
X136451368Y-137836446D01*
X136218097Y-137799500D01*
X136218092Y-137799500D01*
X135981908Y-137799500D01*
X135981903Y-137799500D01*
X135748631Y-137836446D01*
X135524003Y-137909433D01*
X135313566Y-138016657D01*
X135220721Y-138084114D01*
X135122490Y-138155483D01*
X135122488Y-138155485D01*
X135122487Y-138155485D01*
X134955485Y-138322487D01*
X134955485Y-138322488D01*
X134955483Y-138322490D01*
X134899320Y-138399792D01*
X134816652Y-138513573D01*
X134814112Y-138517719D01*
X134812863Y-138516954D01*
X134769363Y-138562992D01*
X134701538Y-138579772D01*
X134635409Y-138557219D01*
X134606559Y-138528772D01*
X134551587Y-138453110D01*
X134551582Y-138453104D01*
X134406895Y-138308417D01*
X134241349Y-138188140D01*
X134059029Y-138095244D01*
X133864413Y-138032009D01*
X133810000Y-138023390D01*
X133810000Y-139566988D01*
X133752993Y-139534075D01*
X133625826Y-139500000D01*
X133494174Y-139500000D01*
X133367007Y-139534075D01*
X133310000Y-139566988D01*
X133310000Y-138023390D01*
X133255586Y-138032009D01*
X133060970Y-138095244D01*
X132878650Y-138188140D01*
X132713105Y-138308417D01*
X132713104Y-138308417D01*
X132568417Y-138453104D01*
X132568410Y-138453113D01*
X132513439Y-138528773D01*
X132458109Y-138571439D01*
X132388496Y-138577417D01*
X132326701Y-138544811D01*
X132306462Y-138517367D01*
X132305888Y-138517719D01*
X132303347Y-138513573D01*
X132259418Y-138453110D01*
X132164517Y-138322490D01*
X131997510Y-138155483D01*
X131806433Y-138016657D01*
X131595996Y-137909433D01*
X131371368Y-137836446D01*
X131138097Y-137799500D01*
X131138092Y-137799500D01*
X130901908Y-137799500D01*
X130901903Y-137799500D01*
X130668631Y-137836446D01*
X130444003Y-137909433D01*
X130233566Y-138016657D01*
X130140721Y-138084114D01*
X130042490Y-138155483D01*
X130042488Y-138155485D01*
X130042487Y-138155485D01*
X129875484Y-138322488D01*
X129850318Y-138357127D01*
X129794987Y-138399792D01*
X129725374Y-138405771D01*
X129663579Y-138373165D01*
X129649682Y-138357127D01*
X129624517Y-138322490D01*
X129457510Y-138155483D01*
X129266433Y-138016657D01*
X129055996Y-137909433D01*
X128831368Y-137836446D01*
X128598097Y-137799500D01*
X128598092Y-137799500D01*
X128361908Y-137799500D01*
X128361903Y-137799500D01*
X128128631Y-137836446D01*
X127904003Y-137909433D01*
X127693566Y-138016657D01*
X127600721Y-138084114D01*
X127502490Y-138155483D01*
X127502488Y-138155485D01*
X127502487Y-138155485D01*
X127335484Y-138322488D01*
X127310318Y-138357127D01*
X127254987Y-138399792D01*
X127185374Y-138405771D01*
X127123579Y-138373165D01*
X127109682Y-138357127D01*
X127084517Y-138322490D01*
X126917510Y-138155483D01*
X126726433Y-138016657D01*
X126515996Y-137909433D01*
X126291368Y-137836446D01*
X126058097Y-137799500D01*
X126058092Y-137799500D01*
X125821908Y-137799500D01*
X125821903Y-137799500D01*
X125588631Y-137836446D01*
X125364003Y-137909433D01*
X125153566Y-138016657D01*
X125060721Y-138084114D01*
X124962490Y-138155483D01*
X124962488Y-138155485D01*
X124962487Y-138155485D01*
X124795485Y-138322487D01*
X124795485Y-138322488D01*
X124795483Y-138322490D01*
X124739320Y-138399792D01*
X124656657Y-138513566D01*
X124549433Y-138724003D01*
X124476446Y-138948631D01*
X124439500Y-139181902D01*
X124439500Y-140818097D01*
X124476446Y-141051368D01*
X124549433Y-141275996D01*
X124631486Y-141437032D01*
X124656657Y-141486433D01*
X124795483Y-141677510D01*
X124962490Y-141844517D01*
X125153567Y-141983343D01*
X125252991Y-142034002D01*
X125364003Y-142090566D01*
X125364005Y-142090566D01*
X125364008Y-142090568D01*
X125484412Y-142129689D01*
X125588631Y-142163553D01*
X125821903Y-142200500D01*
X125821908Y-142200500D01*
X126058097Y-142200500D01*
X126291368Y-142163553D01*
X126515992Y-142090568D01*
X126726433Y-141983343D01*
X126917510Y-141844517D01*
X127084517Y-141677510D01*
X127109682Y-141642872D01*
X127165011Y-141600207D01*
X127234625Y-141594228D01*
X127296420Y-141626833D01*
X127310315Y-141642870D01*
X127335483Y-141677510D01*
X127502490Y-141844517D01*
X127693567Y-141983343D01*
X127792991Y-142034002D01*
X127904003Y-142090566D01*
X127904005Y-142090566D01*
X127904008Y-142090568D01*
X128024412Y-142129689D01*
X128128631Y-142163553D01*
X128361903Y-142200500D01*
X128361908Y-142200500D01*
X128598097Y-142200500D01*
X128831368Y-142163553D01*
X129055992Y-142090568D01*
X129266433Y-141983343D01*
X129457510Y-141844517D01*
X129624517Y-141677510D01*
X129649682Y-141642872D01*
X129705011Y-141600207D01*
X129774625Y-141594228D01*
X129836420Y-141626833D01*
X129850315Y-141642870D01*
X129875483Y-141677510D01*
X130042490Y-141844517D01*
X130233567Y-141983343D01*
X130332991Y-142034002D01*
X130444003Y-142090566D01*
X130444005Y-142090566D01*
X130444008Y-142090568D01*
X130564412Y-142129689D01*
X130668631Y-142163553D01*
X130901903Y-142200500D01*
X130901908Y-142200500D01*
X131138097Y-142200500D01*
X131371368Y-142163553D01*
X131595992Y-142090568D01*
X131806433Y-141983343D01*
X131997510Y-141844517D01*
X132164517Y-141677510D01*
X132303343Y-141486433D01*
X132303347Y-141486426D01*
X132305888Y-141482281D01*
X132307145Y-141483051D01*
X132350592Y-141437032D01*
X132418410Y-141420225D01*
X132484549Y-141442751D01*
X132513440Y-141471226D01*
X132568417Y-141546894D01*
X132568417Y-141546895D01*
X132713104Y-141691582D01*
X132878650Y-141811859D01*
X133060968Y-141904754D01*
X133255578Y-141967988D01*
X133310000Y-141976607D01*
X133310000Y-140433012D01*
X133367007Y-140465925D01*
X133494174Y-140500000D01*
X133625826Y-140500000D01*
X133752993Y-140465925D01*
X133810000Y-140433012D01*
X133810000Y-141976606D01*
X133864421Y-141967988D01*
X134059031Y-141904754D01*
X134241349Y-141811859D01*
X134406894Y-141691582D01*
X134406895Y-141691582D01*
X134551582Y-141546895D01*
X134551587Y-141546889D01*
X134606559Y-141471227D01*
X134661888Y-141428561D01*
X134731502Y-141422582D01*
X134793297Y-141455187D01*
X134813539Y-141482631D01*
X134814112Y-141482281D01*
X134816652Y-141486426D01*
X134816656Y-141486432D01*
X134816657Y-141486433D01*
X134955483Y-141677510D01*
X135122490Y-141844517D01*
X135313567Y-141983343D01*
X135412991Y-142034002D01*
X135524003Y-142090566D01*
X135524005Y-142090566D01*
X135524008Y-142090568D01*
X135644412Y-142129689D01*
X135748631Y-142163553D01*
X135981903Y-142200500D01*
X135981908Y-142200500D01*
X136218097Y-142200500D01*
X136451368Y-142163553D01*
X136675992Y-142090568D01*
X136886433Y-141983343D01*
X137077510Y-141844517D01*
X137244517Y-141677510D01*
X137269682Y-141642872D01*
X137325011Y-141600207D01*
X137394625Y-141594228D01*
X137456420Y-141626833D01*
X137470315Y-141642870D01*
X137495483Y-141677510D01*
X137662490Y-141844517D01*
X137853567Y-141983343D01*
X137952991Y-142034002D01*
X138064003Y-142090566D01*
X138064005Y-142090566D01*
X138064008Y-142090568D01*
X138184412Y-142129689D01*
X138288631Y-142163553D01*
X138521903Y-142200500D01*
X138521908Y-142200500D01*
X138758097Y-142200500D01*
X138991368Y-142163553D01*
X139215992Y-142090568D01*
X139426433Y-141983343D01*
X139617510Y-141844517D01*
X139784517Y-141677510D01*
X139809682Y-141642872D01*
X139865011Y-141600207D01*
X139934625Y-141594228D01*
X139996420Y-141626833D01*
X140010315Y-141642870D01*
X140035483Y-141677510D01*
X140202490Y-141844517D01*
X140393567Y-141983343D01*
X140492991Y-142034002D01*
X140604003Y-142090566D01*
X140604005Y-142090566D01*
X140604008Y-142090568D01*
X140724412Y-142129689D01*
X140828631Y-142163553D01*
X141061903Y-142200500D01*
X141061908Y-142200500D01*
X141298097Y-142200500D01*
X141531368Y-142163553D01*
X141755992Y-142090568D01*
X141966433Y-141983343D01*
X142157510Y-141844517D01*
X142324517Y-141677510D01*
X142349682Y-141642872D01*
X142405011Y-141600207D01*
X142474625Y-141594228D01*
X142536420Y-141626833D01*
X142550315Y-141642870D01*
X142575483Y-141677510D01*
X142742490Y-141844517D01*
X142933567Y-141983343D01*
X143032991Y-142034002D01*
X143144003Y-142090566D01*
X143144005Y-142090566D01*
X143144008Y-142090568D01*
X143264412Y-142129689D01*
X143368631Y-142163553D01*
X143601903Y-142200500D01*
X143601908Y-142200500D01*
X143838097Y-142200500D01*
X144071368Y-142163553D01*
X144295992Y-142090568D01*
X144506433Y-141983343D01*
X144697510Y-141844517D01*
X144864517Y-141677510D01*
X144889682Y-141642872D01*
X144945011Y-141600207D01*
X145014625Y-141594228D01*
X145076420Y-141626833D01*
X145090315Y-141642870D01*
X145115483Y-141677510D01*
X145282490Y-141844517D01*
X145473567Y-141983343D01*
X145572991Y-142034002D01*
X145684003Y-142090566D01*
X145684005Y-142090566D01*
X145684008Y-142090568D01*
X145804412Y-142129689D01*
X145908631Y-142163553D01*
X146141903Y-142200500D01*
X146141908Y-142200500D01*
X146378097Y-142200500D01*
X146611368Y-142163553D01*
X146835992Y-142090568D01*
X147046433Y-141983343D01*
X147237510Y-141844517D01*
X147404517Y-141677510D01*
X147429682Y-141642872D01*
X147485011Y-141600207D01*
X147554625Y-141594228D01*
X147616420Y-141626833D01*
X147630315Y-141642870D01*
X147655483Y-141677510D01*
X147822490Y-141844517D01*
X147822493Y-141844519D01*
X147903321Y-141903244D01*
X147918117Y-141915881D01*
X149484310Y-143482073D01*
X149617927Y-143615690D01*
X149770801Y-143726760D01*
X149850347Y-143767290D01*
X149939163Y-143812545D01*
X149939165Y-143812545D01*
X149939168Y-143812547D01*
X150035497Y-143843846D01*
X150118881Y-143870940D01*
X150305514Y-143900500D01*
X150305519Y-143900500D01*
X162422913Y-143900500D01*
X162609545Y-143870940D01*
X162789259Y-143812547D01*
X162957626Y-143726760D01*
X163110501Y-143615690D01*
X169287819Y-137438370D01*
X169349142Y-137404886D01*
X169418834Y-137409870D01*
X169474767Y-137451742D01*
X169499184Y-137517206D01*
X169499500Y-137526052D01*
X169499500Y-148375500D01*
X169479815Y-148442539D01*
X169427011Y-148488294D01*
X169375500Y-148499500D01*
X162250021Y-148499500D01*
X162182982Y-148479815D01*
X162137227Y-148427011D01*
X162126021Y-148375500D01*
X162126021Y-145524484D01*
X155983000Y-145524484D01*
X155983000Y-148375500D01*
X155963315Y-148442539D01*
X155910511Y-148488294D01*
X155859000Y-148499500D01*
X115624500Y-148499500D01*
X115557461Y-148479815D01*
X115511706Y-148427011D01*
X115500500Y-148375500D01*
X115500500Y-145121288D01*
X117149500Y-145121288D01*
X117181161Y-145361785D01*
X117243947Y-145596104D01*
X117336773Y-145820205D01*
X117336776Y-145820212D01*
X117458064Y-146030289D01*
X117458066Y-146030292D01*
X117458067Y-146030293D01*
X117605733Y-146222736D01*
X117605739Y-146222743D01*
X117777256Y-146394260D01*
X117777262Y-146394265D01*
X117969711Y-146541936D01*
X118179788Y-146663224D01*
X118403900Y-146756054D01*
X118638211Y-146818838D01*
X118818586Y-146842584D01*
X118878711Y-146850500D01*
X118878712Y-146850500D01*
X119121289Y-146850500D01*
X119169388Y-146844167D01*
X119361789Y-146818838D01*
X119596100Y-146756054D01*
X119820212Y-146663224D01*
X120030289Y-146541936D01*
X120222738Y-146394265D01*
X120394265Y-146222738D01*
X120541936Y-146030289D01*
X120663224Y-145820212D01*
X120756054Y-145596100D01*
X120818838Y-145361789D01*
X120850500Y-145121288D01*
X164149500Y-145121288D01*
X164181161Y-145361785D01*
X164243947Y-145596104D01*
X164336773Y-145820205D01*
X164336776Y-145820212D01*
X164458064Y-146030289D01*
X164458066Y-146030292D01*
X164458067Y-146030293D01*
X164605733Y-146222736D01*
X164605739Y-146222743D01*
X164777256Y-146394260D01*
X164777262Y-146394265D01*
X164969711Y-146541936D01*
X165179788Y-146663224D01*
X165403900Y-146756054D01*
X165638211Y-146818838D01*
X165818586Y-146842584D01*
X165878711Y-146850500D01*
X165878712Y-146850500D01*
X166121289Y-146850500D01*
X166169388Y-146844167D01*
X166361789Y-146818838D01*
X166596100Y-146756054D01*
X166820212Y-146663224D01*
X167030289Y-146541936D01*
X167222738Y-146394265D01*
X167394265Y-146222738D01*
X167541936Y-146030289D01*
X167663224Y-145820212D01*
X167756054Y-145596100D01*
X167818838Y-145361789D01*
X167850500Y-145121288D01*
X167850500Y-144878712D01*
X167818838Y-144638211D01*
X167756054Y-144403900D01*
X167663224Y-144179788D01*
X167541936Y-143969711D01*
X167394265Y-143777262D01*
X167394260Y-143777256D01*
X167222743Y-143605739D01*
X167222736Y-143605733D01*
X167030293Y-143458067D01*
X167030292Y-143458066D01*
X167030289Y-143458064D01*
X166820212Y-143336776D01*
X166820205Y-143336773D01*
X166596104Y-143243947D01*
X166361785Y-143181161D01*
X166121289Y-143149500D01*
X166121288Y-143149500D01*
X165878712Y-143149500D01*
X165878711Y-143149500D01*
X165638214Y-143181161D01*
X165403895Y-143243947D01*
X165179794Y-143336773D01*
X165179785Y-143336777D01*
X164969706Y-143458067D01*
X164777263Y-143605733D01*
X164777256Y-143605739D01*
X164605739Y-143777256D01*
X164605733Y-143777263D01*
X164458067Y-143969706D01*
X164336777Y-144179785D01*
X164336773Y-144179794D01*
X164243947Y-144403895D01*
X164181161Y-144638214D01*
X164149500Y-144878711D01*
X164149500Y-145121288D01*
X120850500Y-145121288D01*
X120850500Y-144878712D01*
X120818838Y-144638211D01*
X120756054Y-144403900D01*
X120663224Y-144179788D01*
X120541936Y-143969711D01*
X120394265Y-143777262D01*
X120394260Y-143777256D01*
X120222743Y-143605739D01*
X120222736Y-143605733D01*
X120030293Y-143458067D01*
X120030292Y-143458066D01*
X120030289Y-143458064D01*
X119820212Y-143336776D01*
X119820205Y-143336773D01*
X119596104Y-143243947D01*
X119361785Y-143181161D01*
X119121289Y-143149500D01*
X119121288Y-143149500D01*
X118878712Y-143149500D01*
X118878711Y-143149500D01*
X118638214Y-143181161D01*
X118403895Y-143243947D01*
X118179794Y-143336773D01*
X118179785Y-143336777D01*
X117969706Y-143458067D01*
X117777263Y-143605733D01*
X117777256Y-143605739D01*
X117605739Y-143777256D01*
X117605733Y-143777263D01*
X117458067Y-143969706D01*
X117336777Y-144179785D01*
X117336773Y-144179794D01*
X117243947Y-144403895D01*
X117181161Y-144638214D01*
X117149500Y-144878711D01*
X117149500Y-145121288D01*
X115500500Y-145121288D01*
X115500500Y-84100000D01*
X125709092Y-84100000D01*
X125728701Y-84386680D01*
X125787166Y-84668034D01*
X125787167Y-84668037D01*
X125883394Y-84938793D01*
X125883393Y-84938793D01*
X126015598Y-85193935D01*
X126181312Y-85428700D01*
X126266423Y-85519831D01*
X126377447Y-85638708D01*
X126600353Y-85820055D01*
X126830506Y-85960015D01*
X126845882Y-85969365D01*
X127032737Y-86050526D01*
X127109442Y-86083844D01*
X127386142Y-86161371D01*
X127636420Y-86195771D01*
X127670821Y-86200500D01*
X127670822Y-86200500D01*
X127958179Y-86200500D01*
X127988870Y-86196281D01*
X128242858Y-86161371D01*
X128519558Y-86083844D01*
X128632515Y-86034779D01*
X128783117Y-85969365D01*
X128783120Y-85969363D01*
X128783125Y-85969361D01*
X129028647Y-85820055D01*
X129251553Y-85638708D01*
X129447689Y-85428698D01*
X129613401Y-85193936D01*
X129745604Y-84938797D01*
X129841834Y-84668032D01*
X129900298Y-84386686D01*
X129919908Y-84100000D01*
X129900298Y-83813314D01*
X129841834Y-83531968D01*
X129745605Y-83261206D01*
X129745606Y-83261206D01*
X129613401Y-83006064D01*
X129447687Y-82771299D01*
X129369054Y-82687105D01*
X129251553Y-82561292D01*
X129028647Y-82379945D01*
X129028646Y-82379944D01*
X128783117Y-82230634D01*
X128519563Y-82116158D01*
X128519561Y-82116157D01*
X128519558Y-82116156D01*
X128377455Y-82076341D01*
X128242864Y-82038630D01*
X128242859Y-82038629D01*
X128242858Y-82038629D01*
X128100518Y-82019064D01*
X127958179Y-81999500D01*
X127958178Y-81999500D01*
X127670822Y-81999500D01*
X127670821Y-81999500D01*
X127386142Y-82038629D01*
X127386135Y-82038630D01*
X127184139Y-82095227D01*
X127109442Y-82116156D01*
X127109439Y-82116156D01*
X127109436Y-82116158D01*
X127109435Y-82116158D01*
X126845882Y-82230634D01*
X126600353Y-82379944D01*
X126377450Y-82561289D01*
X126181312Y-82771299D01*
X126015598Y-83006064D01*
X125883394Y-83261206D01*
X125787167Y-83531962D01*
X125787166Y-83531965D01*
X125728701Y-83813319D01*
X125709092Y-84100000D01*
X115500500Y-84100000D01*
X115500500Y-80240001D01*
X131524773Y-80240001D01*
X131543657Y-80504027D01*
X131543658Y-80504034D01*
X131599921Y-80762673D01*
X131692426Y-81010690D01*
X131692428Y-81010694D01*
X131819280Y-81243005D01*
X131819285Y-81243013D01*
X131977906Y-81454907D01*
X131977922Y-81454925D01*
X132165074Y-81642077D01*
X132165092Y-81642093D01*
X132376986Y-81800714D01*
X132376994Y-81800719D01*
X132609305Y-81927571D01*
X132609309Y-81927573D01*
X132609311Y-81927574D01*
X132857322Y-82020077D01*
X132857325Y-82020077D01*
X132857326Y-82020078D01*
X132942609Y-82038630D01*
X133115974Y-82076343D01*
X133359660Y-82093772D01*
X133379999Y-82095227D01*
X133380000Y-82095227D01*
X133380001Y-82095227D01*
X133398885Y-82093876D01*
X133644026Y-82076343D01*
X133902678Y-82020077D01*
X134150689Y-81927574D01*
X134383011Y-81800716D01*
X134594915Y-81642087D01*
X134782087Y-81454915D01*
X134940716Y-81243011D01*
X135067574Y-81010689D01*
X135160077Y-80762678D01*
X135216343Y-80504026D01*
X135235227Y-80240000D01*
X135216343Y-79975974D01*
X135202546Y-79912552D01*
X135160078Y-79717326D01*
X135135526Y-79651500D01*
X135067574Y-79469311D01*
X135018759Y-79379914D01*
X134940719Y-79236994D01*
X134940714Y-79236986D01*
X134782093Y-79025092D01*
X134782077Y-79025074D01*
X134594925Y-78837922D01*
X134594907Y-78837906D01*
X134383013Y-78679285D01*
X134383005Y-78679280D01*
X134150694Y-78552428D01*
X134150690Y-78552426D01*
X133902673Y-78459921D01*
X133644034Y-78403658D01*
X133644027Y-78403657D01*
X133380001Y-78384773D01*
X133379999Y-78384773D01*
X133115972Y-78403657D01*
X133115965Y-78403658D01*
X132857326Y-78459921D01*
X132609309Y-78552426D01*
X132609305Y-78552428D01*
X132376994Y-78679280D01*
X132376986Y-78679285D01*
X132165092Y-78837906D01*
X132165074Y-78837922D01*
X131977922Y-79025074D01*
X131977906Y-79025092D01*
X131819285Y-79236986D01*
X131819280Y-79236994D01*
X131692428Y-79469305D01*
X131692426Y-79469309D01*
X131599921Y-79717326D01*
X131543658Y-79975965D01*
X131543657Y-79975972D01*
X131524773Y-80239998D01*
X131524773Y-80240001D01*
X115500500Y-80240001D01*
X115500500Y-63900000D01*
X125709092Y-63900000D01*
X125728701Y-64186680D01*
X125787166Y-64468034D01*
X125787167Y-64468037D01*
X125883394Y-64738793D01*
X125883393Y-64738793D01*
X126015598Y-64993935D01*
X126181312Y-65228700D01*
X126266423Y-65319831D01*
X126377447Y-65438708D01*
X126414325Y-65468710D01*
X126600353Y-65620055D01*
X126845882Y-65769365D01*
X127032737Y-65850526D01*
X127109442Y-65883844D01*
X127386142Y-65961371D01*
X127636420Y-65995771D01*
X127670821Y-66000500D01*
X127670822Y-66000500D01*
X127958179Y-66000500D01*
X127988870Y-65996281D01*
X128242858Y-65961371D01*
X128519558Y-65883844D01*
X128714049Y-65799365D01*
X128783117Y-65769365D01*
X128783120Y-65769363D01*
X128783125Y-65769361D01*
X129028647Y-65620055D01*
X129251553Y-65438708D01*
X129447689Y-65228698D01*
X129613401Y-64993936D01*
X129745604Y-64738797D01*
X129841834Y-64468032D01*
X129900298Y-64186686D01*
X129919908Y-63900000D01*
X129900298Y-63613314D01*
X129841834Y-63331968D01*
X129745605Y-63061206D01*
X129745606Y-63061206D01*
X129613401Y-62806064D01*
X129447687Y-62571299D01*
X129369054Y-62487105D01*
X129251553Y-62361292D01*
X129028647Y-62179945D01*
X129028646Y-62179944D01*
X128783117Y-62030634D01*
X128519563Y-61916158D01*
X128519561Y-61916157D01*
X128519558Y-61916156D01*
X128390078Y-61879877D01*
X128242864Y-61838630D01*
X128242859Y-61838629D01*
X128242858Y-61838629D01*
X128100518Y-61819064D01*
X127958179Y-61799500D01*
X127958178Y-61799500D01*
X127670822Y-61799500D01*
X127670821Y-61799500D01*
X127386142Y-61838629D01*
X127386135Y-61838630D01*
X127178361Y-61896845D01*
X127109442Y-61916156D01*
X127109439Y-61916156D01*
X127109436Y-61916158D01*
X127109435Y-61916158D01*
X126845882Y-62030634D01*
X126600353Y-62179944D01*
X126377450Y-62361289D01*
X126181312Y-62571299D01*
X126015598Y-62806064D01*
X125883394Y-63061206D01*
X125787167Y-63331962D01*
X125787166Y-63331965D01*
X125728701Y-63613319D01*
X125709092Y-63900000D01*
X115500500Y-63900000D01*
X115500500Y-53649932D01*
X129675578Y-53649932D01*
X129694444Y-53937769D01*
X129694446Y-53937781D01*
X129750717Y-54220677D01*
X129750721Y-54220692D01*
X129843442Y-54493837D01*
X129971019Y-54752538D01*
X129971023Y-54752545D01*
X130131278Y-54992384D01*
X130321472Y-55209259D01*
X130538347Y-55399453D01*
X130680299Y-55494302D01*
X130778189Y-55559710D01*
X131036898Y-55687291D01*
X131310047Y-55780013D01*
X131592961Y-55836288D01*
X131880800Y-55855154D01*
X132168639Y-55836288D01*
X132451553Y-55780013D01*
X132724702Y-55687291D01*
X132983411Y-55559710D01*
X133223254Y-55399452D01*
X133440127Y-55209259D01*
X133630320Y-54992386D01*
X133790578Y-54752543D01*
X133918159Y-54493834D01*
X134010881Y-54220685D01*
X134067156Y-53937771D01*
X134086022Y-53649932D01*
X134067156Y-53362093D01*
X134010881Y-53079179D01*
X133918159Y-52806030D01*
X133790578Y-52547321D01*
X133630320Y-52307478D01*
X133440127Y-52090604D01*
X133223252Y-51900410D01*
X132983413Y-51740155D01*
X132983406Y-51740151D01*
X132724705Y-51612574D01*
X132451560Y-51519853D01*
X132451554Y-51519851D01*
X132451553Y-51519851D01*
X132451551Y-51519850D01*
X132451545Y-51519849D01*
X132168649Y-51463578D01*
X132168639Y-51463576D01*
X131880800Y-51444710D01*
X131592961Y-51463576D01*
X131592955Y-51463577D01*
X131592950Y-51463578D01*
X131310054Y-51519849D01*
X131310039Y-51519853D01*
X131036894Y-51612574D01*
X130778193Y-51740151D01*
X130778186Y-51740155D01*
X130538347Y-51900410D01*
X130321472Y-52090604D01*
X130131278Y-52307479D01*
X129971023Y-52547318D01*
X129971019Y-52547325D01*
X129843442Y-52806026D01*
X129750721Y-53079171D01*
X129750717Y-53079186D01*
X129694446Y-53362082D01*
X129694444Y-53362094D01*
X129675578Y-53649932D01*
X115500500Y-53649932D01*
X115500500Y-51121288D01*
X117149500Y-51121288D01*
X117181161Y-51361785D01*
X117243947Y-51596104D01*
X117303615Y-51740154D01*
X117336776Y-51820212D01*
X117458064Y-52030289D01*
X117458066Y-52030292D01*
X117458067Y-52030293D01*
X117605733Y-52222736D01*
X117605739Y-52222743D01*
X117777256Y-52394260D01*
X117777262Y-52394265D01*
X117969711Y-52541936D01*
X118179788Y-52663224D01*
X118403900Y-52756054D01*
X118638211Y-52818838D01*
X118818586Y-52842584D01*
X118878711Y-52850500D01*
X118878712Y-52850500D01*
X119121289Y-52850500D01*
X119169388Y-52844167D01*
X119361789Y-52818838D01*
X119596100Y-52756054D01*
X119820212Y-52663224D01*
X120030289Y-52541936D01*
X120222738Y-52394265D01*
X120394265Y-52222738D01*
X120541936Y-52030289D01*
X120663224Y-51820212D01*
X120756054Y-51596100D01*
X120818838Y-51361789D01*
X120850500Y-51121288D01*
X120850500Y-50878712D01*
X120818838Y-50638211D01*
X120756054Y-50403900D01*
X120663224Y-50179788D01*
X120541936Y-49969711D01*
X120394265Y-49777262D01*
X120394260Y-49777256D01*
X120222743Y-49605739D01*
X120222736Y-49605733D01*
X120030293Y-49458067D01*
X120030292Y-49458066D01*
X120030289Y-49458064D01*
X119820212Y-49336776D01*
X119820205Y-49336773D01*
X119596104Y-49243947D01*
X119361785Y-49181161D01*
X119121289Y-49149500D01*
X119121288Y-49149500D01*
X118878712Y-49149500D01*
X118878711Y-49149500D01*
X118638214Y-49181161D01*
X118403895Y-49243947D01*
X118179794Y-49336773D01*
X118179785Y-49336777D01*
X117969706Y-49458067D01*
X117777263Y-49605733D01*
X117777256Y-49605739D01*
X117605739Y-49777256D01*
X117605733Y-49777263D01*
X117458067Y-49969706D01*
X117336777Y-50179785D01*
X117336773Y-50179794D01*
X117243947Y-50403895D01*
X117181161Y-50638214D01*
X117149500Y-50878711D01*
X117149500Y-51121288D01*
X115500500Y-51121288D01*
X115500500Y-47624500D01*
X115520185Y-47557461D01*
X115572989Y-47511706D01*
X115624500Y-47500500D01*
X130533560Y-47500500D01*
X130600599Y-47520185D01*
G37*
%TD.AperFunction*%
%TA.AperFunction,Conductor*%
G36*
X137587772Y-110658651D02*
G01*
X137628029Y-110715757D01*
X137631022Y-110785562D01*
X137626840Y-110799089D01*
X137576110Y-110935102D01*
X137515300Y-111214637D01*
X137494891Y-111499998D01*
X137494891Y-111500001D01*
X137515300Y-111785362D01*
X137576109Y-112064895D01*
X137676091Y-112332958D01*
X137813191Y-112584038D01*
X137813196Y-112584046D01*
X137919882Y-112726561D01*
X137919883Y-112726562D01*
X138976212Y-111670233D01*
X138987482Y-111712292D01*
X139059890Y-111837708D01*
X139162292Y-111940110D01*
X139287708Y-112012518D01*
X139329765Y-112023787D01*
X138273436Y-113080115D01*
X138273677Y-113083482D01*
X138310122Y-113132167D01*
X138315106Y-113201859D01*
X138281621Y-113263182D01*
X138220297Y-113296666D01*
X138193940Y-113299500D01*
X129697626Y-113299500D01*
X129630587Y-113279815D01*
X129584832Y-113227011D01*
X129574888Y-113157853D01*
X129603913Y-113094297D01*
X129609945Y-113087819D01*
X131900945Y-110796819D01*
X131962268Y-110763334D01*
X131988626Y-110760500D01*
X137034486Y-110760500D01*
X137221118Y-110730940D01*
X137400832Y-110672547D01*
X137454362Y-110645271D01*
X137523031Y-110632375D01*
X137587772Y-110658651D01*
G37*
%TD.AperFunction*%
%TD*%
%TA.AperFunction,NonConductor*%
G36*
X157776420Y-126386833D02*
G01*
X157790315Y-126402870D01*
X157815483Y-126437510D01*
X157982490Y-126604517D01*
X158173567Y-126743343D01*
X158326486Y-126821259D01*
X158357871Y-126844062D01*
X159261629Y-127747819D01*
X159295114Y-127809142D01*
X159290130Y-127878833D01*
X159248258Y-127934767D01*
X159182794Y-127959184D01*
X159173948Y-127959500D01*
X157840198Y-127959500D01*
X157773159Y-127939815D01*
X157752517Y-127923181D01*
X156900503Y-127071167D01*
X156867018Y-127009844D01*
X156872002Y-126940152D01*
X156913874Y-126884219D01*
X156949864Y-126865555D01*
X156995992Y-126850568D01*
X157206433Y-126743343D01*
X157397510Y-126604517D01*
X157564517Y-126437510D01*
X157589682Y-126402872D01*
X157645011Y-126360207D01*
X157714625Y-126354228D01*
X157776420Y-126386833D01*
G37*
%TD.AperFunction*%
%TA.AperFunction,NonConductor*%
G36*
X167318834Y-129385606D02*
G01*
X167374767Y-129427478D01*
X167399184Y-129492942D01*
X167399500Y-129501788D01*
X167399500Y-135879801D01*
X167379815Y-135946840D01*
X167363181Y-135967482D01*
X163212181Y-140118482D01*
X163150858Y-140151967D01*
X163081166Y-140146983D01*
X163025233Y-140105111D01*
X163000816Y-140039647D01*
X163000500Y-140030801D01*
X163000500Y-139181902D01*
X162963553Y-138948631D01*
X162890566Y-138724003D01*
X162805585Y-138557219D01*
X162783343Y-138513567D01*
X162644517Y-138322490D01*
X162477510Y-138155483D01*
X162472008Y-138151486D01*
X162396673Y-138096750D01*
X162381878Y-138084114D01*
X156569945Y-132272181D01*
X156536460Y-132210858D01*
X156541444Y-132141166D01*
X156583316Y-132085233D01*
X156648780Y-132060816D01*
X156657626Y-132060500D01*
X164138651Y-132060500D01*
X164242332Y-132044077D01*
X164325282Y-132030940D01*
X164504996Y-131972547D01*
X164673363Y-131886760D01*
X164826238Y-131775690D01*
X167187819Y-129414106D01*
X167249142Y-129380622D01*
X167318834Y-129385606D01*
G37*
%TD.AperFunction*%
M02*
