%TF.GenerationSoftware,KiCad,Pcbnew,8.0.2*%
%TF.CreationDate,2024-05-13T00:00:15+01:00*%
%TF.ProjectId,Left_Controller_PCB_Bluetooth,4c656674-5f43-46f6-9e74-726f6c6c6572,V1.2*%
%TF.SameCoordinates,Original*%
%TF.FileFunction,Legend,Top*%
%TF.FilePolarity,Positive*%
%FSLAX46Y46*%
G04 Gerber Fmt 4.6, Leading zero omitted, Abs format (unit mm)*
G04 Created by KiCad (PCBNEW 8.0.2) date 2024-05-13 00:00:15*
%MOMM*%
%LPD*%
G01*
G04 APERTURE LIST*
%ADD10C,0.150000*%
%ADD11C,0.203200*%
%ADD12C,0.120000*%
G04 APERTURE END LIST*
D10*
X120238095Y-145454819D02*
X120238095Y-144454819D01*
X120238095Y-144931009D02*
X120809523Y-144931009D01*
X120809523Y-145454819D02*
X120809523Y-144454819D01*
X121714285Y-144788152D02*
X121714285Y-145454819D01*
X121476190Y-144407200D02*
X121238095Y-145121485D01*
X121238095Y-145121485D02*
X121857142Y-145121485D01*
X165238095Y-145454819D02*
X165238095Y-144454819D01*
X165238095Y-144931009D02*
X165809523Y-144931009D01*
X165809523Y-145454819D02*
X165809523Y-144454819D01*
X166190476Y-144454819D02*
X166809523Y-144454819D01*
X166809523Y-144454819D02*
X166476190Y-144835771D01*
X166476190Y-144835771D02*
X166619047Y-144835771D01*
X166619047Y-144835771D02*
X166714285Y-144883390D01*
X166714285Y-144883390D02*
X166761904Y-144931009D01*
X166761904Y-144931009D02*
X166809523Y-145026247D01*
X166809523Y-145026247D02*
X166809523Y-145264342D01*
X166809523Y-145264342D02*
X166761904Y-145359580D01*
X166761904Y-145359580D02*
X166714285Y-145407200D01*
X166714285Y-145407200D02*
X166619047Y-145454819D01*
X166619047Y-145454819D02*
X166333333Y-145454819D01*
X166333333Y-145454819D02*
X166238095Y-145407200D01*
X166238095Y-145407200D02*
X166190476Y-145359580D01*
X165238095Y-51454819D02*
X165238095Y-50454819D01*
X165238095Y-50931009D02*
X165809523Y-50931009D01*
X165809523Y-51454819D02*
X165809523Y-50454819D01*
X166238095Y-50550057D02*
X166285714Y-50502438D01*
X166285714Y-50502438D02*
X166380952Y-50454819D01*
X166380952Y-50454819D02*
X166619047Y-50454819D01*
X166619047Y-50454819D02*
X166714285Y-50502438D01*
X166714285Y-50502438D02*
X166761904Y-50550057D01*
X166761904Y-50550057D02*
X166809523Y-50645295D01*
X166809523Y-50645295D02*
X166809523Y-50740533D01*
X166809523Y-50740533D02*
X166761904Y-50883390D01*
X166761904Y-50883390D02*
X166190476Y-51454819D01*
X166190476Y-51454819D02*
X166809523Y-51454819D01*
X120238095Y-51454819D02*
X120238095Y-50454819D01*
X120238095Y-50931009D02*
X120809523Y-50931009D01*
X120809523Y-51454819D02*
X120809523Y-50454819D01*
X121809523Y-51454819D02*
X121238095Y-51454819D01*
X121523809Y-51454819D02*
X121523809Y-50454819D01*
X121523809Y-50454819D02*
X121428571Y-50597676D01*
X121428571Y-50597676D02*
X121333333Y-50692914D01*
X121333333Y-50692914D02*
X121238095Y-50740533D01*
X139037356Y-73454819D02*
X139037356Y-74169104D01*
X139037356Y-74169104D02*
X138989737Y-74311961D01*
X138989737Y-74311961D02*
X138894499Y-74407200D01*
X138894499Y-74407200D02*
X138751642Y-74454819D01*
X138751642Y-74454819D02*
X138656404Y-74454819D01*
X139656404Y-74454819D02*
X139561166Y-74407200D01*
X139561166Y-74407200D02*
X139513547Y-74359580D01*
X139513547Y-74359580D02*
X139465928Y-74264342D01*
X139465928Y-74264342D02*
X139465928Y-73978628D01*
X139465928Y-73978628D02*
X139513547Y-73883390D01*
X139513547Y-73883390D02*
X139561166Y-73835771D01*
X139561166Y-73835771D02*
X139656404Y-73788152D01*
X139656404Y-73788152D02*
X139799261Y-73788152D01*
X139799261Y-73788152D02*
X139894499Y-73835771D01*
X139894499Y-73835771D02*
X139942118Y-73883390D01*
X139942118Y-73883390D02*
X139989737Y-73978628D01*
X139989737Y-73978628D02*
X139989737Y-74264342D01*
X139989737Y-74264342D02*
X139942118Y-74359580D01*
X139942118Y-74359580D02*
X139894499Y-74407200D01*
X139894499Y-74407200D02*
X139799261Y-74454819D01*
X139799261Y-74454819D02*
X139656404Y-74454819D01*
X140323071Y-73788152D02*
X140561166Y-74454819D01*
X140799261Y-73788152D02*
X140561166Y-74454819D01*
X140561166Y-74454819D02*
X140465928Y-74692914D01*
X140465928Y-74692914D02*
X140418309Y-74740533D01*
X140418309Y-74740533D02*
X140323071Y-74788152D01*
X141132595Y-74407200D02*
X141227833Y-74454819D01*
X141227833Y-74454819D02*
X141418309Y-74454819D01*
X141418309Y-74454819D02*
X141513547Y-74407200D01*
X141513547Y-74407200D02*
X141561166Y-74311961D01*
X141561166Y-74311961D02*
X141561166Y-74264342D01*
X141561166Y-74264342D02*
X141513547Y-74169104D01*
X141513547Y-74169104D02*
X141418309Y-74121485D01*
X141418309Y-74121485D02*
X141275452Y-74121485D01*
X141275452Y-74121485D02*
X141180214Y-74073866D01*
X141180214Y-74073866D02*
X141132595Y-73978628D01*
X141132595Y-73978628D02*
X141132595Y-73931009D01*
X141132595Y-73931009D02*
X141180214Y-73835771D01*
X141180214Y-73835771D02*
X141275452Y-73788152D01*
X141275452Y-73788152D02*
X141418309Y-73788152D01*
X141418309Y-73788152D02*
X141513547Y-73835771D01*
X141846881Y-73788152D02*
X142227833Y-73788152D01*
X141989738Y-73454819D02*
X141989738Y-74311961D01*
X141989738Y-74311961D02*
X142037357Y-74407200D01*
X142037357Y-74407200D02*
X142132595Y-74454819D01*
X142132595Y-74454819D02*
X142227833Y-74454819D01*
X142561167Y-74454819D02*
X142561167Y-73788152D01*
X142561167Y-73454819D02*
X142513548Y-73502438D01*
X142513548Y-73502438D02*
X142561167Y-73550057D01*
X142561167Y-73550057D02*
X142608786Y-73502438D01*
X142608786Y-73502438D02*
X142561167Y-73454819D01*
X142561167Y-73454819D02*
X142561167Y-73550057D01*
X143465928Y-74407200D02*
X143370690Y-74454819D01*
X143370690Y-74454819D02*
X143180214Y-74454819D01*
X143180214Y-74454819D02*
X143084976Y-74407200D01*
X143084976Y-74407200D02*
X143037357Y-74359580D01*
X143037357Y-74359580D02*
X142989738Y-74264342D01*
X142989738Y-74264342D02*
X142989738Y-73978628D01*
X142989738Y-73978628D02*
X143037357Y-73883390D01*
X143037357Y-73883390D02*
X143084976Y-73835771D01*
X143084976Y-73835771D02*
X143180214Y-73788152D01*
X143180214Y-73788152D02*
X143370690Y-73788152D01*
X143370690Y-73788152D02*
X143465928Y-73835771D01*
X143894500Y-74454819D02*
X143894500Y-73454819D01*
X143989738Y-74073866D02*
X144275452Y-74454819D01*
X144275452Y-73788152D02*
X143894500Y-74169104D01*
X145180214Y-74454819D02*
X144704024Y-74454819D01*
X144704024Y-74454819D02*
X144704024Y-73454819D01*
X160845238Y-59157200D02*
X160988095Y-59204819D01*
X160988095Y-59204819D02*
X161226190Y-59204819D01*
X161226190Y-59204819D02*
X161321428Y-59157200D01*
X161321428Y-59157200D02*
X161369047Y-59109580D01*
X161369047Y-59109580D02*
X161416666Y-59014342D01*
X161416666Y-59014342D02*
X161416666Y-58919104D01*
X161416666Y-58919104D02*
X161369047Y-58823866D01*
X161369047Y-58823866D02*
X161321428Y-58776247D01*
X161321428Y-58776247D02*
X161226190Y-58728628D01*
X161226190Y-58728628D02*
X161035714Y-58681009D01*
X161035714Y-58681009D02*
X160940476Y-58633390D01*
X160940476Y-58633390D02*
X160892857Y-58585771D01*
X160892857Y-58585771D02*
X160845238Y-58490533D01*
X160845238Y-58490533D02*
X160845238Y-58395295D01*
X160845238Y-58395295D02*
X160892857Y-58300057D01*
X160892857Y-58300057D02*
X160940476Y-58252438D01*
X160940476Y-58252438D02*
X161035714Y-58204819D01*
X161035714Y-58204819D02*
X161273809Y-58204819D01*
X161273809Y-58204819D02*
X161416666Y-58252438D01*
X161845238Y-58681009D02*
X162178571Y-58681009D01*
X162321428Y-59204819D02*
X161845238Y-59204819D01*
X161845238Y-59204819D02*
X161845238Y-58204819D01*
X161845238Y-58204819D02*
X162321428Y-58204819D01*
X163226190Y-59204819D02*
X162750000Y-59204819D01*
X162750000Y-59204819D02*
X162750000Y-58204819D01*
X163321429Y-59300057D02*
X164083333Y-59300057D01*
X164797619Y-59204819D02*
X164321429Y-59204819D01*
X164321429Y-59204819D02*
X164321429Y-58204819D01*
X165654762Y-59204819D02*
X165083334Y-59204819D01*
X165369048Y-59204819D02*
X165369048Y-58204819D01*
X165369048Y-58204819D02*
X165273810Y-58347676D01*
X165273810Y-58347676D02*
X165178572Y-58442914D01*
X165178572Y-58442914D02*
X165083334Y-58490533D01*
X140392857Y-109704819D02*
X140392857Y-108704819D01*
X140392857Y-108704819D02*
X140630952Y-108704819D01*
X140630952Y-108704819D02*
X140773809Y-108752438D01*
X140773809Y-108752438D02*
X140869047Y-108847676D01*
X140869047Y-108847676D02*
X140916666Y-108942914D01*
X140916666Y-108942914D02*
X140964285Y-109133390D01*
X140964285Y-109133390D02*
X140964285Y-109276247D01*
X140964285Y-109276247D02*
X140916666Y-109466723D01*
X140916666Y-109466723D02*
X140869047Y-109561961D01*
X140869047Y-109561961D02*
X140773809Y-109657200D01*
X140773809Y-109657200D02*
X140630952Y-109704819D01*
X140630952Y-109704819D02*
X140392857Y-109704819D01*
X141583333Y-108704819D02*
X141773809Y-108704819D01*
X141773809Y-108704819D02*
X141869047Y-108752438D01*
X141869047Y-108752438D02*
X141964285Y-108847676D01*
X141964285Y-108847676D02*
X142011904Y-109038152D01*
X142011904Y-109038152D02*
X142011904Y-109371485D01*
X142011904Y-109371485D02*
X141964285Y-109561961D01*
X141964285Y-109561961D02*
X141869047Y-109657200D01*
X141869047Y-109657200D02*
X141773809Y-109704819D01*
X141773809Y-109704819D02*
X141583333Y-109704819D01*
X141583333Y-109704819D02*
X141488095Y-109657200D01*
X141488095Y-109657200D02*
X141392857Y-109561961D01*
X141392857Y-109561961D02*
X141345238Y-109371485D01*
X141345238Y-109371485D02*
X141345238Y-109038152D01*
X141345238Y-109038152D02*
X141392857Y-108847676D01*
X141392857Y-108847676D02*
X141488095Y-108752438D01*
X141488095Y-108752438D02*
X141583333Y-108704819D01*
X142345238Y-108704819D02*
X142583333Y-109704819D01*
X142583333Y-109704819D02*
X142773809Y-108990533D01*
X142773809Y-108990533D02*
X142964285Y-109704819D01*
X142964285Y-109704819D02*
X143202381Y-108704819D01*
X143583333Y-109704819D02*
X143583333Y-108704819D01*
X143583333Y-108704819D02*
X144154761Y-109704819D01*
X144154761Y-109704819D02*
X144154761Y-108704819D01*
X145154761Y-109704819D02*
X144583333Y-109704819D01*
X144869047Y-109704819D02*
X144869047Y-108704819D01*
X144869047Y-108704819D02*
X144773809Y-108847676D01*
X144773809Y-108847676D02*
X144678571Y-108942914D01*
X144678571Y-108942914D02*
X144583333Y-108990533D01*
X132321428Y-100954819D02*
X131845238Y-100954819D01*
X131845238Y-100954819D02*
X131845238Y-99954819D01*
X132654762Y-100431009D02*
X132988095Y-100431009D01*
X133130952Y-100954819D02*
X132654762Y-100954819D01*
X132654762Y-100954819D02*
X132654762Y-99954819D01*
X132654762Y-99954819D02*
X133130952Y-99954819D01*
X133892857Y-100431009D02*
X133559524Y-100431009D01*
X133559524Y-100954819D02*
X133559524Y-99954819D01*
X133559524Y-99954819D02*
X134035714Y-99954819D01*
X134273810Y-99954819D02*
X134845238Y-99954819D01*
X134559524Y-100954819D02*
X134559524Y-99954819D01*
X135702381Y-100954819D02*
X135130953Y-100954819D01*
X135416667Y-100954819D02*
X135416667Y-99954819D01*
X135416667Y-99954819D02*
X135321429Y-100097676D01*
X135321429Y-100097676D02*
X135226191Y-100192914D01*
X135226191Y-100192914D02*
X135130953Y-100240533D01*
X129416513Y-51854751D02*
X128940323Y-51854751D01*
X128940323Y-51854751D02*
X128940323Y-50854751D01*
X129749847Y-51330941D02*
X130083180Y-51330941D01*
X130226037Y-51854751D02*
X129749847Y-51854751D01*
X129749847Y-51854751D02*
X129749847Y-50854751D01*
X129749847Y-50854751D02*
X130226037Y-50854751D01*
X130987942Y-51330941D02*
X130654609Y-51330941D01*
X130654609Y-51854751D02*
X130654609Y-50854751D01*
X130654609Y-50854751D02*
X131130799Y-50854751D01*
X131368895Y-50854751D02*
X131940323Y-50854751D01*
X131654609Y-51854751D02*
X131654609Y-50854751D01*
X132035562Y-51949989D02*
X132797466Y-51949989D01*
X132987943Y-51807132D02*
X133130800Y-51854751D01*
X133130800Y-51854751D02*
X133368895Y-51854751D01*
X133368895Y-51854751D02*
X133464133Y-51807132D01*
X133464133Y-51807132D02*
X133511752Y-51759512D01*
X133511752Y-51759512D02*
X133559371Y-51664274D01*
X133559371Y-51664274D02*
X133559371Y-51569036D01*
X133559371Y-51569036D02*
X133511752Y-51473798D01*
X133511752Y-51473798D02*
X133464133Y-51426179D01*
X133464133Y-51426179D02*
X133368895Y-51378560D01*
X133368895Y-51378560D02*
X133178419Y-51330941D01*
X133178419Y-51330941D02*
X133083181Y-51283322D01*
X133083181Y-51283322D02*
X133035562Y-51235703D01*
X133035562Y-51235703D02*
X132987943Y-51140465D01*
X132987943Y-51140465D02*
X132987943Y-51045227D01*
X132987943Y-51045227D02*
X133035562Y-50949989D01*
X133035562Y-50949989D02*
X133083181Y-50902370D01*
X133083181Y-50902370D02*
X133178419Y-50854751D01*
X133178419Y-50854751D02*
X133416514Y-50854751D01*
X133416514Y-50854751D02*
X133559371Y-50902370D01*
X133987943Y-51854751D02*
X133987943Y-50854751D01*
X133987943Y-51330941D02*
X134559371Y-51330941D01*
X134559371Y-51854751D02*
X134559371Y-50854751D01*
X135226038Y-50854751D02*
X135416514Y-50854751D01*
X135416514Y-50854751D02*
X135511752Y-50902370D01*
X135511752Y-50902370D02*
X135606990Y-50997608D01*
X135606990Y-50997608D02*
X135654609Y-51188084D01*
X135654609Y-51188084D02*
X135654609Y-51521417D01*
X135654609Y-51521417D02*
X135606990Y-51711893D01*
X135606990Y-51711893D02*
X135511752Y-51807132D01*
X135511752Y-51807132D02*
X135416514Y-51854751D01*
X135416514Y-51854751D02*
X135226038Y-51854751D01*
X135226038Y-51854751D02*
X135130800Y-51807132D01*
X135130800Y-51807132D02*
X135035562Y-51711893D01*
X135035562Y-51711893D02*
X134987943Y-51521417D01*
X134987943Y-51521417D02*
X134987943Y-51188084D01*
X134987943Y-51188084D02*
X135035562Y-50997608D01*
X135035562Y-50997608D02*
X135130800Y-50902370D01*
X135130800Y-50902370D02*
X135226038Y-50854751D01*
X136083181Y-50854751D02*
X136083181Y-51664274D01*
X136083181Y-51664274D02*
X136130800Y-51759512D01*
X136130800Y-51759512D02*
X136178419Y-51807132D01*
X136178419Y-51807132D02*
X136273657Y-51854751D01*
X136273657Y-51854751D02*
X136464133Y-51854751D01*
X136464133Y-51854751D02*
X136559371Y-51807132D01*
X136559371Y-51807132D02*
X136606990Y-51759512D01*
X136606990Y-51759512D02*
X136654609Y-51664274D01*
X136654609Y-51664274D02*
X136654609Y-50854751D01*
X137606990Y-51854751D02*
X137130800Y-51854751D01*
X137130800Y-51854751D02*
X137130800Y-50854751D01*
X137940324Y-51854751D02*
X137940324Y-50854751D01*
X137940324Y-50854751D02*
X138178419Y-50854751D01*
X138178419Y-50854751D02*
X138321276Y-50902370D01*
X138321276Y-50902370D02*
X138416514Y-50997608D01*
X138416514Y-50997608D02*
X138464133Y-51092846D01*
X138464133Y-51092846D02*
X138511752Y-51283322D01*
X138511752Y-51283322D02*
X138511752Y-51426179D01*
X138511752Y-51426179D02*
X138464133Y-51616655D01*
X138464133Y-51616655D02*
X138416514Y-51711893D01*
X138416514Y-51711893D02*
X138321276Y-51807132D01*
X138321276Y-51807132D02*
X138178419Y-51854751D01*
X138178419Y-51854751D02*
X137940324Y-51854751D01*
X138940324Y-51330941D02*
X139273657Y-51330941D01*
X139416514Y-51854751D02*
X138940324Y-51854751D01*
X138940324Y-51854751D02*
X138940324Y-50854751D01*
X138940324Y-50854751D02*
X139416514Y-50854751D01*
X140416514Y-51854751D02*
X140083181Y-51378560D01*
X139845086Y-51854751D02*
X139845086Y-50854751D01*
X139845086Y-50854751D02*
X140226038Y-50854751D01*
X140226038Y-50854751D02*
X140321276Y-50902370D01*
X140321276Y-50902370D02*
X140368895Y-50949989D01*
X140368895Y-50949989D02*
X140416514Y-51045227D01*
X140416514Y-51045227D02*
X140416514Y-51188084D01*
X140416514Y-51188084D02*
X140368895Y-51283322D01*
X140368895Y-51283322D02*
X140321276Y-51330941D01*
X140321276Y-51330941D02*
X140226038Y-51378560D01*
X140226038Y-51378560D02*
X139845086Y-51378560D01*
X141368895Y-51854751D02*
X140797467Y-51854751D01*
X141083181Y-51854751D02*
X141083181Y-50854751D01*
X141083181Y-50854751D02*
X140987943Y-50997608D01*
X140987943Y-50997608D02*
X140892705Y-51092846D01*
X140892705Y-51092846D02*
X140797467Y-51140465D01*
X149690476Y-100954819D02*
X149357143Y-100478628D01*
X149119048Y-100954819D02*
X149119048Y-99954819D01*
X149119048Y-99954819D02*
X149500000Y-99954819D01*
X149500000Y-99954819D02*
X149595238Y-100002438D01*
X149595238Y-100002438D02*
X149642857Y-100050057D01*
X149642857Y-100050057D02*
X149690476Y-100145295D01*
X149690476Y-100145295D02*
X149690476Y-100288152D01*
X149690476Y-100288152D02*
X149642857Y-100383390D01*
X149642857Y-100383390D02*
X149595238Y-100431009D01*
X149595238Y-100431009D02*
X149500000Y-100478628D01*
X149500000Y-100478628D02*
X149119048Y-100478628D01*
X150119048Y-100954819D02*
X150119048Y-99954819D01*
X151119047Y-100002438D02*
X151023809Y-99954819D01*
X151023809Y-99954819D02*
X150880952Y-99954819D01*
X150880952Y-99954819D02*
X150738095Y-100002438D01*
X150738095Y-100002438D02*
X150642857Y-100097676D01*
X150642857Y-100097676D02*
X150595238Y-100192914D01*
X150595238Y-100192914D02*
X150547619Y-100383390D01*
X150547619Y-100383390D02*
X150547619Y-100526247D01*
X150547619Y-100526247D02*
X150595238Y-100716723D01*
X150595238Y-100716723D02*
X150642857Y-100811961D01*
X150642857Y-100811961D02*
X150738095Y-100907200D01*
X150738095Y-100907200D02*
X150880952Y-100954819D01*
X150880952Y-100954819D02*
X150976190Y-100954819D01*
X150976190Y-100954819D02*
X151119047Y-100907200D01*
X151119047Y-100907200D02*
X151166666Y-100859580D01*
X151166666Y-100859580D02*
X151166666Y-100526247D01*
X151166666Y-100526247D02*
X150976190Y-100526247D01*
X151595238Y-100954819D02*
X151595238Y-99954819D01*
X151595238Y-100431009D02*
X152166666Y-100431009D01*
X152166666Y-100954819D02*
X152166666Y-99954819D01*
X152500000Y-99954819D02*
X153071428Y-99954819D01*
X152785714Y-100954819D02*
X152785714Y-99954819D01*
X153928571Y-100954819D02*
X153357143Y-100954819D01*
X153642857Y-100954819D02*
X153642857Y-99954819D01*
X153642857Y-99954819D02*
X153547619Y-100097676D01*
X153547619Y-100097676D02*
X153452381Y-100192914D01*
X153452381Y-100192914D02*
X153357143Y-100240533D01*
X141488095Y-90954819D02*
X141488095Y-91764342D01*
X141488095Y-91764342D02*
X141535714Y-91859580D01*
X141535714Y-91859580D02*
X141583333Y-91907200D01*
X141583333Y-91907200D02*
X141678571Y-91954819D01*
X141678571Y-91954819D02*
X141869047Y-91954819D01*
X141869047Y-91954819D02*
X141964285Y-91907200D01*
X141964285Y-91907200D02*
X142011904Y-91859580D01*
X142011904Y-91859580D02*
X142059523Y-91764342D01*
X142059523Y-91764342D02*
X142059523Y-90954819D01*
X142535714Y-91954819D02*
X142535714Y-90954819D01*
X142535714Y-90954819D02*
X142916666Y-90954819D01*
X142916666Y-90954819D02*
X143011904Y-91002438D01*
X143011904Y-91002438D02*
X143059523Y-91050057D01*
X143059523Y-91050057D02*
X143107142Y-91145295D01*
X143107142Y-91145295D02*
X143107142Y-91288152D01*
X143107142Y-91288152D02*
X143059523Y-91383390D01*
X143059523Y-91383390D02*
X143011904Y-91431009D01*
X143011904Y-91431009D02*
X142916666Y-91478628D01*
X142916666Y-91478628D02*
X142535714Y-91478628D01*
X144059523Y-91954819D02*
X143488095Y-91954819D01*
X143773809Y-91954819D02*
X143773809Y-90954819D01*
X143773809Y-90954819D02*
X143678571Y-91097676D01*
X143678571Y-91097676D02*
X143583333Y-91192914D01*
X143583333Y-91192914D02*
X143488095Y-91240533D01*
D11*
%TO.C,JoystickL1*%
X125224500Y-61300000D02*
X158554500Y-61310000D01*
X125224500Y-86700000D02*
X125224500Y-61300000D01*
X158554500Y-61310000D02*
X158554500Y-68010000D01*
X158556900Y-86700000D02*
X125224500Y-86700000D01*
X158556900Y-86700000D02*
X158554500Y-80000000D01*
X159775500Y-80500000D02*
G75*
G02*
X159013500Y-80500000I-381000J0D01*
G01*
X159013500Y-80500000D02*
G75*
G02*
X159775500Y-80500000I381000J0D01*
G01*
D12*
%TO.C,SEL_L1*%
X159750000Y-58000000D02*
X159750000Y-59500000D01*
X161000000Y-62000000D02*
X165500000Y-62000000D01*
X165500000Y-55500000D02*
X161000000Y-55500000D01*
X166750000Y-59500000D02*
X166750000Y-58000000D01*
%TO.C,DOWN1*%
X139250000Y-108500000D02*
X139250000Y-110000000D01*
X140500000Y-112500000D02*
X145000000Y-112500000D01*
X145000000Y-106000000D02*
X140500000Y-106000000D01*
X146250000Y-110000000D02*
X146250000Y-108500000D01*
%TO.C,LEFT1*%
X130250000Y-99750000D02*
X130250000Y-101250000D01*
X131500000Y-103750000D02*
X136000000Y-103750000D01*
X136000000Y-97250000D02*
X131500000Y-97250000D01*
X137250000Y-101250000D02*
X137250000Y-99750000D01*
%TO.C,LEFT_SHOULDER1*%
X131630800Y-50649932D02*
X131630800Y-52149932D01*
X132880800Y-54649932D02*
X137380800Y-54649932D01*
X137380800Y-48149932D02*
X132880800Y-48149932D01*
X138630800Y-52149932D02*
X138630800Y-50649932D01*
%TO.C,RIGHT1*%
X148000000Y-99750000D02*
X148000000Y-101250000D01*
X149250000Y-103750000D02*
X153750000Y-103750000D01*
X153750000Y-97250000D02*
X149250000Y-97250000D01*
X155000000Y-101250000D02*
X155000000Y-99750000D01*
%TO.C,UP1*%
X139250000Y-90750000D02*
X139250000Y-92250000D01*
X140500000Y-94750000D02*
X145000000Y-94750000D01*
X145000000Y-88250000D02*
X140500000Y-88250000D01*
X146250000Y-92250000D02*
X146250000Y-90750000D01*
%TD*%
M02*
