M48
; DRILL file {KiCad 8.0.2} date 2024-05-13T00:00:05+0100
; FORMAT={-:-/ absolute / metric / decimal}
; #@! TF.CreationDate,2024-05-13T00:00:05+01:00
; #@! TF.GenerationSoftware,Kicad,Pcbnew,8.0.2
; #@! TF.FileFunction,Plated,1,2,PTH
FMAT,2
METRIC
; #@! TA.AperFunction,Plated,PTH,ComponentDrill
T1C0.660
; #@! TA.AperFunction,Plated,PTH,ComponentDrill
T2C1.000
; #@! TA.AperFunction,Plated,PTH,ComponentDrill
T3C1.100
; #@! TA.AperFunction,Plated,PTH,ComponentDrill
T4C1.143
%
G90
G05
T2
X127.152Y-126.006
X127.152Y-141.246
X129.692Y-126.006
X129.692Y-141.246
X132.232Y-126.006
X132.232Y-141.246
X134.772Y-126.006
X134.772Y-141.246
X137.312Y-126.006
X137.312Y-141.246
X139.852Y-126.006
X139.852Y-141.246
X142.392Y-126.006
X142.392Y-141.246
X144.932Y-126.006
X144.932Y-141.246
X147.472Y-126.006
X147.472Y-141.246
X150.012Y-126.006
X150.012Y-141.246
X152.552Y-126.006
X152.552Y-141.246
X155.092Y-126.006
X155.092Y-141.246
X157.632Y-126.006
X157.632Y-141.246
X160.172Y-126.006
X160.172Y-141.246
X162.712Y-126.006
X162.712Y-141.246
T3
X130.5Y-98.25
X130.5Y-102.75
X131.881Y-49.15
X131.881Y-53.65
X137.0Y-98.25
X137.0Y-102.75
X138.381Y-49.15
X138.381Y-53.65
X139.5Y-89.25
X139.5Y-93.75
X139.5Y-107.0
X139.5Y-111.5
X146.0Y-89.25
X146.0Y-93.75
X146.0Y-107.0
X146.0Y-111.5
X148.25Y-98.25
X148.25Y-102.75
X154.75Y-98.25
X154.75Y-102.75
X160.0Y-56.5
X160.0Y-61.0
X166.5Y-56.5
X166.5Y-61.0
T4
X158.563Y-68.92
X158.563Y-71.46
X158.563Y-74.0
X158.563Y-76.54
X158.563Y-79.08
T1
G00X138.815Y-121.5
M15
G01X140.425Y-121.5
M16
G05
G00X151.695Y-121.5
M15
G01X153.305Y-121.5
M16
G05
M30
