M48
; DRILL file {KiCad 8.0.1} date 2024-05-21T15:06:58+0100
; FORMAT={-:-/ absolute / inch / decimal}
; #@! TF.CreationDate,2024-05-21T15:06:58+01:00
; #@! TF.GenerationSoftware,Kicad,Pcbnew,8.0.1
; #@! TF.FileFunction,Plated,1,2,PTH
FMAT,2
INCH
; #@! TA.AperFunction,Plated,PTH,ComponentDrill
T1C0.0260
; #@! TA.AperFunction,Plated,PTH,ComponentDrill
T2C0.0394
; #@! TA.AperFunction,Plated,PTH,ComponentDrill
T3C0.0433
; #@! TA.AperFunction,Plated,PTH,ComponentDrill
T4C0.0450
%
G90
G05
T2
X4.9583Y-4.9118
X4.9583Y-5.5118
X5.0583Y-4.9118
X5.0583Y-5.5118
X5.1583Y-4.9118
X5.1583Y-5.5118
X5.2583Y-4.9118
X5.2583Y-5.5118
X5.3583Y-4.9118
X5.3583Y-5.5118
X5.4583Y-4.9118
X5.4583Y-5.5118
X5.5583Y-4.9118
X5.5583Y-5.5118
X5.6583Y-4.9118
X5.6583Y-5.5118
X5.7583Y-4.9118
X5.7583Y-5.5118
X5.8583Y-4.9118
X5.8583Y-5.5118
X5.9583Y-4.9118
X5.9583Y-5.5118
X6.0583Y-4.9118
X6.0583Y-5.5118
X6.1583Y-4.9118
X6.1583Y-5.5118
X6.2583Y-4.9118
X6.2583Y-5.5118
X6.3583Y-4.9118
X6.3583Y-5.5118
T3
X5.1378Y-3.8681
X5.1378Y-4.0453
X5.1922Y-1.935
X5.1922Y-2.1122
X5.3937Y-3.8681
X5.3937Y-4.0453
X5.4481Y-1.935
X5.4481Y-2.1122
X5.4921Y-3.5138
X5.4921Y-3.6909
X5.4921Y-4.2126
X5.4921Y-4.3898
X5.748Y-3.5138
X5.748Y-3.6909
X5.748Y-4.2126
X5.748Y-4.3898
X5.8366Y-3.8681
X5.8366Y-4.0453
X6.0925Y-3.8681
X6.0925Y-4.0453
X6.2992Y-2.2244
X6.2992Y-2.4016
X6.5551Y-2.2244
X6.5551Y-2.4016
T4
X6.2426Y-2.7134
X6.2426Y-2.8134
X6.2426Y-2.9134
X6.2426Y-3.0134
X6.2426Y-3.1134
T1
G00X5.4061Y-4.7047
M15
G01X5.4695Y-4.7047
M16
G05
G00X5.9132Y-4.7047
M15
G01X5.9766Y-4.7047
M16
G05
M30
