%TF.GenerationSoftware,KiCad,Pcbnew,8.0.2*%
%TF.CreationDate,2024-05-13T00:00:15+01:00*%
%TF.ProjectId,Left_Controller_PCB_Bluetooth,4c656674-5f43-46f6-9e74-726f6c6c6572,V1.2*%
%TF.SameCoordinates,Original*%
%TF.FileFunction,Legend,Bot*%
%TF.FilePolarity,Positive*%
%FSLAX46Y46*%
G04 Gerber Fmt 4.6, Leading zero omitted, Abs format (unit mm)*
G04 Created by KiCad (PCBNEW 8.0.2) date 2024-05-13 00:00:15*
%MOMM*%
%LPD*%
G01*
G04 APERTURE LIST*
%ADD10C,0.150000*%
%ADD11C,0.120000*%
G04 APERTURE END LIST*
D10*
X148186210Y-138049112D02*
X148233829Y-138096732D01*
X148233829Y-138096732D02*
X148376686Y-138144351D01*
X148376686Y-138144351D02*
X148471924Y-138144351D01*
X148471924Y-138144351D02*
X148614781Y-138096732D01*
X148614781Y-138096732D02*
X148710019Y-138001493D01*
X148710019Y-138001493D02*
X148757638Y-137906255D01*
X148757638Y-137906255D02*
X148805257Y-137715779D01*
X148805257Y-137715779D02*
X148805257Y-137572922D01*
X148805257Y-137572922D02*
X148757638Y-137382446D01*
X148757638Y-137382446D02*
X148710019Y-137287208D01*
X148710019Y-137287208D02*
X148614781Y-137191970D01*
X148614781Y-137191970D02*
X148471924Y-137144351D01*
X148471924Y-137144351D02*
X148376686Y-137144351D01*
X148376686Y-137144351D02*
X148233829Y-137191970D01*
X148233829Y-137191970D02*
X148186210Y-137239589D01*
X147376686Y-138096732D02*
X147471924Y-138144351D01*
X147471924Y-138144351D02*
X147662400Y-138144351D01*
X147662400Y-138144351D02*
X147757638Y-138096732D01*
X147757638Y-138096732D02*
X147805257Y-138001493D01*
X147805257Y-138001493D02*
X147805257Y-137620541D01*
X147805257Y-137620541D02*
X147757638Y-137525303D01*
X147757638Y-137525303D02*
X147662400Y-137477684D01*
X147662400Y-137477684D02*
X147471924Y-137477684D01*
X147471924Y-137477684D02*
X147376686Y-137525303D01*
X147376686Y-137525303D02*
X147329067Y-137620541D01*
X147329067Y-137620541D02*
X147329067Y-137715779D01*
X147329067Y-137715779D02*
X147805257Y-137811017D01*
X146900495Y-137477684D02*
X146900495Y-138144351D01*
X146900495Y-137572922D02*
X146852876Y-137525303D01*
X146852876Y-137525303D02*
X146757638Y-137477684D01*
X146757638Y-137477684D02*
X146614781Y-137477684D01*
X146614781Y-137477684D02*
X146519543Y-137525303D01*
X146519543Y-137525303D02*
X146471924Y-137620541D01*
X146471924Y-137620541D02*
X146471924Y-138144351D01*
X146138590Y-137477684D02*
X145757638Y-137477684D01*
X145995733Y-137144351D02*
X145995733Y-138001493D01*
X145995733Y-138001493D02*
X145948114Y-138096732D01*
X145948114Y-138096732D02*
X145852876Y-138144351D01*
X145852876Y-138144351D02*
X145757638Y-138144351D01*
X145424304Y-138144351D02*
X145424304Y-137477684D01*
X145424304Y-137668160D02*
X145376685Y-137572922D01*
X145376685Y-137572922D02*
X145329066Y-137525303D01*
X145329066Y-137525303D02*
X145233828Y-137477684D01*
X145233828Y-137477684D02*
X145138590Y-137477684D01*
X144376685Y-138144351D02*
X144376685Y-137620541D01*
X144376685Y-137620541D02*
X144424304Y-137525303D01*
X144424304Y-137525303D02*
X144519542Y-137477684D01*
X144519542Y-137477684D02*
X144710018Y-137477684D01*
X144710018Y-137477684D02*
X144805256Y-137525303D01*
X144376685Y-138096732D02*
X144471923Y-138144351D01*
X144471923Y-138144351D02*
X144710018Y-138144351D01*
X144710018Y-138144351D02*
X144805256Y-138096732D01*
X144805256Y-138096732D02*
X144852875Y-138001493D01*
X144852875Y-138001493D02*
X144852875Y-137906255D01*
X144852875Y-137906255D02*
X144805256Y-137811017D01*
X144805256Y-137811017D02*
X144710018Y-137763398D01*
X144710018Y-137763398D02*
X144471923Y-137763398D01*
X144471923Y-137763398D02*
X144376685Y-137715779D01*
X143757637Y-138144351D02*
X143852875Y-138096732D01*
X143852875Y-138096732D02*
X143900494Y-138001493D01*
X143900494Y-138001493D02*
X143900494Y-137144351D01*
X143043351Y-137620541D02*
X142900494Y-137668160D01*
X142900494Y-137668160D02*
X142852875Y-137715779D01*
X142852875Y-137715779D02*
X142805256Y-137811017D01*
X142805256Y-137811017D02*
X142805256Y-137953874D01*
X142805256Y-137953874D02*
X142852875Y-138049112D01*
X142852875Y-138049112D02*
X142900494Y-138096732D01*
X142900494Y-138096732D02*
X142995732Y-138144351D01*
X142995732Y-138144351D02*
X143376684Y-138144351D01*
X143376684Y-138144351D02*
X143376684Y-137144351D01*
X143376684Y-137144351D02*
X143043351Y-137144351D01*
X143043351Y-137144351D02*
X142948113Y-137191970D01*
X142948113Y-137191970D02*
X142900494Y-137239589D01*
X142900494Y-137239589D02*
X142852875Y-137334827D01*
X142852875Y-137334827D02*
X142852875Y-137430065D01*
X142852875Y-137430065D02*
X142900494Y-137525303D01*
X142900494Y-137525303D02*
X142948113Y-137572922D01*
X142948113Y-137572922D02*
X143043351Y-137620541D01*
X143043351Y-137620541D02*
X143376684Y-137620541D01*
X142233827Y-138144351D02*
X142329065Y-138096732D01*
X142329065Y-138096732D02*
X142376684Y-138049112D01*
X142376684Y-138049112D02*
X142424303Y-137953874D01*
X142424303Y-137953874D02*
X142424303Y-137668160D01*
X142424303Y-137668160D02*
X142376684Y-137572922D01*
X142376684Y-137572922D02*
X142329065Y-137525303D01*
X142329065Y-137525303D02*
X142233827Y-137477684D01*
X142233827Y-137477684D02*
X142090970Y-137477684D01*
X142090970Y-137477684D02*
X141995732Y-137525303D01*
X141995732Y-137525303D02*
X141948113Y-137572922D01*
X141948113Y-137572922D02*
X141900494Y-137668160D01*
X141900494Y-137668160D02*
X141900494Y-137953874D01*
X141900494Y-137953874D02*
X141948113Y-138049112D01*
X141948113Y-138049112D02*
X141995732Y-138096732D01*
X141995732Y-138096732D02*
X142090970Y-138144351D01*
X142090970Y-138144351D02*
X142233827Y-138144351D01*
X141043351Y-138144351D02*
X141043351Y-137620541D01*
X141043351Y-137620541D02*
X141090970Y-137525303D01*
X141090970Y-137525303D02*
X141186208Y-137477684D01*
X141186208Y-137477684D02*
X141376684Y-137477684D01*
X141376684Y-137477684D02*
X141471922Y-137525303D01*
X141043351Y-138096732D02*
X141138589Y-138144351D01*
X141138589Y-138144351D02*
X141376684Y-138144351D01*
X141376684Y-138144351D02*
X141471922Y-138096732D01*
X141471922Y-138096732D02*
X141519541Y-138001493D01*
X141519541Y-138001493D02*
X141519541Y-137906255D01*
X141519541Y-137906255D02*
X141471922Y-137811017D01*
X141471922Y-137811017D02*
X141376684Y-137763398D01*
X141376684Y-137763398D02*
X141138589Y-137763398D01*
X141138589Y-137763398D02*
X141043351Y-137715779D01*
X140567160Y-138144351D02*
X140567160Y-137477684D01*
X140567160Y-137668160D02*
X140519541Y-137572922D01*
X140519541Y-137572922D02*
X140471922Y-137525303D01*
X140471922Y-137525303D02*
X140376684Y-137477684D01*
X140376684Y-137477684D02*
X140281446Y-137477684D01*
X139519541Y-138144351D02*
X139519541Y-137144351D01*
X139519541Y-138096732D02*
X139614779Y-138144351D01*
X139614779Y-138144351D02*
X139805255Y-138144351D01*
X139805255Y-138144351D02*
X139900493Y-138096732D01*
X139900493Y-138096732D02*
X139948112Y-138049112D01*
X139948112Y-138049112D02*
X139995731Y-137953874D01*
X139995731Y-137953874D02*
X139995731Y-137668160D01*
X139995731Y-137668160D02*
X139948112Y-137572922D01*
X139948112Y-137572922D02*
X139900493Y-137525303D01*
X139900493Y-137525303D02*
X139805255Y-137477684D01*
X139805255Y-137477684D02*
X139614779Y-137477684D01*
X139614779Y-137477684D02*
X139519541Y-137525303D01*
X138519541Y-138144351D02*
X139090969Y-138144351D01*
X138805255Y-138144351D02*
X138805255Y-137144351D01*
X138805255Y-137144351D02*
X138900493Y-137287208D01*
X138900493Y-137287208D02*
X138995731Y-137382446D01*
X138995731Y-137382446D02*
X139090969Y-137430065D01*
X127697580Y-134887436D02*
X126888057Y-134887436D01*
X126888057Y-134887436D02*
X126792819Y-134839817D01*
X126792819Y-134839817D02*
X126745200Y-134792198D01*
X126745200Y-134792198D02*
X126697580Y-134696960D01*
X126697580Y-134696960D02*
X126697580Y-134506484D01*
X126697580Y-134506484D02*
X126745200Y-134411246D01*
X126745200Y-134411246D02*
X126792819Y-134363627D01*
X126792819Y-134363627D02*
X126888057Y-134316008D01*
X126888057Y-134316008D02*
X127697580Y-134316008D01*
X126745200Y-133887436D02*
X126697580Y-133744579D01*
X126697580Y-133744579D02*
X126697580Y-133506484D01*
X126697580Y-133506484D02*
X126745200Y-133411246D01*
X126745200Y-133411246D02*
X126792819Y-133363627D01*
X126792819Y-133363627D02*
X126888057Y-133316008D01*
X126888057Y-133316008D02*
X126983295Y-133316008D01*
X126983295Y-133316008D02*
X127078533Y-133363627D01*
X127078533Y-133363627D02*
X127126152Y-133411246D01*
X127126152Y-133411246D02*
X127173771Y-133506484D01*
X127173771Y-133506484D02*
X127221390Y-133696960D01*
X127221390Y-133696960D02*
X127269009Y-133792198D01*
X127269009Y-133792198D02*
X127316628Y-133839817D01*
X127316628Y-133839817D02*
X127411866Y-133887436D01*
X127411866Y-133887436D02*
X127507104Y-133887436D01*
X127507104Y-133887436D02*
X127602342Y-133839817D01*
X127602342Y-133839817D02*
X127649961Y-133792198D01*
X127649961Y-133792198D02*
X127697580Y-133696960D01*
X127697580Y-133696960D02*
X127697580Y-133458865D01*
X127697580Y-133458865D02*
X127649961Y-133316008D01*
X127221390Y-132554103D02*
X127173771Y-132411246D01*
X127173771Y-132411246D02*
X127126152Y-132363627D01*
X127126152Y-132363627D02*
X127030914Y-132316008D01*
X127030914Y-132316008D02*
X126888057Y-132316008D01*
X126888057Y-132316008D02*
X126792819Y-132363627D01*
X126792819Y-132363627D02*
X126745200Y-132411246D01*
X126745200Y-132411246D02*
X126697580Y-132506484D01*
X126697580Y-132506484D02*
X126697580Y-132887436D01*
X126697580Y-132887436D02*
X127697580Y-132887436D01*
X127697580Y-132887436D02*
X127697580Y-132554103D01*
X127697580Y-132554103D02*
X127649961Y-132458865D01*
X127649961Y-132458865D02*
X127602342Y-132411246D01*
X127602342Y-132411246D02*
X127507104Y-132363627D01*
X127507104Y-132363627D02*
X127411866Y-132363627D01*
X127411866Y-132363627D02*
X127316628Y-132411246D01*
X127316628Y-132411246D02*
X127269009Y-132458865D01*
X127269009Y-132458865D02*
X127221390Y-132554103D01*
X127221390Y-132554103D02*
X127221390Y-132887436D01*
X147919047Y-121431009D02*
X147776190Y-121478628D01*
X147776190Y-121478628D02*
X147728571Y-121526247D01*
X147728571Y-121526247D02*
X147680952Y-121621485D01*
X147680952Y-121621485D02*
X147680952Y-121764342D01*
X147680952Y-121764342D02*
X147728571Y-121859580D01*
X147728571Y-121859580D02*
X147776190Y-121907200D01*
X147776190Y-121907200D02*
X147871428Y-121954819D01*
X147871428Y-121954819D02*
X148252380Y-121954819D01*
X148252380Y-121954819D02*
X148252380Y-120954819D01*
X148252380Y-120954819D02*
X147919047Y-120954819D01*
X147919047Y-120954819D02*
X147823809Y-121002438D01*
X147823809Y-121002438D02*
X147776190Y-121050057D01*
X147776190Y-121050057D02*
X147728571Y-121145295D01*
X147728571Y-121145295D02*
X147728571Y-121240533D01*
X147728571Y-121240533D02*
X147776190Y-121335771D01*
X147776190Y-121335771D02*
X147823809Y-121383390D01*
X147823809Y-121383390D02*
X147919047Y-121431009D01*
X147919047Y-121431009D02*
X148252380Y-121431009D01*
X147299999Y-121669104D02*
X146823809Y-121669104D01*
X147395237Y-121954819D02*
X147061904Y-120954819D01*
X147061904Y-120954819D02*
X146728571Y-121954819D01*
X146538094Y-120954819D02*
X145966666Y-120954819D01*
X146252380Y-121954819D02*
X146252380Y-120954819D01*
X145585713Y-121954819D02*
X145395237Y-121954819D01*
X145395237Y-121954819D02*
X145299999Y-121907200D01*
X145299999Y-121907200D02*
X145252380Y-121859580D01*
X145252380Y-121859580D02*
X145157142Y-121716723D01*
X145157142Y-121716723D02*
X145109523Y-121526247D01*
X145109523Y-121526247D02*
X145109523Y-121145295D01*
X145109523Y-121145295D02*
X145157142Y-121050057D01*
X145157142Y-121050057D02*
X145204761Y-121002438D01*
X145204761Y-121002438D02*
X145299999Y-120954819D01*
X145299999Y-120954819D02*
X145490475Y-120954819D01*
X145490475Y-120954819D02*
X145585713Y-121002438D01*
X145585713Y-121002438D02*
X145633332Y-121050057D01*
X145633332Y-121050057D02*
X145680951Y-121145295D01*
X145680951Y-121145295D02*
X145680951Y-121383390D01*
X145680951Y-121383390D02*
X145633332Y-121478628D01*
X145633332Y-121478628D02*
X145585713Y-121526247D01*
X145585713Y-121526247D02*
X145490475Y-121573866D01*
X145490475Y-121573866D02*
X145299999Y-121573866D01*
X145299999Y-121573866D02*
X145204761Y-121526247D01*
X145204761Y-121526247D02*
X145157142Y-121478628D01*
X145157142Y-121478628D02*
X145109523Y-121383390D01*
X144823808Y-120954819D02*
X144490475Y-121954819D01*
X144490475Y-121954819D02*
X144157142Y-120954819D01*
X143299999Y-121954819D02*
X143871427Y-121954819D01*
X143585713Y-121954819D02*
X143585713Y-120954819D01*
X143585713Y-120954819D02*
X143680951Y-121097676D01*
X143680951Y-121097676D02*
X143776189Y-121192914D01*
X143776189Y-121192914D02*
X143871427Y-121240533D01*
X139693866Y-118236779D02*
X139693866Y-118998684D01*
X152573866Y-118236779D02*
X152573866Y-118998684D01*
X152954819Y-118617731D02*
X152192914Y-118617731D01*
D11*
%TO.C,CentralBoard1*%
X120672400Y-129685532D02*
X131092400Y-129685532D01*
X120672400Y-137565532D02*
X120672400Y-129685532D01*
X123212400Y-129685532D02*
X123212400Y-124605532D01*
X123212400Y-137565532D02*
X123212400Y-142645532D01*
X123212400Y-142645532D02*
X161442400Y-142645532D01*
X125882400Y-124605532D02*
X125882400Y-127275532D01*
X125882400Y-127275532D02*
X163982400Y-127275532D01*
X125882400Y-139975532D02*
X161442400Y-139975532D01*
X125882400Y-142645532D02*
X125882400Y-139975532D01*
X131092400Y-129685532D02*
X131092400Y-137565532D01*
X131092400Y-137565532D02*
X120672400Y-137565532D01*
X161442400Y-142645532D02*
X161442400Y-139975532D01*
X163982400Y-124605532D02*
X163982400Y-127275532D01*
X163982400Y-139975532D02*
X161442400Y-139975532D01*
X163982400Y-142645532D02*
X163982400Y-139975532D01*
X163982400Y-142645532D02*
X166652400Y-142645532D01*
X166652400Y-124605532D02*
X123212400Y-124605532D01*
X166652400Y-142645532D02*
X166652400Y-124605532D01*
%TO.C,BAT9V1*%
X130220000Y-117960000D02*
X130220000Y-68400000D01*
X133120000Y-117960000D02*
X130220000Y-117960000D01*
X133120000Y-123560000D02*
X133120000Y-117960000D01*
X137800000Y-123560000D02*
X133120000Y-123560000D01*
X141500000Y-123560000D02*
X149850000Y-123560000D01*
X155050000Y-123900000D02*
X158050000Y-123900000D01*
X155150000Y-123560000D02*
X157710000Y-123560000D01*
X157710000Y-117960000D02*
X161810000Y-117960000D01*
X157710000Y-123560000D02*
X157710000Y-117960000D01*
X158050000Y-120900000D02*
X158050000Y-123900000D01*
X161810000Y-68400000D02*
X130220000Y-68400000D01*
X161810000Y-117960000D02*
X161810000Y-68400000D01*
%TD*%
M02*
