M48
; DRILL file {KiCad 8.0.2} date 2024-05-12T00:21:15+0100
; FORMAT={-:-/ absolute / metric / decimal}
; #@! TF.CreationDate,2024-05-12T00:21:15+01:00
; #@! TF.GenerationSoftware,Kicad,Pcbnew,8.0.2
; #@! TF.FileFunction,Plated,1,2,PTH
FMAT,2
METRIC
; #@! TA.AperFunction,Plated,PTH,ComponentDrill
T1C0.660
; #@! TA.AperFunction,Plated,PTH,ComponentDrill
T2C1.000
; #@! TA.AperFunction,Plated,PTH,ComponentDrill
T3C1.100
; #@! TA.AperFunction,Plated,PTH,ComponentDrill
T4C1.143
%
G90
G05
T2
X127.152Y-126.006
X127.152Y-141.246
X129.692Y-126.006
X129.692Y-141.246
X132.232Y-126.006
X132.232Y-141.246
X134.772Y-126.006
X134.772Y-141.246
X137.312Y-126.006
X137.312Y-141.246
X139.852Y-126.006
X139.852Y-141.246
X142.392Y-126.006
X142.392Y-141.246
X144.932Y-126.006
X144.932Y-141.246
X147.472Y-126.006
X147.472Y-141.246
X150.012Y-126.006
X150.012Y-141.246
X152.552Y-126.006
X152.552Y-141.246
X155.092Y-126.006
X155.092Y-141.246
X157.632Y-126.006
X157.632Y-141.246
X160.172Y-126.006
X160.172Y-141.246
X162.712Y-126.006
X162.712Y-141.246
T3
X130.224Y-98.75
X130.224Y-103.25
X131.881Y-49.15
X131.881Y-53.65
X136.724Y-98.75
X136.724Y-103.25
X138.381Y-49.15
X138.381Y-53.65
X139.368Y-88.844
X139.368Y-93.344
X139.368Y-108.656
X139.368Y-113.156
X145.868Y-88.844
X145.868Y-93.344
X145.868Y-108.656
X145.868Y-113.156
X147.75Y-98.75
X147.75Y-103.25
X154.25Y-98.75
X154.25Y-103.25
X160.072Y-56.424
X160.072Y-60.924
X166.572Y-56.424
X166.572Y-60.924
T4
X158.563Y-68.92
X158.563Y-71.46
X158.563Y-74.0
X158.563Y-76.54
X158.563Y-79.08
T1
G00X138.815Y-121.5
M15
G01X140.425Y-121.5
M16
G05
G00X151.695Y-121.5
M15
G01X153.305Y-121.5
M16
G05
M30
