%TF.GenerationSoftware,KiCad,Pcbnew,8.0.2*%
%TF.CreationDate,2024-05-12T00:22:51+01:00*%
%TF.ProjectId,Left_Controller_PCB_Bluetooth,4c656674-5f43-46f6-9e74-726f6c6c6572,V1.1*%
%TF.SameCoordinates,Original*%
%TF.FileFunction,Soldermask,Top*%
%TF.FilePolarity,Negative*%
%FSLAX46Y46*%
G04 Gerber Fmt 4.6, Leading zero omitted, Abs format (unit mm)*
G04 Created by KiCad (PCBNEW 8.0.2) date 2024-05-12 00:22:51*
%MOMM*%
%LPD*%
G01*
G04 APERTURE LIST*
%ADD10C,3.000000*%
%ADD11C,1.524000*%
%ADD12C,2.000000*%
%ADD13R,1.600000X1.600000*%
%ADD14O,1.600000X1.600000*%
%ADD15C,2.300000*%
%ADD16R,4.020000X2.410000*%
%ADD17O,4.020000X2.410000*%
G04 APERTURE END LIST*
D10*
%TO.C,H1*%
X121000000Y-51000000D03*
%TD*%
D11*
%TO.C,JoystickL1*%
X158563250Y-79080000D03*
X158563250Y-76540000D03*
X158563250Y-74000000D03*
X158563250Y-71460000D03*
X158563250Y-68920000D03*
%TD*%
D12*
%TO.C,SEL_L1*%
X166572000Y-60924000D03*
X160072000Y-60924000D03*
X166572000Y-56424000D03*
X160072000Y-56424000D03*
%TD*%
%TO.C,DOWN1*%
X139368000Y-108656000D03*
X145868000Y-108656000D03*
X139368000Y-113156000D03*
X145868000Y-113156000D03*
%TD*%
%TO.C,LEFT1*%
X130224000Y-98750000D03*
X136724000Y-98750000D03*
X130224000Y-103250000D03*
X136724000Y-103250000D03*
%TD*%
%TO.C,LEFT_SHOULDER1*%
X138380800Y-53649932D03*
X131880800Y-53649932D03*
X138380800Y-49149932D03*
X131880800Y-49149932D03*
%TD*%
%TO.C,RIGHT1*%
X147750000Y-98750000D03*
X154250000Y-98750000D03*
X147750000Y-103250000D03*
X154250000Y-103250000D03*
%TD*%
D10*
%TO.C,H2*%
X166000000Y-51000000D03*
%TD*%
D12*
%TO.C,UP1*%
X139368000Y-88844000D03*
X145868000Y-88844000D03*
X139368000Y-93344000D03*
X145868000Y-93344000D03*
%TD*%
D10*
%TO.C,H3*%
X166000000Y-145000000D03*
%TD*%
%TO.C,H4*%
X121000000Y-145000000D03*
%TD*%
D13*
%TO.C,CentralBoard1*%
X162712400Y-141245532D03*
D14*
X160172400Y-141245532D03*
X157632400Y-141245532D03*
X155092400Y-141245532D03*
X152552400Y-141245532D03*
X150012400Y-141245532D03*
X147472400Y-141245532D03*
X144932400Y-141245532D03*
X142392400Y-141245532D03*
X139852400Y-141245532D03*
X137312400Y-141245532D03*
X134772400Y-141245532D03*
X132232400Y-141245532D03*
X129692400Y-141245532D03*
X127152400Y-141245532D03*
X127152400Y-126005532D03*
X129692400Y-126005532D03*
X132232400Y-126005532D03*
X134772400Y-126005532D03*
X137312400Y-126005532D03*
X139852400Y-126005532D03*
X142392400Y-126005532D03*
X144932400Y-126005532D03*
X147472400Y-126005532D03*
X150012400Y-126005532D03*
X152552400Y-126005532D03*
X155092400Y-126005532D03*
X157632400Y-126005532D03*
X160172400Y-126005532D03*
X162712400Y-126005532D03*
%TD*%
D15*
%TO.C,BAT9V1*%
X134880000Y-109210000D03*
X157230000Y-95720000D03*
X134880000Y-82240000D03*
D16*
X152500000Y-121500000D03*
D17*
X139620000Y-121500000D03*
%TD*%
M02*
