%TF.GenerationSoftware,KiCad,Pcbnew,8.0.2*%
%TF.CreationDate,2024-05-12T00:24:23+01:00*%
%TF.ProjectId,Right_Controller_PCB_Bluetooth,52696768-745f-4436-9f6e-74726f6c6c65,V1.1*%
%TF.SameCoordinates,Original*%
%TF.FileFunction,Legend,Top*%
%TF.FilePolarity,Positive*%
%FSLAX46Y46*%
G04 Gerber Fmt 4.6, Leading zero omitted, Abs format (unit mm)*
G04 Created by KiCad (PCBNEW 8.0.2) date 2024-05-12 00:24:23*
%MOMM*%
%LPD*%
G01*
G04 APERTURE LIST*
%ADD10C,0.150000*%
%ADD11C,0.203200*%
%ADD12C,0.120000*%
G04 APERTURE END LIST*
D10*
X120238095Y-51454819D02*
X120238095Y-50454819D01*
X120238095Y-50931009D02*
X120809523Y-50931009D01*
X120809523Y-51454819D02*
X120809523Y-50454819D01*
X121809523Y-51454819D02*
X121238095Y-51454819D01*
X121523809Y-51454819D02*
X121523809Y-50454819D01*
X121523809Y-50454819D02*
X121428571Y-50597676D01*
X121428571Y-50597676D02*
X121333333Y-50692914D01*
X121333333Y-50692914D02*
X121238095Y-50740533D01*
X142797618Y-100454819D02*
X142797618Y-101169104D01*
X142797618Y-101169104D02*
X142749999Y-101311961D01*
X142749999Y-101311961D02*
X142654761Y-101407200D01*
X142654761Y-101407200D02*
X142511904Y-101454819D01*
X142511904Y-101454819D02*
X142416666Y-101454819D01*
X143416666Y-101454819D02*
X143321428Y-101407200D01*
X143321428Y-101407200D02*
X143273809Y-101359580D01*
X143273809Y-101359580D02*
X143226190Y-101264342D01*
X143226190Y-101264342D02*
X143226190Y-100978628D01*
X143226190Y-100978628D02*
X143273809Y-100883390D01*
X143273809Y-100883390D02*
X143321428Y-100835771D01*
X143321428Y-100835771D02*
X143416666Y-100788152D01*
X143416666Y-100788152D02*
X143559523Y-100788152D01*
X143559523Y-100788152D02*
X143654761Y-100835771D01*
X143654761Y-100835771D02*
X143702380Y-100883390D01*
X143702380Y-100883390D02*
X143749999Y-100978628D01*
X143749999Y-100978628D02*
X143749999Y-101264342D01*
X143749999Y-101264342D02*
X143702380Y-101359580D01*
X143702380Y-101359580D02*
X143654761Y-101407200D01*
X143654761Y-101407200D02*
X143559523Y-101454819D01*
X143559523Y-101454819D02*
X143416666Y-101454819D01*
X144083333Y-100788152D02*
X144321428Y-101454819D01*
X144559523Y-100788152D02*
X144321428Y-101454819D01*
X144321428Y-101454819D02*
X144226190Y-101692914D01*
X144226190Y-101692914D02*
X144178571Y-101740533D01*
X144178571Y-101740533D02*
X144083333Y-101788152D01*
X144892857Y-101407200D02*
X144988095Y-101454819D01*
X144988095Y-101454819D02*
X145178571Y-101454819D01*
X145178571Y-101454819D02*
X145273809Y-101407200D01*
X145273809Y-101407200D02*
X145321428Y-101311961D01*
X145321428Y-101311961D02*
X145321428Y-101264342D01*
X145321428Y-101264342D02*
X145273809Y-101169104D01*
X145273809Y-101169104D02*
X145178571Y-101121485D01*
X145178571Y-101121485D02*
X145035714Y-101121485D01*
X145035714Y-101121485D02*
X144940476Y-101073866D01*
X144940476Y-101073866D02*
X144892857Y-100978628D01*
X144892857Y-100978628D02*
X144892857Y-100931009D01*
X144892857Y-100931009D02*
X144940476Y-100835771D01*
X144940476Y-100835771D02*
X145035714Y-100788152D01*
X145035714Y-100788152D02*
X145178571Y-100788152D01*
X145178571Y-100788152D02*
X145273809Y-100835771D01*
X145607143Y-100788152D02*
X145988095Y-100788152D01*
X145750000Y-100454819D02*
X145750000Y-101311961D01*
X145750000Y-101311961D02*
X145797619Y-101407200D01*
X145797619Y-101407200D02*
X145892857Y-101454819D01*
X145892857Y-101454819D02*
X145988095Y-101454819D01*
X146321429Y-101454819D02*
X146321429Y-100788152D01*
X146321429Y-100454819D02*
X146273810Y-100502438D01*
X146273810Y-100502438D02*
X146321429Y-100550057D01*
X146321429Y-100550057D02*
X146369048Y-100502438D01*
X146369048Y-100502438D02*
X146321429Y-100454819D01*
X146321429Y-100454819D02*
X146321429Y-100550057D01*
X147226190Y-101407200D02*
X147130952Y-101454819D01*
X147130952Y-101454819D02*
X146940476Y-101454819D01*
X146940476Y-101454819D02*
X146845238Y-101407200D01*
X146845238Y-101407200D02*
X146797619Y-101359580D01*
X146797619Y-101359580D02*
X146750000Y-101264342D01*
X146750000Y-101264342D02*
X146750000Y-100978628D01*
X146750000Y-100978628D02*
X146797619Y-100883390D01*
X146797619Y-100883390D02*
X146845238Y-100835771D01*
X146845238Y-100835771D02*
X146940476Y-100788152D01*
X146940476Y-100788152D02*
X147130952Y-100788152D01*
X147130952Y-100788152D02*
X147226190Y-100835771D01*
X147654762Y-101454819D02*
X147654762Y-100454819D01*
X147750000Y-101073866D02*
X148035714Y-101454819D01*
X148035714Y-100788152D02*
X147654762Y-101169104D01*
X149035714Y-101454819D02*
X148702381Y-100978628D01*
X148464286Y-101454819D02*
X148464286Y-100454819D01*
X148464286Y-100454819D02*
X148845238Y-100454819D01*
X148845238Y-100454819D02*
X148940476Y-100502438D01*
X148940476Y-100502438D02*
X148988095Y-100550057D01*
X148988095Y-100550057D02*
X149035714Y-100645295D01*
X149035714Y-100645295D02*
X149035714Y-100788152D01*
X149035714Y-100788152D02*
X148988095Y-100883390D01*
X148988095Y-100883390D02*
X148940476Y-100931009D01*
X148940476Y-100931009D02*
X148845238Y-100978628D01*
X148845238Y-100978628D02*
X148464286Y-100978628D01*
X120618666Y-59843200D02*
X120761523Y-59890819D01*
X120761523Y-59890819D02*
X120999618Y-59890819D01*
X120999618Y-59890819D02*
X121094856Y-59843200D01*
X121094856Y-59843200D02*
X121142475Y-59795580D01*
X121142475Y-59795580D02*
X121190094Y-59700342D01*
X121190094Y-59700342D02*
X121190094Y-59605104D01*
X121190094Y-59605104D02*
X121142475Y-59509866D01*
X121142475Y-59509866D02*
X121094856Y-59462247D01*
X121094856Y-59462247D02*
X120999618Y-59414628D01*
X120999618Y-59414628D02*
X120809142Y-59367009D01*
X120809142Y-59367009D02*
X120713904Y-59319390D01*
X120713904Y-59319390D02*
X120666285Y-59271771D01*
X120666285Y-59271771D02*
X120618666Y-59176533D01*
X120618666Y-59176533D02*
X120618666Y-59081295D01*
X120618666Y-59081295D02*
X120666285Y-58986057D01*
X120666285Y-58986057D02*
X120713904Y-58938438D01*
X120713904Y-58938438D02*
X120809142Y-58890819D01*
X120809142Y-58890819D02*
X121047237Y-58890819D01*
X121047237Y-58890819D02*
X121190094Y-58938438D01*
X121475809Y-58890819D02*
X122047237Y-58890819D01*
X121761523Y-59890819D02*
X121761523Y-58890819D01*
X122332952Y-59605104D02*
X122809142Y-59605104D01*
X122237714Y-59890819D02*
X122571047Y-58890819D01*
X122571047Y-58890819D02*
X122904380Y-59890819D01*
X123809142Y-59890819D02*
X123475809Y-59414628D01*
X123237714Y-59890819D02*
X123237714Y-58890819D01*
X123237714Y-58890819D02*
X123618666Y-58890819D01*
X123618666Y-58890819D02*
X123713904Y-58938438D01*
X123713904Y-58938438D02*
X123761523Y-58986057D01*
X123761523Y-58986057D02*
X123809142Y-59081295D01*
X123809142Y-59081295D02*
X123809142Y-59224152D01*
X123809142Y-59224152D02*
X123761523Y-59319390D01*
X123761523Y-59319390D02*
X123713904Y-59367009D01*
X123713904Y-59367009D02*
X123618666Y-59414628D01*
X123618666Y-59414628D02*
X123237714Y-59414628D01*
X124094857Y-58890819D02*
X124666285Y-58890819D01*
X124380571Y-59890819D02*
X124380571Y-58890819D01*
X124761524Y-59986057D02*
X125523428Y-59986057D01*
X126332952Y-59890819D02*
X125999619Y-59414628D01*
X125761524Y-59890819D02*
X125761524Y-58890819D01*
X125761524Y-58890819D02*
X126142476Y-58890819D01*
X126142476Y-58890819D02*
X126237714Y-58938438D01*
X126237714Y-58938438D02*
X126285333Y-58986057D01*
X126285333Y-58986057D02*
X126332952Y-59081295D01*
X126332952Y-59081295D02*
X126332952Y-59224152D01*
X126332952Y-59224152D02*
X126285333Y-59319390D01*
X126285333Y-59319390D02*
X126237714Y-59367009D01*
X126237714Y-59367009D02*
X126142476Y-59414628D01*
X126142476Y-59414628D02*
X125761524Y-59414628D01*
X127285333Y-59890819D02*
X126713905Y-59890819D01*
X126999619Y-59890819D02*
X126999619Y-58890819D01*
X126999619Y-58890819D02*
X126904381Y-59033676D01*
X126904381Y-59033676D02*
X126809143Y-59128914D01*
X126809143Y-59128914D02*
X126713905Y-59176533D01*
X145133714Y-84207104D02*
X145609904Y-84207104D01*
X145038476Y-84492819D02*
X145371809Y-83492819D01*
X145371809Y-83492819D02*
X145705142Y-84492819D01*
X146562285Y-84492819D02*
X145990857Y-84492819D01*
X146276571Y-84492819D02*
X146276571Y-83492819D01*
X146276571Y-83492819D02*
X146181333Y-83635676D01*
X146181333Y-83635676D02*
X146086095Y-83730914D01*
X146086095Y-83730914D02*
X145990857Y-83778533D01*
X135894476Y-73586819D02*
X136561142Y-74586819D01*
X136561142Y-73586819D02*
X135894476Y-74586819D01*
X137465904Y-74586819D02*
X136894476Y-74586819D01*
X137180190Y-74586819D02*
X137180190Y-73586819D01*
X137180190Y-73586819D02*
X137084952Y-73729676D01*
X137084952Y-73729676D02*
X136989714Y-73824914D01*
X136989714Y-73824914D02*
X136894476Y-73872533D01*
X146050761Y-51762819D02*
X145717428Y-51286628D01*
X145479333Y-51762819D02*
X145479333Y-50762819D01*
X145479333Y-50762819D02*
X145860285Y-50762819D01*
X145860285Y-50762819D02*
X145955523Y-50810438D01*
X145955523Y-50810438D02*
X146003142Y-50858057D01*
X146003142Y-50858057D02*
X146050761Y-50953295D01*
X146050761Y-50953295D02*
X146050761Y-51096152D01*
X146050761Y-51096152D02*
X146003142Y-51191390D01*
X146003142Y-51191390D02*
X145955523Y-51239009D01*
X145955523Y-51239009D02*
X145860285Y-51286628D01*
X145860285Y-51286628D02*
X145479333Y-51286628D01*
X146479333Y-51762819D02*
X146479333Y-50762819D01*
X147479332Y-50810438D02*
X147384094Y-50762819D01*
X147384094Y-50762819D02*
X147241237Y-50762819D01*
X147241237Y-50762819D02*
X147098380Y-50810438D01*
X147098380Y-50810438D02*
X147003142Y-50905676D01*
X147003142Y-50905676D02*
X146955523Y-51000914D01*
X146955523Y-51000914D02*
X146907904Y-51191390D01*
X146907904Y-51191390D02*
X146907904Y-51334247D01*
X146907904Y-51334247D02*
X146955523Y-51524723D01*
X146955523Y-51524723D02*
X147003142Y-51619961D01*
X147003142Y-51619961D02*
X147098380Y-51715200D01*
X147098380Y-51715200D02*
X147241237Y-51762819D01*
X147241237Y-51762819D02*
X147336475Y-51762819D01*
X147336475Y-51762819D02*
X147479332Y-51715200D01*
X147479332Y-51715200D02*
X147526951Y-51667580D01*
X147526951Y-51667580D02*
X147526951Y-51334247D01*
X147526951Y-51334247D02*
X147336475Y-51334247D01*
X147955523Y-51762819D02*
X147955523Y-50762819D01*
X147955523Y-51239009D02*
X148526951Y-51239009D01*
X148526951Y-51762819D02*
X148526951Y-50762819D01*
X148860285Y-50762819D02*
X149431713Y-50762819D01*
X149145999Y-51762819D02*
X149145999Y-50762819D01*
X149526952Y-51858057D02*
X150288856Y-51858057D01*
X150479333Y-51715200D02*
X150622190Y-51762819D01*
X150622190Y-51762819D02*
X150860285Y-51762819D01*
X150860285Y-51762819D02*
X150955523Y-51715200D01*
X150955523Y-51715200D02*
X151003142Y-51667580D01*
X151003142Y-51667580D02*
X151050761Y-51572342D01*
X151050761Y-51572342D02*
X151050761Y-51477104D01*
X151050761Y-51477104D02*
X151003142Y-51381866D01*
X151003142Y-51381866D02*
X150955523Y-51334247D01*
X150955523Y-51334247D02*
X150860285Y-51286628D01*
X150860285Y-51286628D02*
X150669809Y-51239009D01*
X150669809Y-51239009D02*
X150574571Y-51191390D01*
X150574571Y-51191390D02*
X150526952Y-51143771D01*
X150526952Y-51143771D02*
X150479333Y-51048533D01*
X150479333Y-51048533D02*
X150479333Y-50953295D01*
X150479333Y-50953295D02*
X150526952Y-50858057D01*
X150526952Y-50858057D02*
X150574571Y-50810438D01*
X150574571Y-50810438D02*
X150669809Y-50762819D01*
X150669809Y-50762819D02*
X150907904Y-50762819D01*
X150907904Y-50762819D02*
X151050761Y-50810438D01*
X151479333Y-51762819D02*
X151479333Y-50762819D01*
X151479333Y-51239009D02*
X152050761Y-51239009D01*
X152050761Y-51762819D02*
X152050761Y-50762819D01*
X152717428Y-50762819D02*
X152907904Y-50762819D01*
X152907904Y-50762819D02*
X153003142Y-50810438D01*
X153003142Y-50810438D02*
X153098380Y-50905676D01*
X153098380Y-50905676D02*
X153145999Y-51096152D01*
X153145999Y-51096152D02*
X153145999Y-51429485D01*
X153145999Y-51429485D02*
X153098380Y-51619961D01*
X153098380Y-51619961D02*
X153003142Y-51715200D01*
X153003142Y-51715200D02*
X152907904Y-51762819D01*
X152907904Y-51762819D02*
X152717428Y-51762819D01*
X152717428Y-51762819D02*
X152622190Y-51715200D01*
X152622190Y-51715200D02*
X152526952Y-51619961D01*
X152526952Y-51619961D02*
X152479333Y-51429485D01*
X152479333Y-51429485D02*
X152479333Y-51096152D01*
X152479333Y-51096152D02*
X152526952Y-50905676D01*
X152526952Y-50905676D02*
X152622190Y-50810438D01*
X152622190Y-50810438D02*
X152717428Y-50762819D01*
X153574571Y-50762819D02*
X153574571Y-51572342D01*
X153574571Y-51572342D02*
X153622190Y-51667580D01*
X153622190Y-51667580D02*
X153669809Y-51715200D01*
X153669809Y-51715200D02*
X153765047Y-51762819D01*
X153765047Y-51762819D02*
X153955523Y-51762819D01*
X153955523Y-51762819D02*
X154050761Y-51715200D01*
X154050761Y-51715200D02*
X154098380Y-51667580D01*
X154098380Y-51667580D02*
X154145999Y-51572342D01*
X154145999Y-51572342D02*
X154145999Y-50762819D01*
X155098380Y-51762819D02*
X154622190Y-51762819D01*
X154622190Y-51762819D02*
X154622190Y-50762819D01*
X155431714Y-51762819D02*
X155431714Y-50762819D01*
X155431714Y-50762819D02*
X155669809Y-50762819D01*
X155669809Y-50762819D02*
X155812666Y-50810438D01*
X155812666Y-50810438D02*
X155907904Y-50905676D01*
X155907904Y-50905676D02*
X155955523Y-51000914D01*
X155955523Y-51000914D02*
X156003142Y-51191390D01*
X156003142Y-51191390D02*
X156003142Y-51334247D01*
X156003142Y-51334247D02*
X155955523Y-51524723D01*
X155955523Y-51524723D02*
X155907904Y-51619961D01*
X155907904Y-51619961D02*
X155812666Y-51715200D01*
X155812666Y-51715200D02*
X155669809Y-51762819D01*
X155669809Y-51762819D02*
X155431714Y-51762819D01*
X156431714Y-51239009D02*
X156765047Y-51239009D01*
X156907904Y-51762819D02*
X156431714Y-51762819D01*
X156431714Y-51762819D02*
X156431714Y-50762819D01*
X156431714Y-50762819D02*
X156907904Y-50762819D01*
X157907904Y-51762819D02*
X157574571Y-51286628D01*
X157336476Y-51762819D02*
X157336476Y-50762819D01*
X157336476Y-50762819D02*
X157717428Y-50762819D01*
X157717428Y-50762819D02*
X157812666Y-50810438D01*
X157812666Y-50810438D02*
X157860285Y-50858057D01*
X157860285Y-50858057D02*
X157907904Y-50953295D01*
X157907904Y-50953295D02*
X157907904Y-51096152D01*
X157907904Y-51096152D02*
X157860285Y-51191390D01*
X157860285Y-51191390D02*
X157812666Y-51239009D01*
X157812666Y-51239009D02*
X157717428Y-51286628D01*
X157717428Y-51286628D02*
X157336476Y-51286628D01*
X158860285Y-51762819D02*
X158288857Y-51762819D01*
X158574571Y-51762819D02*
X158574571Y-50762819D01*
X158574571Y-50762819D02*
X158479333Y-50905676D01*
X158479333Y-50905676D02*
X158384095Y-51000914D01*
X158384095Y-51000914D02*
X158288857Y-51048533D01*
X153825238Y-74063009D02*
X153968095Y-74110628D01*
X153968095Y-74110628D02*
X154015714Y-74158247D01*
X154015714Y-74158247D02*
X154063333Y-74253485D01*
X154063333Y-74253485D02*
X154063333Y-74396342D01*
X154063333Y-74396342D02*
X154015714Y-74491580D01*
X154015714Y-74491580D02*
X153968095Y-74539200D01*
X153968095Y-74539200D02*
X153872857Y-74586819D01*
X153872857Y-74586819D02*
X153491905Y-74586819D01*
X153491905Y-74586819D02*
X153491905Y-73586819D01*
X153491905Y-73586819D02*
X153825238Y-73586819D01*
X153825238Y-73586819D02*
X153920476Y-73634438D01*
X153920476Y-73634438D02*
X153968095Y-73682057D01*
X153968095Y-73682057D02*
X154015714Y-73777295D01*
X154015714Y-73777295D02*
X154015714Y-73872533D01*
X154015714Y-73872533D02*
X153968095Y-73967771D01*
X153968095Y-73967771D02*
X153920476Y-74015390D01*
X153920476Y-74015390D02*
X153825238Y-74063009D01*
X153825238Y-74063009D02*
X153491905Y-74063009D01*
X155015714Y-74586819D02*
X154444286Y-74586819D01*
X154730000Y-74586819D02*
X154730000Y-73586819D01*
X154730000Y-73586819D02*
X154634762Y-73729676D01*
X154634762Y-73729676D02*
X154539524Y-73824914D01*
X154539524Y-73824914D02*
X154444286Y-73872533D01*
X165238095Y-51454819D02*
X165238095Y-50454819D01*
X165238095Y-50931009D02*
X165809523Y-50931009D01*
X165809523Y-51454819D02*
X165809523Y-50454819D01*
X166238095Y-50550057D02*
X166285714Y-50502438D01*
X166285714Y-50502438D02*
X166380952Y-50454819D01*
X166380952Y-50454819D02*
X166619047Y-50454819D01*
X166619047Y-50454819D02*
X166714285Y-50502438D01*
X166714285Y-50502438D02*
X166761904Y-50550057D01*
X166761904Y-50550057D02*
X166809523Y-50645295D01*
X166809523Y-50645295D02*
X166809523Y-50740533D01*
X166809523Y-50740533D02*
X166761904Y-50883390D01*
X166761904Y-50883390D02*
X166190476Y-51454819D01*
X166190476Y-51454819D02*
X166809523Y-51454819D01*
X145371809Y-64204628D02*
X145371809Y-64680819D01*
X145038476Y-63680819D02*
X145371809Y-64204628D01*
X145371809Y-64204628D02*
X145705142Y-63680819D01*
X146562285Y-64680819D02*
X145990857Y-64680819D01*
X146276571Y-64680819D02*
X146276571Y-63680819D01*
X146276571Y-63680819D02*
X146181333Y-63823676D01*
X146181333Y-63823676D02*
X146086095Y-63918914D01*
X146086095Y-63918914D02*
X145990857Y-63966533D01*
X165238095Y-145454819D02*
X165238095Y-144454819D01*
X165238095Y-144931009D02*
X165809523Y-144931009D01*
X165809523Y-145454819D02*
X165809523Y-144454819D01*
X166190476Y-144454819D02*
X166809523Y-144454819D01*
X166809523Y-144454819D02*
X166476190Y-144835771D01*
X166476190Y-144835771D02*
X166619047Y-144835771D01*
X166619047Y-144835771D02*
X166714285Y-144883390D01*
X166714285Y-144883390D02*
X166761904Y-144931009D01*
X166761904Y-144931009D02*
X166809523Y-145026247D01*
X166809523Y-145026247D02*
X166809523Y-145264342D01*
X166809523Y-145264342D02*
X166761904Y-145359580D01*
X166761904Y-145359580D02*
X166714285Y-145407200D01*
X166714285Y-145407200D02*
X166619047Y-145454819D01*
X166619047Y-145454819D02*
X166333333Y-145454819D01*
X166333333Y-145454819D02*
X166238095Y-145407200D01*
X166238095Y-145407200D02*
X166190476Y-145359580D01*
X120238095Y-145454819D02*
X120238095Y-144454819D01*
X120238095Y-144931009D02*
X120809523Y-144931009D01*
X120809523Y-145454819D02*
X120809523Y-144454819D01*
X121714285Y-144788152D02*
X121714285Y-145454819D01*
X121476190Y-144407200D02*
X121238095Y-145121485D01*
X121238095Y-145121485D02*
X121857142Y-145121485D01*
D11*
%TO.C,JoystickR1*%
X129087600Y-88300000D02*
X129090000Y-95000000D01*
X129087600Y-88300000D02*
X162420000Y-88300000D01*
X129090000Y-113690000D02*
X129090000Y-106990000D01*
X162420000Y-88300000D02*
X162420000Y-113700000D01*
X162420000Y-113700000D02*
X129090000Y-113690000D01*
X128631000Y-94500000D02*
G75*
G02*
X127869000Y-94500000I-381000J0D01*
G01*
X127869000Y-94500000D02*
G75*
G02*
X128631000Y-94500000I381000J0D01*
G01*
D12*
%TO.C,START_R1*%
X120452000Y-58686000D02*
X120452000Y-60186000D01*
X121702000Y-62686000D02*
X126202000Y-62686000D01*
X126202000Y-56186000D02*
X121702000Y-56186000D01*
X127452000Y-60186000D02*
X127452000Y-58686000D01*
%TO.C,A1*%
X142348000Y-83288000D02*
X142348000Y-84788000D01*
X143598000Y-87288000D02*
X148098000Y-87288000D01*
X148098000Y-80788000D02*
X143598000Y-80788000D01*
X149348000Y-84788000D02*
X149348000Y-83288000D01*
%TO.C,X1*%
X133204000Y-73382000D02*
X133204000Y-74882000D01*
X134454000Y-77382000D02*
X138954000Y-77382000D01*
X138954000Y-70882000D02*
X134454000Y-70882000D01*
X140204000Y-74882000D02*
X140204000Y-73382000D01*
%TO.C,RIGHT_SHOULDER1*%
X148646000Y-50558000D02*
X148646000Y-52058000D01*
X149896000Y-54558000D02*
X154396000Y-54558000D01*
X154396000Y-48058000D02*
X149896000Y-48058000D01*
X155646000Y-52058000D02*
X155646000Y-50558000D01*
%TO.C,B1*%
X150730000Y-73382000D02*
X150730000Y-74882000D01*
X151980000Y-77382000D02*
X156480000Y-77382000D01*
X156480000Y-70882000D02*
X151980000Y-70882000D01*
X157730000Y-74882000D02*
X157730000Y-73382000D01*
%TO.C,Y1*%
X142348000Y-63476000D02*
X142348000Y-64976000D01*
X143598000Y-67476000D02*
X148098000Y-67476000D01*
X148098000Y-60976000D02*
X143598000Y-60976000D01*
X149348000Y-64976000D02*
X149348000Y-63476000D01*
%TD*%
M02*
