%TF.GenerationSoftware,KiCad,Pcbnew,8.0.2*%
%TF.CreationDate,2024-05-12T00:24:23+01:00*%
%TF.ProjectId,Right_Controller_PCB_Bluetooth,52696768-745f-4436-9f6e-74726f6c6c65,V1.1*%
%TF.SameCoordinates,Original*%
%TF.FileFunction,Soldermask,Top*%
%TF.FilePolarity,Negative*%
%FSLAX46Y46*%
G04 Gerber Fmt 4.6, Leading zero omitted, Abs format (unit mm)*
G04 Created by KiCad (PCBNEW 8.0.2) date 2024-05-12 00:24:23*
%MOMM*%
%LPD*%
G01*
G04 APERTURE LIST*
%ADD10C,3.000000*%
%ADD11C,1.524000*%
%ADD12C,2.000000*%
%ADD13R,1.600000X1.600000*%
%ADD14O,1.600000X1.600000*%
%ADD15C,2.300000*%
%ADD16R,4.020000X2.410000*%
%ADD17O,4.020000X2.410000*%
G04 APERTURE END LIST*
D10*
%TO.C,H1*%
X121000000Y-51000000D03*
%TD*%
D11*
%TO.C,JoystickR1*%
X129081250Y-95920000D03*
X129081250Y-98460000D03*
X129081250Y-101000000D03*
X129081250Y-103540000D03*
X129081250Y-106080000D03*
%TD*%
D12*
%TO.C,START_R1*%
X127202000Y-61686000D03*
X120702000Y-61686000D03*
X127202000Y-57186000D03*
X120702000Y-57186000D03*
%TD*%
%TO.C,A1*%
X142598000Y-81788000D03*
X149098000Y-81788000D03*
X142598000Y-86288000D03*
X149098000Y-86288000D03*
%TD*%
%TO.C,X1*%
X133454000Y-71882000D03*
X139954000Y-71882000D03*
X133454000Y-76382000D03*
X139954000Y-76382000D03*
%TD*%
%TO.C,RIGHT_SHOULDER1*%
X148896000Y-49058000D03*
X155396000Y-49058000D03*
X148896000Y-53558000D03*
X155396000Y-53558000D03*
%TD*%
%TO.C,B1*%
X150980000Y-71882000D03*
X157480000Y-71882000D03*
X150980000Y-76382000D03*
X157480000Y-76382000D03*
%TD*%
D10*
%TO.C,H2*%
X166000000Y-51000000D03*
%TD*%
D12*
%TO.C,Y1*%
X142598000Y-61976000D03*
X149098000Y-61976000D03*
X142598000Y-66476000D03*
X149098000Y-66476000D03*
%TD*%
D10*
%TO.C,H3*%
X166000000Y-145000000D03*
%TD*%
%TO.C,H4*%
X121000000Y-145000000D03*
%TD*%
D13*
%TO.C,CentralBoard1*%
X159360000Y-141740000D03*
D14*
X156820000Y-141740000D03*
X154280000Y-141740000D03*
X151740000Y-141740000D03*
X149200000Y-141740000D03*
X146660000Y-141740000D03*
X144120000Y-141740000D03*
X141580000Y-141740000D03*
X139040000Y-141740000D03*
X136500000Y-141740000D03*
X133960000Y-141740000D03*
X131420000Y-141740000D03*
X128880000Y-141740000D03*
X126340000Y-141740000D03*
X123800000Y-141740000D03*
X123800000Y-126500000D03*
X126340000Y-126500000D03*
X128880000Y-126500000D03*
X131420000Y-126500000D03*
X133960000Y-126500000D03*
X136500000Y-126500000D03*
X139040000Y-126500000D03*
X141580000Y-126500000D03*
X144120000Y-126500000D03*
X146660000Y-126500000D03*
X149200000Y-126500000D03*
X151740000Y-126500000D03*
X154280000Y-126500000D03*
X156820000Y-126500000D03*
X159360000Y-126500000D03*
%TD*%
D15*
%TO.C,BAT9V1*%
X134010000Y-107460000D03*
X156360000Y-93970000D03*
X134010000Y-80490000D03*
D16*
X151630000Y-119750000D03*
D17*
X138750000Y-119750000D03*
%TD*%
M02*
