%TF.GenerationSoftware,KiCad,Pcbnew,8.0.1*%
%TF.CreationDate,2024-05-21T16:55:46+01:00*%
%TF.ProjectId,Right_Controller_PCB_Bluetooth,52696768-745f-4436-9f6e-74726f6c6c65,V1.2*%
%TF.SameCoordinates,Original*%
%TF.FileFunction,Copper,L1,Top*%
%TF.FilePolarity,Positive*%
%FSLAX46Y46*%
G04 Gerber Fmt 4.6, Leading zero omitted, Abs format (unit mm)*
G04 Created by KiCad (PCBNEW 8.0.1) date 2024-05-21 16:55:46*
%MOMM*%
%LPD*%
G01*
G04 APERTURE LIST*
%ADD10C,0.300000*%
%TA.AperFunction,NonConductor*%
%ADD11C,0.300000*%
%TD*%
%TA.AperFunction,ComponentPad*%
%ADD12O,3.000000X1.600000*%
%TD*%
%TA.AperFunction,ComponentPad*%
%ADD13C,3.000000*%
%TD*%
%TA.AperFunction,ComponentPad*%
%ADD14R,1.600000X3.000000*%
%TD*%
%TA.AperFunction,ComponentPad*%
%ADD15O,1.600000X3.000000*%
%TD*%
%TA.AperFunction,WasherPad*%
%ADD16C,2.300000*%
%TD*%
%TA.AperFunction,ComponentPad*%
%ADD17R,4.020000X2.410000*%
%TD*%
%TA.AperFunction,ComponentPad*%
%ADD18O,4.020000X2.410000*%
%TD*%
%TA.AperFunction,Conductor*%
%ADD19C,1.000000*%
%TD*%
G04 APERTURE END LIST*
D10*
D11*
X156840225Y-145550828D02*
X157340225Y-147050828D01*
X157340225Y-147050828D02*
X157840225Y-145550828D01*
X159125939Y-147050828D02*
X158268796Y-147050828D01*
X158697367Y-147050828D02*
X158697367Y-145550828D01*
X158697367Y-145550828D02*
X158554510Y-145765114D01*
X158554510Y-145765114D02*
X158411653Y-145907971D01*
X158411653Y-145907971D02*
X158268796Y-145979400D01*
X159768795Y-146907971D02*
X159840224Y-146979400D01*
X159840224Y-146979400D02*
X159768795Y-147050828D01*
X159768795Y-147050828D02*
X159697367Y-146979400D01*
X159697367Y-146979400D02*
X159768795Y-146907971D01*
X159768795Y-146907971D02*
X159768795Y-147050828D01*
X160411653Y-145693685D02*
X160483081Y-145622257D01*
X160483081Y-145622257D02*
X160625939Y-145550828D01*
X160625939Y-145550828D02*
X160983081Y-145550828D01*
X160983081Y-145550828D02*
X161125939Y-145622257D01*
X161125939Y-145622257D02*
X161197367Y-145693685D01*
X161197367Y-145693685D02*
X161268796Y-145836542D01*
X161268796Y-145836542D02*
X161268796Y-145979400D01*
X161268796Y-145979400D02*
X161197367Y-146193685D01*
X161197367Y-146193685D02*
X160340224Y-147050828D01*
X160340224Y-147050828D02*
X161268796Y-147050828D01*
D12*
%TO.P,JoystickR1,1,GND*%
%TO.N,GND*%
X128581250Y-95920000D03*
%TO.P,JoystickR1,2,+5V*%
%TO.N,+3.3V*%
X128581250Y-98460000D03*
%TO.P,JoystickR1,3,VRX*%
%TO.N,/Analog_X_R*%
X128581250Y-101000000D03*
%TO.P,JoystickR1,4,VRY*%
%TO.N,/Analog_Y_R*%
X128581250Y-103540000D03*
%TO.P,JoystickR1,5,SW*%
%TO.N,/SEL_JOY_R*%
X128581250Y-106080000D03*
%TD*%
D13*
%TO.P,START_R1,1,1*%
%TO.N,/START_R*%
X125000000Y-61000000D03*
X118500000Y-61000000D03*
%TO.P,START_R1,2,2*%
%TO.N,GND*%
X125000000Y-56500000D03*
X118500000Y-56500000D03*
%TD*%
%TO.P,A1,1,1*%
%TO.N,/A*%
X142000000Y-80750000D03*
X148500000Y-80750000D03*
%TO.P,A1,2,2*%
%TO.N,GND*%
X142000000Y-85250000D03*
X148500000Y-85250000D03*
%TD*%
%TO.P,X1,1,1*%
%TO.N,GND*%
X133250000Y-71882000D03*
X139750000Y-71882000D03*
%TO.P,X1,2,2*%
%TO.N,/X*%
X133250000Y-76382000D03*
X139750000Y-76382000D03*
%TD*%
%TO.P,RIGHT_SHOULDER1,1,1*%
%TO.N,/RIGHT_SHOULDER*%
X142250000Y-52000000D03*
X148750000Y-52000000D03*
%TO.P,RIGHT_SHOULDER1,2,2*%
%TO.N,GND*%
X142250000Y-56500000D03*
X148750000Y-56500000D03*
%TD*%
%TO.P,B1,1,1*%
%TO.N,/B*%
X150750000Y-71882000D03*
X157250000Y-71882000D03*
%TO.P,B1,2,2*%
%TO.N,GND*%
X150750000Y-76382000D03*
X157250000Y-76382000D03*
%TD*%
D14*
%TO.P,CentralBoard1,1,D1/TX*%
%TO.N,unconnected-(CentralBoard1-D1{slash}TX-Pad1)*%
X125770000Y-139990000D03*
D15*
%TO.P,CentralBoard1,2,D0/RX*%
%TO.N,unconnected-(CentralBoard1-D0{slash}RX-Pad2)*%
X128310000Y-139990000D03*
%TO.P,CentralBoard1,3,~{RESET}*%
%TO.N,unconnected-(CentralBoard1-~{RESET}-Pad3)*%
X130850000Y-139990000D03*
%TO.P,CentralBoard1,4,GND*%
%TO.N,GND*%
X133390000Y-139990000D03*
%TO.P,CentralBoard1,5,D2*%
%TO.N,/START_R*%
X135930000Y-139990000D03*
%TO.P,CentralBoard1,6,D3*%
%TO.N,/Y*%
X138470000Y-139990000D03*
%TO.P,CentralBoard1,7,D4*%
%TO.N,/X*%
X141010000Y-139990000D03*
%TO.P,CentralBoard1,8,D5*%
%TO.N,/A*%
X143550000Y-139990000D03*
%TO.P,CentralBoard1,9,D6*%
%TO.N,/B*%
X146090000Y-139990000D03*
%TO.P,CentralBoard1,10,D7*%
%TO.N,unconnected-(CentralBoard1-D7-Pad10)*%
X148630000Y-139990000D03*
%TO.P,CentralBoard1,11,D8*%
%TO.N,unconnected-(CentralBoard1-D8-Pad11)*%
X151170000Y-139990000D03*
%TO.P,CentralBoard1,12,D9*%
%TO.N,unconnected-(CentralBoard1-D9-Pad12)*%
X153710000Y-139990000D03*
%TO.P,CentralBoard1,13,D10*%
%TO.N,unconnected-(CentralBoard1-D10-Pad13)*%
X156250000Y-139990000D03*
%TO.P,CentralBoard1,14,D11*%
%TO.N,unconnected-(CentralBoard1-D11-Pad14)*%
X158790000Y-139990000D03*
%TO.P,CentralBoard1,15,D12*%
%TO.N,/SEL_JOY_R*%
X161330000Y-139990000D03*
%TO.P,CentralBoard1,16,D13*%
%TO.N,/RIGHT_SHOULDER*%
X161330000Y-124750000D03*
%TO.P,CentralBoard1,17,3V3*%
%TO.N,+3.3V*%
X158790000Y-124750000D03*
%TO.P,CentralBoard1,18,AREF*%
%TO.N,unconnected-(CentralBoard1-AREF-Pad18)*%
X156250000Y-124750000D03*
%TO.P,CentralBoard1,19,A0*%
%TO.N,/Analog_X_R*%
X153710000Y-124750000D03*
%TO.P,CentralBoard1,20,A1*%
%TO.N,/Analog_Y_R*%
X151170000Y-124750000D03*
%TO.P,CentralBoard1,21,A2*%
%TO.N,unconnected-(CentralBoard1-A2-Pad21)*%
X148630000Y-124750000D03*
%TO.P,CentralBoard1,22,A3*%
%TO.N,unconnected-(CentralBoard1-A3-Pad22)*%
X146090000Y-124750000D03*
%TO.P,CentralBoard1,23,A4*%
%TO.N,unconnected-(CentralBoard1-A4-Pad23)*%
X143550000Y-124750000D03*
%TO.P,CentralBoard1,24,A5*%
%TO.N,unconnected-(CentralBoard1-A5-Pad24)*%
X141010000Y-124750000D03*
%TO.P,CentralBoard1,25,A6*%
%TO.N,unconnected-(CentralBoard1-A6-Pad25)*%
X138470000Y-124750000D03*
%TO.P,CentralBoard1,26,A7*%
%TO.N,unconnected-(CentralBoard1-A7-Pad26)*%
X135930000Y-124750000D03*
%TO.P,CentralBoard1,27,+5V*%
%TO.N,unconnected-(CentralBoard1-+5V-Pad27)*%
X133390000Y-124750000D03*
%TO.P,CentralBoard1,28,~{RESET}*%
%TO.N,unconnected-(CentralBoard1-~{RESET}-Pad28)*%
X130850000Y-124750000D03*
%TO.P,CentralBoard1,29,GND*%
%TO.N,GND*%
X128310000Y-124750000D03*
%TO.P,CentralBoard1,30,VIN*%
%TO.N,+9V*%
X125770000Y-124750000D03*
%TD*%
D13*
%TO.P,Y1,1,1*%
%TO.N,/Y*%
X142000000Y-63000000D03*
X148500000Y-63000000D03*
%TO.P,Y1,2,2*%
%TO.N,GND*%
X142000000Y-67500000D03*
X148500000Y-67500000D03*
%TD*%
D16*
%TO.P,BAT9V1,*%
%TO.N,*%
X132365000Y-107000000D03*
X154715000Y-93510000D03*
X132365000Y-80030000D03*
D17*
%TO.P,BAT9V1,1,+*%
%TO.N,+9V*%
X149985000Y-119290000D03*
D18*
%TO.P,BAT9V1,2,-*%
%TO.N,GND*%
X137105000Y-119290000D03*
%TD*%
D19*
%TO.N,/SEL_JOY_R*%
X127592823Y-106080000D02*
X128581250Y-106080000D01*
X125881250Y-104368427D02*
X127592823Y-106080000D01*
X127500000Y-93000000D02*
X125881250Y-94618750D01*
X149750000Y-94750000D02*
X132000000Y-94750000D01*
X132000000Y-94750000D02*
X130250000Y-93000000D01*
X160000000Y-84500000D02*
X149750000Y-94750000D01*
X160000000Y-68750000D02*
X160000000Y-84500000D01*
X151000000Y-59750000D02*
X160000000Y-68750000D01*
X125881250Y-94618750D02*
X125881250Y-104368427D01*
X148181623Y-59750000D02*
X151000000Y-59750000D01*
X145250000Y-56818377D02*
X148181623Y-59750000D01*
X145250000Y-50750000D02*
X145250000Y-56818377D01*
X157300000Y-49300000D02*
X146700000Y-49300000D01*
X165200000Y-57200000D02*
X157300000Y-49300000D01*
X146700000Y-49300000D02*
X145250000Y-50750000D01*
X130250000Y-93000000D02*
X127500000Y-93000000D01*
X165200000Y-136120000D02*
X165200000Y-57200000D01*
X161330000Y-139990000D02*
X165200000Y-136120000D01*
%TO.N,/B*%
X145800000Y-76832000D02*
X150750000Y-71882000D01*
X145800000Y-86200000D02*
X145800000Y-76832000D01*
X143000000Y-89000000D02*
X145800000Y-86200000D01*
X138750000Y-89000000D02*
X143000000Y-89000000D01*
X127000000Y-87500000D02*
X137250000Y-87500000D01*
X122800000Y-91700000D02*
X127000000Y-87500000D01*
X122800000Y-127954164D02*
X122800000Y-91700000D01*
X124545836Y-129700000D02*
X122800000Y-127954164D01*
X136900000Y-129700000D02*
X124545836Y-129700000D01*
X137250000Y-87500000D02*
X138750000Y-89000000D01*
X146090000Y-138890000D02*
X136900000Y-129700000D01*
X146090000Y-139990000D02*
X146090000Y-138890000D01*
%TO.N,/A*%
X143550000Y-139990000D02*
X143550000Y-138890000D01*
X143550000Y-138890000D02*
X136060000Y-131400000D01*
X128120000Y-82380000D02*
X140370000Y-82380000D01*
X121100000Y-128658328D02*
X121100000Y-89400000D01*
X136060000Y-131400000D02*
X123841672Y-131400000D01*
X123841672Y-131400000D02*
X121100000Y-128658328D01*
X140370000Y-82380000D02*
X142000000Y-80750000D01*
X121100000Y-89400000D02*
X128120000Y-82380000D01*
%TO.N,/RIGHT_SHOULDER*%
X163500000Y-58500000D02*
X157000000Y-52000000D01*
X157000000Y-52000000D02*
X148750000Y-52000000D01*
X163500000Y-122580000D02*
X163500000Y-58500000D01*
X161330000Y-124750000D02*
X163500000Y-122580000D01*
%TO.N,/X*%
X135220000Y-133100000D02*
X123137508Y-133100000D01*
X131128680Y-76382000D02*
X133250000Y-76382000D01*
X141010000Y-138890000D02*
X135220000Y-133100000D01*
X141010000Y-139990000D02*
X141010000Y-138890000D01*
X123137508Y-133100000D02*
X119400000Y-129362492D01*
X119400000Y-129362492D02*
X119400000Y-88110680D01*
X119400000Y-88110680D02*
X131128680Y-76382000D01*
%TO.N,/Y*%
X117700000Y-130066656D02*
X117700000Y-83550000D01*
X117700000Y-83550000D02*
X138250000Y-63000000D01*
X122433344Y-134800000D02*
X117700000Y-130066656D01*
X134515836Y-134800000D02*
X122433344Y-134800000D01*
X139010000Y-139450000D02*
X139010000Y-139294164D01*
X138250000Y-63000000D02*
X142000000Y-63000000D01*
X138470000Y-139990000D02*
X139010000Y-139450000D01*
X139010000Y-139294164D02*
X134515836Y-134800000D01*
%TO.N,/START_R*%
X122000000Y-137000000D02*
X116000000Y-131000000D01*
X116000000Y-63500000D02*
X118500000Y-61000000D01*
X134040000Y-137000000D02*
X122000000Y-137000000D01*
X116000000Y-131000000D02*
X116000000Y-63500000D01*
X135930000Y-138890000D02*
X134040000Y-137000000D01*
X135930000Y-139990000D02*
X135930000Y-138890000D01*
%TO.N,+3.3V*%
X140210000Y-98460000D02*
X128581250Y-98460000D01*
X158790000Y-117040000D02*
X140210000Y-98460000D01*
X158790000Y-124750000D02*
X158790000Y-117040000D01*
%TO.N,/Analog_X_R*%
X139154163Y-101000000D02*
X128581250Y-101000000D01*
X155500000Y-121971573D02*
X155500000Y-117345837D01*
X155500000Y-117345837D02*
X139154163Y-101000000D01*
X153710000Y-123761573D02*
X155500000Y-121971573D01*
X153710000Y-124750000D02*
X153710000Y-123761573D01*
%TO.N,/Analog_Y_R*%
X139290000Y-103540000D02*
X128581250Y-103540000D01*
X153195000Y-121625000D02*
X153195000Y-117445000D01*
X151170000Y-123650000D02*
X153195000Y-121625000D01*
X153195000Y-117445000D02*
X139290000Y-103540000D01*
X151170000Y-124750000D02*
X151170000Y-123650000D01*
%TO.N,+9V*%
X127725000Y-121695000D02*
X125770000Y-123650000D01*
X147580000Y-121695000D02*
X127725000Y-121695000D01*
X125770000Y-123650000D02*
X125770000Y-124750000D01*
X149985000Y-119290000D02*
X147580000Y-121695000D01*
%TD*%
%TA.AperFunction,Conductor*%
%TO.N,GND*%
G36*
X169442539Y-47520185D02*
G01*
X169488294Y-47572989D01*
X169499500Y-47624500D01*
X169499500Y-148375500D01*
X169479815Y-148442539D01*
X169427011Y-148488294D01*
X169375500Y-148499500D01*
X115624500Y-148499500D01*
X115557461Y-148479815D01*
X115511706Y-148427011D01*
X115500500Y-148375500D01*
X115500500Y-145121288D01*
X117149500Y-145121288D01*
X117181161Y-145361785D01*
X117243947Y-145596104D01*
X117336773Y-145820205D01*
X117336776Y-145820212D01*
X117458064Y-146030289D01*
X117458066Y-146030292D01*
X117458067Y-146030293D01*
X117605733Y-146222736D01*
X117605739Y-146222743D01*
X117777256Y-146394260D01*
X117777262Y-146394265D01*
X117969711Y-146541936D01*
X118179788Y-146663224D01*
X118403900Y-146756054D01*
X118638211Y-146818838D01*
X118818586Y-146842584D01*
X118878711Y-146850500D01*
X118878712Y-146850500D01*
X119121289Y-146850500D01*
X119169388Y-146844167D01*
X119361789Y-146818838D01*
X119596100Y-146756054D01*
X119820212Y-146663224D01*
X120030289Y-146541936D01*
X120222738Y-146394265D01*
X120394265Y-146222738D01*
X120541936Y-146030289D01*
X120663224Y-145820212D01*
X120756054Y-145596100D01*
X120818838Y-145361789D01*
X120850500Y-145121288D01*
X120850500Y-144878712D01*
X120825983Y-144692484D01*
X155983000Y-144692484D01*
X155983000Y-147908053D01*
X162126021Y-147908053D01*
X162126021Y-145121288D01*
X164149500Y-145121288D01*
X164181161Y-145361785D01*
X164243947Y-145596104D01*
X164336773Y-145820205D01*
X164336776Y-145820212D01*
X164458064Y-146030289D01*
X164458066Y-146030292D01*
X164458067Y-146030293D01*
X164605733Y-146222736D01*
X164605739Y-146222743D01*
X164777256Y-146394260D01*
X164777262Y-146394265D01*
X164969711Y-146541936D01*
X165179788Y-146663224D01*
X165403900Y-146756054D01*
X165638211Y-146818838D01*
X165818586Y-146842584D01*
X165878711Y-146850500D01*
X165878712Y-146850500D01*
X166121289Y-146850500D01*
X166169388Y-146844167D01*
X166361789Y-146818838D01*
X166596100Y-146756054D01*
X166820212Y-146663224D01*
X167030289Y-146541936D01*
X167222738Y-146394265D01*
X167394265Y-146222738D01*
X167541936Y-146030289D01*
X167663224Y-145820212D01*
X167756054Y-145596100D01*
X167818838Y-145361789D01*
X167850500Y-145121288D01*
X167850500Y-144878712D01*
X167818838Y-144638211D01*
X167756054Y-144403900D01*
X167663224Y-144179788D01*
X167541936Y-143969711D01*
X167394265Y-143777262D01*
X167394260Y-143777256D01*
X167222743Y-143605739D01*
X167222736Y-143605733D01*
X167030293Y-143458067D01*
X167030292Y-143458066D01*
X167030289Y-143458064D01*
X166820212Y-143336776D01*
X166820205Y-143336773D01*
X166596104Y-143243947D01*
X166361785Y-143181161D01*
X166121289Y-143149500D01*
X166121288Y-143149500D01*
X165878712Y-143149500D01*
X165878711Y-143149500D01*
X165638214Y-143181161D01*
X165403895Y-143243947D01*
X165179794Y-143336773D01*
X165179785Y-143336777D01*
X164969706Y-143458067D01*
X164777263Y-143605733D01*
X164777256Y-143605739D01*
X164605739Y-143777256D01*
X164605733Y-143777263D01*
X164458067Y-143969706D01*
X164336777Y-144179785D01*
X164336773Y-144179794D01*
X164243947Y-144403895D01*
X164181161Y-144638214D01*
X164149500Y-144878711D01*
X164149500Y-145121288D01*
X162126021Y-145121288D01*
X162126021Y-144692484D01*
X155983000Y-144692484D01*
X120825983Y-144692484D01*
X120818838Y-144638211D01*
X120756054Y-144403900D01*
X120663224Y-144179788D01*
X120541936Y-143969711D01*
X120394265Y-143777262D01*
X120394260Y-143777256D01*
X120222743Y-143605739D01*
X120222736Y-143605733D01*
X120030293Y-143458067D01*
X120030292Y-143458066D01*
X120030289Y-143458064D01*
X119820212Y-143336776D01*
X119820205Y-143336773D01*
X119596104Y-143243947D01*
X119361785Y-143181161D01*
X119121289Y-143149500D01*
X119121288Y-143149500D01*
X118878712Y-143149500D01*
X118878711Y-143149500D01*
X118638214Y-143181161D01*
X118403895Y-143243947D01*
X118179794Y-143336773D01*
X118179785Y-143336777D01*
X117969706Y-143458067D01*
X117777263Y-143605733D01*
X117777256Y-143605739D01*
X117605739Y-143777256D01*
X117605733Y-143777263D01*
X117458067Y-143969706D01*
X117336777Y-144179785D01*
X117336773Y-144179794D01*
X117243947Y-144403895D01*
X117181161Y-144638214D01*
X117149500Y-144878711D01*
X117149500Y-145121288D01*
X115500500Y-145121288D01*
X115500500Y-132497626D01*
X115520185Y-132430587D01*
X115572989Y-132384832D01*
X115642147Y-132374888D01*
X115705703Y-132403913D01*
X115712181Y-132409945D01*
X121217929Y-137915693D01*
X121266336Y-137950862D01*
X121298610Y-137974310D01*
X121370801Y-138026760D01*
X121463733Y-138074111D01*
X121539163Y-138112545D01*
X121539165Y-138112545D01*
X121539168Y-138112547D01*
X121635497Y-138143846D01*
X121718881Y-138170940D01*
X121905514Y-138200500D01*
X121905519Y-138200500D01*
X124157969Y-138200500D01*
X124225008Y-138220185D01*
X124270763Y-138272989D01*
X124280707Y-138342147D01*
X124276357Y-138361382D01*
X124275914Y-138362802D01*
X124269500Y-138433386D01*
X124269500Y-141546613D01*
X124275913Y-141617192D01*
X124275913Y-141617194D01*
X124275914Y-141617196D01*
X124326522Y-141779606D01*
X124339974Y-141801859D01*
X124414530Y-141925188D01*
X124534811Y-142045469D01*
X124534813Y-142045470D01*
X124534815Y-142045472D01*
X124680394Y-142133478D01*
X124842804Y-142184086D01*
X124913384Y-142190500D01*
X124913387Y-142190500D01*
X126626613Y-142190500D01*
X126626616Y-142190500D01*
X126697196Y-142184086D01*
X126859606Y-142133478D01*
X127005185Y-142045472D01*
X127125472Y-141925185D01*
X127156915Y-141873172D01*
X127208440Y-141825986D01*
X127277299Y-141814147D01*
X127335912Y-141837003D01*
X127523567Y-141973343D01*
X127622991Y-142024002D01*
X127734003Y-142080566D01*
X127734005Y-142080566D01*
X127734008Y-142080568D01*
X127854412Y-142119689D01*
X127958631Y-142153553D01*
X128191903Y-142190500D01*
X128191908Y-142190500D01*
X128428097Y-142190500D01*
X128661368Y-142153553D01*
X128723155Y-142133477D01*
X128885992Y-142080568D01*
X129096433Y-141973343D01*
X129287510Y-141834517D01*
X129454517Y-141667510D01*
X129479682Y-141632872D01*
X129535011Y-141590207D01*
X129604625Y-141584228D01*
X129666420Y-141616833D01*
X129680315Y-141632870D01*
X129705483Y-141667510D01*
X129872490Y-141834517D01*
X130063567Y-141973343D01*
X130162991Y-142024002D01*
X130274003Y-142080566D01*
X130274005Y-142080566D01*
X130274008Y-142080568D01*
X130394412Y-142119689D01*
X130498631Y-142153553D01*
X130731903Y-142190500D01*
X130731908Y-142190500D01*
X130968097Y-142190500D01*
X131201368Y-142153553D01*
X131263155Y-142133477D01*
X131425992Y-142080568D01*
X131636433Y-141973343D01*
X131827510Y-141834517D01*
X131994517Y-141667510D01*
X132133343Y-141476433D01*
X132133347Y-141476426D01*
X132135888Y-141472281D01*
X132137145Y-141473051D01*
X132180592Y-141427032D01*
X132248410Y-141410225D01*
X132314549Y-141432751D01*
X132343440Y-141461226D01*
X132398417Y-141536894D01*
X132398417Y-141536895D01*
X132543104Y-141681582D01*
X132708650Y-141801859D01*
X132890968Y-141894754D01*
X133085578Y-141957988D01*
X133140000Y-141966607D01*
X133140000Y-140039728D01*
X133178060Y-140131614D01*
X133248386Y-140201940D01*
X133340272Y-140240000D01*
X133439728Y-140240000D01*
X133531614Y-140201940D01*
X133601940Y-140131614D01*
X133640000Y-140039728D01*
X133640000Y-141966606D01*
X133694421Y-141957988D01*
X133889031Y-141894754D01*
X134071349Y-141801859D01*
X134236894Y-141681582D01*
X134236895Y-141681582D01*
X134381582Y-141536895D01*
X134381587Y-141536889D01*
X134436559Y-141461227D01*
X134491888Y-141418561D01*
X134561502Y-141412582D01*
X134623297Y-141445187D01*
X134643539Y-141472631D01*
X134644112Y-141472281D01*
X134646652Y-141476426D01*
X134646656Y-141476432D01*
X134646657Y-141476433D01*
X134785483Y-141667510D01*
X134952490Y-141834517D01*
X135143567Y-141973343D01*
X135242991Y-142024002D01*
X135354003Y-142080566D01*
X135354005Y-142080566D01*
X135354008Y-142080568D01*
X135474412Y-142119689D01*
X135578631Y-142153553D01*
X135811903Y-142190500D01*
X135811908Y-142190500D01*
X136048097Y-142190500D01*
X136281368Y-142153553D01*
X136343155Y-142133477D01*
X136505992Y-142080568D01*
X136716433Y-141973343D01*
X136907510Y-141834517D01*
X137074517Y-141667510D01*
X137099682Y-141632872D01*
X137155011Y-141590207D01*
X137224625Y-141584228D01*
X137286420Y-141616833D01*
X137300315Y-141632870D01*
X137325483Y-141667510D01*
X137492490Y-141834517D01*
X137683567Y-141973343D01*
X137782991Y-142024002D01*
X137894003Y-142080566D01*
X137894005Y-142080566D01*
X137894008Y-142080568D01*
X138014412Y-142119689D01*
X138118631Y-142153553D01*
X138351903Y-142190500D01*
X138351908Y-142190500D01*
X138588097Y-142190500D01*
X138821368Y-142153553D01*
X138883155Y-142133477D01*
X139045992Y-142080568D01*
X139256433Y-141973343D01*
X139447510Y-141834517D01*
X139614517Y-141667510D01*
X139639682Y-141632872D01*
X139695011Y-141590207D01*
X139764625Y-141584228D01*
X139826420Y-141616833D01*
X139840315Y-141632870D01*
X139865483Y-141667510D01*
X140032490Y-141834517D01*
X140223567Y-141973343D01*
X140322991Y-142024002D01*
X140434003Y-142080566D01*
X140434005Y-142080566D01*
X140434008Y-142080568D01*
X140554412Y-142119689D01*
X140658631Y-142153553D01*
X140891903Y-142190500D01*
X140891908Y-142190500D01*
X141128097Y-142190500D01*
X141361368Y-142153553D01*
X141423155Y-142133477D01*
X141585992Y-142080568D01*
X141796433Y-141973343D01*
X141987510Y-141834517D01*
X142154517Y-141667510D01*
X142179682Y-141632872D01*
X142235011Y-141590207D01*
X142304625Y-141584228D01*
X142366420Y-141616833D01*
X142380315Y-141632870D01*
X142405483Y-141667510D01*
X142572490Y-141834517D01*
X142763567Y-141973343D01*
X142862991Y-142024002D01*
X142974003Y-142080566D01*
X142974005Y-142080566D01*
X142974008Y-142080568D01*
X143094412Y-142119689D01*
X143198631Y-142153553D01*
X143431903Y-142190500D01*
X143431908Y-142190500D01*
X143668097Y-142190500D01*
X143901368Y-142153553D01*
X143963155Y-142133477D01*
X144125992Y-142080568D01*
X144336433Y-141973343D01*
X144527510Y-141834517D01*
X144694517Y-141667510D01*
X144719682Y-141632872D01*
X144775011Y-141590207D01*
X144844625Y-141584228D01*
X144906420Y-141616833D01*
X144920315Y-141632870D01*
X144945483Y-141667510D01*
X145112490Y-141834517D01*
X145303567Y-141973343D01*
X145402991Y-142024002D01*
X145514003Y-142080566D01*
X145514005Y-142080566D01*
X145514008Y-142080568D01*
X145634412Y-142119689D01*
X145738631Y-142153553D01*
X145971903Y-142190500D01*
X145971908Y-142190500D01*
X146208097Y-142190500D01*
X146441368Y-142153553D01*
X146503155Y-142133477D01*
X146665992Y-142080568D01*
X146876433Y-141973343D01*
X147067510Y-141834517D01*
X147234517Y-141667510D01*
X147259682Y-141632872D01*
X147315011Y-141590207D01*
X147384625Y-141584228D01*
X147446420Y-141616833D01*
X147460315Y-141632870D01*
X147485483Y-141667510D01*
X147652490Y-141834517D01*
X147843567Y-141973343D01*
X147942991Y-142024002D01*
X148054003Y-142080566D01*
X148054005Y-142080566D01*
X148054008Y-142080568D01*
X148174412Y-142119689D01*
X148278631Y-142153553D01*
X148511903Y-142190500D01*
X148511908Y-142190500D01*
X148748097Y-142190500D01*
X148981368Y-142153553D01*
X149043155Y-142133477D01*
X149205992Y-142080568D01*
X149416433Y-141973343D01*
X149607510Y-141834517D01*
X149774517Y-141667510D01*
X149799682Y-141632872D01*
X149855011Y-141590207D01*
X149924625Y-141584228D01*
X149986420Y-141616833D01*
X150000315Y-141632870D01*
X150025483Y-141667510D01*
X150192490Y-141834517D01*
X150383567Y-141973343D01*
X150482991Y-142024002D01*
X150594003Y-142080566D01*
X150594005Y-142080566D01*
X150594008Y-142080568D01*
X150714412Y-142119689D01*
X150818631Y-142153553D01*
X151051903Y-142190500D01*
X151051908Y-142190500D01*
X151288097Y-142190500D01*
X151521368Y-142153553D01*
X151583155Y-142133477D01*
X151745992Y-142080568D01*
X151956433Y-141973343D01*
X152147510Y-141834517D01*
X152314517Y-141667510D01*
X152339682Y-141632872D01*
X152395011Y-141590207D01*
X152464625Y-141584228D01*
X152526420Y-141616833D01*
X152540315Y-141632870D01*
X152565483Y-141667510D01*
X152732490Y-141834517D01*
X152923567Y-141973343D01*
X153022991Y-142024002D01*
X153134003Y-142080566D01*
X153134005Y-142080566D01*
X153134008Y-142080568D01*
X153254412Y-142119689D01*
X153358631Y-142153553D01*
X153591903Y-142190500D01*
X153591908Y-142190500D01*
X153828097Y-142190500D01*
X154061368Y-142153553D01*
X154123155Y-142133477D01*
X154285992Y-142080568D01*
X154496433Y-141973343D01*
X154687510Y-141834517D01*
X154854517Y-141667510D01*
X154879682Y-141632872D01*
X154935011Y-141590207D01*
X155004625Y-141584228D01*
X155066420Y-141616833D01*
X155080315Y-141632870D01*
X155105483Y-141667510D01*
X155272490Y-141834517D01*
X155463567Y-141973343D01*
X155562991Y-142024002D01*
X155674003Y-142080566D01*
X155674005Y-142080566D01*
X155674008Y-142080568D01*
X155794412Y-142119689D01*
X155898631Y-142153553D01*
X156131903Y-142190500D01*
X156131908Y-142190500D01*
X156368097Y-142190500D01*
X156601368Y-142153553D01*
X156663155Y-142133477D01*
X156825992Y-142080568D01*
X157036433Y-141973343D01*
X157227510Y-141834517D01*
X157394517Y-141667510D01*
X157419682Y-141632872D01*
X157475011Y-141590207D01*
X157544625Y-141584228D01*
X157606420Y-141616833D01*
X157620315Y-141632870D01*
X157645483Y-141667510D01*
X157812490Y-141834517D01*
X158003567Y-141973343D01*
X158102991Y-142024002D01*
X158214003Y-142080566D01*
X158214005Y-142080566D01*
X158214008Y-142080568D01*
X158334412Y-142119689D01*
X158438631Y-142153553D01*
X158671903Y-142190500D01*
X158671908Y-142190500D01*
X158908097Y-142190500D01*
X159141368Y-142153553D01*
X159203155Y-142133477D01*
X159365992Y-142080568D01*
X159576433Y-141973343D01*
X159767510Y-141834517D01*
X159934517Y-141667510D01*
X159959682Y-141632872D01*
X160015011Y-141590207D01*
X160084625Y-141584228D01*
X160146420Y-141616833D01*
X160160315Y-141632870D01*
X160185483Y-141667510D01*
X160352490Y-141834517D01*
X160543567Y-141973343D01*
X160642991Y-142024002D01*
X160754003Y-142080566D01*
X160754005Y-142080566D01*
X160754008Y-142080568D01*
X160874412Y-142119689D01*
X160978631Y-142153553D01*
X161211903Y-142190500D01*
X161211908Y-142190500D01*
X161448097Y-142190500D01*
X161681368Y-142153553D01*
X161743155Y-142133477D01*
X161905992Y-142080568D01*
X162116433Y-141973343D01*
X162307510Y-141834517D01*
X162474517Y-141667510D01*
X162613343Y-141476433D01*
X162720568Y-141265992D01*
X162793553Y-141041368D01*
X162830500Y-140808097D01*
X162830500Y-140238626D01*
X162850185Y-140171587D01*
X162866819Y-140150945D01*
X164303756Y-138714008D01*
X166115690Y-136902074D01*
X166226760Y-136749200D01*
X166312547Y-136580832D01*
X166370940Y-136401118D01*
X166400500Y-136214486D01*
X166400500Y-57105513D01*
X166370940Y-56918881D01*
X166327556Y-56785362D01*
X166312547Y-56739168D01*
X166312545Y-56739165D01*
X166312545Y-56739163D01*
X166262841Y-56641614D01*
X166226760Y-56570801D01*
X166202390Y-56537259D01*
X166134852Y-56444300D01*
X166115693Y-56417929D01*
X160819052Y-51121288D01*
X164149500Y-51121288D01*
X164166084Y-51247263D01*
X164181162Y-51361789D01*
X164199239Y-51429254D01*
X164243947Y-51596104D01*
X164292015Y-51712150D01*
X164336776Y-51820212D01*
X164458064Y-52030289D01*
X164458066Y-52030292D01*
X164458067Y-52030293D01*
X164605733Y-52222736D01*
X164605739Y-52222743D01*
X164777256Y-52394260D01*
X164777262Y-52394265D01*
X164969711Y-52541936D01*
X165179788Y-52663224D01*
X165403900Y-52756054D01*
X165638211Y-52818838D01*
X165818586Y-52842584D01*
X165878711Y-52850500D01*
X165878712Y-52850500D01*
X166121289Y-52850500D01*
X166171406Y-52843902D01*
X166361789Y-52818838D01*
X166596100Y-52756054D01*
X166820212Y-52663224D01*
X167030289Y-52541936D01*
X167222738Y-52394265D01*
X167394265Y-52222738D01*
X167541936Y-52030289D01*
X167663224Y-51820212D01*
X167756054Y-51596100D01*
X167818838Y-51361789D01*
X167850500Y-51121288D01*
X167850500Y-50878712D01*
X167818838Y-50638211D01*
X167756054Y-50403900D01*
X167663224Y-50179788D01*
X167541936Y-49969711D01*
X167465362Y-49869917D01*
X167394266Y-49777263D01*
X167394260Y-49777256D01*
X167222743Y-49605739D01*
X167222736Y-49605733D01*
X167030293Y-49458067D01*
X167030292Y-49458066D01*
X167030289Y-49458064D01*
X166820212Y-49336776D01*
X166820205Y-49336773D01*
X166596104Y-49243947D01*
X166361785Y-49181161D01*
X166121289Y-49149500D01*
X166121288Y-49149500D01*
X165878712Y-49149500D01*
X165878711Y-49149500D01*
X165638214Y-49181161D01*
X165403895Y-49243947D01*
X165179794Y-49336773D01*
X165179785Y-49336777D01*
X164969706Y-49458067D01*
X164777263Y-49605733D01*
X164777256Y-49605739D01*
X164605739Y-49777256D01*
X164605733Y-49777263D01*
X164458067Y-49969706D01*
X164336777Y-50179785D01*
X164336773Y-50179794D01*
X164243947Y-50403895D01*
X164181161Y-50638214D01*
X164149500Y-50878711D01*
X164149500Y-51121288D01*
X160819052Y-51121288D01*
X158082076Y-48384312D01*
X158082074Y-48384310D01*
X157929199Y-48273240D01*
X157760836Y-48187454D01*
X157581118Y-48129059D01*
X157394486Y-48099500D01*
X157394481Y-48099500D01*
X146794482Y-48099500D01*
X146605519Y-48099500D01*
X146605514Y-48099500D01*
X146418881Y-48129059D01*
X146239163Y-48187454D01*
X146070800Y-48273240D01*
X145983579Y-48336610D01*
X145917927Y-48384310D01*
X145917925Y-48384312D01*
X145917924Y-48384312D01*
X144334308Y-49967927D01*
X144334304Y-49967932D01*
X144251377Y-50082073D01*
X144251377Y-50082074D01*
X144223240Y-50120800D01*
X144137454Y-50289163D01*
X144080211Y-50465336D01*
X144040772Y-50523011D01*
X143976414Y-50550209D01*
X143907567Y-50538294D01*
X143869052Y-50508776D01*
X143809327Y-50440672D01*
X143592452Y-50250478D01*
X143352613Y-50090223D01*
X143352606Y-50090219D01*
X143093905Y-49962642D01*
X142820760Y-49869921D01*
X142820754Y-49869919D01*
X142820753Y-49869919D01*
X142820751Y-49869918D01*
X142820745Y-49869917D01*
X142537849Y-49813646D01*
X142537839Y-49813644D01*
X142250000Y-49794778D01*
X141962161Y-49813644D01*
X141962155Y-49813645D01*
X141962150Y-49813646D01*
X141679254Y-49869917D01*
X141679239Y-49869921D01*
X141406094Y-49962642D01*
X141147393Y-50090219D01*
X141147386Y-50090223D01*
X140907547Y-50250478D01*
X140690672Y-50440672D01*
X140500478Y-50657547D01*
X140340223Y-50897386D01*
X140340219Y-50897393D01*
X140212642Y-51156094D01*
X140119921Y-51429239D01*
X140119917Y-51429254D01*
X140063646Y-51712150D01*
X140063644Y-51712162D01*
X140044778Y-52000000D01*
X140063644Y-52287837D01*
X140063646Y-52287849D01*
X140119917Y-52570745D01*
X140119921Y-52570760D01*
X140212642Y-52843905D01*
X140340219Y-53102606D01*
X140340223Y-53102613D01*
X140500478Y-53342452D01*
X140690672Y-53559327D01*
X140907546Y-53749520D01*
X141147389Y-53909778D01*
X141406098Y-54037359D01*
X141679247Y-54130081D01*
X141962161Y-54186356D01*
X142250000Y-54205222D01*
X142537839Y-54186356D01*
X142820753Y-54130081D01*
X143093902Y-54037359D01*
X143352611Y-53909778D01*
X143592454Y-53749520D01*
X143809327Y-53559327D01*
X143832271Y-53533163D01*
X143891272Y-53495740D01*
X143961140Y-53496154D01*
X144019693Y-53534277D01*
X144048340Y-53598004D01*
X144049500Y-53614922D01*
X144049500Y-55193940D01*
X144029815Y-55260979D01*
X143977011Y-55306734D01*
X143907853Y-55316678D01*
X143844297Y-55287653D01*
X143831128Y-55273509D01*
X143830115Y-55273436D01*
X142603553Y-56499999D01*
X142603553Y-56500000D01*
X143830115Y-57726562D01*
X143830116Y-57726561D01*
X143936801Y-57584050D01*
X144008527Y-57452692D01*
X144057932Y-57403286D01*
X144126205Y-57388434D01*
X144191670Y-57412850D01*
X144219983Y-57443919D01*
X144220376Y-57443634D01*
X144222940Y-57447163D01*
X144223083Y-57447320D01*
X144223238Y-57447573D01*
X144223240Y-57447576D01*
X144334310Y-57600451D01*
X147399549Y-60665690D01*
X147552424Y-60776760D01*
X147568404Y-60784902D01*
X147619201Y-60832875D01*
X147635998Y-60900696D01*
X147613462Y-60966831D01*
X147566956Y-61006600D01*
X147397393Y-61090219D01*
X147397386Y-61090223D01*
X147157547Y-61250478D01*
X146940672Y-61440672D01*
X146750478Y-61657547D01*
X146590223Y-61897386D01*
X146590219Y-61897393D01*
X146462642Y-62156094D01*
X146369921Y-62429239D01*
X146369917Y-62429254D01*
X146313646Y-62712150D01*
X146313644Y-62712161D01*
X146294778Y-63000000D01*
X146306992Y-63186356D01*
X146313644Y-63287837D01*
X146313646Y-63287849D01*
X146369917Y-63570745D01*
X146369921Y-63570760D01*
X146462642Y-63843905D01*
X146590219Y-64102606D01*
X146590223Y-64102613D01*
X146750478Y-64342452D01*
X146940672Y-64559327D01*
X147157546Y-64749520D01*
X147397389Y-64909778D01*
X147656098Y-65037359D01*
X147929247Y-65130081D01*
X148212161Y-65186356D01*
X148500000Y-65205222D01*
X148787839Y-65186356D01*
X149070753Y-65130081D01*
X149343902Y-65037359D01*
X149602611Y-64909778D01*
X149842454Y-64749520D01*
X150059327Y-64559327D01*
X150249520Y-64342454D01*
X150409778Y-64102611D01*
X150537359Y-63843902D01*
X150630081Y-63570753D01*
X150686356Y-63287839D01*
X150705222Y-63000000D01*
X150686356Y-62712161D01*
X150630081Y-62429247D01*
X150537359Y-62156098D01*
X150409778Y-61897389D01*
X150249520Y-61657546D01*
X150173411Y-61570760D01*
X150059327Y-61440672D01*
X149842452Y-61250478D01*
X149733385Y-61177602D01*
X149688579Y-61123990D01*
X149679872Y-61054665D01*
X149710026Y-60991638D01*
X149769469Y-60954918D01*
X149802275Y-60950500D01*
X150451374Y-60950500D01*
X150518413Y-60970185D01*
X150539055Y-60986819D01*
X158763181Y-69210945D01*
X158796666Y-69272268D01*
X158799500Y-69298626D01*
X158799500Y-70040380D01*
X158779815Y-70107419D01*
X158727011Y-70153174D01*
X158657853Y-70163118D01*
X158595808Y-70134783D01*
X158595678Y-70134953D01*
X158594939Y-70134386D01*
X158594297Y-70134093D01*
X158593744Y-70133610D01*
X158592459Y-70132483D01*
X158592453Y-70132478D01*
X158352613Y-69972223D01*
X158352606Y-69972219D01*
X158093905Y-69844642D01*
X157820760Y-69751921D01*
X157820754Y-69751919D01*
X157820753Y-69751919D01*
X157820751Y-69751918D01*
X157820745Y-69751917D01*
X157537849Y-69695646D01*
X157537839Y-69695644D01*
X157250000Y-69676778D01*
X156962161Y-69695644D01*
X156962155Y-69695645D01*
X156962150Y-69695646D01*
X156679254Y-69751917D01*
X156679239Y-69751921D01*
X156406094Y-69844642D01*
X156147393Y-69972219D01*
X156147386Y-69972223D01*
X155907547Y-70132478D01*
X155690672Y-70322672D01*
X155500478Y-70539547D01*
X155340223Y-70779386D01*
X155340219Y-70779393D01*
X155212642Y-71038094D01*
X155119921Y-71311239D01*
X155119917Y-71311254D01*
X155063646Y-71594150D01*
X155063644Y-71594162D01*
X155044778Y-71882000D01*
X155063644Y-72169837D01*
X155063646Y-72169849D01*
X155119917Y-72452745D01*
X155119921Y-72452760D01*
X155212642Y-72725905D01*
X155340219Y-72984606D01*
X155340223Y-72984613D01*
X155500478Y-73224452D01*
X155690672Y-73441327D01*
X155907547Y-73631521D01*
X156018875Y-73705908D01*
X156147389Y-73791778D01*
X156406098Y-73919359D01*
X156679247Y-74012081D01*
X156962161Y-74068356D01*
X157250000Y-74087222D01*
X157537839Y-74068356D01*
X157820753Y-74012081D01*
X158093902Y-73919359D01*
X158352611Y-73791778D01*
X158592454Y-73631520D01*
X158593733Y-73630397D01*
X158594198Y-73630181D01*
X158595678Y-73629047D01*
X158595931Y-73629377D01*
X158657110Y-73600990D01*
X158726328Y-73610515D01*
X158779408Y-73655949D01*
X158799498Y-73722868D01*
X158799500Y-73723619D01*
X158799500Y-74803710D01*
X158779815Y-74870749D01*
X158727011Y-74916504D01*
X158657853Y-74926448D01*
X158594297Y-74897423D01*
X158587819Y-74891391D01*
X158563077Y-74866649D01*
X158563065Y-74866639D01*
X158334039Y-74695192D01*
X158334038Y-74695191D01*
X158082957Y-74558091D01*
X158082958Y-74558091D01*
X157814895Y-74458109D01*
X157535362Y-74397300D01*
X157250001Y-74376891D01*
X157249999Y-74376891D01*
X156964637Y-74397300D01*
X156685104Y-74458109D01*
X156417041Y-74558091D01*
X156165961Y-74695191D01*
X156165953Y-74695196D01*
X156023436Y-74801882D01*
X157250000Y-76028447D01*
X157391612Y-76170059D01*
X157299728Y-76132000D01*
X157200272Y-76132000D01*
X157108386Y-76170060D01*
X157038060Y-76240386D01*
X157000000Y-76332272D01*
X157000000Y-76431728D01*
X157038060Y-76523614D01*
X157108386Y-76593940D01*
X157200272Y-76632000D01*
X157299728Y-76632000D01*
X157391608Y-76593942D01*
X156023436Y-77962115D01*
X156165960Y-78068807D01*
X156165961Y-78068808D01*
X156417042Y-78205908D01*
X156417041Y-78205908D01*
X156685104Y-78305890D01*
X156964637Y-78366699D01*
X157249999Y-78387109D01*
X157250001Y-78387109D01*
X157535362Y-78366699D01*
X157814895Y-78305890D01*
X158082958Y-78205908D01*
X158334038Y-78068808D01*
X158334039Y-78068807D01*
X158563065Y-77897360D01*
X158563077Y-77897350D01*
X158587819Y-77872609D01*
X158649142Y-77839124D01*
X158718834Y-77844108D01*
X158774767Y-77885980D01*
X158799184Y-77951444D01*
X158799500Y-77960290D01*
X158799500Y-83951374D01*
X158779815Y-84018413D01*
X158763181Y-84039055D01*
X149289055Y-93513181D01*
X149227732Y-93546666D01*
X149201374Y-93549500D01*
X132548625Y-93549500D01*
X132481586Y-93529815D01*
X132460944Y-93513181D01*
X131032076Y-92084312D01*
X131032075Y-92084311D01*
X131032074Y-92084310D01*
X130879199Y-91973240D01*
X130866711Y-91966877D01*
X130710836Y-91887454D01*
X130531118Y-91829059D01*
X130344486Y-91799500D01*
X130344481Y-91799500D01*
X127594481Y-91799500D01*
X127405518Y-91799500D01*
X127405513Y-91799500D01*
X127218885Y-91829059D01*
X127039165Y-91887454D01*
X126870800Y-91973240D01*
X126717923Y-92084312D01*
X124965558Y-93836677D01*
X124965554Y-93836682D01*
X124870202Y-93967923D01*
X124870203Y-93967924D01*
X124854491Y-93989549D01*
X124854486Y-93989558D01*
X124768704Y-94157913D01*
X124710309Y-94337631D01*
X124680750Y-94524263D01*
X124680750Y-104462913D01*
X124710309Y-104649545D01*
X124768704Y-104829263D01*
X124854490Y-104997626D01*
X124965560Y-105150501D01*
X124965561Y-105150502D01*
X124965562Y-105150503D01*
X126497185Y-106682125D01*
X126519989Y-106713511D01*
X126597907Y-106866433D01*
X126736733Y-107057510D01*
X126903740Y-107224517D01*
X127094817Y-107363343D01*
X127194241Y-107414002D01*
X127305253Y-107470566D01*
X127305255Y-107470566D01*
X127305258Y-107470568D01*
X127425662Y-107509689D01*
X127529881Y-107543553D01*
X127763153Y-107580500D01*
X127763158Y-107580500D01*
X129399347Y-107580500D01*
X129632618Y-107543553D01*
X129696864Y-107522678D01*
X129857242Y-107470568D01*
X130067683Y-107363343D01*
X130258760Y-107224517D01*
X130316013Y-107167263D01*
X130377332Y-107133781D01*
X130447024Y-107138765D01*
X130502958Y-107180636D01*
X130527375Y-107246100D01*
X130527375Y-107246101D01*
X130528657Y-107264027D01*
X130528658Y-107264034D01*
X130584921Y-107522673D01*
X130677426Y-107770690D01*
X130677428Y-107770694D01*
X130804280Y-108003005D01*
X130804285Y-108003013D01*
X130962906Y-108214907D01*
X130962922Y-108214925D01*
X131150074Y-108402077D01*
X131150092Y-108402093D01*
X131361986Y-108560714D01*
X131361994Y-108560719D01*
X131594305Y-108687571D01*
X131594309Y-108687573D01*
X131594311Y-108687574D01*
X131842322Y-108780077D01*
X131842325Y-108780077D01*
X131842326Y-108780078D01*
X132037552Y-108822546D01*
X132100974Y-108836343D01*
X132344660Y-108853772D01*
X132364999Y-108855227D01*
X132365000Y-108855227D01*
X132444913Y-108849511D01*
X132513185Y-108864362D01*
X132562591Y-108913767D01*
X132577443Y-108982040D01*
X132553027Y-109047505D01*
X132503161Y-109086929D01*
X132241380Y-109200636D01*
X131995853Y-109349944D01*
X131772950Y-109531289D01*
X131576812Y-109741299D01*
X131411098Y-109976064D01*
X131278894Y-110231206D01*
X131182667Y-110501962D01*
X131182666Y-110501965D01*
X131124201Y-110783319D01*
X131104592Y-111070000D01*
X131124201Y-111356680D01*
X131182666Y-111638034D01*
X131182667Y-111638037D01*
X131278894Y-111908793D01*
X131278893Y-111908793D01*
X131411098Y-112163935D01*
X131576812Y-112398700D01*
X131661923Y-112489831D01*
X131772947Y-112608708D01*
X131809825Y-112638710D01*
X131995853Y-112790055D01*
X132241382Y-112939365D01*
X132428237Y-113020526D01*
X132504942Y-113053844D01*
X132781642Y-113131371D01*
X133031920Y-113165771D01*
X133066321Y-113170500D01*
X133066322Y-113170500D01*
X133353679Y-113170500D01*
X133384370Y-113166281D01*
X133638358Y-113131371D01*
X133915058Y-113053844D01*
X134109549Y-112969365D01*
X134178617Y-112939365D01*
X134178620Y-112939363D01*
X134178625Y-112939361D01*
X134424147Y-112790055D01*
X134647053Y-112608708D01*
X134843189Y-112398698D01*
X135008901Y-112163936D01*
X135141104Y-111908797D01*
X135237334Y-111638032D01*
X135295798Y-111356686D01*
X135315408Y-111070000D01*
X135295798Y-110783314D01*
X135237334Y-110501968D01*
X135141105Y-110231206D01*
X135141106Y-110231206D01*
X135008901Y-109976064D01*
X134843187Y-109741299D01*
X134764554Y-109657105D01*
X134647053Y-109531292D01*
X134424147Y-109349945D01*
X134424146Y-109349944D01*
X134178617Y-109200634D01*
X133915063Y-109086158D01*
X133915061Y-109086157D01*
X133915058Y-109086156D01*
X133777110Y-109047505D01*
X133638364Y-109008630D01*
X133638359Y-109008629D01*
X133638358Y-109008629D01*
X133444912Y-108982040D01*
X133353679Y-108969500D01*
X133353678Y-108969500D01*
X133067101Y-108969500D01*
X133000062Y-108949815D01*
X132954307Y-108897011D01*
X132944363Y-108827853D01*
X132973388Y-108764297D01*
X133023767Y-108729318D01*
X133135689Y-108687574D01*
X133368011Y-108560716D01*
X133579915Y-108402087D01*
X133767087Y-108214915D01*
X133925716Y-108003011D01*
X134052574Y-107770689D01*
X134145077Y-107522678D01*
X134201343Y-107264026D01*
X134220227Y-107000000D01*
X134201343Y-106735974D01*
X134145077Y-106477322D01*
X134052574Y-106229311D01*
X133925716Y-105996989D01*
X133797391Y-105825566D01*
X133767093Y-105785092D01*
X133767077Y-105785074D01*
X133579925Y-105597922D01*
X133579907Y-105597906D01*
X133368013Y-105439285D01*
X133368005Y-105439280D01*
X133135694Y-105312428D01*
X133135690Y-105312426D01*
X132887673Y-105219921D01*
X132629034Y-105163658D01*
X132629027Y-105163657D01*
X132365001Y-105144773D01*
X132364999Y-105144773D01*
X132100972Y-105163657D01*
X132100965Y-105163658D01*
X131842326Y-105219921D01*
X131594309Y-105312426D01*
X131594305Y-105312428D01*
X131361994Y-105439280D01*
X131361986Y-105439285D01*
X131150092Y-105597906D01*
X131150074Y-105597922D01*
X130962915Y-105785081D01*
X130960563Y-105787796D01*
X130901782Y-105825566D01*
X130831912Y-105825561D01*
X130773137Y-105787782D01*
X130747636Y-105732952D01*
X130745938Y-105733360D01*
X130744803Y-105728631D01*
X130671816Y-105504003D01*
X130564592Y-105293566D01*
X130511087Y-105219923D01*
X130425767Y-105102490D01*
X130275458Y-104952181D01*
X130241973Y-104890858D01*
X130246957Y-104821166D01*
X130288829Y-104765233D01*
X130354293Y-104740816D01*
X130363139Y-104740500D01*
X138741374Y-104740500D01*
X138808413Y-104760185D01*
X138829055Y-104776819D01*
X151225056Y-117172819D01*
X151258541Y-117234142D01*
X151253557Y-117303834D01*
X151211685Y-117359767D01*
X151146221Y-117384184D01*
X151137375Y-117384500D01*
X147918384Y-117384500D01*
X147899145Y-117386248D01*
X147847807Y-117390913D01*
X147685393Y-117441522D01*
X147539811Y-117529530D01*
X147419530Y-117649811D01*
X147331522Y-117795393D01*
X147280913Y-117957807D01*
X147274500Y-118028386D01*
X147274500Y-120251374D01*
X147254815Y-120318413D01*
X147238181Y-120339055D01*
X147119055Y-120458181D01*
X147057732Y-120491666D01*
X147031374Y-120494500D01*
X139386307Y-120494500D01*
X139319268Y-120474815D01*
X139273513Y-120422011D01*
X139263569Y-120352853D01*
X139287931Y-120295014D01*
X139330690Y-120239288D01*
X139330701Y-120239272D01*
X139442445Y-120045727D01*
X139442453Y-120045711D01*
X139527979Y-119839230D01*
X139585827Y-119623339D01*
X139596799Y-119540000D01*
X138126691Y-119540000D01*
X138174066Y-119492625D01*
X138217511Y-119417375D01*
X138240000Y-119333445D01*
X138240000Y-119246555D01*
X138217511Y-119162625D01*
X138174066Y-119087375D01*
X138126691Y-119040000D01*
X139596798Y-119040000D01*
X139585827Y-118956660D01*
X139527979Y-118740769D01*
X139442453Y-118534288D01*
X139442445Y-118534272D01*
X139330701Y-118340727D01*
X139330690Y-118340711D01*
X139194638Y-118163404D01*
X139194632Y-118163397D01*
X139036602Y-118005367D01*
X139036595Y-118005361D01*
X138859288Y-117869309D01*
X138859272Y-117869298D01*
X138665727Y-117757554D01*
X138665711Y-117757546D01*
X138459230Y-117672020D01*
X138243339Y-117614172D01*
X138021761Y-117585001D01*
X138021745Y-117585000D01*
X137355000Y-117585000D01*
X137355000Y-118960000D01*
X136855000Y-118960000D01*
X136855000Y-117585000D01*
X136188255Y-117585000D01*
X136188238Y-117585001D01*
X135966660Y-117614172D01*
X135750769Y-117672020D01*
X135544288Y-117757546D01*
X135544272Y-117757554D01*
X135350727Y-117869298D01*
X135350711Y-117869309D01*
X135173404Y-118005361D01*
X135173397Y-118005367D01*
X135015367Y-118163397D01*
X135015361Y-118163404D01*
X134879309Y-118340711D01*
X134879298Y-118340727D01*
X134767554Y-118534272D01*
X134767546Y-118534288D01*
X134682020Y-118740769D01*
X134624172Y-118956660D01*
X134613201Y-119040000D01*
X136083309Y-119040000D01*
X136035934Y-119087375D01*
X135992489Y-119162625D01*
X135970000Y-119246555D01*
X135970000Y-119333445D01*
X135992489Y-119417375D01*
X136035934Y-119492625D01*
X136083309Y-119540000D01*
X134613201Y-119540000D01*
X134624172Y-119623339D01*
X134682020Y-119839230D01*
X134767546Y-120045711D01*
X134767554Y-120045727D01*
X134879298Y-120239272D01*
X134879309Y-120239288D01*
X134922069Y-120295014D01*
X134947263Y-120360183D01*
X134933225Y-120428628D01*
X134884411Y-120478617D01*
X134823693Y-120494500D01*
X127630514Y-120494500D01*
X127443881Y-120524059D01*
X127264163Y-120582454D01*
X127095800Y-120668240D01*
X127008579Y-120731610D01*
X126942927Y-120779310D01*
X126942925Y-120779312D01*
X126942924Y-120779312D01*
X124888119Y-122834115D01*
X124873325Y-122846751D01*
X124792490Y-122905482D01*
X124625485Y-123072487D01*
X124625485Y-123072488D01*
X124625483Y-123072490D01*
X124569501Y-123149543D01*
X124486657Y-123263566D01*
X124379433Y-123474003D01*
X124306446Y-123698631D01*
X124269500Y-123931902D01*
X124269500Y-125568097D01*
X124306446Y-125801368D01*
X124379433Y-126025996D01*
X124461486Y-126187032D01*
X124486657Y-126236433D01*
X124625483Y-126427510D01*
X124792490Y-126594517D01*
X124983567Y-126733343D01*
X125082991Y-126784002D01*
X125194003Y-126840566D01*
X125194005Y-126840566D01*
X125194008Y-126840568D01*
X125314412Y-126879689D01*
X125418631Y-126913553D01*
X125651903Y-126950500D01*
X125651908Y-126950500D01*
X125888097Y-126950500D01*
X126121368Y-126913553D01*
X126345992Y-126840568D01*
X126556433Y-126733343D01*
X126747510Y-126594517D01*
X126914517Y-126427510D01*
X127053343Y-126236433D01*
X127053347Y-126236426D01*
X127055888Y-126232281D01*
X127057145Y-126233051D01*
X127100592Y-126187032D01*
X127168410Y-126170225D01*
X127234549Y-126192751D01*
X127263440Y-126221226D01*
X127318417Y-126296894D01*
X127318417Y-126296895D01*
X127463104Y-126441582D01*
X127628650Y-126561859D01*
X127810968Y-126654754D01*
X128005578Y-126717988D01*
X128060000Y-126726607D01*
X128060000Y-124799728D01*
X128098060Y-124891614D01*
X128168386Y-124961940D01*
X128260272Y-125000000D01*
X128359728Y-125000000D01*
X128451614Y-124961940D01*
X128521940Y-124891614D01*
X128560000Y-124799728D01*
X128560000Y-126726606D01*
X128614421Y-126717988D01*
X128809031Y-126654754D01*
X128991349Y-126561859D01*
X129156894Y-126441582D01*
X129156895Y-126441582D01*
X129301582Y-126296895D01*
X129301587Y-126296889D01*
X129356559Y-126221227D01*
X129411888Y-126178561D01*
X129481502Y-126172582D01*
X129543297Y-126205187D01*
X129563539Y-126232631D01*
X129564112Y-126232281D01*
X129566652Y-126236426D01*
X129566656Y-126236432D01*
X129566657Y-126236433D01*
X129705483Y-126427510D01*
X129872490Y-126594517D01*
X130063567Y-126733343D01*
X130162991Y-126784002D01*
X130274003Y-126840566D01*
X130274005Y-126840566D01*
X130274008Y-126840568D01*
X130394412Y-126879689D01*
X130498631Y-126913553D01*
X130731903Y-126950500D01*
X130731908Y-126950500D01*
X130968097Y-126950500D01*
X131201368Y-126913553D01*
X131425992Y-126840568D01*
X131636433Y-126733343D01*
X131827510Y-126594517D01*
X131994517Y-126427510D01*
X132019682Y-126392872D01*
X132075011Y-126350207D01*
X132144625Y-126344228D01*
X132206420Y-126376833D01*
X132220315Y-126392870D01*
X132245483Y-126427510D01*
X132412490Y-126594517D01*
X132603567Y-126733343D01*
X132702991Y-126784002D01*
X132814003Y-126840566D01*
X132814005Y-126840566D01*
X132814008Y-126840568D01*
X132934412Y-126879689D01*
X133038631Y-126913553D01*
X133271903Y-126950500D01*
X133271908Y-126950500D01*
X133508097Y-126950500D01*
X133741368Y-126913553D01*
X133965992Y-126840568D01*
X134176433Y-126733343D01*
X134367510Y-126594517D01*
X134534517Y-126427510D01*
X134559682Y-126392872D01*
X134615011Y-126350207D01*
X134684625Y-126344228D01*
X134746420Y-126376833D01*
X134760315Y-126392870D01*
X134785483Y-126427510D01*
X134952490Y-126594517D01*
X135143567Y-126733343D01*
X135242991Y-126784002D01*
X135354003Y-126840566D01*
X135354005Y-126840566D01*
X135354008Y-126840568D01*
X135474412Y-126879689D01*
X135578631Y-126913553D01*
X135811903Y-126950500D01*
X135811908Y-126950500D01*
X136048097Y-126950500D01*
X136281368Y-126913553D01*
X136505992Y-126840568D01*
X136716433Y-126733343D01*
X136907510Y-126594517D01*
X137074517Y-126427510D01*
X137099682Y-126392872D01*
X137155011Y-126350207D01*
X137224625Y-126344228D01*
X137286420Y-126376833D01*
X137300315Y-126392870D01*
X137325483Y-126427510D01*
X137492490Y-126594517D01*
X137683567Y-126733343D01*
X137782991Y-126784002D01*
X137894003Y-126840566D01*
X137894005Y-126840566D01*
X137894008Y-126840568D01*
X138014412Y-126879689D01*
X138118631Y-126913553D01*
X138351903Y-126950500D01*
X138351908Y-126950500D01*
X138588097Y-126950500D01*
X138821368Y-126913553D01*
X139045992Y-126840568D01*
X139256433Y-126733343D01*
X139447510Y-126594517D01*
X139614517Y-126427510D01*
X139639682Y-126392872D01*
X139695011Y-126350207D01*
X139764625Y-126344228D01*
X139826420Y-126376833D01*
X139840315Y-126392870D01*
X139865483Y-126427510D01*
X140032490Y-126594517D01*
X140223567Y-126733343D01*
X140322991Y-126784002D01*
X140434003Y-126840566D01*
X140434005Y-126840566D01*
X140434008Y-126840568D01*
X140554412Y-126879689D01*
X140658631Y-126913553D01*
X140891903Y-126950500D01*
X140891908Y-126950500D01*
X141128097Y-126950500D01*
X141361368Y-126913553D01*
X141585992Y-126840568D01*
X141796433Y-126733343D01*
X141987510Y-126594517D01*
X142154517Y-126427510D01*
X142179682Y-126392872D01*
X142235011Y-126350207D01*
X142304625Y-126344228D01*
X142366420Y-126376833D01*
X142380315Y-126392870D01*
X142405483Y-126427510D01*
X142572490Y-126594517D01*
X142763567Y-126733343D01*
X142862991Y-126784002D01*
X142974003Y-126840566D01*
X142974005Y-126840566D01*
X142974008Y-126840568D01*
X143094412Y-126879689D01*
X143198631Y-126913553D01*
X143431903Y-126950500D01*
X143431908Y-126950500D01*
X143668097Y-126950500D01*
X143901368Y-126913553D01*
X144125992Y-126840568D01*
X144336433Y-126733343D01*
X144527510Y-126594517D01*
X144694517Y-126427510D01*
X144719682Y-126392872D01*
X144775011Y-126350207D01*
X144844625Y-126344228D01*
X144906420Y-126376833D01*
X144920315Y-126392870D01*
X144945483Y-126427510D01*
X145112490Y-126594517D01*
X145303567Y-126733343D01*
X145402991Y-126784002D01*
X145514003Y-126840566D01*
X145514005Y-126840566D01*
X145514008Y-126840568D01*
X145634412Y-126879689D01*
X145738631Y-126913553D01*
X145971903Y-126950500D01*
X145971908Y-126950500D01*
X146208097Y-126950500D01*
X146441368Y-126913553D01*
X146665992Y-126840568D01*
X146876433Y-126733343D01*
X147067510Y-126594517D01*
X147234517Y-126427510D01*
X147259682Y-126392872D01*
X147315011Y-126350207D01*
X147384625Y-126344228D01*
X147446420Y-126376833D01*
X147460315Y-126392870D01*
X147485483Y-126427510D01*
X147652490Y-126594517D01*
X147843567Y-126733343D01*
X147942991Y-126784002D01*
X148054003Y-126840566D01*
X148054005Y-126840566D01*
X148054008Y-126840568D01*
X148174412Y-126879689D01*
X148278631Y-126913553D01*
X148511903Y-126950500D01*
X148511908Y-126950500D01*
X148748097Y-126950500D01*
X148981368Y-126913553D01*
X149205992Y-126840568D01*
X149416433Y-126733343D01*
X149607510Y-126594517D01*
X149774517Y-126427510D01*
X149799682Y-126392872D01*
X149855011Y-126350207D01*
X149924625Y-126344228D01*
X149986420Y-126376833D01*
X150000315Y-126392870D01*
X150025483Y-126427510D01*
X150192490Y-126594517D01*
X150383567Y-126733343D01*
X150482991Y-126784002D01*
X150594003Y-126840566D01*
X150594005Y-126840566D01*
X150594008Y-126840568D01*
X150714412Y-126879689D01*
X150818631Y-126913553D01*
X151051903Y-126950500D01*
X151051908Y-126950500D01*
X151288097Y-126950500D01*
X151521368Y-126913553D01*
X151745992Y-126840568D01*
X151956433Y-126733343D01*
X152147510Y-126594517D01*
X152314517Y-126427510D01*
X152339682Y-126392872D01*
X152395011Y-126350207D01*
X152464625Y-126344228D01*
X152526420Y-126376833D01*
X152540315Y-126392870D01*
X152565483Y-126427510D01*
X152732490Y-126594517D01*
X152923567Y-126733343D01*
X153022991Y-126784002D01*
X153134003Y-126840566D01*
X153134005Y-126840566D01*
X153134008Y-126840568D01*
X153254412Y-126879689D01*
X153358631Y-126913553D01*
X153591903Y-126950500D01*
X153591908Y-126950500D01*
X153828097Y-126950500D01*
X154061368Y-126913553D01*
X154285992Y-126840568D01*
X154496433Y-126733343D01*
X154687510Y-126594517D01*
X154854517Y-126427510D01*
X154879682Y-126392872D01*
X154935011Y-126350207D01*
X155004625Y-126344228D01*
X155066420Y-126376833D01*
X155080315Y-126392870D01*
X155105483Y-126427510D01*
X155272490Y-126594517D01*
X155463567Y-126733343D01*
X155562991Y-126784002D01*
X155674003Y-126840566D01*
X155674005Y-126840566D01*
X155674008Y-126840568D01*
X155794412Y-126879689D01*
X155898631Y-126913553D01*
X156131903Y-126950500D01*
X156131908Y-126950500D01*
X156368097Y-126950500D01*
X156601368Y-126913553D01*
X156825992Y-126840568D01*
X157036433Y-126733343D01*
X157227510Y-126594517D01*
X157394517Y-126427510D01*
X157419682Y-126392872D01*
X157475011Y-126350207D01*
X157544625Y-126344228D01*
X157606420Y-126376833D01*
X157620315Y-126392870D01*
X157645483Y-126427510D01*
X157812490Y-126594517D01*
X158003567Y-126733343D01*
X158102991Y-126784002D01*
X158214003Y-126840566D01*
X158214005Y-126840566D01*
X158214008Y-126840568D01*
X158334412Y-126879689D01*
X158438631Y-126913553D01*
X158671903Y-126950500D01*
X158671908Y-126950500D01*
X158908097Y-126950500D01*
X159141368Y-126913553D01*
X159365992Y-126840568D01*
X159576433Y-126733343D01*
X159767510Y-126594517D01*
X159934517Y-126427510D01*
X159959682Y-126392872D01*
X160015011Y-126350207D01*
X160084625Y-126344228D01*
X160146420Y-126376833D01*
X160160315Y-126392870D01*
X160185483Y-126427510D01*
X160352490Y-126594517D01*
X160543567Y-126733343D01*
X160642991Y-126784002D01*
X160754003Y-126840566D01*
X160754005Y-126840566D01*
X160754008Y-126840568D01*
X160874412Y-126879689D01*
X160978631Y-126913553D01*
X161211903Y-126950500D01*
X161211908Y-126950500D01*
X161448097Y-126950500D01*
X161681368Y-126913553D01*
X161905992Y-126840568D01*
X162116433Y-126733343D01*
X162307510Y-126594517D01*
X162474517Y-126427510D01*
X162613343Y-126236433D01*
X162720568Y-126025992D01*
X162793553Y-125801368D01*
X162830500Y-125568097D01*
X162830500Y-124998626D01*
X162850185Y-124931587D01*
X162866819Y-124910945D01*
X163787819Y-123989945D01*
X163849142Y-123956460D01*
X163918834Y-123961444D01*
X163974767Y-124003316D01*
X163999184Y-124068780D01*
X163999500Y-124077626D01*
X163999500Y-135571373D01*
X163979815Y-135638412D01*
X163963181Y-135659054D01*
X161821459Y-137800775D01*
X161760136Y-137834260D01*
X161695462Y-137831026D01*
X161681367Y-137826446D01*
X161448097Y-137789500D01*
X161448092Y-137789500D01*
X161211908Y-137789500D01*
X161211903Y-137789500D01*
X160978631Y-137826446D01*
X160754003Y-137899433D01*
X160543566Y-138006657D01*
X160450725Y-138074111D01*
X160352490Y-138145483D01*
X160352488Y-138145485D01*
X160352487Y-138145485D01*
X160185484Y-138312488D01*
X160160318Y-138347127D01*
X160104987Y-138389792D01*
X160035374Y-138395771D01*
X159973579Y-138363165D01*
X159959682Y-138347127D01*
X159956064Y-138342147D01*
X159934517Y-138312490D01*
X159767510Y-138145483D01*
X159576433Y-138006657D01*
X159365996Y-137899433D01*
X159141368Y-137826446D01*
X158908097Y-137789500D01*
X158908092Y-137789500D01*
X158671908Y-137789500D01*
X158671903Y-137789500D01*
X158438631Y-137826446D01*
X158214003Y-137899433D01*
X158003566Y-138006657D01*
X157910725Y-138074111D01*
X157812490Y-138145483D01*
X157812488Y-138145485D01*
X157812487Y-138145485D01*
X157645484Y-138312488D01*
X157620318Y-138347127D01*
X157564987Y-138389792D01*
X157495374Y-138395771D01*
X157433579Y-138363165D01*
X157419682Y-138347127D01*
X157416064Y-138342147D01*
X157394517Y-138312490D01*
X157227510Y-138145483D01*
X157036433Y-138006657D01*
X156825996Y-137899433D01*
X156601368Y-137826446D01*
X156368097Y-137789500D01*
X156368092Y-137789500D01*
X156131908Y-137789500D01*
X156131903Y-137789500D01*
X155898631Y-137826446D01*
X155674003Y-137899433D01*
X155463566Y-138006657D01*
X155370725Y-138074111D01*
X155272490Y-138145483D01*
X155272488Y-138145485D01*
X155272487Y-138145485D01*
X155105484Y-138312488D01*
X155080318Y-138347127D01*
X155024987Y-138389792D01*
X154955374Y-138395771D01*
X154893579Y-138363165D01*
X154879682Y-138347127D01*
X154876064Y-138342147D01*
X154854517Y-138312490D01*
X154687510Y-138145483D01*
X154496433Y-138006657D01*
X154285996Y-137899433D01*
X154061368Y-137826446D01*
X153828097Y-137789500D01*
X153828092Y-137789500D01*
X153591908Y-137789500D01*
X153591903Y-137789500D01*
X153358631Y-137826446D01*
X153134003Y-137899433D01*
X152923566Y-138006657D01*
X152830725Y-138074111D01*
X152732490Y-138145483D01*
X152732488Y-138145485D01*
X152732487Y-138145485D01*
X152565484Y-138312488D01*
X152540318Y-138347127D01*
X152484987Y-138389792D01*
X152415374Y-138395771D01*
X152353579Y-138363165D01*
X152339682Y-138347127D01*
X152336064Y-138342147D01*
X152314517Y-138312490D01*
X152147510Y-138145483D01*
X151956433Y-138006657D01*
X151745996Y-137899433D01*
X151521368Y-137826446D01*
X151288097Y-137789500D01*
X151288092Y-137789500D01*
X151051908Y-137789500D01*
X151051903Y-137789500D01*
X150818631Y-137826446D01*
X150594003Y-137899433D01*
X150383566Y-138006657D01*
X150290725Y-138074111D01*
X150192490Y-138145483D01*
X150192488Y-138145485D01*
X150192487Y-138145485D01*
X150025484Y-138312488D01*
X150000318Y-138347127D01*
X149944987Y-138389792D01*
X149875374Y-138395771D01*
X149813579Y-138363165D01*
X149799682Y-138347127D01*
X149796064Y-138342147D01*
X149774517Y-138312490D01*
X149607510Y-138145483D01*
X149416433Y-138006657D01*
X149205996Y-137899433D01*
X148981368Y-137826446D01*
X148748097Y-137789500D01*
X148748092Y-137789500D01*
X148511908Y-137789500D01*
X148511903Y-137789500D01*
X148278631Y-137826446D01*
X148054003Y-137899433D01*
X147843566Y-138006657D01*
X147750725Y-138074111D01*
X147652490Y-138145483D01*
X147652488Y-138145485D01*
X147652487Y-138145485D01*
X147485484Y-138312488D01*
X147460318Y-138347127D01*
X147404987Y-138389792D01*
X147335374Y-138395771D01*
X147273579Y-138363165D01*
X147259682Y-138347127D01*
X147256064Y-138342147D01*
X147234517Y-138312490D01*
X147067510Y-138145483D01*
X147062044Y-138141511D01*
X146986669Y-138086747D01*
X146971874Y-138074111D01*
X146872073Y-137974310D01*
X137682076Y-128784312D01*
X137682075Y-128784311D01*
X137682074Y-128784310D01*
X137529199Y-128673240D01*
X137360836Y-128587454D01*
X137181118Y-128529059D01*
X136994486Y-128499500D01*
X136994481Y-128499500D01*
X125094461Y-128499500D01*
X125027422Y-128479815D01*
X125006780Y-128463181D01*
X124036819Y-127493219D01*
X124003334Y-127431896D01*
X124000500Y-127405538D01*
X124000500Y-92248626D01*
X124020185Y-92181587D01*
X124036819Y-92160945D01*
X127460945Y-88736819D01*
X127522268Y-88703334D01*
X127548626Y-88700500D01*
X132416237Y-88700500D01*
X132483276Y-88720185D01*
X132529031Y-88772989D01*
X132538975Y-88842147D01*
X132509950Y-88905703D01*
X132465638Y-88938234D01*
X132231382Y-89039984D01*
X131985853Y-89189294D01*
X131762950Y-89370639D01*
X131566812Y-89580649D01*
X131401098Y-89815414D01*
X131268894Y-90070556D01*
X131172667Y-90341312D01*
X131172666Y-90341315D01*
X131114201Y-90622669D01*
X131094592Y-90909350D01*
X131114201Y-91196030D01*
X131172666Y-91477384D01*
X131172667Y-91477387D01*
X131268894Y-91748143D01*
X131268893Y-91748143D01*
X131401098Y-92003285D01*
X131566812Y-92238050D01*
X131620080Y-92295085D01*
X131762947Y-92448058D01*
X131985853Y-92629405D01*
X132216006Y-92769365D01*
X132231382Y-92778715D01*
X132418237Y-92859876D01*
X132494942Y-92893194D01*
X132771642Y-92970721D01*
X133021920Y-93005121D01*
X133056321Y-93009850D01*
X133056322Y-93009850D01*
X133343679Y-93009850D01*
X133374370Y-93005631D01*
X133628358Y-92970721D01*
X133905058Y-92893194D01*
X134018015Y-92844129D01*
X134168617Y-92778715D01*
X134168620Y-92778713D01*
X134168625Y-92778711D01*
X134414147Y-92629405D01*
X134637053Y-92448058D01*
X134833189Y-92238048D01*
X134998901Y-92003286D01*
X135131104Y-91748147D01*
X135227334Y-91477382D01*
X135285798Y-91196036D01*
X135305408Y-90909350D01*
X135285798Y-90622664D01*
X135227334Y-90341318D01*
X135131105Y-90070556D01*
X135131106Y-90070556D01*
X134998901Y-89815414D01*
X134833187Y-89580649D01*
X134754554Y-89496455D01*
X134637053Y-89370642D01*
X134414147Y-89189295D01*
X134414146Y-89189294D01*
X134168617Y-89039984D01*
X133934362Y-88938234D01*
X133880714Y-88893471D01*
X133859785Y-88826810D01*
X133878217Y-88759415D01*
X133930159Y-88712685D01*
X133983763Y-88700500D01*
X136701374Y-88700500D01*
X136768413Y-88720185D01*
X136789055Y-88736819D01*
X137967921Y-89915686D01*
X137967923Y-89915688D01*
X137967926Y-89915690D01*
X137980903Y-89925118D01*
X138120801Y-90026760D01*
X138188405Y-90061206D01*
X138289163Y-90112545D01*
X138289165Y-90112545D01*
X138289168Y-90112547D01*
X138385497Y-90143846D01*
X138468881Y-90170940D01*
X138655514Y-90200500D01*
X138655519Y-90200500D01*
X143094486Y-90200500D01*
X143281118Y-90170940D01*
X143317028Y-90159272D01*
X143460832Y-90112547D01*
X143629199Y-90026760D01*
X143782074Y-89915690D01*
X146715690Y-86982074D01*
X146826094Y-86830115D01*
X147273436Y-86830115D01*
X147415960Y-86936807D01*
X147415961Y-86936808D01*
X147667042Y-87073908D01*
X147667041Y-87073908D01*
X147935104Y-87173890D01*
X148214637Y-87234699D01*
X148499999Y-87255109D01*
X148500001Y-87255109D01*
X148785362Y-87234699D01*
X149064895Y-87173890D01*
X149332958Y-87073908D01*
X149584047Y-86936803D01*
X149726561Y-86830116D01*
X149726562Y-86830115D01*
X148500001Y-85603553D01*
X148500000Y-85603553D01*
X147273436Y-86830115D01*
X146826094Y-86830115D01*
X146826760Y-86829199D01*
X146912547Y-86660832D01*
X146970940Y-86481118D01*
X146975103Y-86454829D01*
X147005031Y-86391698D01*
X147009895Y-86386549D01*
X148288059Y-85108386D01*
X148250000Y-85200272D01*
X148250000Y-85299728D01*
X148288060Y-85391614D01*
X148358386Y-85461940D01*
X148450272Y-85500000D01*
X148549728Y-85500000D01*
X148641614Y-85461940D01*
X148711940Y-85391614D01*
X148750000Y-85299728D01*
X148750000Y-85250000D01*
X148853553Y-85250000D01*
X150080115Y-86476562D01*
X150080116Y-86476561D01*
X150186803Y-86334047D01*
X150323908Y-86082958D01*
X150423890Y-85814895D01*
X150484699Y-85535362D01*
X150505109Y-85250001D01*
X150505109Y-85249998D01*
X150484699Y-84964637D01*
X150423890Y-84685104D01*
X150323908Y-84417041D01*
X150186808Y-84165961D01*
X150186807Y-84165960D01*
X150080115Y-84023436D01*
X148853553Y-85249999D01*
X148853553Y-85250000D01*
X148750000Y-85250000D01*
X148750000Y-85200272D01*
X148711940Y-85108386D01*
X148641614Y-85038060D01*
X148549728Y-85000000D01*
X148450272Y-85000000D01*
X148358387Y-85038059D01*
X148500000Y-84896447D01*
X149726562Y-83669883D01*
X149726561Y-83669882D01*
X149584046Y-83563196D01*
X149584038Y-83563191D01*
X149332957Y-83426091D01*
X149332958Y-83426091D01*
X149064895Y-83326109D01*
X148785362Y-83265300D01*
X148500001Y-83244891D01*
X148499999Y-83244891D01*
X148214637Y-83265300D01*
X147935104Y-83326109D01*
X147667041Y-83426091D01*
X147415961Y-83563191D01*
X147415953Y-83563196D01*
X147198810Y-83725748D01*
X147133346Y-83750165D01*
X147065073Y-83735313D01*
X147015668Y-83685908D01*
X147000500Y-83626481D01*
X147000500Y-82626572D01*
X147020185Y-82559533D01*
X147072989Y-82513778D01*
X147142147Y-82503834D01*
X147193387Y-82523468D01*
X147397389Y-82659778D01*
X147656098Y-82787359D01*
X147929247Y-82880081D01*
X148212161Y-82936356D01*
X148500000Y-82955222D01*
X148787839Y-82936356D01*
X149070753Y-82880081D01*
X149343902Y-82787359D01*
X149602611Y-82659778D01*
X149842454Y-82499520D01*
X150059327Y-82309327D01*
X150249520Y-82092454D01*
X150409778Y-81852611D01*
X150537359Y-81593902D01*
X150630081Y-81320753D01*
X150686356Y-81037839D01*
X150705222Y-80750000D01*
X150686356Y-80462161D01*
X150630081Y-80179247D01*
X150537359Y-79906098D01*
X150409778Y-79647389D01*
X150249520Y-79407546D01*
X150059327Y-79190672D01*
X149842452Y-79000478D01*
X149602613Y-78840223D01*
X149602606Y-78840219D01*
X149343905Y-78712642D01*
X149070760Y-78619921D01*
X149070754Y-78619919D01*
X149070753Y-78619919D01*
X149070751Y-78619918D01*
X149070745Y-78619917D01*
X148787849Y-78563646D01*
X148787839Y-78563644D01*
X148500000Y-78544778D01*
X148212161Y-78563644D01*
X148212155Y-78563645D01*
X148212150Y-78563646D01*
X147929254Y-78619917D01*
X147929239Y-78619921D01*
X147656094Y-78712642D01*
X147397393Y-78840219D01*
X147397386Y-78840223D01*
X147193390Y-78976529D01*
X147126713Y-78997407D01*
X147059333Y-78978922D01*
X147012643Y-78926943D01*
X147000500Y-78873427D01*
X147000500Y-77962115D01*
X149523436Y-77962115D01*
X149665960Y-78068807D01*
X149665961Y-78068808D01*
X149917042Y-78205908D01*
X149917041Y-78205908D01*
X150185104Y-78305890D01*
X150464637Y-78366699D01*
X150749999Y-78387109D01*
X150750001Y-78387109D01*
X151035362Y-78366699D01*
X151314895Y-78305890D01*
X151582958Y-78205908D01*
X151834047Y-78068803D01*
X151976561Y-77962116D01*
X151976562Y-77962115D01*
X150750001Y-76735553D01*
X150750000Y-76735553D01*
X149523436Y-77962115D01*
X147000500Y-77962115D01*
X147000500Y-77380625D01*
X147020185Y-77313586D01*
X147036814Y-77292949D01*
X148614642Y-75715121D01*
X148675962Y-75681638D01*
X148745654Y-75686622D01*
X148801587Y-75728494D01*
X148826004Y-75793958D01*
X148823486Y-75829162D01*
X148765300Y-76096637D01*
X148744891Y-76381998D01*
X148744891Y-76382001D01*
X148765300Y-76667362D01*
X148826109Y-76946895D01*
X148926091Y-77214958D01*
X149063191Y-77466038D01*
X149063196Y-77466046D01*
X149169882Y-77608561D01*
X149169883Y-77608562D01*
X150538059Y-76240387D01*
X150500000Y-76332272D01*
X150500000Y-76431728D01*
X150538060Y-76523614D01*
X150608386Y-76593940D01*
X150700272Y-76632000D01*
X150799728Y-76632000D01*
X150891614Y-76593940D01*
X150961940Y-76523614D01*
X151000000Y-76431728D01*
X151000000Y-76382000D01*
X151103553Y-76382000D01*
X152330115Y-77608562D01*
X152330116Y-77608561D01*
X152436803Y-77466047D01*
X152573908Y-77214958D01*
X152673890Y-76946895D01*
X152734699Y-76667362D01*
X152755109Y-76382001D01*
X155244891Y-76382001D01*
X155265300Y-76667362D01*
X155326109Y-76946895D01*
X155426091Y-77214958D01*
X155563191Y-77466038D01*
X155563196Y-77466046D01*
X155669882Y-77608561D01*
X155669883Y-77608562D01*
X156896446Y-76382000D01*
X156896446Y-76381999D01*
X155669883Y-75155436D01*
X155669882Y-75155437D01*
X155563196Y-75297953D01*
X155563191Y-75297961D01*
X155426091Y-75549041D01*
X155326109Y-75817104D01*
X155265300Y-76096637D01*
X155244891Y-76381998D01*
X155244891Y-76382001D01*
X152755109Y-76382001D01*
X152755109Y-76381998D01*
X152734699Y-76096637D01*
X152673890Y-75817104D01*
X152573908Y-75549041D01*
X152436808Y-75297961D01*
X152436807Y-75297960D01*
X152330115Y-75155436D01*
X151103553Y-76381999D01*
X151103553Y-76382000D01*
X151000000Y-76382000D01*
X151000000Y-76332272D01*
X150961940Y-76240386D01*
X150891614Y-76170060D01*
X150799728Y-76132000D01*
X150700272Y-76132000D01*
X150608387Y-76170059D01*
X150750000Y-76028447D01*
X151976562Y-74801883D01*
X151976561Y-74801882D01*
X151834046Y-74695196D01*
X151834038Y-74695191D01*
X151582957Y-74558091D01*
X151582958Y-74558091D01*
X151314895Y-74458109D01*
X151035362Y-74397300D01*
X150750001Y-74376891D01*
X150749999Y-74376891D01*
X150464637Y-74397300D01*
X150197162Y-74455486D01*
X150127470Y-74450502D01*
X150071537Y-74408630D01*
X150047120Y-74343166D01*
X150061972Y-74274893D01*
X150083119Y-74246643D01*
X150247850Y-74081912D01*
X150309171Y-74048429D01*
X150359716Y-74047978D01*
X150462161Y-74068356D01*
X150750000Y-74087222D01*
X151037839Y-74068356D01*
X151320753Y-74012081D01*
X151593902Y-73919359D01*
X151852611Y-73791778D01*
X152092454Y-73631520D01*
X152309327Y-73441327D01*
X152499520Y-73224454D01*
X152659778Y-72984611D01*
X152787359Y-72725902D01*
X152880081Y-72452753D01*
X152936356Y-72169839D01*
X152955222Y-71882000D01*
X152936356Y-71594161D01*
X152880081Y-71311247D01*
X152787359Y-71038098D01*
X152659778Y-70779389D01*
X152499520Y-70539546D01*
X152309327Y-70322672D01*
X152092452Y-70132478D01*
X151852613Y-69972223D01*
X151852606Y-69972219D01*
X151593905Y-69844642D01*
X151320760Y-69751921D01*
X151320754Y-69751919D01*
X151320753Y-69751919D01*
X151320751Y-69751918D01*
X151320745Y-69751917D01*
X151037849Y-69695646D01*
X151037839Y-69695644D01*
X150750000Y-69676778D01*
X150462161Y-69695644D01*
X150462155Y-69695645D01*
X150462150Y-69695646D01*
X150179254Y-69751917D01*
X150179239Y-69751921D01*
X149906094Y-69844642D01*
X149647393Y-69972219D01*
X149647386Y-69972223D01*
X149407547Y-70132478D01*
X149190672Y-70322672D01*
X149000478Y-70539547D01*
X148840223Y-70779386D01*
X148840219Y-70779393D01*
X148712642Y-71038094D01*
X148619921Y-71311239D01*
X148619917Y-71311254D01*
X148563646Y-71594150D01*
X148563644Y-71594162D01*
X148544778Y-71882000D01*
X148563644Y-72169837D01*
X148563646Y-72169849D01*
X148584020Y-72272278D01*
X148577793Y-72341870D01*
X148550084Y-72384150D01*
X144884308Y-76049927D01*
X144884306Y-76049929D01*
X144852171Y-76094162D01*
X144844479Y-76104749D01*
X144824680Y-76132000D01*
X144773240Y-76202800D01*
X144687454Y-76371163D01*
X144629059Y-76550881D01*
X144599500Y-76737513D01*
X144599500Y-85651374D01*
X144579815Y-85718413D01*
X144563181Y-85739055D01*
X143958176Y-86344059D01*
X143896853Y-86377544D01*
X143827161Y-86372560D01*
X143771228Y-86330688D01*
X143746811Y-86265224D01*
X143761663Y-86196951D01*
X143823908Y-86082957D01*
X143923890Y-85814895D01*
X143984699Y-85535362D01*
X144005109Y-85250001D01*
X144005109Y-85249998D01*
X143984699Y-84964637D01*
X143923890Y-84685104D01*
X143823908Y-84417041D01*
X143686808Y-84165961D01*
X143686807Y-84165960D01*
X143580115Y-84023436D01*
X142211940Y-85391611D01*
X142250000Y-85299728D01*
X142250000Y-85200272D01*
X142211940Y-85108386D01*
X142141614Y-85038060D01*
X142049728Y-85000000D01*
X141950272Y-85000000D01*
X141858386Y-85038060D01*
X141788060Y-85108386D01*
X141750000Y-85200272D01*
X141750000Y-85299728D01*
X141788060Y-85391614D01*
X141858386Y-85461940D01*
X141950272Y-85500000D01*
X142049728Y-85500000D01*
X142141611Y-85461940D01*
X142000000Y-85603553D01*
X140773436Y-86830115D01*
X140915960Y-86936807D01*
X140915961Y-86936808D01*
X141167042Y-87073908D01*
X141167041Y-87073908D01*
X141435104Y-87173890D01*
X141714637Y-87234699D01*
X141999999Y-87255109D01*
X142000001Y-87255109D01*
X142285362Y-87234699D01*
X142564895Y-87173890D01*
X142832957Y-87073908D01*
X142946951Y-87011663D01*
X143015224Y-86996811D01*
X143080688Y-87021228D01*
X143122560Y-87077161D01*
X143127544Y-87146853D01*
X143094059Y-87208176D01*
X142539055Y-87763181D01*
X142477732Y-87796666D01*
X142451374Y-87799500D01*
X139298626Y-87799500D01*
X139231587Y-87779815D01*
X139210945Y-87763181D01*
X138032076Y-86584312D01*
X138032074Y-86584310D01*
X137879199Y-86473240D01*
X137710836Y-86387454D01*
X137531118Y-86329059D01*
X137344486Y-86299500D01*
X137344481Y-86299500D01*
X127094482Y-86299500D01*
X126905519Y-86299500D01*
X126905514Y-86299500D01*
X126718881Y-86329059D01*
X126539163Y-86387454D01*
X126370800Y-86473240D01*
X126217923Y-86584312D01*
X122512181Y-90290055D01*
X122450858Y-90323540D01*
X122381166Y-90318556D01*
X122325233Y-90276684D01*
X122300816Y-90211220D01*
X122300500Y-90202374D01*
X122300500Y-89948626D01*
X122320185Y-89881587D01*
X122336819Y-89860945D01*
X126947763Y-85250001D01*
X139994891Y-85250001D01*
X140015300Y-85535362D01*
X140076109Y-85814895D01*
X140176091Y-86082958D01*
X140313191Y-86334038D01*
X140313196Y-86334046D01*
X140419882Y-86476561D01*
X140419883Y-86476562D01*
X141646446Y-85250000D01*
X141646446Y-85249999D01*
X140419883Y-84023436D01*
X140419882Y-84023437D01*
X140313196Y-84165953D01*
X140313191Y-84165961D01*
X140176091Y-84417041D01*
X140076109Y-84685104D01*
X140015300Y-84964637D01*
X139994891Y-85249998D01*
X139994891Y-85250001D01*
X126947763Y-85250001D01*
X128580945Y-83616819D01*
X128642268Y-83583334D01*
X128668626Y-83580500D01*
X140464486Y-83580500D01*
X140611156Y-83557269D01*
X140629221Y-83554408D01*
X140698514Y-83563362D01*
X140751966Y-83608358D01*
X140769894Y-83666341D01*
X142000000Y-84896446D01*
X142000001Y-84896446D01*
X143226562Y-83669883D01*
X143226561Y-83669882D01*
X143084046Y-83563196D01*
X143084038Y-83563191D01*
X142832957Y-83426091D01*
X142832958Y-83426091D01*
X142564895Y-83326109D01*
X142285362Y-83265300D01*
X142000001Y-83244891D01*
X141999999Y-83244891D01*
X141714637Y-83265300D01*
X141447163Y-83323486D01*
X141377471Y-83318502D01*
X141321538Y-83276630D01*
X141297121Y-83211166D01*
X141311973Y-83142893D01*
X141333118Y-83114645D01*
X141497851Y-82949911D01*
X141559171Y-82916429D01*
X141609716Y-82915978D01*
X141712161Y-82936356D01*
X142000000Y-82955222D01*
X142287839Y-82936356D01*
X142570753Y-82880081D01*
X142843902Y-82787359D01*
X143102611Y-82659778D01*
X143342454Y-82499520D01*
X143559327Y-82309327D01*
X143749520Y-82092454D01*
X143909778Y-81852611D01*
X144037359Y-81593902D01*
X144130081Y-81320753D01*
X144186356Y-81037839D01*
X144205222Y-80750000D01*
X144186356Y-80462161D01*
X144130081Y-80179247D01*
X144037359Y-79906098D01*
X143909778Y-79647389D01*
X143749520Y-79407546D01*
X143559327Y-79190672D01*
X143342452Y-79000478D01*
X143102613Y-78840223D01*
X143102606Y-78840219D01*
X142843905Y-78712642D01*
X142570760Y-78619921D01*
X142570754Y-78619919D01*
X142570753Y-78619919D01*
X142570751Y-78619918D01*
X142570745Y-78619917D01*
X142287849Y-78563646D01*
X142287839Y-78563644D01*
X142000000Y-78544778D01*
X141712161Y-78563644D01*
X141712155Y-78563645D01*
X141712150Y-78563646D01*
X141429254Y-78619917D01*
X141429239Y-78619921D01*
X141156094Y-78712642D01*
X140897393Y-78840219D01*
X140897386Y-78840223D01*
X140657547Y-79000478D01*
X140440672Y-79190672D01*
X140250478Y-79407547D01*
X140090223Y-79647386D01*
X140090219Y-79647393D01*
X139962642Y-79906094D01*
X139869921Y-80179239D01*
X139869917Y-80179254D01*
X139813646Y-80462150D01*
X139813644Y-80462162D01*
X139794778Y-80750000D01*
X139813645Y-81037853D01*
X139813838Y-81039317D01*
X139813769Y-81039753D01*
X139813910Y-81041890D01*
X139813431Y-81041921D01*
X139803072Y-81108352D01*
X139756691Y-81160607D01*
X139690899Y-81179500D01*
X134054718Y-81179500D01*
X133987679Y-81159815D01*
X133941924Y-81107011D01*
X133931980Y-81037853D01*
X133945886Y-80996073D01*
X134052571Y-80800694D01*
X134052573Y-80800690D01*
X134052574Y-80800689D01*
X134145077Y-80552678D01*
X134201343Y-80294026D01*
X134220227Y-80030000D01*
X134201343Y-79765974D01*
X134145077Y-79507322D01*
X134052574Y-79259311D01*
X133925716Y-79026989D01*
X133905870Y-79000478D01*
X133767093Y-78815092D01*
X133767077Y-78815074D01*
X133687298Y-78735295D01*
X133653813Y-78673972D01*
X133658797Y-78604280D01*
X133700669Y-78548347D01*
X133750782Y-78525999D01*
X133820753Y-78512081D01*
X134093902Y-78419359D01*
X134352611Y-78291778D01*
X134592454Y-78131520D01*
X134809327Y-77941327D01*
X134999520Y-77724454D01*
X135159778Y-77484611D01*
X135287359Y-77225902D01*
X135380081Y-76952753D01*
X135436356Y-76669839D01*
X135455222Y-76382000D01*
X137544778Y-76382000D01*
X137563644Y-76669837D01*
X137563646Y-76669849D01*
X137619917Y-76952745D01*
X137619921Y-76952760D01*
X137712642Y-77225905D01*
X137840219Y-77484606D01*
X137840223Y-77484613D01*
X138000478Y-77724452D01*
X138190672Y-77941327D01*
X138407547Y-78131521D01*
X138614895Y-78270066D01*
X138647389Y-78291778D01*
X138906098Y-78419359D01*
X139179247Y-78512081D01*
X139462161Y-78568356D01*
X139750000Y-78587222D01*
X140037839Y-78568356D01*
X140320753Y-78512081D01*
X140593902Y-78419359D01*
X140852611Y-78291778D01*
X141092454Y-78131520D01*
X141309327Y-77941327D01*
X141499520Y-77724454D01*
X141659778Y-77484611D01*
X141787359Y-77225902D01*
X141880081Y-76952753D01*
X141936356Y-76669839D01*
X141955222Y-76382000D01*
X141936356Y-76094161D01*
X141880081Y-75811247D01*
X141787359Y-75538098D01*
X141659778Y-75279389D01*
X141499520Y-75039546D01*
X141499518Y-75039544D01*
X141309327Y-74822672D01*
X141092452Y-74632478D01*
X140852613Y-74472223D01*
X140852606Y-74472219D01*
X140593905Y-74344642D01*
X140320760Y-74251921D01*
X140320754Y-74251919D01*
X140320753Y-74251919D01*
X140320751Y-74251918D01*
X140320745Y-74251917D01*
X140037849Y-74195646D01*
X140037839Y-74195644D01*
X139750000Y-74176778D01*
X139462161Y-74195644D01*
X139462155Y-74195645D01*
X139462150Y-74195646D01*
X139179254Y-74251917D01*
X139179239Y-74251921D01*
X138906094Y-74344642D01*
X138647393Y-74472219D01*
X138647386Y-74472223D01*
X138407547Y-74632478D01*
X138190672Y-74822672D01*
X138000478Y-75039547D01*
X137840223Y-75279386D01*
X137840219Y-75279393D01*
X137712642Y-75538094D01*
X137619921Y-75811239D01*
X137619917Y-75811254D01*
X137563646Y-76094150D01*
X137563644Y-76094162D01*
X137544778Y-76382000D01*
X135455222Y-76382000D01*
X135436356Y-76094161D01*
X135380081Y-75811247D01*
X135287359Y-75538098D01*
X135159778Y-75279389D01*
X134999520Y-75039546D01*
X134999518Y-75039544D01*
X134809327Y-74822672D01*
X134592452Y-74632478D01*
X134352613Y-74472223D01*
X134352606Y-74472219D01*
X134093905Y-74344642D01*
X133820760Y-74251921D01*
X133820754Y-74251919D01*
X133820753Y-74251919D01*
X133820751Y-74251918D01*
X133820745Y-74251917D01*
X133537849Y-74195646D01*
X133537839Y-74195644D01*
X133250000Y-74176778D01*
X132962161Y-74195644D01*
X132962155Y-74195645D01*
X132962150Y-74195646D01*
X132679254Y-74251917D01*
X132679239Y-74251921D01*
X132406094Y-74344642D01*
X132147393Y-74472219D01*
X132147386Y-74472223D01*
X131907547Y-74632478D01*
X131690672Y-74822672D01*
X131500481Y-75039544D01*
X131442452Y-75126391D01*
X131388840Y-75171196D01*
X131339350Y-75181500D01*
X131034193Y-75181500D01*
X130847565Y-75211059D01*
X130667845Y-75269454D01*
X130499480Y-75355240D01*
X130346603Y-75466312D01*
X119112181Y-86700735D01*
X119050858Y-86734220D01*
X118981166Y-86729236D01*
X118925233Y-86687364D01*
X118900816Y-86621900D01*
X118900500Y-86613054D01*
X118900500Y-84098624D01*
X118920185Y-84031585D01*
X118936814Y-84010948D01*
X129485647Y-73462115D01*
X132023436Y-73462115D01*
X132165960Y-73568807D01*
X132165961Y-73568808D01*
X132417042Y-73705908D01*
X132417041Y-73705908D01*
X132685104Y-73805890D01*
X132964637Y-73866699D01*
X133249999Y-73887109D01*
X133250001Y-73887109D01*
X133535362Y-73866699D01*
X133814895Y-73805890D01*
X134082958Y-73705908D01*
X134334047Y-73568803D01*
X134476561Y-73462116D01*
X134476562Y-73462115D01*
X138523436Y-73462115D01*
X138665960Y-73568807D01*
X138665961Y-73568808D01*
X138917042Y-73705908D01*
X138917041Y-73705908D01*
X139185104Y-73805890D01*
X139464637Y-73866699D01*
X139749999Y-73887109D01*
X139750001Y-73887109D01*
X140035362Y-73866699D01*
X140314895Y-73805890D01*
X140582958Y-73705908D01*
X140834047Y-73568803D01*
X140976561Y-73462116D01*
X140976562Y-73462115D01*
X139750001Y-72235553D01*
X139750000Y-72235553D01*
X138523436Y-73462115D01*
X134476562Y-73462115D01*
X133250001Y-72235553D01*
X133250000Y-72235553D01*
X132023436Y-73462115D01*
X129485647Y-73462115D01*
X131040943Y-71906819D01*
X131102262Y-71873337D01*
X131171954Y-71878321D01*
X131227887Y-71920193D01*
X131252304Y-71985657D01*
X131265300Y-72167362D01*
X131326109Y-72446895D01*
X131426091Y-72714958D01*
X131563191Y-72966038D01*
X131563196Y-72966046D01*
X131669882Y-73108561D01*
X131669883Y-73108562D01*
X133038059Y-71740387D01*
X133000000Y-71832272D01*
X133000000Y-71931728D01*
X133038060Y-72023614D01*
X133108386Y-72093940D01*
X133200272Y-72132000D01*
X133299728Y-72132000D01*
X133391614Y-72093940D01*
X133461940Y-72023614D01*
X133500000Y-71931728D01*
X133500000Y-71882000D01*
X133603553Y-71882000D01*
X134830115Y-73108562D01*
X134830116Y-73108561D01*
X134936803Y-72966047D01*
X135073908Y-72714958D01*
X135173890Y-72446895D01*
X135234699Y-72167362D01*
X135255109Y-71882001D01*
X137744891Y-71882001D01*
X137765300Y-72167362D01*
X137826109Y-72446895D01*
X137926091Y-72714958D01*
X138063191Y-72966038D01*
X138063196Y-72966046D01*
X138169882Y-73108561D01*
X138169883Y-73108562D01*
X139346718Y-71931728D01*
X139500000Y-71931728D01*
X139538060Y-72023614D01*
X139608386Y-72093940D01*
X139700272Y-72132000D01*
X139799728Y-72132000D01*
X139891614Y-72093940D01*
X139961940Y-72023614D01*
X140000000Y-71931728D01*
X140000000Y-71882000D01*
X140103553Y-71882000D01*
X141330115Y-73108562D01*
X141330116Y-73108561D01*
X141436803Y-72966047D01*
X141573908Y-72714958D01*
X141673890Y-72446895D01*
X141734699Y-72167362D01*
X141755109Y-71882001D01*
X141755109Y-71881998D01*
X141734699Y-71596637D01*
X141673890Y-71317104D01*
X141573908Y-71049041D01*
X141436808Y-70797961D01*
X141436807Y-70797960D01*
X141330115Y-70655436D01*
X140103553Y-71881999D01*
X140103553Y-71882000D01*
X140000000Y-71882000D01*
X140000000Y-71832272D01*
X139961940Y-71740386D01*
X139891614Y-71670060D01*
X139799728Y-71632000D01*
X139700272Y-71632000D01*
X139608386Y-71670060D01*
X139538060Y-71740386D01*
X139500000Y-71832272D01*
X139500000Y-71931728D01*
X139346718Y-71931728D01*
X139396446Y-71882000D01*
X139396446Y-71881999D01*
X138169883Y-70655436D01*
X138169882Y-70655437D01*
X138063196Y-70797953D01*
X138063191Y-70797961D01*
X137926091Y-71049041D01*
X137826109Y-71317104D01*
X137765300Y-71596637D01*
X137744891Y-71881998D01*
X137744891Y-71882001D01*
X135255109Y-71882001D01*
X135255109Y-71881998D01*
X135234699Y-71596637D01*
X135173890Y-71317104D01*
X135073908Y-71049041D01*
X134936808Y-70797961D01*
X134936807Y-70797960D01*
X134830115Y-70655436D01*
X133603553Y-71881999D01*
X133603553Y-71882000D01*
X133500000Y-71882000D01*
X133500000Y-71832272D01*
X133461940Y-71740386D01*
X133391614Y-71670060D01*
X133299728Y-71632000D01*
X133200272Y-71632000D01*
X133108387Y-71670059D01*
X133250000Y-71528447D01*
X134476562Y-70301883D01*
X138523436Y-70301883D01*
X139750000Y-71528446D01*
X139750001Y-71528446D01*
X140976562Y-70301883D01*
X140976561Y-70301882D01*
X140834046Y-70195196D01*
X140834038Y-70195191D01*
X140582957Y-70058091D01*
X140582958Y-70058091D01*
X140314895Y-69958109D01*
X140035362Y-69897300D01*
X139750001Y-69876891D01*
X139749999Y-69876891D01*
X139464637Y-69897300D01*
X139185104Y-69958109D01*
X138917041Y-70058091D01*
X138665961Y-70195191D01*
X138665953Y-70195196D01*
X138523437Y-70301882D01*
X138523436Y-70301883D01*
X134476562Y-70301883D01*
X134476561Y-70301882D01*
X134334046Y-70195196D01*
X134334038Y-70195191D01*
X134082957Y-70058091D01*
X134082958Y-70058091D01*
X133814895Y-69958109D01*
X133535362Y-69897300D01*
X133353657Y-69884304D01*
X133288192Y-69859887D01*
X133246321Y-69803953D01*
X133241337Y-69734261D01*
X133274819Y-69672943D01*
X133867647Y-69080115D01*
X140773436Y-69080115D01*
X140915960Y-69186807D01*
X140915961Y-69186808D01*
X141167042Y-69323908D01*
X141167041Y-69323908D01*
X141435104Y-69423890D01*
X141714637Y-69484699D01*
X141999999Y-69505109D01*
X142000001Y-69505109D01*
X142285362Y-69484699D01*
X142564895Y-69423890D01*
X142832958Y-69323908D01*
X143084047Y-69186803D01*
X143226561Y-69080116D01*
X143226562Y-69080115D01*
X147273436Y-69080115D01*
X147415960Y-69186807D01*
X147415961Y-69186808D01*
X147667042Y-69323908D01*
X147667041Y-69323908D01*
X147935104Y-69423890D01*
X148214637Y-69484699D01*
X148499999Y-69505109D01*
X148500001Y-69505109D01*
X148785362Y-69484699D01*
X149064895Y-69423890D01*
X149332958Y-69323908D01*
X149584047Y-69186803D01*
X149726561Y-69080116D01*
X149726562Y-69080115D01*
X148500001Y-67853553D01*
X148500000Y-67853553D01*
X147273436Y-69080115D01*
X143226562Y-69080115D01*
X142000001Y-67853553D01*
X142000000Y-67853553D01*
X140773436Y-69080115D01*
X133867647Y-69080115D01*
X135447761Y-67500001D01*
X139994891Y-67500001D01*
X140015300Y-67785362D01*
X140076109Y-68064895D01*
X140176091Y-68332958D01*
X140313191Y-68584038D01*
X140313196Y-68584046D01*
X140419882Y-68726561D01*
X140419883Y-68726562D01*
X141596718Y-67549728D01*
X141750000Y-67549728D01*
X141788060Y-67641614D01*
X141858386Y-67711940D01*
X141950272Y-67750000D01*
X142049728Y-67750000D01*
X142141614Y-67711940D01*
X142211940Y-67641614D01*
X142250000Y-67549728D01*
X142250000Y-67500000D01*
X142353553Y-67500000D01*
X143580115Y-68726562D01*
X143580116Y-68726561D01*
X143686803Y-68584047D01*
X143823908Y-68332958D01*
X143923890Y-68064895D01*
X143984699Y-67785362D01*
X144005109Y-67500001D01*
X146494891Y-67500001D01*
X146515300Y-67785362D01*
X146576109Y-68064895D01*
X146676091Y-68332958D01*
X146813191Y-68584038D01*
X146813196Y-68584046D01*
X146919882Y-68726561D01*
X146919883Y-68726562D01*
X148096718Y-67549728D01*
X148250000Y-67549728D01*
X148288060Y-67641614D01*
X148358386Y-67711940D01*
X148450272Y-67750000D01*
X148549728Y-67750000D01*
X148641614Y-67711940D01*
X148711940Y-67641614D01*
X148750000Y-67549728D01*
X148750000Y-67500000D01*
X148853553Y-67500000D01*
X150080115Y-68726562D01*
X150080116Y-68726561D01*
X150186803Y-68584047D01*
X150323908Y-68332958D01*
X150423890Y-68064895D01*
X150484699Y-67785362D01*
X150505109Y-67500001D01*
X150505109Y-67499998D01*
X150484699Y-67214637D01*
X150423890Y-66935104D01*
X150323908Y-66667041D01*
X150186808Y-66415961D01*
X150186807Y-66415960D01*
X150080115Y-66273436D01*
X148853553Y-67499999D01*
X148853553Y-67500000D01*
X148750000Y-67500000D01*
X148750000Y-67450272D01*
X148711940Y-67358386D01*
X148641614Y-67288060D01*
X148549728Y-67250000D01*
X148450272Y-67250000D01*
X148358386Y-67288060D01*
X148288060Y-67358386D01*
X148250000Y-67450272D01*
X148250000Y-67549728D01*
X148096718Y-67549728D01*
X148146446Y-67500000D01*
X148146446Y-67499999D01*
X146919883Y-66273436D01*
X146919882Y-66273437D01*
X146813196Y-66415953D01*
X146813191Y-66415961D01*
X146676091Y-66667041D01*
X146576109Y-66935104D01*
X146515300Y-67214637D01*
X146494891Y-67499998D01*
X146494891Y-67500001D01*
X144005109Y-67500001D01*
X144005109Y-67499998D01*
X143984699Y-67214637D01*
X143923890Y-66935104D01*
X143823908Y-66667041D01*
X143686808Y-66415961D01*
X143686807Y-66415960D01*
X143580115Y-66273436D01*
X142353553Y-67499999D01*
X142353553Y-67500000D01*
X142250000Y-67500000D01*
X142250000Y-67450272D01*
X142211940Y-67358386D01*
X142141614Y-67288060D01*
X142049728Y-67250000D01*
X141950272Y-67250000D01*
X141858386Y-67288060D01*
X141788060Y-67358386D01*
X141750000Y-67450272D01*
X141750000Y-67549728D01*
X141596718Y-67549728D01*
X141646446Y-67500000D01*
X141646446Y-67499999D01*
X140419883Y-66273436D01*
X140419882Y-66273437D01*
X140313196Y-66415953D01*
X140313191Y-66415961D01*
X140176091Y-66667041D01*
X140076109Y-66935104D01*
X140015300Y-67214637D01*
X139994891Y-67499998D01*
X139994891Y-67500001D01*
X135447761Y-67500001D01*
X137027879Y-65919883D01*
X140773436Y-65919883D01*
X142000000Y-67146446D01*
X142000001Y-67146446D01*
X143226562Y-65919883D01*
X147273436Y-65919883D01*
X148500000Y-67146446D01*
X148500001Y-67146446D01*
X149726562Y-65919883D01*
X149726561Y-65919882D01*
X149584046Y-65813196D01*
X149584038Y-65813191D01*
X149332957Y-65676091D01*
X149332958Y-65676091D01*
X149064895Y-65576109D01*
X148785362Y-65515300D01*
X148500001Y-65494891D01*
X148499999Y-65494891D01*
X148214637Y-65515300D01*
X147935104Y-65576109D01*
X147667041Y-65676091D01*
X147415961Y-65813191D01*
X147415953Y-65813196D01*
X147273437Y-65919882D01*
X147273436Y-65919883D01*
X143226562Y-65919883D01*
X143226561Y-65919882D01*
X143084046Y-65813196D01*
X143084038Y-65813191D01*
X142832957Y-65676091D01*
X142832958Y-65676091D01*
X142564895Y-65576109D01*
X142285362Y-65515300D01*
X142000001Y-65494891D01*
X141999999Y-65494891D01*
X141714637Y-65515300D01*
X141435104Y-65576109D01*
X141167041Y-65676091D01*
X140915961Y-65813191D01*
X140915953Y-65813196D01*
X140773437Y-65919882D01*
X140773436Y-65919883D01*
X137027879Y-65919883D01*
X138710944Y-64236819D01*
X138772267Y-64203334D01*
X138798625Y-64200500D01*
X140089350Y-64200500D01*
X140156389Y-64220185D01*
X140192452Y-64255609D01*
X140250481Y-64342455D01*
X140440672Y-64559327D01*
X140657546Y-64749520D01*
X140897389Y-64909778D01*
X141156098Y-65037359D01*
X141429247Y-65130081D01*
X141712161Y-65186356D01*
X142000000Y-65205222D01*
X142287839Y-65186356D01*
X142570753Y-65130081D01*
X142843902Y-65037359D01*
X143102611Y-64909778D01*
X143342454Y-64749520D01*
X143559327Y-64559327D01*
X143749520Y-64342454D01*
X143909778Y-64102611D01*
X144037359Y-63843902D01*
X144130081Y-63570753D01*
X144186356Y-63287839D01*
X144205222Y-63000000D01*
X144186356Y-62712161D01*
X144130081Y-62429247D01*
X144037359Y-62156098D01*
X143909778Y-61897389D01*
X143749520Y-61657546D01*
X143673411Y-61570760D01*
X143559327Y-61440672D01*
X143342452Y-61250478D01*
X143102613Y-61090223D01*
X143102606Y-61090219D01*
X142843905Y-60962642D01*
X142570760Y-60869921D01*
X142570754Y-60869919D01*
X142570753Y-60869919D01*
X142570751Y-60869918D01*
X142570745Y-60869917D01*
X142287849Y-60813646D01*
X142287839Y-60813644D01*
X142000000Y-60794778D01*
X141712161Y-60813644D01*
X141712155Y-60813645D01*
X141712150Y-60813646D01*
X141429254Y-60869917D01*
X141429239Y-60869921D01*
X141156094Y-60962642D01*
X140897393Y-61090219D01*
X140897386Y-61090223D01*
X140657547Y-61250478D01*
X140440672Y-61440672D01*
X140250481Y-61657544D01*
X140192452Y-61744391D01*
X140138840Y-61789196D01*
X140089350Y-61799500D01*
X138155514Y-61799500D01*
X137968881Y-61829059D01*
X137789163Y-61887454D01*
X137620800Y-61973240D01*
X137568526Y-62011220D01*
X137467927Y-62084310D01*
X137467925Y-62084312D01*
X137467924Y-62084312D01*
X117412181Y-82140055D01*
X117350858Y-82173540D01*
X117281166Y-82168556D01*
X117225233Y-82126684D01*
X117200816Y-82061220D01*
X117200500Y-82052374D01*
X117200500Y-64048624D01*
X117220185Y-63981585D01*
X117236815Y-63960947D01*
X117997849Y-63199912D01*
X118059170Y-63166429D01*
X118109716Y-63165978D01*
X118212161Y-63186356D01*
X118500000Y-63205222D01*
X118787839Y-63186356D01*
X119070753Y-63130081D01*
X119343902Y-63037359D01*
X119602611Y-62909778D01*
X119842454Y-62749520D01*
X120059327Y-62559327D01*
X120249520Y-62342454D01*
X120409778Y-62102611D01*
X120537359Y-61843902D01*
X120630081Y-61570753D01*
X120686356Y-61287839D01*
X120705222Y-61000000D01*
X122794778Y-61000000D01*
X122800691Y-61090222D01*
X122813644Y-61287837D01*
X122813646Y-61287849D01*
X122869917Y-61570745D01*
X122869921Y-61570760D01*
X122962642Y-61843905D01*
X123090219Y-62102606D01*
X123090223Y-62102613D01*
X123250478Y-62342452D01*
X123440672Y-62559327D01*
X123614946Y-62712161D01*
X123657546Y-62749520D01*
X123897389Y-62909778D01*
X124156098Y-63037359D01*
X124429247Y-63130081D01*
X124712161Y-63186356D01*
X125000000Y-63205222D01*
X125287839Y-63186356D01*
X125570753Y-63130081D01*
X125843902Y-63037359D01*
X126102611Y-62909778D01*
X126342454Y-62749520D01*
X126559327Y-62559327D01*
X126749520Y-62342454D01*
X126909778Y-62102611D01*
X127037359Y-61843902D01*
X127130081Y-61570753D01*
X127186356Y-61287839D01*
X127205222Y-61000000D01*
X127186356Y-60712161D01*
X127130081Y-60429247D01*
X127037359Y-60156098D01*
X126909778Y-59897389D01*
X126749520Y-59657546D01*
X126559327Y-59440672D01*
X126342452Y-59250478D01*
X126102613Y-59090223D01*
X126102606Y-59090219D01*
X125843905Y-58962642D01*
X125570760Y-58869921D01*
X125570754Y-58869919D01*
X125570753Y-58869919D01*
X125570751Y-58869918D01*
X125570745Y-58869917D01*
X125287849Y-58813646D01*
X125287839Y-58813644D01*
X125000000Y-58794778D01*
X124712161Y-58813644D01*
X124712155Y-58813645D01*
X124712150Y-58813646D01*
X124429254Y-58869917D01*
X124429239Y-58869921D01*
X124156094Y-58962642D01*
X123897393Y-59090219D01*
X123897386Y-59090223D01*
X123657547Y-59250478D01*
X123440672Y-59440672D01*
X123250478Y-59657547D01*
X123090223Y-59897386D01*
X123090219Y-59897393D01*
X122962642Y-60156094D01*
X122869921Y-60429239D01*
X122869917Y-60429254D01*
X122813646Y-60712150D01*
X122813644Y-60712161D01*
X122794778Y-61000000D01*
X120705222Y-61000000D01*
X120686356Y-60712161D01*
X120630081Y-60429247D01*
X120537359Y-60156098D01*
X120409778Y-59897389D01*
X120249520Y-59657546D01*
X120059327Y-59440672D01*
X119842452Y-59250478D01*
X119602613Y-59090223D01*
X119602606Y-59090219D01*
X119343905Y-58962642D01*
X119070760Y-58869921D01*
X119070754Y-58869919D01*
X119070753Y-58869919D01*
X119070751Y-58869918D01*
X119070745Y-58869917D01*
X118787849Y-58813646D01*
X118787839Y-58813644D01*
X118500000Y-58794778D01*
X118212161Y-58813644D01*
X118212155Y-58813645D01*
X118212150Y-58813646D01*
X117929254Y-58869917D01*
X117929239Y-58869921D01*
X117656094Y-58962642D01*
X117397393Y-59090219D01*
X117397386Y-59090223D01*
X117157547Y-59250478D01*
X116940672Y-59440672D01*
X116750478Y-59657547D01*
X116590223Y-59897386D01*
X116590219Y-59897393D01*
X116462642Y-60156094D01*
X116369921Y-60429239D01*
X116369917Y-60429254D01*
X116313646Y-60712150D01*
X116313644Y-60712161D01*
X116294778Y-61000000D01*
X116300691Y-61090222D01*
X116313644Y-61287837D01*
X116313646Y-61287850D01*
X116334020Y-61390279D01*
X116327793Y-61459871D01*
X116300084Y-61502151D01*
X115712181Y-62090055D01*
X115650858Y-62123540D01*
X115581167Y-62118556D01*
X115525233Y-62076685D01*
X115500816Y-62011220D01*
X115500500Y-62002374D01*
X115500500Y-58080115D01*
X117273436Y-58080115D01*
X117415960Y-58186807D01*
X117415961Y-58186808D01*
X117667042Y-58323908D01*
X117667041Y-58323908D01*
X117935104Y-58423890D01*
X118214637Y-58484699D01*
X118499999Y-58505109D01*
X118500001Y-58505109D01*
X118785362Y-58484699D01*
X119064895Y-58423890D01*
X119332958Y-58323908D01*
X119584047Y-58186803D01*
X119726561Y-58080116D01*
X119726562Y-58080115D01*
X123773436Y-58080115D01*
X123915960Y-58186807D01*
X123915961Y-58186808D01*
X124167042Y-58323908D01*
X124167041Y-58323908D01*
X124435104Y-58423890D01*
X124714637Y-58484699D01*
X124999999Y-58505109D01*
X125000001Y-58505109D01*
X125285362Y-58484699D01*
X125564895Y-58423890D01*
X125832958Y-58323908D01*
X126084047Y-58186803D01*
X126226561Y-58080116D01*
X126226562Y-58080115D01*
X141023436Y-58080115D01*
X141165960Y-58186807D01*
X141165961Y-58186808D01*
X141417042Y-58323908D01*
X141417041Y-58323908D01*
X141685104Y-58423890D01*
X141964637Y-58484699D01*
X142249999Y-58505109D01*
X142250001Y-58505109D01*
X142535362Y-58484699D01*
X142814895Y-58423890D01*
X143082958Y-58323908D01*
X143334047Y-58186803D01*
X143476561Y-58080116D01*
X143476562Y-58080115D01*
X142250001Y-56853553D01*
X142250000Y-56853553D01*
X141023436Y-58080115D01*
X126226562Y-58080115D01*
X125000001Y-56853553D01*
X125000000Y-56853553D01*
X123773436Y-58080115D01*
X119726562Y-58080115D01*
X118500001Y-56853553D01*
X118500000Y-56853553D01*
X117273436Y-58080115D01*
X115500500Y-58080115D01*
X115500500Y-56500001D01*
X116494891Y-56500001D01*
X116515300Y-56785362D01*
X116576109Y-57064895D01*
X116676091Y-57332958D01*
X116813191Y-57584038D01*
X116813196Y-57584046D01*
X116919882Y-57726561D01*
X116919883Y-57726562D01*
X118096718Y-56549728D01*
X118250000Y-56549728D01*
X118288060Y-56641614D01*
X118358386Y-56711940D01*
X118450272Y-56750000D01*
X118549728Y-56750000D01*
X118641614Y-56711940D01*
X118711940Y-56641614D01*
X118750000Y-56549728D01*
X118750000Y-56500000D01*
X118853553Y-56500000D01*
X120080115Y-57726562D01*
X120080116Y-57726561D01*
X120186803Y-57584047D01*
X120323908Y-57332958D01*
X120423890Y-57064895D01*
X120484699Y-56785362D01*
X120505109Y-56500001D01*
X122994891Y-56500001D01*
X123015300Y-56785362D01*
X123076109Y-57064895D01*
X123176091Y-57332958D01*
X123313191Y-57584038D01*
X123313196Y-57584046D01*
X123419882Y-57726561D01*
X123419883Y-57726562D01*
X124596718Y-56549728D01*
X124750000Y-56549728D01*
X124788060Y-56641614D01*
X124858386Y-56711940D01*
X124950272Y-56750000D01*
X125049728Y-56750000D01*
X125141614Y-56711940D01*
X125211940Y-56641614D01*
X125250000Y-56549728D01*
X125250000Y-56500000D01*
X125353553Y-56500000D01*
X126580115Y-57726562D01*
X126580116Y-57726561D01*
X126686803Y-57584047D01*
X126823908Y-57332958D01*
X126923890Y-57064895D01*
X126984699Y-56785362D01*
X127005109Y-56500001D01*
X140244891Y-56500001D01*
X140265300Y-56785362D01*
X140326109Y-57064895D01*
X140426091Y-57332958D01*
X140563191Y-57584038D01*
X140563196Y-57584046D01*
X140669882Y-57726561D01*
X140669883Y-57726562D01*
X141846718Y-56549728D01*
X142000000Y-56549728D01*
X142038060Y-56641614D01*
X142108386Y-56711940D01*
X142200272Y-56750000D01*
X142299728Y-56750000D01*
X142391614Y-56711940D01*
X142461940Y-56641614D01*
X142500000Y-56549728D01*
X142500000Y-56450272D01*
X142461940Y-56358386D01*
X142391614Y-56288060D01*
X142299728Y-56250000D01*
X142200272Y-56250000D01*
X142108386Y-56288060D01*
X142038060Y-56358386D01*
X142000000Y-56450272D01*
X142000000Y-56549728D01*
X141846718Y-56549728D01*
X141896446Y-56500000D01*
X141896446Y-56499999D01*
X140669883Y-55273436D01*
X140669882Y-55273437D01*
X140563196Y-55415953D01*
X140563191Y-55415961D01*
X140426091Y-55667041D01*
X140326109Y-55935104D01*
X140265300Y-56214637D01*
X140244891Y-56499998D01*
X140244891Y-56500001D01*
X127005109Y-56500001D01*
X127005109Y-56499998D01*
X126984699Y-56214637D01*
X126923890Y-55935104D01*
X126823908Y-55667041D01*
X126686808Y-55415961D01*
X126686807Y-55415960D01*
X126580115Y-55273436D01*
X125353553Y-56499999D01*
X125353553Y-56500000D01*
X125250000Y-56500000D01*
X125250000Y-56450272D01*
X125211940Y-56358386D01*
X125141614Y-56288060D01*
X125049728Y-56250000D01*
X124950272Y-56250000D01*
X124858386Y-56288060D01*
X124788060Y-56358386D01*
X124750000Y-56450272D01*
X124750000Y-56549728D01*
X124596718Y-56549728D01*
X124646446Y-56500000D01*
X124646446Y-56499999D01*
X123419883Y-55273436D01*
X123419882Y-55273437D01*
X123313196Y-55415953D01*
X123313191Y-55415961D01*
X123176091Y-55667041D01*
X123076109Y-55935104D01*
X123015300Y-56214637D01*
X122994891Y-56499998D01*
X122994891Y-56500001D01*
X120505109Y-56500001D01*
X120505109Y-56499998D01*
X120484699Y-56214637D01*
X120423890Y-55935104D01*
X120323908Y-55667041D01*
X120186808Y-55415961D01*
X120186807Y-55415960D01*
X120080115Y-55273436D01*
X118853553Y-56499999D01*
X118853553Y-56500000D01*
X118750000Y-56500000D01*
X118750000Y-56450272D01*
X118711940Y-56358386D01*
X118641614Y-56288060D01*
X118549728Y-56250000D01*
X118450272Y-56250000D01*
X118358386Y-56288060D01*
X118288060Y-56358386D01*
X118250000Y-56450272D01*
X118250000Y-56549728D01*
X118096718Y-56549728D01*
X118146446Y-56500000D01*
X118146446Y-56499999D01*
X116919883Y-55273436D01*
X116919882Y-55273437D01*
X116813196Y-55415953D01*
X116813191Y-55415961D01*
X116676091Y-55667041D01*
X116576109Y-55935104D01*
X116515300Y-56214637D01*
X116494891Y-56499998D01*
X116494891Y-56500001D01*
X115500500Y-56500001D01*
X115500500Y-54919883D01*
X117273436Y-54919883D01*
X118500000Y-56146446D01*
X118500001Y-56146446D01*
X119726562Y-54919883D01*
X123773436Y-54919883D01*
X125000000Y-56146446D01*
X125000001Y-56146446D01*
X126226562Y-54919883D01*
X141023436Y-54919883D01*
X142250000Y-56146446D01*
X142250001Y-56146446D01*
X143476562Y-54919883D01*
X143476561Y-54919882D01*
X143334046Y-54813196D01*
X143334038Y-54813191D01*
X143082957Y-54676091D01*
X143082958Y-54676091D01*
X142814895Y-54576109D01*
X142535362Y-54515300D01*
X142250001Y-54494891D01*
X142249999Y-54494891D01*
X141964637Y-54515300D01*
X141685104Y-54576109D01*
X141417041Y-54676091D01*
X141165961Y-54813191D01*
X141165953Y-54813196D01*
X141023437Y-54919882D01*
X141023436Y-54919883D01*
X126226562Y-54919883D01*
X126226561Y-54919882D01*
X126084046Y-54813196D01*
X126084038Y-54813191D01*
X125832957Y-54676091D01*
X125832958Y-54676091D01*
X125564895Y-54576109D01*
X125285362Y-54515300D01*
X125000001Y-54494891D01*
X124999999Y-54494891D01*
X124714637Y-54515300D01*
X124435104Y-54576109D01*
X124167041Y-54676091D01*
X123915961Y-54813191D01*
X123915953Y-54813196D01*
X123773437Y-54919882D01*
X123773436Y-54919883D01*
X119726562Y-54919883D01*
X119726561Y-54919882D01*
X119584046Y-54813196D01*
X119584038Y-54813191D01*
X119332957Y-54676091D01*
X119332958Y-54676091D01*
X119064895Y-54576109D01*
X118785362Y-54515300D01*
X118500001Y-54494891D01*
X118499999Y-54494891D01*
X118214637Y-54515300D01*
X117935104Y-54576109D01*
X117667041Y-54676091D01*
X117415961Y-54813191D01*
X117415953Y-54813196D01*
X117273437Y-54919882D01*
X117273436Y-54919883D01*
X115500500Y-54919883D01*
X115500500Y-51121288D01*
X117149500Y-51121288D01*
X117166084Y-51247263D01*
X117181162Y-51361789D01*
X117199239Y-51429254D01*
X117243947Y-51596104D01*
X117292015Y-51712150D01*
X117336776Y-51820212D01*
X117458064Y-52030289D01*
X117458066Y-52030292D01*
X117458067Y-52030293D01*
X117605733Y-52222736D01*
X117605739Y-52222743D01*
X117777256Y-52394260D01*
X117777262Y-52394265D01*
X117969711Y-52541936D01*
X118179788Y-52663224D01*
X118403900Y-52756054D01*
X118638211Y-52818838D01*
X118818586Y-52842584D01*
X118878711Y-52850500D01*
X118878712Y-52850500D01*
X119121289Y-52850500D01*
X119171406Y-52843902D01*
X119361789Y-52818838D01*
X119596100Y-52756054D01*
X119820212Y-52663224D01*
X120030289Y-52541936D01*
X120222738Y-52394265D01*
X120394265Y-52222738D01*
X120541936Y-52030289D01*
X120663224Y-51820212D01*
X120756054Y-51596100D01*
X120818838Y-51361789D01*
X120850500Y-51121288D01*
X120850500Y-50878712D01*
X120818838Y-50638211D01*
X120756054Y-50403900D01*
X120663224Y-50179788D01*
X120541936Y-49969711D01*
X120465362Y-49869917D01*
X120394266Y-49777263D01*
X120394260Y-49777256D01*
X120222743Y-49605739D01*
X120222736Y-49605733D01*
X120030293Y-49458067D01*
X120030292Y-49458066D01*
X120030289Y-49458064D01*
X119820212Y-49336776D01*
X119820205Y-49336773D01*
X119596104Y-49243947D01*
X119361785Y-49181161D01*
X119121289Y-49149500D01*
X119121288Y-49149500D01*
X118878712Y-49149500D01*
X118878711Y-49149500D01*
X118638214Y-49181161D01*
X118403895Y-49243947D01*
X118179794Y-49336773D01*
X118179785Y-49336777D01*
X117969706Y-49458067D01*
X117777263Y-49605733D01*
X117777256Y-49605739D01*
X117605739Y-49777256D01*
X117605733Y-49777263D01*
X117458067Y-49969706D01*
X117336777Y-50179785D01*
X117336773Y-50179794D01*
X117243947Y-50403895D01*
X117181161Y-50638214D01*
X117149500Y-50878711D01*
X117149500Y-51121288D01*
X115500500Y-51121288D01*
X115500500Y-47624500D01*
X115520185Y-47557461D01*
X115572989Y-47511706D01*
X115624500Y-47500500D01*
X169375500Y-47500500D01*
X169442539Y-47520185D01*
G37*
%TD.AperFunction*%
%TA.AperFunction,Conductor*%
G36*
X133248386Y-139778060D02*
G01*
X133178060Y-139848386D01*
X133140000Y-139940272D01*
X133140000Y-139864000D01*
X133159685Y-139796961D01*
X133212489Y-139751206D01*
X133264000Y-139740000D01*
X133340272Y-139740000D01*
X133248386Y-139778060D01*
G37*
%TD.AperFunction*%
%TA.AperFunction,Conductor*%
G36*
X133583039Y-139759685D02*
G01*
X133628794Y-139812489D01*
X133640000Y-139864000D01*
X133640000Y-139940272D01*
X133601940Y-139848386D01*
X133531614Y-139778060D01*
X133439728Y-139740000D01*
X133516000Y-139740000D01*
X133583039Y-139759685D01*
G37*
%TD.AperFunction*%
%TA.AperFunction,Conductor*%
G36*
X128168386Y-124538060D02*
G01*
X128098060Y-124608386D01*
X128060000Y-124700272D01*
X128060000Y-124624000D01*
X128079685Y-124556961D01*
X128132489Y-124511206D01*
X128184000Y-124500000D01*
X128260272Y-124500000D01*
X128168386Y-124538060D01*
G37*
%TD.AperFunction*%
%TA.AperFunction,Conductor*%
G36*
X128503039Y-124519685D02*
G01*
X128548794Y-124572489D01*
X128560000Y-124624000D01*
X128560000Y-124700272D01*
X128521940Y-124608386D01*
X128451614Y-124538060D01*
X128359728Y-124500000D01*
X128436000Y-124500000D01*
X128503039Y-124519685D01*
G37*
%TD.AperFunction*%
%TA.AperFunction,Conductor*%
G36*
X146655703Y-52729003D02*
G01*
X146691919Y-52782857D01*
X146712642Y-52843905D01*
X146840219Y-53102606D01*
X146840223Y-53102613D01*
X147000478Y-53342452D01*
X147190672Y-53559327D01*
X147407546Y-53749520D01*
X147647389Y-53909778D01*
X147906098Y-54037359D01*
X148179247Y-54130081D01*
X148462161Y-54186356D01*
X148750000Y-54205222D01*
X149037839Y-54186356D01*
X149320753Y-54130081D01*
X149593902Y-54037359D01*
X149852611Y-53909778D01*
X150092454Y-53749520D01*
X150309327Y-53559327D01*
X150499520Y-53342454D01*
X150557548Y-53255608D01*
X150611160Y-53210804D01*
X150660650Y-53200500D01*
X156451374Y-53200500D01*
X156518413Y-53220185D01*
X156539055Y-53236819D01*
X162263181Y-58960945D01*
X162296666Y-59022268D01*
X162299500Y-59048626D01*
X162299500Y-122031373D01*
X162279815Y-122098412D01*
X162263181Y-122119054D01*
X161821459Y-122560775D01*
X161760136Y-122594260D01*
X161695462Y-122591026D01*
X161681367Y-122586446D01*
X161448097Y-122549500D01*
X161448092Y-122549500D01*
X161211908Y-122549500D01*
X161211903Y-122549500D01*
X160978631Y-122586446D01*
X160754003Y-122659433D01*
X160543566Y-122766657D01*
X160450719Y-122834115D01*
X160352490Y-122905483D01*
X160352488Y-122905485D01*
X160352487Y-122905485D01*
X160202181Y-123055792D01*
X160140858Y-123089277D01*
X160071166Y-123084293D01*
X160015233Y-123042421D01*
X159990816Y-122976957D01*
X159990500Y-122968111D01*
X159990500Y-116945513D01*
X159960940Y-116758881D01*
X159902545Y-116579163D01*
X159816759Y-116410800D01*
X159759837Y-116332453D01*
X159705690Y-116257926D01*
X154547764Y-111100000D01*
X157224592Y-111100000D01*
X157244201Y-111386680D01*
X157302666Y-111668034D01*
X157302667Y-111668037D01*
X157398894Y-111938793D01*
X157398893Y-111938793D01*
X157531098Y-112193935D01*
X157696812Y-112428700D01*
X157781923Y-112519831D01*
X157892947Y-112638708D01*
X158115853Y-112820055D01*
X158312042Y-112939361D01*
X158361382Y-112969365D01*
X158548237Y-113050526D01*
X158624942Y-113083844D01*
X158901642Y-113161371D01*
X159151920Y-113195771D01*
X159186321Y-113200500D01*
X159186322Y-113200500D01*
X159473679Y-113200500D01*
X159504370Y-113196281D01*
X159758358Y-113161371D01*
X160035058Y-113083844D01*
X160148015Y-113034779D01*
X160298617Y-112969365D01*
X160298620Y-112969363D01*
X160298625Y-112969361D01*
X160544147Y-112820055D01*
X160767053Y-112638708D01*
X160963189Y-112428698D01*
X161128901Y-112193936D01*
X161261104Y-111938797D01*
X161357334Y-111668032D01*
X161415798Y-111386686D01*
X161435408Y-111100000D01*
X161415798Y-110813314D01*
X161357334Y-110531968D01*
X161261105Y-110261206D01*
X161261106Y-110261206D01*
X161128901Y-110006064D01*
X160963187Y-109771299D01*
X160884554Y-109687105D01*
X160767053Y-109561292D01*
X160544147Y-109379945D01*
X160544146Y-109379944D01*
X160298617Y-109230634D01*
X160035063Y-109116158D01*
X160035061Y-109116157D01*
X160035058Y-109116156D01*
X159905578Y-109079877D01*
X159758364Y-109038630D01*
X159758359Y-109038629D01*
X159758358Y-109038629D01*
X159540103Y-109008630D01*
X159473679Y-108999500D01*
X159473678Y-108999500D01*
X159186322Y-108999500D01*
X159186321Y-108999500D01*
X158901642Y-109038629D01*
X158901635Y-109038630D01*
X158732014Y-109086156D01*
X158624942Y-109116156D01*
X158624939Y-109116156D01*
X158624936Y-109116158D01*
X158624935Y-109116158D01*
X158361382Y-109230634D01*
X158115853Y-109379944D01*
X157892950Y-109561289D01*
X157696812Y-109771299D01*
X157531098Y-110006064D01*
X157398894Y-110261206D01*
X157302667Y-110531962D01*
X157302666Y-110531965D01*
X157244201Y-110813319D01*
X157224592Y-111100000D01*
X154547764Y-111100000D01*
X140992074Y-97544310D01*
X140839199Y-97433240D01*
X140670836Y-97347454D01*
X140491118Y-97289059D01*
X140304486Y-97259500D01*
X140304481Y-97259500D01*
X130221997Y-97259500D01*
X130154958Y-97239815D01*
X130149112Y-97235818D01*
X130067682Y-97176656D01*
X130063531Y-97174112D01*
X130064297Y-97172861D01*
X130018266Y-97129378D01*
X130001476Y-97061555D01*
X130024020Y-96995422D01*
X130052477Y-96966559D01*
X130128139Y-96911587D01*
X130128145Y-96911582D01*
X130272832Y-96766895D01*
X130272832Y-96766894D01*
X130393109Y-96601349D01*
X130486005Y-96419029D01*
X130549240Y-96224413D01*
X130557859Y-96170000D01*
X128630978Y-96170000D01*
X128722864Y-96131940D01*
X128793190Y-96061614D01*
X128831250Y-95969728D01*
X128831250Y-95870272D01*
X128793190Y-95778386D01*
X128722864Y-95708060D01*
X128630978Y-95670000D01*
X128531522Y-95670000D01*
X128439636Y-95708060D01*
X128369310Y-95778386D01*
X128331250Y-95870272D01*
X128331250Y-94620000D01*
X128831250Y-94620000D01*
X128831250Y-95670000D01*
X130557859Y-95670000D01*
X130549240Y-95615586D01*
X130486005Y-95420970D01*
X130393109Y-95238650D01*
X130272832Y-95073105D01*
X130272832Y-95073104D01*
X130128145Y-94928417D01*
X129962599Y-94808140D01*
X129780281Y-94715244D01*
X129585667Y-94652009D01*
X129383567Y-94620000D01*
X128831250Y-94620000D01*
X128331250Y-94620000D01*
X127877126Y-94620000D01*
X127810087Y-94600315D01*
X127764332Y-94547511D01*
X127754388Y-94478353D01*
X127783413Y-94414797D01*
X127789445Y-94408319D01*
X127960945Y-94236819D01*
X128022268Y-94203334D01*
X128048626Y-94200500D01*
X129701374Y-94200500D01*
X129768413Y-94220185D01*
X129789055Y-94236819D01*
X131217927Y-95665690D01*
X131370801Y-95776760D01*
X131450347Y-95817290D01*
X131539163Y-95862545D01*
X131539165Y-95862545D01*
X131539168Y-95862547D01*
X131635497Y-95893846D01*
X131718881Y-95920940D01*
X131905514Y-95950500D01*
X131905519Y-95950500D01*
X149844486Y-95950500D01*
X150031118Y-95920940D01*
X150210832Y-95862547D01*
X150379199Y-95776760D01*
X150532074Y-95665690D01*
X152656297Y-93541465D01*
X152717620Y-93507981D01*
X152787312Y-93512965D01*
X152843245Y-93554837D01*
X152867662Y-93620301D01*
X152878657Y-93774027D01*
X152878658Y-93774034D01*
X152934921Y-94032673D01*
X153027426Y-94280690D01*
X153027428Y-94280694D01*
X153154280Y-94513005D01*
X153154285Y-94513013D01*
X153312906Y-94724907D01*
X153312922Y-94724925D01*
X153500074Y-94912077D01*
X153500092Y-94912093D01*
X153711986Y-95070714D01*
X153711994Y-95070719D01*
X153944305Y-95197571D01*
X153944309Y-95197573D01*
X153944311Y-95197574D01*
X154192322Y-95290077D01*
X154192325Y-95290077D01*
X154192326Y-95290078D01*
X154387552Y-95332546D01*
X154450974Y-95346343D01*
X154694660Y-95363772D01*
X154714999Y-95365227D01*
X154715000Y-95365227D01*
X154715001Y-95365227D01*
X154733885Y-95363876D01*
X154979026Y-95346343D01*
X155237678Y-95290077D01*
X155485689Y-95197574D01*
X155718011Y-95070716D01*
X155929915Y-94912087D01*
X156117087Y-94724915D01*
X156275716Y-94513011D01*
X156402574Y-94280689D01*
X156495077Y-94032678D01*
X156551343Y-93774026D01*
X156568876Y-93528885D01*
X156570227Y-93510001D01*
X156570227Y-93509998D01*
X156567525Y-93472230D01*
X156551343Y-93245974D01*
X156495077Y-92987322D01*
X156402574Y-92739311D01*
X156275716Y-92506989D01*
X156275714Y-92506986D01*
X156117093Y-92295092D01*
X156117077Y-92295074D01*
X155929925Y-92107922D01*
X155929907Y-92107906D01*
X155718013Y-91949285D01*
X155718005Y-91949280D01*
X155485694Y-91822428D01*
X155485690Y-91822426D01*
X155237673Y-91729921D01*
X154979034Y-91673658D01*
X154979027Y-91673657D01*
X154825300Y-91662662D01*
X154759835Y-91638245D01*
X154717964Y-91582311D01*
X154712980Y-91512620D01*
X154746463Y-91451299D01*
X155297762Y-90900000D01*
X157224592Y-90900000D01*
X157244201Y-91186680D01*
X157302666Y-91468034D01*
X157302667Y-91468037D01*
X157398894Y-91738793D01*
X157398893Y-91738793D01*
X157531098Y-91993935D01*
X157696812Y-92228700D01*
X157715422Y-92248626D01*
X157892947Y-92438708D01*
X158115853Y-92620055D01*
X158311950Y-92739305D01*
X158361382Y-92769365D01*
X158548237Y-92850526D01*
X158624942Y-92883844D01*
X158901642Y-92961371D01*
X159151920Y-92995771D01*
X159186321Y-93000500D01*
X159186322Y-93000500D01*
X159473679Y-93000500D01*
X159504370Y-92996281D01*
X159758358Y-92961371D01*
X160035058Y-92883844D01*
X160148015Y-92834779D01*
X160298617Y-92769365D01*
X160298620Y-92769363D01*
X160298625Y-92769361D01*
X160544147Y-92620055D01*
X160767053Y-92438708D01*
X160963189Y-92228698D01*
X161128901Y-91993936D01*
X161261104Y-91738797D01*
X161357334Y-91468032D01*
X161415798Y-91186686D01*
X161435408Y-90900000D01*
X161415798Y-90613314D01*
X161357334Y-90331968D01*
X161261105Y-90061206D01*
X161261106Y-90061206D01*
X161128901Y-89806064D01*
X160963187Y-89571299D01*
X160884554Y-89487105D01*
X160767053Y-89361292D01*
X160555640Y-89189295D01*
X160544146Y-89179944D01*
X160298617Y-89030634D01*
X160035063Y-88916158D01*
X160035061Y-88916157D01*
X160035058Y-88916156D01*
X159905578Y-88879877D01*
X159758364Y-88838630D01*
X159758359Y-88838629D01*
X159758358Y-88838629D01*
X159616018Y-88819064D01*
X159473679Y-88799500D01*
X159473678Y-88799500D01*
X159186322Y-88799500D01*
X159186321Y-88799500D01*
X158901642Y-88838629D01*
X158901635Y-88838630D01*
X158693861Y-88896845D01*
X158624942Y-88916156D01*
X158624939Y-88916156D01*
X158624936Y-88916158D01*
X158624935Y-88916158D01*
X158361382Y-89030634D01*
X158115853Y-89179944D01*
X157892950Y-89361289D01*
X157892947Y-89361291D01*
X157892947Y-89361292D01*
X157884215Y-89370642D01*
X157696812Y-89571299D01*
X157531098Y-89806064D01*
X157398894Y-90061206D01*
X157302667Y-90331962D01*
X157302666Y-90331965D01*
X157244201Y-90613319D01*
X157224592Y-90900000D01*
X155297762Y-90900000D01*
X160915690Y-85282074D01*
X161026760Y-85129199D01*
X161112547Y-84960832D01*
X161170940Y-84781118D01*
X161186147Y-84685104D01*
X161200500Y-84594486D01*
X161200500Y-68655513D01*
X161170940Y-68468881D01*
X161112545Y-68289163D01*
X161026759Y-68120800D01*
X160986142Y-68064895D01*
X160915690Y-67967926D01*
X151782074Y-58834310D01*
X151629199Y-58723240D01*
X151460836Y-58637454D01*
X151281118Y-58579059D01*
X151094486Y-58549500D01*
X151094481Y-58549500D01*
X149655645Y-58549500D01*
X149588606Y-58529815D01*
X149542851Y-58477011D01*
X149532907Y-58407853D01*
X149561932Y-58344297D01*
X149596218Y-58316668D01*
X149834047Y-58186803D01*
X149976561Y-58080116D01*
X149976562Y-58080115D01*
X148750000Y-56853553D01*
X148608387Y-56711940D01*
X148700272Y-56750000D01*
X148799728Y-56750000D01*
X148891614Y-56711940D01*
X148961940Y-56641614D01*
X149000000Y-56549728D01*
X149000000Y-56500000D01*
X149103553Y-56500000D01*
X150330115Y-57726562D01*
X150330116Y-57726561D01*
X150436803Y-57584047D01*
X150573908Y-57332958D01*
X150673890Y-57064895D01*
X150734699Y-56785362D01*
X150755109Y-56500001D01*
X150755109Y-56499998D01*
X150734699Y-56214637D01*
X150673890Y-55935104D01*
X150573908Y-55667041D01*
X150436808Y-55415961D01*
X150436807Y-55415960D01*
X150330115Y-55273436D01*
X149103553Y-56499999D01*
X149103553Y-56500000D01*
X149000000Y-56500000D01*
X149000000Y-56450272D01*
X148961940Y-56358386D01*
X148891614Y-56288060D01*
X148799728Y-56250000D01*
X148700272Y-56250000D01*
X148608386Y-56288060D01*
X148538060Y-56358386D01*
X148500000Y-56450272D01*
X148500000Y-56549728D01*
X148538059Y-56641612D01*
X147169882Y-55273436D01*
X147063196Y-55415953D01*
X147063191Y-55415961D01*
X146926091Y-55667041D01*
X146826109Y-55935104D01*
X146765300Y-56214637D01*
X146756551Y-56336965D01*
X146732134Y-56402429D01*
X146676200Y-56444300D01*
X146606508Y-56449284D01*
X146545186Y-56415799D01*
X146486819Y-56357432D01*
X146453334Y-56296109D01*
X146450500Y-56269751D01*
X146450500Y-54919883D01*
X147523436Y-54919883D01*
X148750000Y-56146446D01*
X148750001Y-56146446D01*
X149976562Y-54919883D01*
X149976561Y-54919882D01*
X149834046Y-54813196D01*
X149834038Y-54813191D01*
X149582957Y-54676091D01*
X149582958Y-54676091D01*
X149314895Y-54576109D01*
X149035362Y-54515300D01*
X148750001Y-54494891D01*
X148749999Y-54494891D01*
X148464637Y-54515300D01*
X148185104Y-54576109D01*
X147917041Y-54676091D01*
X147665961Y-54813191D01*
X147665953Y-54813196D01*
X147523437Y-54919882D01*
X147523436Y-54919883D01*
X146450500Y-54919883D01*
X146450500Y-52822716D01*
X146470185Y-52755677D01*
X146522989Y-52709922D01*
X146592147Y-52699978D01*
X146655703Y-52729003D01*
G37*
%TD.AperFunction*%
%TA.AperFunction,Conductor*%
G36*
X128369310Y-96061614D02*
G01*
X128439636Y-96131940D01*
X128531522Y-96170000D01*
X128455250Y-96170000D01*
X128388211Y-96150315D01*
X128342456Y-96097511D01*
X128331250Y-96046000D01*
X128331250Y-95969728D01*
X128369310Y-96061614D01*
G37*
%TD.AperFunction*%
%TA.AperFunction,Conductor*%
G36*
X157515871Y-76294318D02*
G01*
X157549356Y-76355641D01*
X157544372Y-76425333D01*
X157515871Y-76469680D01*
X157461942Y-76523608D01*
X157500000Y-76431728D01*
X157500000Y-76332272D01*
X157461940Y-76240387D01*
X157515871Y-76294318D01*
G37*
%TD.AperFunction*%
%TD*%
M02*
