M48
; DRILL file {KiCad 8.0.1} date 2024-05-21T16:55:47+0100
; FORMAT={-:-/ absolute / inch / decimal}
; #@! TF.CreationDate,2024-05-21T16:55:47+01:00
; #@! TF.GenerationSoftware,Kicad,Pcbnew,8.0.1
; #@! TF.FileFunction,Plated,1,2,PTH
FMAT,2
INCH
; #@! TA.AperFunction,Plated,PTH,ComponentDrill
T1C0.0197
; #@! TA.AperFunction,Plated,PTH,ComponentDrill
T2C0.0260
%
G90
G05
T1
X4.6654Y-2.2244
X4.6654Y-2.4016
X4.9213Y-2.2244
X4.9213Y-2.4016
X4.9516Y-4.9114
X4.9516Y-5.5114
X5.0516Y-4.9114
X5.0516Y-5.5114
X5.0623Y-3.7764
X5.0623Y-3.8764
X5.0623Y-3.9764
X5.0623Y-4.0764
X5.0623Y-4.1764
X5.1516Y-4.9114
X5.1516Y-5.5114
X5.2461Y-2.83
X5.2461Y-3.0072
X5.2516Y-4.9114
X5.2516Y-5.5114
X5.3516Y-4.9114
X5.3516Y-5.5114
X5.4516Y-4.9114
X5.4516Y-5.5114
X5.502Y-2.83
X5.502Y-3.0072
X5.5516Y-4.9114
X5.5516Y-5.5114
X5.5906Y-2.4803
X5.5906Y-2.6575
X5.5906Y-3.1791
X5.5906Y-3.3563
X5.6004Y-2.0472
X5.6004Y-2.2244
X5.6516Y-4.9114
X5.6516Y-5.5114
X5.7516Y-4.9114
X5.7516Y-5.5114
X5.8465Y-2.4803
X5.8465Y-2.6575
X5.8465Y-3.1791
X5.8465Y-3.3563
X5.8516Y-4.9114
X5.8516Y-5.5114
X5.8563Y-2.0472
X5.8563Y-2.2244
X5.935Y-2.83
X5.935Y-3.0072
X5.9516Y-4.9114
X5.9516Y-5.5114
X6.0516Y-4.9114
X6.0516Y-5.5114
X6.1516Y-4.9114
X6.1516Y-5.5114
X6.1909Y-2.83
X6.1909Y-3.0072
X6.2516Y-4.9114
X6.2516Y-5.5114
X6.3516Y-4.9114
X6.3516Y-5.5114
T2
G00X5.3661Y-4.6965
M15
G01X5.4295Y-4.6965
M16
G05
G00X5.8732Y-4.6965
M15
G01X5.9366Y-4.6965
M16
G05
M30
