M48
; DRILL file {KiCad 8.0.2} date 2024-05-13T00:31:23+0100
; FORMAT={-:-/ absolute / metric / decimal}
; #@! TF.CreationDate,2024-05-13T00:31:23+01:00
; #@! TF.GenerationSoftware,Kicad,Pcbnew,8.0.2
; #@! TF.FileFunction,Plated,1,2,PTH
FMAT,2
METRIC
; #@! TA.AperFunction,Plated,PTH,ComponentDrill
T1C0.660
; #@! TA.AperFunction,Plated,PTH,ComponentDrill
T2C1.000
; #@! TA.AperFunction,Plated,PTH,ComponentDrill
T3C1.100
; #@! TA.AperFunction,Plated,PTH,ComponentDrill
T4C1.143
%
G90
G05
T2
X123.8Y-126.5
X123.8Y-141.74
X126.34Y-126.5
X126.34Y-141.74
X128.88Y-126.5
X128.88Y-141.74
X131.42Y-126.5
X131.42Y-141.74
X133.96Y-126.5
X133.96Y-141.74
X136.5Y-126.5
X136.5Y-141.74
X139.04Y-126.5
X139.04Y-141.74
X141.58Y-126.5
X141.58Y-141.74
X144.12Y-126.5
X144.12Y-141.74
X146.66Y-126.5
X146.66Y-141.74
X149.2Y-126.5
X149.2Y-141.74
X151.74Y-126.5
X151.74Y-141.74
X154.28Y-126.5
X154.28Y-141.74
X156.82Y-126.5
X156.82Y-141.74
X159.36Y-126.5
X159.36Y-141.74
T3
X120.5Y-56.5
X120.5Y-61.0
X127.0Y-56.5
X127.0Y-61.0
X133.25Y-71.882
X133.25Y-76.382
X139.75Y-71.882
X139.75Y-76.382
X142.118Y-63.0
X142.118Y-67.5
X142.118Y-80.75
X142.118Y-85.25
X148.618Y-63.0
X148.618Y-67.5
X148.618Y-80.75
X148.618Y-85.25
X148.896Y-49.058
X148.896Y-53.558
X150.75Y-71.882
X150.75Y-76.382
X155.396Y-49.058
X155.396Y-53.558
X157.25Y-71.882
X157.25Y-76.382
T4
X128.581Y-95.92
X128.581Y-98.46
X128.581Y-101.0
X128.581Y-103.54
X128.581Y-106.08
T1
G00X137.945Y-119.75
M15
G01X139.555Y-119.75
M16
G05
G00X150.825Y-119.75
M15
G01X152.435Y-119.75
M16
G05
M30
