%TF.GenerationSoftware,KiCad,Pcbnew,8.0.2*%
%TF.CreationDate,2024-05-12T00:24:23+01:00*%
%TF.ProjectId,Right_Controller_PCB_Bluetooth,52696768-745f-4436-9f6e-74726f6c6c65,V1.1*%
%TF.SameCoordinates,Original*%
%TF.FileFunction,Copper,L1,Top*%
%TF.FilePolarity,Positive*%
%FSLAX46Y46*%
G04 Gerber Fmt 4.6, Leading zero omitted, Abs format (unit mm)*
G04 Created by KiCad (PCBNEW 8.0.2) date 2024-05-12 00:24:23*
%MOMM*%
%LPD*%
G01*
G04 APERTURE LIST*
%ADD10C,0.300000*%
%TA.AperFunction,NonConductor*%
%ADD11C,0.300000*%
%TD*%
%TA.AperFunction,ComponentPad*%
%ADD12C,1.524000*%
%TD*%
%TA.AperFunction,ComponentPad*%
%ADD13C,2.000000*%
%TD*%
%TA.AperFunction,ComponentPad*%
%ADD14R,1.600000X1.600000*%
%TD*%
%TA.AperFunction,ComponentPad*%
%ADD15O,1.600000X1.600000*%
%TD*%
%TA.AperFunction,WasherPad*%
%ADD16C,2.300000*%
%TD*%
%TA.AperFunction,ComponentPad*%
%ADD17R,4.020000X2.410000*%
%TD*%
%TA.AperFunction,ComponentPad*%
%ADD18O,4.020000X2.410000*%
%TD*%
%TA.AperFunction,Conductor*%
%ADD19C,0.900000*%
%TD*%
%TA.AperFunction,Conductor*%
%ADD20C,1.000000*%
%TD*%
G04 APERTURE END LIST*
D10*
D11*
X156840225Y-145550828D02*
X157340225Y-147050828D01*
X157340225Y-147050828D02*
X157840225Y-145550828D01*
X159125939Y-147050828D02*
X158268796Y-147050828D01*
X158697367Y-147050828D02*
X158697367Y-145550828D01*
X158697367Y-145550828D02*
X158554510Y-145765114D01*
X158554510Y-145765114D02*
X158411653Y-145907971D01*
X158411653Y-145907971D02*
X158268796Y-145979400D01*
X159768795Y-146907971D02*
X159840224Y-146979400D01*
X159840224Y-146979400D02*
X159768795Y-147050828D01*
X159768795Y-147050828D02*
X159697367Y-146979400D01*
X159697367Y-146979400D02*
X159768795Y-146907971D01*
X159768795Y-146907971D02*
X159768795Y-147050828D01*
X161268796Y-147050828D02*
X160411653Y-147050828D01*
X160840224Y-147050828D02*
X160840224Y-145550828D01*
X160840224Y-145550828D02*
X160697367Y-145765114D01*
X160697367Y-145765114D02*
X160554510Y-145907971D01*
X160554510Y-145907971D02*
X160411653Y-145979400D01*
D12*
%TO.P,JoystickR1,1,GND*%
%TO.N,GND*%
X129081250Y-95920000D03*
%TO.P,JoystickR1,2,+5V*%
%TO.N,+3.3V*%
X129081250Y-98460000D03*
%TO.P,JoystickR1,3,VRX*%
%TO.N,/Analog_X_R*%
X129081250Y-101000000D03*
%TO.P,JoystickR1,4,VRY*%
%TO.N,/Analog_Y_R*%
X129081250Y-103540000D03*
%TO.P,JoystickR1,5,SW*%
%TO.N,/SEL_JOY_R*%
X129081250Y-106080000D03*
%TD*%
D13*
%TO.P,START_R1,1,1*%
%TO.N,/START_R*%
X127202000Y-61686000D03*
X120702000Y-61686000D03*
%TO.P,START_R1,2,2*%
%TO.N,GND*%
X127202000Y-57186000D03*
X120702000Y-57186000D03*
%TD*%
%TO.P,A1,1,1*%
%TO.N,/A*%
X142598000Y-81788000D03*
X149098000Y-81788000D03*
%TO.P,A1,2,2*%
%TO.N,GND*%
X142598000Y-86288000D03*
X149098000Y-86288000D03*
%TD*%
%TO.P,X1,1,1*%
%TO.N,GND*%
X133454000Y-71882000D03*
X139954000Y-71882000D03*
%TO.P,X1,2,2*%
%TO.N,/X*%
X133454000Y-76382000D03*
X139954000Y-76382000D03*
%TD*%
%TO.P,RIGHT_SHOULDER1,1,1*%
%TO.N,/RIGHT_SHOULDER*%
X148896000Y-49058000D03*
X155396000Y-49058000D03*
%TO.P,RIGHT_SHOULDER1,2,2*%
%TO.N,GND*%
X148896000Y-53558000D03*
X155396000Y-53558000D03*
%TD*%
%TO.P,B1,1,1*%
%TO.N,/B*%
X150980000Y-71882000D03*
X157480000Y-71882000D03*
%TO.P,B1,2,2*%
%TO.N,GND*%
X150980000Y-76382000D03*
X157480000Y-76382000D03*
%TD*%
%TO.P,Y1,1,1*%
%TO.N,/Y*%
X142598000Y-61976000D03*
X149098000Y-61976000D03*
%TO.P,Y1,2,2*%
%TO.N,GND*%
X142598000Y-66476000D03*
X149098000Y-66476000D03*
%TD*%
D14*
%TO.P,CentralBoard1,1,D1/TX*%
%TO.N,unconnected-(CentralBoard1-D1{slash}TX-Pad1)*%
X159360000Y-141740000D03*
D15*
%TO.P,CentralBoard1,2,D0/RX*%
%TO.N,unconnected-(CentralBoard1-D0{slash}RX-Pad2)*%
X156820000Y-141740000D03*
%TO.P,CentralBoard1,3,~{RESET}*%
%TO.N,unconnected-(CentralBoard1-~{RESET}-Pad3)*%
X154280000Y-141740000D03*
%TO.P,CentralBoard1,4,GND*%
%TO.N,GND*%
X151740000Y-141740000D03*
%TO.P,CentralBoard1,5,D2*%
%TO.N,/Y*%
X149200000Y-141740000D03*
%TO.P,CentralBoard1,6,D3*%
%TO.N,/B*%
X146660000Y-141740000D03*
%TO.P,CentralBoard1,7,D4*%
%TO.N,/A*%
X144120000Y-141740000D03*
%TO.P,CentralBoard1,8,D5*%
%TO.N,/X*%
X141580000Y-141740000D03*
%TO.P,CentralBoard1,9,D6*%
%TO.N,/SEL_JOY_R*%
X139040000Y-141740000D03*
%TO.P,CentralBoard1,10,D7*%
%TO.N,/START_R*%
X136500000Y-141740000D03*
%TO.P,CentralBoard1,11,D8*%
%TO.N,unconnected-(CentralBoard1-D8-Pad11)*%
X133960000Y-141740000D03*
%TO.P,CentralBoard1,12,D9*%
%TO.N,unconnected-(CentralBoard1-D9-Pad12)*%
X131420000Y-141740000D03*
%TO.P,CentralBoard1,13,D10*%
%TO.N,unconnected-(CentralBoard1-D10-Pad13)*%
X128880000Y-141740000D03*
%TO.P,CentralBoard1,14,D11*%
%TO.N,unconnected-(CentralBoard1-D11-Pad14)*%
X126340000Y-141740000D03*
%TO.P,CentralBoard1,15,D12*%
%TO.N,unconnected-(CentralBoard1-D12-Pad15)*%
X123800000Y-141740000D03*
%TO.P,CentralBoard1,16,D13*%
%TO.N,/RIGHT_SHOULDER*%
X123800000Y-126500000D03*
%TO.P,CentralBoard1,17,3V3*%
%TO.N,+3.3V*%
X126340000Y-126500000D03*
%TO.P,CentralBoard1,18,AREF*%
%TO.N,unconnected-(CentralBoard1-AREF-Pad18)*%
X128880000Y-126500000D03*
%TO.P,CentralBoard1,19,A0*%
%TO.N,/Analog_X_R*%
X131420000Y-126500000D03*
%TO.P,CentralBoard1,20,A1*%
%TO.N,/Analog_Y_R*%
X133960000Y-126500000D03*
%TO.P,CentralBoard1,21,A2*%
%TO.N,unconnected-(CentralBoard1-A2-Pad21)*%
X136500000Y-126500000D03*
%TO.P,CentralBoard1,22,A3*%
%TO.N,unconnected-(CentralBoard1-A3-Pad22)*%
X139040000Y-126500000D03*
%TO.P,CentralBoard1,23,A4*%
%TO.N,unconnected-(CentralBoard1-A4-Pad23)*%
X141580000Y-126500000D03*
%TO.P,CentralBoard1,24,A5*%
%TO.N,unconnected-(CentralBoard1-A5-Pad24)*%
X144120000Y-126500000D03*
%TO.P,CentralBoard1,25,A6*%
%TO.N,unconnected-(CentralBoard1-A6-Pad25)*%
X146660000Y-126500000D03*
%TO.P,CentralBoard1,26,A7*%
%TO.N,unconnected-(CentralBoard1-A7-Pad26)*%
X149200000Y-126500000D03*
%TO.P,CentralBoard1,27,+5V*%
%TO.N,unconnected-(CentralBoard1-+5V-Pad27)*%
X151740000Y-126500000D03*
%TO.P,CentralBoard1,28,~{RESET}*%
%TO.N,unconnected-(CentralBoard1-~{RESET}-Pad28)*%
X154280000Y-126500000D03*
%TO.P,CentralBoard1,29,GND*%
%TO.N,GND*%
X156820000Y-126500000D03*
%TO.P,CentralBoard1,30,VIN*%
%TO.N,+9V*%
X159360000Y-126500000D03*
%TD*%
D16*
%TO.P,BAT9V1,*%
%TO.N,*%
X134010000Y-107460000D03*
X156360000Y-93970000D03*
X134010000Y-80490000D03*
D17*
%TO.P,BAT9V1,1,+*%
%TO.N,+9V*%
X151630000Y-119750000D03*
D18*
%TO.P,BAT9V1,2,-*%
%TO.N,GND*%
X138750000Y-119750000D03*
%TD*%
D19*
%TO.N,+9V*%
X153124000Y-119750000D02*
X159360000Y-125986000D01*
X159360000Y-125986000D02*
X159360000Y-126500000D01*
X151630000Y-119750000D02*
X153124000Y-119750000D01*
D20*
%TO.N,GND*%
X133308000Y-57186000D02*
X142598000Y-66476000D01*
X139954000Y-69120000D02*
X142598000Y-66476000D01*
X129081250Y-90206750D02*
X129081250Y-96170000D01*
D19*
X154736258Y-123625000D02*
X156820000Y-125708742D01*
X138750000Y-119750000D02*
X138750000Y-121166000D01*
D20*
X146480000Y-71882000D02*
X139954000Y-71882000D01*
X133000000Y-86288000D02*
X129081250Y-90206750D01*
X133000000Y-86288000D02*
X130143250Y-83431250D01*
X130143250Y-75192750D02*
X133454000Y-71882000D01*
X149098000Y-86288000D02*
X146812000Y-84002000D01*
X142598000Y-86288000D02*
X133000000Y-86288000D01*
X148896000Y-53558000D02*
X136936000Y-53558000D01*
X139954000Y-71882000D02*
X139954000Y-69120000D01*
D19*
X156820000Y-125708742D02*
X156820000Y-126500000D01*
D20*
X127202000Y-57186000D02*
X133308000Y-57186000D01*
X146812000Y-80550000D02*
X150980000Y-76382000D01*
X130143250Y-83431250D02*
X130143250Y-75192750D01*
X150980000Y-76382000D02*
X146480000Y-71882000D01*
X136936000Y-53558000D02*
X133308000Y-57186000D01*
D19*
X138750000Y-121166000D02*
X141209000Y-123625000D01*
D20*
X146812000Y-84002000D02*
X146812000Y-80550000D01*
D19*
X141209000Y-123625000D02*
X154736258Y-123625000D01*
D20*
%TO.N,/A*%
X165354000Y-89662000D02*
X165354000Y-132321236D01*
X157480000Y-81788000D02*
X165354000Y-89662000D01*
X144120000Y-139090000D02*
X144120000Y-141740000D01*
X149098000Y-81788000D02*
X157480000Y-81788000D01*
X162039236Y-135636000D02*
X147574000Y-135636000D01*
X147574000Y-135636000D02*
X144120000Y-139090000D01*
X165354000Y-132321236D02*
X162039236Y-135636000D01*
%TO.N,/B*%
X148590000Y-137414000D02*
X146660000Y-139344000D01*
X163031403Y-137414000D02*
X148590000Y-137414000D01*
X167132000Y-81534000D02*
X167132000Y-133313403D01*
X167132000Y-133313403D02*
X163031403Y-137414000D01*
X157480000Y-71882000D02*
X167132000Y-81534000D01*
X146660000Y-139344000D02*
X146660000Y-141740000D01*
%TO.N,/Analog_X_R*%
X125222000Y-103917456D02*
X128139456Y-101000000D01*
X128846562Y-101250000D02*
X129081250Y-101250000D01*
X125222000Y-118972000D02*
X125222000Y-103917456D01*
X131420000Y-126500000D02*
X131420000Y-125170000D01*
X131420000Y-125170000D02*
X125222000Y-118972000D01*
X128139456Y-101000000D02*
X129081250Y-101000000D01*
%TO.N,/Analog_Y_R*%
X133960000Y-126500000D02*
X133960000Y-125070000D01*
X127119250Y-118229250D02*
X127119250Y-104424370D01*
X129081250Y-103790000D02*
X128846562Y-103790000D01*
X133960000Y-125070000D02*
X127119250Y-118229250D01*
X128003620Y-103540000D02*
X129081250Y-103540000D01*
X127119250Y-104424370D02*
X128003620Y-103540000D01*
%TO.N,/Y*%
X150497117Y-139311513D02*
X149200000Y-140608630D01*
X168910000Y-78232000D02*
X168910000Y-133959299D01*
X168910000Y-133959299D02*
X163557786Y-139311513D01*
X149098000Y-61976000D02*
X152654000Y-61976000D01*
X149200000Y-140608630D02*
X149200000Y-141740000D01*
X152654000Y-61976000D02*
X168910000Y-78232000D01*
X163557786Y-139311513D02*
X150497117Y-139311513D01*
%TO.N,/X*%
X141580000Y-138328000D02*
X141580000Y-141740000D01*
X145034000Y-80010000D02*
X145034000Y-91440000D01*
X163576000Y-130810000D02*
X160782000Y-133604000D01*
X163576000Y-109982000D02*
X163576000Y-130810000D01*
X139954000Y-76382000D02*
X141406000Y-76382000D01*
X145034000Y-91440000D02*
X163576000Y-109982000D01*
X146304000Y-133604000D02*
X141580000Y-138328000D01*
X160782000Y-133604000D02*
X146304000Y-133604000D01*
X141406000Y-76382000D02*
X145034000Y-80010000D01*
%TO.N,/RIGHT_SHOULDER*%
X123800000Y-124478000D02*
X121158000Y-121836000D01*
X123750000Y-65750000D02*
X123750000Y-55658000D01*
X123800000Y-126500000D02*
X123800000Y-124478000D01*
X130350000Y-49058000D02*
X148980000Y-49058000D01*
X121158000Y-68342000D02*
X123750000Y-65750000D01*
X123750000Y-55658000D02*
X130350000Y-49058000D01*
X121158000Y-121836000D02*
X121158000Y-68342000D01*
%TO.N,/START_R*%
X133072000Y-131572000D02*
X122936000Y-131572000D01*
X118618000Y-63770000D02*
X120702000Y-61686000D01*
X118618000Y-127254000D02*
X118618000Y-63770000D01*
X122936000Y-131572000D02*
X118618000Y-127254000D01*
X136500000Y-135000000D02*
X133072000Y-131572000D01*
X136500000Y-141740000D02*
X136500000Y-135000000D01*
%TO.N,+3.3V*%
X123190000Y-103273620D02*
X128003620Y-98460000D01*
X126340000Y-123800000D02*
X123190000Y-120650000D01*
X126340000Y-126500000D02*
X126340000Y-123800000D01*
X128003620Y-98460000D02*
X129081250Y-98460000D01*
X123190000Y-120650000D02*
X123190000Y-103273620D01*
%TO.N,/SEL_JOY_R*%
X161798000Y-129794000D02*
X161798000Y-123753544D01*
X161798000Y-123753544D02*
X141294456Y-103250000D01*
X144780000Y-131826000D02*
X159766000Y-131826000D01*
X133750000Y-103250000D02*
X130920000Y-106080000D01*
X139040000Y-137646000D02*
X139000000Y-137606000D01*
X141294456Y-103250000D02*
X133750000Y-103250000D01*
X130920000Y-106080000D02*
X129081250Y-106080000D01*
X139040000Y-141740000D02*
X139040000Y-137646000D01*
X139000000Y-137606000D02*
X144780000Y-131826000D01*
X159766000Y-131826000D02*
X161798000Y-129794000D01*
%TD*%
%TA.AperFunction,Conductor*%
%TO.N,GND*%
G36*
X117705703Y-128039913D02*
G01*
X117712181Y-128045945D01*
X122153926Y-132487690D01*
X122306801Y-132598760D01*
X122475168Y-132684547D01*
X122654882Y-132742940D01*
X122724870Y-132754025D01*
X122841513Y-132772500D01*
X122841518Y-132772500D01*
X122841519Y-132772500D01*
X132523374Y-132772500D01*
X132590413Y-132792185D01*
X132611055Y-132808819D01*
X135263181Y-135460945D01*
X135296666Y-135522268D01*
X135299500Y-135548626D01*
X135299500Y-140661825D01*
X135279815Y-140728864D01*
X135227011Y-140774619D01*
X135157853Y-140784563D01*
X135094297Y-140755538D01*
X135084270Y-140745808D01*
X134979744Y-140632262D01*
X134783509Y-140479526D01*
X134783507Y-140479525D01*
X134783506Y-140479524D01*
X134564811Y-140361172D01*
X134564802Y-140361169D01*
X134329616Y-140280429D01*
X134084335Y-140239500D01*
X133835665Y-140239500D01*
X133590383Y-140280429D01*
X133355197Y-140361169D01*
X133355188Y-140361172D01*
X133136493Y-140479524D01*
X132940257Y-140632261D01*
X132781230Y-140805010D01*
X132721342Y-140841001D01*
X132651504Y-140838900D01*
X132598770Y-140805010D01*
X132528672Y-140728864D01*
X132439744Y-140632262D01*
X132243509Y-140479526D01*
X132243507Y-140479525D01*
X132243506Y-140479524D01*
X132024811Y-140361172D01*
X132024802Y-140361169D01*
X131789616Y-140280429D01*
X131544335Y-140239500D01*
X131295665Y-140239500D01*
X131050383Y-140280429D01*
X130815197Y-140361169D01*
X130815188Y-140361172D01*
X130596493Y-140479524D01*
X130400257Y-140632261D01*
X130241230Y-140805010D01*
X130181342Y-140841001D01*
X130111504Y-140838900D01*
X130058770Y-140805010D01*
X129988672Y-140728864D01*
X129899744Y-140632262D01*
X129703509Y-140479526D01*
X129703507Y-140479525D01*
X129703506Y-140479524D01*
X129484811Y-140361172D01*
X129484802Y-140361169D01*
X129249616Y-140280429D01*
X129004335Y-140239500D01*
X128755665Y-140239500D01*
X128510383Y-140280429D01*
X128275197Y-140361169D01*
X128275188Y-140361172D01*
X128056493Y-140479524D01*
X127860257Y-140632261D01*
X127701230Y-140805010D01*
X127641342Y-140841001D01*
X127571504Y-140838900D01*
X127518770Y-140805010D01*
X127448672Y-140728864D01*
X127359744Y-140632262D01*
X127163509Y-140479526D01*
X127163507Y-140479525D01*
X127163506Y-140479524D01*
X126944811Y-140361172D01*
X126944802Y-140361169D01*
X126709616Y-140280429D01*
X126464335Y-140239500D01*
X126215665Y-140239500D01*
X125970383Y-140280429D01*
X125735197Y-140361169D01*
X125735188Y-140361172D01*
X125516493Y-140479524D01*
X125320257Y-140632261D01*
X125161230Y-140805010D01*
X125101342Y-140841001D01*
X125031504Y-140838900D01*
X124978770Y-140805010D01*
X124908672Y-140728864D01*
X124819744Y-140632262D01*
X124623509Y-140479526D01*
X124623507Y-140479525D01*
X124623506Y-140479524D01*
X124404811Y-140361172D01*
X124404802Y-140361169D01*
X124169616Y-140280429D01*
X123924335Y-140239500D01*
X123675665Y-140239500D01*
X123430383Y-140280429D01*
X123195197Y-140361169D01*
X123195188Y-140361172D01*
X122976493Y-140479524D01*
X122780257Y-140632261D01*
X122611833Y-140815217D01*
X122475826Y-141023393D01*
X122375936Y-141251118D01*
X122314892Y-141492175D01*
X122314890Y-141492187D01*
X122294357Y-141739994D01*
X122294357Y-141740005D01*
X122314890Y-141987812D01*
X122314892Y-141987824D01*
X122375936Y-142228881D01*
X122475826Y-142456606D01*
X122611833Y-142664782D01*
X122611835Y-142664784D01*
X122611836Y-142664785D01*
X122780256Y-142847738D01*
X122976491Y-143000474D01*
X123195190Y-143118828D01*
X123430386Y-143199571D01*
X123675665Y-143240500D01*
X123924335Y-143240500D01*
X124169614Y-143199571D01*
X124404810Y-143118828D01*
X124623509Y-143000474D01*
X124819744Y-142847738D01*
X124978771Y-142674988D01*
X125038657Y-142638999D01*
X125108495Y-142641099D01*
X125161228Y-142674988D01*
X125320256Y-142847738D01*
X125516491Y-143000474D01*
X125735190Y-143118828D01*
X125970386Y-143199571D01*
X126215665Y-143240500D01*
X126464335Y-143240500D01*
X126709614Y-143199571D01*
X126944810Y-143118828D01*
X127163509Y-143000474D01*
X127359744Y-142847738D01*
X127518771Y-142674988D01*
X127578657Y-142638999D01*
X127648495Y-142641099D01*
X127701228Y-142674988D01*
X127860256Y-142847738D01*
X128056491Y-143000474D01*
X128275190Y-143118828D01*
X128510386Y-143199571D01*
X128755665Y-143240500D01*
X129004335Y-143240500D01*
X129249614Y-143199571D01*
X129484810Y-143118828D01*
X129703509Y-143000474D01*
X129899744Y-142847738D01*
X130058771Y-142674988D01*
X130118657Y-142638999D01*
X130188495Y-142641099D01*
X130241228Y-142674988D01*
X130400256Y-142847738D01*
X130596491Y-143000474D01*
X130815190Y-143118828D01*
X131050386Y-143199571D01*
X131295665Y-143240500D01*
X131544335Y-143240500D01*
X131789614Y-143199571D01*
X132024810Y-143118828D01*
X132243509Y-143000474D01*
X132439744Y-142847738D01*
X132598771Y-142674988D01*
X132658657Y-142638999D01*
X132728495Y-142641099D01*
X132781228Y-142674988D01*
X132940256Y-142847738D01*
X133136491Y-143000474D01*
X133355190Y-143118828D01*
X133590386Y-143199571D01*
X133835665Y-143240500D01*
X134084335Y-143240500D01*
X134329614Y-143199571D01*
X134564810Y-143118828D01*
X134783509Y-143000474D01*
X134979744Y-142847738D01*
X135138771Y-142674988D01*
X135198657Y-142638999D01*
X135268495Y-142641099D01*
X135321228Y-142674988D01*
X135480256Y-142847738D01*
X135676491Y-143000474D01*
X135895190Y-143118828D01*
X136130386Y-143199571D01*
X136375665Y-143240500D01*
X136624335Y-143240500D01*
X136869614Y-143199571D01*
X137104810Y-143118828D01*
X137323509Y-143000474D01*
X137519744Y-142847738D01*
X137678771Y-142674988D01*
X137738657Y-142638999D01*
X137808495Y-142641099D01*
X137861228Y-142674988D01*
X138020256Y-142847738D01*
X138216491Y-143000474D01*
X138435190Y-143118828D01*
X138670386Y-143199571D01*
X138915665Y-143240500D01*
X139164335Y-143240500D01*
X139409614Y-143199571D01*
X139644810Y-143118828D01*
X139863509Y-143000474D01*
X140059744Y-142847738D01*
X140218771Y-142674988D01*
X140278657Y-142638999D01*
X140348495Y-142641099D01*
X140401228Y-142674988D01*
X140560256Y-142847738D01*
X140756491Y-143000474D01*
X140975190Y-143118828D01*
X141210386Y-143199571D01*
X141455665Y-143240500D01*
X141704335Y-143240500D01*
X141949614Y-143199571D01*
X142184810Y-143118828D01*
X142403509Y-143000474D01*
X142599744Y-142847738D01*
X142758771Y-142674988D01*
X142818657Y-142638999D01*
X142888495Y-142641099D01*
X142941228Y-142674988D01*
X143100256Y-142847738D01*
X143296491Y-143000474D01*
X143515190Y-143118828D01*
X143750386Y-143199571D01*
X143995665Y-143240500D01*
X144244335Y-143240500D01*
X144489614Y-143199571D01*
X144724810Y-143118828D01*
X144943509Y-143000474D01*
X145139744Y-142847738D01*
X145298771Y-142674988D01*
X145358657Y-142638999D01*
X145428495Y-142641099D01*
X145481228Y-142674988D01*
X145640256Y-142847738D01*
X145836491Y-143000474D01*
X146055190Y-143118828D01*
X146290386Y-143199571D01*
X146535665Y-143240500D01*
X146784335Y-143240500D01*
X147029614Y-143199571D01*
X147264810Y-143118828D01*
X147483509Y-143000474D01*
X147679744Y-142847738D01*
X147838771Y-142674988D01*
X147898657Y-142638999D01*
X147968495Y-142641099D01*
X148021228Y-142674988D01*
X148180256Y-142847738D01*
X148376491Y-143000474D01*
X148595190Y-143118828D01*
X148830386Y-143199571D01*
X149075665Y-143240500D01*
X149324335Y-143240500D01*
X149569614Y-143199571D01*
X149804810Y-143118828D01*
X150023509Y-143000474D01*
X150219744Y-142847738D01*
X150388164Y-142664785D01*
X150486957Y-142513569D01*
X150540103Y-142468213D01*
X150609334Y-142458789D01*
X150672670Y-142488291D01*
X150692341Y-142510268D01*
X150740339Y-142578817D01*
X150901179Y-142739657D01*
X151087517Y-142870134D01*
X151293673Y-142966265D01*
X151293682Y-142966269D01*
X151489999Y-143018872D01*
X151490000Y-143018871D01*
X151490000Y-142173012D01*
X151547007Y-142205925D01*
X151674174Y-142240000D01*
X151805826Y-142240000D01*
X151932993Y-142205925D01*
X151990000Y-142173012D01*
X151990000Y-143018872D01*
X152186317Y-142966269D01*
X152186326Y-142966265D01*
X152392482Y-142870134D01*
X152578820Y-142739657D01*
X152739658Y-142578819D01*
X152787657Y-142510269D01*
X152842234Y-142466643D01*
X152911732Y-142459449D01*
X152974087Y-142490971D01*
X152993042Y-142513569D01*
X153091836Y-142664785D01*
X153260256Y-142847738D01*
X153456491Y-143000474D01*
X153675190Y-143118828D01*
X153910386Y-143199571D01*
X154155665Y-143240500D01*
X154404335Y-143240500D01*
X154649614Y-143199571D01*
X154884810Y-143118828D01*
X155103509Y-143000474D01*
X155299744Y-142847738D01*
X155458771Y-142674988D01*
X155518657Y-142638999D01*
X155588495Y-142641099D01*
X155641228Y-142674988D01*
X155800256Y-142847738D01*
X155996491Y-143000474D01*
X156215190Y-143118828D01*
X156450386Y-143199571D01*
X156695665Y-143240500D01*
X156944335Y-143240500D01*
X157189614Y-143199571D01*
X157424810Y-143118828D01*
X157643509Y-143000474D01*
X157789310Y-142886992D01*
X157854302Y-142861350D01*
X157922842Y-142874916D01*
X157971587Y-142920695D01*
X158004528Y-142975185D01*
X158004531Y-142975189D01*
X158124811Y-143095469D01*
X158124813Y-143095470D01*
X158124815Y-143095472D01*
X158270394Y-143183478D01*
X158432804Y-143234086D01*
X158503384Y-143240500D01*
X158503387Y-143240500D01*
X160216613Y-143240500D01*
X160216616Y-143240500D01*
X160287196Y-143234086D01*
X160449606Y-143183478D01*
X160595185Y-143095472D01*
X160715472Y-142975185D01*
X160803478Y-142829606D01*
X160854086Y-142667196D01*
X160860500Y-142596616D01*
X160860500Y-140883384D01*
X160854086Y-140812804D01*
X160810490Y-140672899D01*
X160809341Y-140603043D01*
X160846142Y-140543650D01*
X160909211Y-140513582D01*
X160928877Y-140512013D01*
X163652272Y-140512013D01*
X163838904Y-140482453D01*
X163847918Y-140479524D01*
X164018618Y-140424060D01*
X164186985Y-140338273D01*
X164339860Y-140227203D01*
X169287819Y-135279242D01*
X169349142Y-135245758D01*
X169418834Y-135250742D01*
X169474767Y-135292614D01*
X169499184Y-135358078D01*
X169499500Y-135366924D01*
X169499500Y-148375500D01*
X169479815Y-148442539D01*
X169427011Y-148488294D01*
X169375500Y-148499500D01*
X117624500Y-148499500D01*
X117557461Y-148479815D01*
X117511706Y-148427011D01*
X117500500Y-148375500D01*
X117500500Y-147908053D01*
X155983000Y-147908053D01*
X162124296Y-147908053D01*
X162124296Y-144885258D01*
X164249500Y-144885258D01*
X164249500Y-145114741D01*
X164274446Y-145304215D01*
X164279452Y-145342238D01*
X164279453Y-145342240D01*
X164338842Y-145563887D01*
X164426650Y-145775876D01*
X164426657Y-145775890D01*
X164541392Y-145974617D01*
X164681081Y-146156661D01*
X164681089Y-146156670D01*
X164843330Y-146318911D01*
X164843338Y-146318918D01*
X165025382Y-146458607D01*
X165025385Y-146458608D01*
X165025388Y-146458611D01*
X165224112Y-146573344D01*
X165224117Y-146573346D01*
X165224123Y-146573349D01*
X165315480Y-146611190D01*
X165436113Y-146661158D01*
X165657762Y-146720548D01*
X165885266Y-146750500D01*
X165885273Y-146750500D01*
X166114727Y-146750500D01*
X166114734Y-146750500D01*
X166342238Y-146720548D01*
X166563887Y-146661158D01*
X166775888Y-146573344D01*
X166974612Y-146458611D01*
X167156661Y-146318919D01*
X167156665Y-146318914D01*
X167156670Y-146318911D01*
X167318911Y-146156670D01*
X167318914Y-146156665D01*
X167318919Y-146156661D01*
X167458611Y-145974612D01*
X167573344Y-145775888D01*
X167661158Y-145563887D01*
X167720548Y-145342238D01*
X167750500Y-145114734D01*
X167750500Y-144885266D01*
X167720548Y-144657762D01*
X167661158Y-144436113D01*
X167573344Y-144224112D01*
X167458611Y-144025388D01*
X167458608Y-144025385D01*
X167458607Y-144025382D01*
X167318918Y-143843338D01*
X167318911Y-143843330D01*
X167156670Y-143681089D01*
X167156661Y-143681081D01*
X166974617Y-143541392D01*
X166775890Y-143426657D01*
X166775876Y-143426650D01*
X166563887Y-143338842D01*
X166342238Y-143279452D01*
X166304215Y-143274446D01*
X166114741Y-143249500D01*
X166114734Y-143249500D01*
X165885266Y-143249500D01*
X165885258Y-143249500D01*
X165668715Y-143278009D01*
X165657762Y-143279452D01*
X165564076Y-143304554D01*
X165436112Y-143338842D01*
X165224123Y-143426650D01*
X165224109Y-143426657D01*
X165025382Y-143541392D01*
X164843338Y-143681081D01*
X164681081Y-143843338D01*
X164541392Y-144025382D01*
X164426657Y-144224109D01*
X164426650Y-144224123D01*
X164338842Y-144436112D01*
X164279453Y-144657759D01*
X164279451Y-144657770D01*
X164249500Y-144885258D01*
X162124296Y-144885258D01*
X162124296Y-144692484D01*
X155983000Y-144692484D01*
X155983000Y-147908053D01*
X117500500Y-147908053D01*
X117500500Y-144885258D01*
X119249500Y-144885258D01*
X119249500Y-145114741D01*
X119274446Y-145304215D01*
X119279452Y-145342238D01*
X119279453Y-145342240D01*
X119338842Y-145563887D01*
X119426650Y-145775876D01*
X119426657Y-145775890D01*
X119541392Y-145974617D01*
X119681081Y-146156661D01*
X119681089Y-146156670D01*
X119843330Y-146318911D01*
X119843338Y-146318918D01*
X120025382Y-146458607D01*
X120025385Y-146458608D01*
X120025388Y-146458611D01*
X120224112Y-146573344D01*
X120224117Y-146573346D01*
X120224123Y-146573349D01*
X120315480Y-146611190D01*
X120436113Y-146661158D01*
X120657762Y-146720548D01*
X120885266Y-146750500D01*
X120885273Y-146750500D01*
X121114727Y-146750500D01*
X121114734Y-146750500D01*
X121342238Y-146720548D01*
X121563887Y-146661158D01*
X121775888Y-146573344D01*
X121974612Y-146458611D01*
X122156661Y-146318919D01*
X122156665Y-146318914D01*
X122156670Y-146318911D01*
X122318911Y-146156670D01*
X122318914Y-146156665D01*
X122318919Y-146156661D01*
X122458611Y-145974612D01*
X122573344Y-145775888D01*
X122661158Y-145563887D01*
X122720548Y-145342238D01*
X122750500Y-145114734D01*
X122750500Y-144885266D01*
X122720548Y-144657762D01*
X122661158Y-144436113D01*
X122573344Y-144224112D01*
X122458611Y-144025388D01*
X122458608Y-144025385D01*
X122458607Y-144025382D01*
X122318918Y-143843338D01*
X122318911Y-143843330D01*
X122156670Y-143681089D01*
X122156661Y-143681081D01*
X121974617Y-143541392D01*
X121775890Y-143426657D01*
X121775876Y-143426650D01*
X121563887Y-143338842D01*
X121342238Y-143279452D01*
X121304215Y-143274446D01*
X121114741Y-143249500D01*
X121114734Y-143249500D01*
X120885266Y-143249500D01*
X120885258Y-143249500D01*
X120668715Y-143278009D01*
X120657762Y-143279452D01*
X120564076Y-143304554D01*
X120436112Y-143338842D01*
X120224123Y-143426650D01*
X120224109Y-143426657D01*
X120025382Y-143541392D01*
X119843338Y-143681081D01*
X119681081Y-143843338D01*
X119541392Y-144025382D01*
X119426657Y-144224109D01*
X119426650Y-144224123D01*
X119338842Y-144436112D01*
X119279453Y-144657759D01*
X119279451Y-144657770D01*
X119249500Y-144885258D01*
X117500500Y-144885258D01*
X117500500Y-128133626D01*
X117520185Y-128066587D01*
X117572989Y-128020832D01*
X117642147Y-128010888D01*
X117705703Y-128039913D01*
G37*
%TD.AperFunction*%
%TA.AperFunction,Conductor*%
G36*
X120023703Y-122274196D02*
G01*
X120052984Y-122311613D01*
X120131240Y-122465199D01*
X120242310Y-122618074D01*
X120242312Y-122618076D01*
X122563181Y-124938945D01*
X122596666Y-125000268D01*
X122599500Y-125026626D01*
X122599500Y-125557179D01*
X122579815Y-125624218D01*
X122579309Y-125625000D01*
X122475826Y-125783393D01*
X122375936Y-126011118D01*
X122314892Y-126252175D01*
X122314890Y-126252187D01*
X122294357Y-126499994D01*
X122294357Y-126500005D01*
X122314890Y-126747812D01*
X122314892Y-126747824D01*
X122375936Y-126988881D01*
X122475826Y-127216606D01*
X122611833Y-127424782D01*
X122611835Y-127424784D01*
X122611836Y-127424785D01*
X122780256Y-127607738D01*
X122976491Y-127760474D01*
X123195190Y-127878828D01*
X123430386Y-127959571D01*
X123675665Y-128000500D01*
X123924335Y-128000500D01*
X124169614Y-127959571D01*
X124404810Y-127878828D01*
X124623509Y-127760474D01*
X124819744Y-127607738D01*
X124978771Y-127434988D01*
X125038657Y-127398999D01*
X125108495Y-127401099D01*
X125161228Y-127434988D01*
X125320256Y-127607738D01*
X125516491Y-127760474D01*
X125735190Y-127878828D01*
X125970386Y-127959571D01*
X126215665Y-128000500D01*
X126464335Y-128000500D01*
X126709614Y-127959571D01*
X126944810Y-127878828D01*
X127163509Y-127760474D01*
X127359744Y-127607738D01*
X127518771Y-127434988D01*
X127578657Y-127398999D01*
X127648495Y-127401099D01*
X127701228Y-127434988D01*
X127860256Y-127607738D01*
X128056491Y-127760474D01*
X128275190Y-127878828D01*
X128510386Y-127959571D01*
X128755665Y-128000500D01*
X129004335Y-128000500D01*
X129249614Y-127959571D01*
X129484810Y-127878828D01*
X129703509Y-127760474D01*
X129899744Y-127607738D01*
X130058771Y-127434988D01*
X130118657Y-127398999D01*
X130188495Y-127401099D01*
X130241228Y-127434988D01*
X130400256Y-127607738D01*
X130596491Y-127760474D01*
X130815190Y-127878828D01*
X131050386Y-127959571D01*
X131295665Y-128000500D01*
X131544335Y-128000500D01*
X131789614Y-127959571D01*
X132024810Y-127878828D01*
X132243509Y-127760474D01*
X132439744Y-127607738D01*
X132598771Y-127434988D01*
X132658657Y-127398999D01*
X132728495Y-127401099D01*
X132781228Y-127434988D01*
X132940256Y-127607738D01*
X133136491Y-127760474D01*
X133355190Y-127878828D01*
X133590386Y-127959571D01*
X133835665Y-128000500D01*
X134084335Y-128000500D01*
X134329614Y-127959571D01*
X134564810Y-127878828D01*
X134783509Y-127760474D01*
X134979744Y-127607738D01*
X135138771Y-127434988D01*
X135198657Y-127398999D01*
X135268495Y-127401099D01*
X135321228Y-127434988D01*
X135480256Y-127607738D01*
X135676491Y-127760474D01*
X135895190Y-127878828D01*
X136130386Y-127959571D01*
X136375665Y-128000500D01*
X136624335Y-128000500D01*
X136869614Y-127959571D01*
X137104810Y-127878828D01*
X137323509Y-127760474D01*
X137519744Y-127607738D01*
X137678771Y-127434988D01*
X137738657Y-127398999D01*
X137808495Y-127401099D01*
X137861228Y-127434988D01*
X138020256Y-127607738D01*
X138216491Y-127760474D01*
X138435190Y-127878828D01*
X138670386Y-127959571D01*
X138915665Y-128000500D01*
X139164335Y-128000500D01*
X139409614Y-127959571D01*
X139644810Y-127878828D01*
X139863509Y-127760474D01*
X140059744Y-127607738D01*
X140218771Y-127434988D01*
X140278657Y-127398999D01*
X140348495Y-127401099D01*
X140401228Y-127434988D01*
X140560256Y-127607738D01*
X140756491Y-127760474D01*
X140975190Y-127878828D01*
X141210386Y-127959571D01*
X141455665Y-128000500D01*
X141704335Y-128000500D01*
X141949614Y-127959571D01*
X142184810Y-127878828D01*
X142403509Y-127760474D01*
X142599744Y-127607738D01*
X142758771Y-127434988D01*
X142818657Y-127398999D01*
X142888495Y-127401099D01*
X142941228Y-127434988D01*
X143100256Y-127607738D01*
X143296491Y-127760474D01*
X143515190Y-127878828D01*
X143750386Y-127959571D01*
X143995665Y-128000500D01*
X144244335Y-128000500D01*
X144489614Y-127959571D01*
X144724810Y-127878828D01*
X144943509Y-127760474D01*
X145139744Y-127607738D01*
X145298771Y-127434988D01*
X145358657Y-127398999D01*
X145428495Y-127401099D01*
X145481228Y-127434988D01*
X145640256Y-127607738D01*
X145836491Y-127760474D01*
X146055190Y-127878828D01*
X146290386Y-127959571D01*
X146535665Y-128000500D01*
X146784335Y-128000500D01*
X147029614Y-127959571D01*
X147264810Y-127878828D01*
X147483509Y-127760474D01*
X147679744Y-127607738D01*
X147838771Y-127434988D01*
X147898657Y-127398999D01*
X147968495Y-127401099D01*
X148021228Y-127434988D01*
X148180256Y-127607738D01*
X148376491Y-127760474D01*
X148595190Y-127878828D01*
X148830386Y-127959571D01*
X149075665Y-128000500D01*
X149324335Y-128000500D01*
X149569614Y-127959571D01*
X149804810Y-127878828D01*
X150023509Y-127760474D01*
X150219744Y-127607738D01*
X150378771Y-127434988D01*
X150438657Y-127398999D01*
X150508495Y-127401099D01*
X150561228Y-127434988D01*
X150720256Y-127607738D01*
X150916491Y-127760474D01*
X151135190Y-127878828D01*
X151370386Y-127959571D01*
X151615665Y-128000500D01*
X151864335Y-128000500D01*
X152109614Y-127959571D01*
X152344810Y-127878828D01*
X152563509Y-127760474D01*
X152759744Y-127607738D01*
X152918771Y-127434988D01*
X152978657Y-127398999D01*
X153048495Y-127401099D01*
X153101228Y-127434988D01*
X153260256Y-127607738D01*
X153456491Y-127760474D01*
X153675190Y-127878828D01*
X153910386Y-127959571D01*
X154155665Y-128000500D01*
X154404335Y-128000500D01*
X154649614Y-127959571D01*
X154884810Y-127878828D01*
X155103509Y-127760474D01*
X155299744Y-127607738D01*
X155468164Y-127424785D01*
X155566957Y-127273569D01*
X155620103Y-127228213D01*
X155689334Y-127218789D01*
X155752670Y-127248291D01*
X155772341Y-127270268D01*
X155820339Y-127338817D01*
X155981179Y-127499657D01*
X156167517Y-127630134D01*
X156373673Y-127726265D01*
X156373682Y-127726269D01*
X156569999Y-127778872D01*
X156570000Y-127778871D01*
X156570000Y-126933012D01*
X156627007Y-126965925D01*
X156754174Y-127000000D01*
X156885826Y-127000000D01*
X157012993Y-126965925D01*
X157070000Y-126933012D01*
X157070000Y-127778872D01*
X157266317Y-127726269D01*
X157266326Y-127726265D01*
X157472482Y-127630134D01*
X157658820Y-127499657D01*
X157819658Y-127338819D01*
X157867657Y-127270269D01*
X157922234Y-127226643D01*
X157991732Y-127219449D01*
X158054087Y-127250971D01*
X158073042Y-127273569D01*
X158171836Y-127424785D01*
X158340256Y-127607738D01*
X158536491Y-127760474D01*
X158755190Y-127878828D01*
X158990386Y-127959571D01*
X159235665Y-128000500D01*
X159484335Y-128000500D01*
X159729614Y-127959571D01*
X159964810Y-127878828D01*
X160183509Y-127760474D01*
X160379744Y-127607738D01*
X160382269Y-127604994D01*
X160442155Y-127569003D01*
X160511993Y-127571102D01*
X160569610Y-127610625D01*
X160596713Y-127675024D01*
X160597500Y-127688976D01*
X160597500Y-129245374D01*
X160577815Y-129312413D01*
X160561181Y-129333055D01*
X159305055Y-130589181D01*
X159243732Y-130622666D01*
X159217374Y-130625500D01*
X144685514Y-130625500D01*
X144498881Y-130655059D01*
X144319163Y-130713454D01*
X144150800Y-130799240D01*
X143997923Y-130910312D01*
X138084312Y-136823923D01*
X137973240Y-136976800D01*
X137934985Y-137051880D01*
X137887010Y-137102676D01*
X137819189Y-137119471D01*
X137753054Y-137096933D01*
X137709603Y-137042218D01*
X137700500Y-136995585D01*
X137700500Y-134905513D01*
X137670940Y-134718881D01*
X137612545Y-134539163D01*
X137526759Y-134370800D01*
X137504500Y-134340163D01*
X137504500Y-134340162D01*
X137504498Y-134340161D01*
X137468976Y-134291268D01*
X137415693Y-134217929D01*
X133854076Y-130656312D01*
X133854074Y-130656310D01*
X133701199Y-130545240D01*
X133532836Y-130459454D01*
X133353118Y-130401059D01*
X133166486Y-130371500D01*
X133166481Y-130371500D01*
X123484626Y-130371500D01*
X123417587Y-130351815D01*
X123396945Y-130335181D01*
X119854819Y-126793055D01*
X119821334Y-126731732D01*
X119818500Y-126705374D01*
X119818500Y-122367909D01*
X119838185Y-122300870D01*
X119890989Y-122255115D01*
X119960147Y-122245171D01*
X120023703Y-122274196D01*
G37*
%TD.AperFunction*%
%TA.AperFunction,Conductor*%
G36*
X140812869Y-104470185D02*
G01*
X140833511Y-104486819D01*
X154036702Y-117690010D01*
X154070187Y-117751333D01*
X154065203Y-117821025D01*
X154023331Y-117876958D01*
X153957867Y-117901375D01*
X153912132Y-117896077D01*
X153767196Y-117850914D01*
X153696616Y-117844500D01*
X149563384Y-117844500D01*
X149544145Y-117846248D01*
X149492807Y-117850913D01*
X149330393Y-117901522D01*
X149184811Y-117989530D01*
X149064530Y-118109811D01*
X148976522Y-118255393D01*
X148925913Y-118417807D01*
X148919500Y-118488386D01*
X148919500Y-121011613D01*
X148925913Y-121082192D01*
X148976522Y-121244606D01*
X149064530Y-121390188D01*
X149184811Y-121510469D01*
X149184813Y-121510470D01*
X149184815Y-121510472D01*
X149330394Y-121598478D01*
X149492804Y-121649086D01*
X149563384Y-121655500D01*
X153351085Y-121655500D01*
X153418124Y-121675185D01*
X153438766Y-121691819D01*
X156744134Y-124997187D01*
X156777619Y-125058510D01*
X156772635Y-125128202D01*
X156730763Y-125184135D01*
X156667261Y-125208396D01*
X156593399Y-125214858D01*
X156593389Y-125214860D01*
X156373682Y-125273730D01*
X156373673Y-125273734D01*
X156167517Y-125369865D01*
X155981179Y-125500342D01*
X155820342Y-125661179D01*
X155772341Y-125729732D01*
X155717763Y-125773357D01*
X155648265Y-125780549D01*
X155585910Y-125749027D01*
X155566957Y-125726429D01*
X155468166Y-125575217D01*
X155446557Y-125551744D01*
X155299744Y-125392262D01*
X155103509Y-125239526D01*
X155103507Y-125239525D01*
X155103506Y-125239524D01*
X154884811Y-125121172D01*
X154884802Y-125121169D01*
X154649616Y-125040429D01*
X154404335Y-124999500D01*
X154155665Y-124999500D01*
X153910383Y-125040429D01*
X153675197Y-125121169D01*
X153675188Y-125121172D01*
X153456493Y-125239524D01*
X153260257Y-125392261D01*
X153101230Y-125565010D01*
X153041342Y-125601001D01*
X152971504Y-125598900D01*
X152918770Y-125565010D01*
X152864270Y-125505808D01*
X152759744Y-125392262D01*
X152563509Y-125239526D01*
X152563507Y-125239525D01*
X152563506Y-125239524D01*
X152344811Y-125121172D01*
X152344802Y-125121169D01*
X152109616Y-125040429D01*
X151864335Y-124999500D01*
X151615665Y-124999500D01*
X151370383Y-125040429D01*
X151135197Y-125121169D01*
X151135188Y-125121172D01*
X150916493Y-125239524D01*
X150720257Y-125392261D01*
X150561230Y-125565010D01*
X150501342Y-125601001D01*
X150431504Y-125598900D01*
X150378770Y-125565010D01*
X150324270Y-125505808D01*
X150219744Y-125392262D01*
X150023509Y-125239526D01*
X150023507Y-125239525D01*
X150023506Y-125239524D01*
X149804811Y-125121172D01*
X149804802Y-125121169D01*
X149569616Y-125040429D01*
X149324335Y-124999500D01*
X149075665Y-124999500D01*
X148830383Y-125040429D01*
X148595197Y-125121169D01*
X148595188Y-125121172D01*
X148376493Y-125239524D01*
X148180257Y-125392261D01*
X148021230Y-125565010D01*
X147961342Y-125601001D01*
X147891504Y-125598900D01*
X147838770Y-125565010D01*
X147784270Y-125505808D01*
X147679744Y-125392262D01*
X147483509Y-125239526D01*
X147483507Y-125239525D01*
X147483506Y-125239524D01*
X147264811Y-125121172D01*
X147264802Y-125121169D01*
X147029616Y-125040429D01*
X146784335Y-124999500D01*
X146535665Y-124999500D01*
X146290383Y-125040429D01*
X146055197Y-125121169D01*
X146055188Y-125121172D01*
X145836493Y-125239524D01*
X145640257Y-125392261D01*
X145481230Y-125565010D01*
X145421342Y-125601001D01*
X145351504Y-125598900D01*
X145298770Y-125565010D01*
X145244270Y-125505808D01*
X145139744Y-125392262D01*
X144943509Y-125239526D01*
X144943507Y-125239525D01*
X144943506Y-125239524D01*
X144724811Y-125121172D01*
X144724802Y-125121169D01*
X144489616Y-125040429D01*
X144244335Y-124999500D01*
X143995665Y-124999500D01*
X143750383Y-125040429D01*
X143515197Y-125121169D01*
X143515188Y-125121172D01*
X143296493Y-125239524D01*
X143100257Y-125392261D01*
X142941230Y-125565010D01*
X142881342Y-125601001D01*
X142811504Y-125598900D01*
X142758770Y-125565010D01*
X142704270Y-125505808D01*
X142599744Y-125392262D01*
X142403509Y-125239526D01*
X142403507Y-125239525D01*
X142403506Y-125239524D01*
X142184811Y-125121172D01*
X142184802Y-125121169D01*
X141949616Y-125040429D01*
X141704335Y-124999500D01*
X141455665Y-124999500D01*
X141210383Y-125040429D01*
X140975197Y-125121169D01*
X140975188Y-125121172D01*
X140756493Y-125239524D01*
X140560257Y-125392261D01*
X140401230Y-125565010D01*
X140341342Y-125601001D01*
X140271504Y-125598900D01*
X140218770Y-125565010D01*
X140164270Y-125505808D01*
X140059744Y-125392262D01*
X139863509Y-125239526D01*
X139863507Y-125239525D01*
X139863506Y-125239524D01*
X139644811Y-125121172D01*
X139644802Y-125121169D01*
X139409616Y-125040429D01*
X139164335Y-124999500D01*
X138915665Y-124999500D01*
X138670383Y-125040429D01*
X138435197Y-125121169D01*
X138435188Y-125121172D01*
X138216493Y-125239524D01*
X138020257Y-125392261D01*
X137861230Y-125565010D01*
X137801342Y-125601001D01*
X137731504Y-125598900D01*
X137678770Y-125565010D01*
X137624270Y-125505808D01*
X137519744Y-125392262D01*
X137323509Y-125239526D01*
X137323507Y-125239525D01*
X137323506Y-125239524D01*
X137104811Y-125121172D01*
X137104802Y-125121169D01*
X136869616Y-125040429D01*
X136624335Y-124999500D01*
X136375665Y-124999500D01*
X136130383Y-125040429D01*
X135895197Y-125121169D01*
X135895188Y-125121172D01*
X135676493Y-125239524D01*
X135498500Y-125378062D01*
X135480256Y-125392262D01*
X135380762Y-125500342D01*
X135375730Y-125505808D01*
X135315843Y-125541798D01*
X135246005Y-125539698D01*
X135188388Y-125500174D01*
X135161287Y-125435775D01*
X135160500Y-125421825D01*
X135160500Y-124975513D01*
X135130940Y-124788881D01*
X135072545Y-124609163D01*
X134986759Y-124440800D01*
X134945142Y-124383519D01*
X134945142Y-124383518D01*
X134945140Y-124383517D01*
X134882474Y-124297263D01*
X134875693Y-124287929D01*
X130087764Y-119500000D01*
X136258201Y-119500000D01*
X137728309Y-119500000D01*
X137680934Y-119547375D01*
X137637489Y-119622625D01*
X137615000Y-119706555D01*
X137615000Y-119793445D01*
X137637489Y-119877375D01*
X137680934Y-119952625D01*
X137728309Y-120000000D01*
X136258201Y-120000000D01*
X136269172Y-120083339D01*
X136327020Y-120299230D01*
X136412546Y-120505711D01*
X136412554Y-120505727D01*
X136524298Y-120699272D01*
X136524309Y-120699288D01*
X136660361Y-120876595D01*
X136660367Y-120876602D01*
X136818397Y-121034632D01*
X136818404Y-121034638D01*
X136995711Y-121170690D01*
X136995727Y-121170701D01*
X137189272Y-121282445D01*
X137189288Y-121282453D01*
X137395769Y-121367979D01*
X137611660Y-121425827D01*
X137833238Y-121454998D01*
X137833255Y-121455000D01*
X138500000Y-121455000D01*
X138500000Y-120080000D01*
X139000000Y-120080000D01*
X139000000Y-121455000D01*
X139666745Y-121455000D01*
X139666761Y-121454998D01*
X139888339Y-121425827D01*
X140104230Y-121367979D01*
X140310711Y-121282453D01*
X140310727Y-121282445D01*
X140504272Y-121170701D01*
X140504288Y-121170690D01*
X140681595Y-121034638D01*
X140681602Y-121034632D01*
X140839632Y-120876602D01*
X140839638Y-120876595D01*
X140975690Y-120699288D01*
X140975701Y-120699272D01*
X141087445Y-120505727D01*
X141087453Y-120505711D01*
X141172979Y-120299230D01*
X141230827Y-120083339D01*
X141241799Y-120000000D01*
X139771691Y-120000000D01*
X139819066Y-119952625D01*
X139862511Y-119877375D01*
X139885000Y-119793445D01*
X139885000Y-119706555D01*
X139862511Y-119622625D01*
X139819066Y-119547375D01*
X139771691Y-119500000D01*
X141241798Y-119500000D01*
X141230827Y-119416660D01*
X141172979Y-119200769D01*
X141087453Y-118994288D01*
X141087445Y-118994272D01*
X140975701Y-118800727D01*
X140975690Y-118800711D01*
X140839638Y-118623404D01*
X140839632Y-118623397D01*
X140681602Y-118465367D01*
X140681595Y-118465361D01*
X140504288Y-118329309D01*
X140504272Y-118329298D01*
X140310727Y-118217554D01*
X140310711Y-118217546D01*
X140104230Y-118132020D01*
X139888339Y-118074172D01*
X139666761Y-118045001D01*
X139666745Y-118045000D01*
X139000000Y-118045000D01*
X139000000Y-119420000D01*
X138500000Y-119420000D01*
X138500000Y-118045000D01*
X137833255Y-118045000D01*
X137833238Y-118045001D01*
X137611660Y-118074172D01*
X137395769Y-118132020D01*
X137189288Y-118217546D01*
X137189272Y-118217554D01*
X136995727Y-118329298D01*
X136995711Y-118329309D01*
X136818404Y-118465361D01*
X136818397Y-118465367D01*
X136660367Y-118623397D01*
X136660361Y-118623404D01*
X136524309Y-118800711D01*
X136524298Y-118800727D01*
X136412554Y-118994272D01*
X136412546Y-118994288D01*
X136327020Y-119200769D01*
X136269172Y-119416660D01*
X136258201Y-119500000D01*
X130087764Y-119500000D01*
X128356069Y-117768305D01*
X128322584Y-117706982D01*
X128319750Y-117680624D01*
X128319750Y-107538255D01*
X128339435Y-107471216D01*
X128392239Y-107425461D01*
X128461397Y-107415517D01*
X128486732Y-107422749D01*
X128486906Y-107422243D01*
X128720993Y-107502606D01*
X128720995Y-107502606D01*
X128720997Y-107502607D01*
X128960064Y-107542500D01*
X128960065Y-107542500D01*
X129202435Y-107542500D01*
X129202436Y-107542500D01*
X129441503Y-107502607D01*
X129670743Y-107423908D01*
X129883903Y-107308552D01*
X129886353Y-107306644D01*
X129887533Y-107306179D01*
X129888189Y-107305751D01*
X129888277Y-107305885D01*
X129951348Y-107281004D01*
X129962513Y-107280500D01*
X131014486Y-107280500D01*
X131201118Y-107250940D01*
X131380832Y-107192547D01*
X131549199Y-107106760D01*
X131702074Y-106995690D01*
X132106130Y-106591633D01*
X132167451Y-106558150D01*
X132237142Y-106563134D01*
X132293076Y-106605005D01*
X132317493Y-106670470D01*
X132309991Y-106722649D01*
X132229921Y-106937326D01*
X132173658Y-107195965D01*
X132173657Y-107195972D01*
X132154773Y-107459998D01*
X132154773Y-107460001D01*
X132173657Y-107724027D01*
X132173658Y-107724034D01*
X132229921Y-107982673D01*
X132322426Y-108230690D01*
X132322428Y-108230694D01*
X132449280Y-108463005D01*
X132449285Y-108463013D01*
X132607906Y-108674907D01*
X132607922Y-108674925D01*
X132795074Y-108862077D01*
X132795092Y-108862093D01*
X132890642Y-108933620D01*
X132932514Y-108989553D01*
X132937498Y-109059245D01*
X132904014Y-109120568D01*
X132865734Y-109146621D01*
X132741380Y-109200636D01*
X132495853Y-109349944D01*
X132272950Y-109531289D01*
X132076812Y-109741299D01*
X131911098Y-109976064D01*
X131778894Y-110231206D01*
X131682667Y-110501962D01*
X131682666Y-110501965D01*
X131624201Y-110783319D01*
X131604592Y-111070000D01*
X131624201Y-111356680D01*
X131682666Y-111638034D01*
X131682667Y-111638037D01*
X131778894Y-111908793D01*
X131778893Y-111908793D01*
X131911098Y-112163935D01*
X132076812Y-112398700D01*
X132161923Y-112489831D01*
X132272947Y-112608708D01*
X132309825Y-112638710D01*
X132495853Y-112790055D01*
X132741382Y-112939365D01*
X132928237Y-113020526D01*
X133004942Y-113053844D01*
X133281642Y-113131371D01*
X133531920Y-113165771D01*
X133566321Y-113170500D01*
X133566322Y-113170500D01*
X133853679Y-113170500D01*
X133884370Y-113166281D01*
X134138358Y-113131371D01*
X134415058Y-113053844D01*
X134609549Y-112969365D01*
X134678617Y-112939365D01*
X134678620Y-112939363D01*
X134678625Y-112939361D01*
X134924147Y-112790055D01*
X135147053Y-112608708D01*
X135343189Y-112398698D01*
X135508901Y-112163936D01*
X135641104Y-111908797D01*
X135737334Y-111638032D01*
X135795798Y-111356686D01*
X135815408Y-111070000D01*
X135795798Y-110783314D01*
X135737334Y-110501968D01*
X135641105Y-110231206D01*
X135641106Y-110231206D01*
X135508901Y-109976064D01*
X135343187Y-109741299D01*
X135264554Y-109657105D01*
X135147053Y-109531292D01*
X134924147Y-109349945D01*
X134924146Y-109349944D01*
X134864660Y-109313770D01*
X134817608Y-109262118D01*
X134805951Y-109193228D01*
X134833389Y-109128971D01*
X134869661Y-109098990D01*
X135013011Y-109020716D01*
X135224915Y-108862087D01*
X135412087Y-108674915D01*
X135570716Y-108463011D01*
X135697574Y-108230689D01*
X135790077Y-107982678D01*
X135846343Y-107724026D01*
X135865227Y-107460000D01*
X135846343Y-107195974D01*
X135802774Y-106995690D01*
X135790078Y-106937326D01*
X135697573Y-106689309D01*
X135697571Y-106689305D01*
X135570719Y-106456994D01*
X135570714Y-106456986D01*
X135412093Y-106245092D01*
X135412077Y-106245074D01*
X135224925Y-106057922D01*
X135224907Y-106057906D01*
X135013013Y-105899285D01*
X135013005Y-105899280D01*
X134780694Y-105772428D01*
X134780690Y-105772426D01*
X134532673Y-105679921D01*
X134274034Y-105623658D01*
X134274027Y-105623657D01*
X134010001Y-105604773D01*
X134009999Y-105604773D01*
X133745972Y-105623657D01*
X133745965Y-105623658D01*
X133487326Y-105679921D01*
X133272649Y-105759991D01*
X133202957Y-105764975D01*
X133141634Y-105731490D01*
X133108150Y-105670166D01*
X133113134Y-105600475D01*
X133141633Y-105556130D01*
X134210945Y-104486819D01*
X134272268Y-104453334D01*
X134298626Y-104450500D01*
X140745830Y-104450500D01*
X140812869Y-104470185D01*
G37*
%TD.AperFunction*%
%TA.AperFunction,Conductor*%
G36*
X154326765Y-47520185D02*
G01*
X154372520Y-47572989D01*
X154382464Y-47642147D01*
X154353439Y-47705703D01*
X154335942Y-47721282D01*
X154336413Y-47721873D01*
X154332788Y-47724763D01*
X154145952Y-47898121D01*
X154145950Y-47898123D01*
X153987041Y-48097388D01*
X153859608Y-48318109D01*
X153766492Y-48555362D01*
X153766490Y-48555369D01*
X153709777Y-48803845D01*
X153690732Y-49057995D01*
X153690732Y-49058004D01*
X153709777Y-49312154D01*
X153762098Y-49541389D01*
X153766492Y-49560637D01*
X153859607Y-49797888D01*
X153987041Y-50018612D01*
X154145950Y-50217877D01*
X154332783Y-50391232D01*
X154543366Y-50534805D01*
X154543371Y-50534807D01*
X154543372Y-50534808D01*
X154543373Y-50534809D01*
X154665328Y-50593538D01*
X154772992Y-50645387D01*
X154772993Y-50645387D01*
X154772996Y-50645389D01*
X155016542Y-50720513D01*
X155268565Y-50758500D01*
X155523435Y-50758500D01*
X155775458Y-50720513D01*
X156019004Y-50645389D01*
X156248634Y-50534805D01*
X156459217Y-50391232D01*
X156646050Y-50217877D01*
X156804959Y-50018612D01*
X156932393Y-49797888D01*
X157025508Y-49560637D01*
X157082222Y-49312157D01*
X157101268Y-49058000D01*
X157082222Y-48803843D01*
X157025508Y-48555363D01*
X156932393Y-48318112D01*
X156804959Y-48097388D01*
X156646050Y-47898123D01*
X156459217Y-47724768D01*
X156459214Y-47724766D01*
X156459211Y-47724763D01*
X156455587Y-47721873D01*
X156456905Y-47720219D01*
X156418129Y-47672945D01*
X156410058Y-47603543D01*
X156440789Y-47540795D01*
X156500567Y-47504622D01*
X156532274Y-47500500D01*
X169375500Y-47500500D01*
X169442539Y-47520185D01*
X169488294Y-47572989D01*
X169499500Y-47624500D01*
X169499500Y-76824374D01*
X169479815Y-76891413D01*
X169427011Y-76937168D01*
X169357853Y-76947112D01*
X169294297Y-76918087D01*
X169287819Y-76912055D01*
X153436076Y-61060312D01*
X153436074Y-61060310D01*
X153283199Y-60949240D01*
X153277054Y-60946109D01*
X153114836Y-60863454D01*
X152935118Y-60805059D01*
X152748486Y-60775500D01*
X152748481Y-60775500D01*
X150352935Y-60775500D01*
X150285896Y-60755815D01*
X150268594Y-60742399D01*
X150250260Y-60725388D01*
X150161217Y-60642768D01*
X149950634Y-60499195D01*
X149950630Y-60499193D01*
X149950627Y-60499191D01*
X149950626Y-60499190D01*
X149721006Y-60388612D01*
X149721008Y-60388612D01*
X149477466Y-60313489D01*
X149477462Y-60313488D01*
X149477458Y-60313487D01*
X149356231Y-60295214D01*
X149225440Y-60275500D01*
X149225435Y-60275500D01*
X148970565Y-60275500D01*
X148970559Y-60275500D01*
X148813609Y-60299157D01*
X148718542Y-60313487D01*
X148718539Y-60313488D01*
X148718533Y-60313489D01*
X148474992Y-60388612D01*
X148245373Y-60499190D01*
X148245372Y-60499191D01*
X148034782Y-60642768D01*
X147847952Y-60816121D01*
X147847950Y-60816123D01*
X147689041Y-61015388D01*
X147561608Y-61236109D01*
X147468492Y-61473362D01*
X147468490Y-61473369D01*
X147411777Y-61721845D01*
X147392732Y-61975995D01*
X147392732Y-61976004D01*
X147411777Y-62230154D01*
X147456452Y-62425890D01*
X147468492Y-62478637D01*
X147561607Y-62715888D01*
X147689041Y-62936612D01*
X147847950Y-63135877D01*
X148034783Y-63309232D01*
X148245366Y-63452805D01*
X148245371Y-63452807D01*
X148245372Y-63452808D01*
X148245373Y-63452809D01*
X148367328Y-63511538D01*
X148474992Y-63563387D01*
X148474993Y-63563387D01*
X148474996Y-63563389D01*
X148718542Y-63638513D01*
X148970565Y-63676500D01*
X149225435Y-63676500D01*
X149477458Y-63638513D01*
X149721004Y-63563389D01*
X149950634Y-63452805D01*
X150161217Y-63309232D01*
X150268594Y-63209600D01*
X150331126Y-63178433D01*
X150352935Y-63176500D01*
X152105374Y-63176500D01*
X152172413Y-63196185D01*
X152193055Y-63212819D01*
X167673181Y-78692944D01*
X167706666Y-78754267D01*
X167709500Y-78780625D01*
X167709500Y-80114374D01*
X167689815Y-80181413D01*
X167637011Y-80227168D01*
X167567853Y-80237112D01*
X167504297Y-80208087D01*
X167497819Y-80202055D01*
X159218409Y-71922645D01*
X159184924Y-71861322D01*
X159182438Y-71844238D01*
X159166222Y-71627843D01*
X159109508Y-71379363D01*
X159016393Y-71142112D01*
X158888959Y-70921388D01*
X158730050Y-70722123D01*
X158543217Y-70548768D01*
X158332634Y-70405195D01*
X158332630Y-70405193D01*
X158332627Y-70405191D01*
X158332626Y-70405190D01*
X158103006Y-70294612D01*
X158103008Y-70294612D01*
X157859466Y-70219489D01*
X157859462Y-70219488D01*
X157859458Y-70219487D01*
X157738231Y-70201214D01*
X157607440Y-70181500D01*
X157607435Y-70181500D01*
X157352565Y-70181500D01*
X157352559Y-70181500D01*
X157195609Y-70205157D01*
X157100542Y-70219487D01*
X157100539Y-70219488D01*
X157100533Y-70219489D01*
X156856992Y-70294612D01*
X156627373Y-70405190D01*
X156627372Y-70405191D01*
X156416782Y-70548768D01*
X156229952Y-70722121D01*
X156229950Y-70722123D01*
X156071041Y-70921388D01*
X155943608Y-71142109D01*
X155850492Y-71379362D01*
X155850490Y-71379369D01*
X155793777Y-71627845D01*
X155774732Y-71881995D01*
X155774732Y-71882004D01*
X155793777Y-72136154D01*
X155847314Y-72370717D01*
X155850492Y-72384637D01*
X155943607Y-72621888D01*
X156071041Y-72842612D01*
X156229950Y-73041877D01*
X156416783Y-73215232D01*
X156627366Y-73358805D01*
X156627371Y-73358807D01*
X156627372Y-73358808D01*
X156627373Y-73358809D01*
X156749328Y-73417538D01*
X156856992Y-73469387D01*
X156856993Y-73469387D01*
X156856996Y-73469389D01*
X157100542Y-73544513D01*
X157352565Y-73582500D01*
X157431374Y-73582500D01*
X157498413Y-73602185D01*
X157519055Y-73618819D01*
X165895181Y-81994945D01*
X165928666Y-82056268D01*
X165931500Y-82082626D01*
X165931500Y-88242374D01*
X165911815Y-88309413D01*
X165859011Y-88355168D01*
X165789853Y-88365112D01*
X165726297Y-88336087D01*
X165719819Y-88330055D01*
X158262076Y-80872312D01*
X158262074Y-80872310D01*
X158109199Y-80761240D01*
X157940836Y-80675454D01*
X157761118Y-80617059D01*
X157574486Y-80587500D01*
X157574481Y-80587500D01*
X150352935Y-80587500D01*
X150285896Y-80567815D01*
X150268594Y-80554399D01*
X150217793Y-80507263D01*
X150161217Y-80454768D01*
X149950634Y-80311195D01*
X149950630Y-80311193D01*
X149950627Y-80311191D01*
X149950626Y-80311190D01*
X149721006Y-80200612D01*
X149721008Y-80200612D01*
X149477466Y-80125489D01*
X149477462Y-80125488D01*
X149477458Y-80125487D01*
X149356231Y-80107214D01*
X149225440Y-80087500D01*
X149225435Y-80087500D01*
X148970565Y-80087500D01*
X148970559Y-80087500D01*
X148813609Y-80111157D01*
X148718542Y-80125487D01*
X148718539Y-80125488D01*
X148718533Y-80125489D01*
X148474992Y-80200612D01*
X148245373Y-80311190D01*
X148245372Y-80311191D01*
X148034782Y-80454768D01*
X147847952Y-80628121D01*
X147847950Y-80628123D01*
X147689041Y-80827388D01*
X147561608Y-81048109D01*
X147468492Y-81285362D01*
X147468490Y-81285369D01*
X147411777Y-81533845D01*
X147392732Y-81787995D01*
X147392732Y-81788004D01*
X147411777Y-82042154D01*
X147463799Y-82270078D01*
X147468492Y-82290637D01*
X147561607Y-82527888D01*
X147689041Y-82748612D01*
X147847950Y-82947877D01*
X148034783Y-83121232D01*
X148245366Y-83264805D01*
X148245371Y-83264807D01*
X148245372Y-83264808D01*
X148245373Y-83264809D01*
X148367328Y-83323538D01*
X148474992Y-83375387D01*
X148474993Y-83375387D01*
X148474996Y-83375389D01*
X148718542Y-83450513D01*
X148970565Y-83488500D01*
X149225435Y-83488500D01*
X149477458Y-83450513D01*
X149721004Y-83375389D01*
X149950634Y-83264805D01*
X150161217Y-83121232D01*
X150268594Y-83021600D01*
X150331126Y-82990433D01*
X150352935Y-82988500D01*
X156931374Y-82988500D01*
X156998413Y-83008185D01*
X157019055Y-83024819D01*
X164117181Y-90122944D01*
X164150666Y-90184267D01*
X164153500Y-90210625D01*
X164153500Y-108562374D01*
X164133815Y-108629413D01*
X164081011Y-108675168D01*
X164011853Y-108685112D01*
X163948297Y-108656087D01*
X163941819Y-108650055D01*
X149261762Y-93969998D01*
X154504773Y-93969998D01*
X154504773Y-93970001D01*
X154523657Y-94234027D01*
X154523658Y-94234034D01*
X154579921Y-94492673D01*
X154672426Y-94740690D01*
X154672428Y-94740694D01*
X154799280Y-94973005D01*
X154799285Y-94973013D01*
X154957906Y-95184907D01*
X154957922Y-95184925D01*
X155145074Y-95372077D01*
X155145092Y-95372093D01*
X155356986Y-95530714D01*
X155356994Y-95530719D01*
X155589305Y-95657571D01*
X155589309Y-95657573D01*
X155589311Y-95657574D01*
X155837322Y-95750077D01*
X155837325Y-95750077D01*
X155837326Y-95750078D01*
X156032552Y-95792546D01*
X156095974Y-95806343D01*
X156339660Y-95823772D01*
X156359999Y-95825227D01*
X156360000Y-95825227D01*
X156360001Y-95825227D01*
X156378885Y-95823876D01*
X156624026Y-95806343D01*
X156882678Y-95750077D01*
X157130689Y-95657574D01*
X157363011Y-95530716D01*
X157574915Y-95372087D01*
X157762087Y-95184915D01*
X157920716Y-94973011D01*
X158047574Y-94740689D01*
X158140077Y-94492678D01*
X158196343Y-94234026D01*
X158215227Y-93970000D01*
X158196343Y-93705974D01*
X158140077Y-93447322D01*
X158047574Y-93199311D01*
X157939014Y-93000500D01*
X157920719Y-92966994D01*
X157920714Y-92966986D01*
X157762093Y-92755092D01*
X157762077Y-92755074D01*
X157574925Y-92567922D01*
X157574907Y-92567906D01*
X157363013Y-92409285D01*
X157363005Y-92409280D01*
X157130694Y-92282428D01*
X157130690Y-92282426D01*
X156882673Y-92189921D01*
X156624034Y-92133658D01*
X156624027Y-92133657D01*
X156360001Y-92114773D01*
X156359999Y-92114773D01*
X156095972Y-92133657D01*
X156095965Y-92133658D01*
X155837326Y-92189921D01*
X155589309Y-92282426D01*
X155589305Y-92282428D01*
X155356994Y-92409280D01*
X155356986Y-92409285D01*
X155145092Y-92567906D01*
X155145074Y-92567922D01*
X154957922Y-92755074D01*
X154957906Y-92755092D01*
X154799285Y-92966986D01*
X154799280Y-92966994D01*
X154672428Y-93199305D01*
X154672426Y-93199309D01*
X154579921Y-93447326D01*
X154523658Y-93705965D01*
X154523657Y-93705972D01*
X154504773Y-93969998D01*
X149261762Y-93969998D01*
X146270819Y-90979055D01*
X146237334Y-90917732D01*
X146235427Y-90900000D01*
X157724592Y-90900000D01*
X157744201Y-91186680D01*
X157802666Y-91468034D01*
X157802667Y-91468037D01*
X157898894Y-91738793D01*
X157898893Y-91738793D01*
X158031098Y-91993935D01*
X158196812Y-92228700D01*
X158246991Y-92282428D01*
X158392947Y-92438708D01*
X158615853Y-92620055D01*
X158837899Y-92755085D01*
X158861382Y-92769365D01*
X159048237Y-92850526D01*
X159124942Y-92883844D01*
X159401642Y-92961371D01*
X159651920Y-92995771D01*
X159686321Y-93000500D01*
X159686322Y-93000500D01*
X159973679Y-93000500D01*
X160004370Y-92996281D01*
X160258358Y-92961371D01*
X160535058Y-92883844D01*
X160648015Y-92834779D01*
X160798617Y-92769365D01*
X160798620Y-92769363D01*
X160798625Y-92769361D01*
X161044147Y-92620055D01*
X161267053Y-92438708D01*
X161463189Y-92228698D01*
X161628901Y-91993936D01*
X161761104Y-91738797D01*
X161857334Y-91468032D01*
X161915798Y-91186686D01*
X161935408Y-90900000D01*
X161915798Y-90613314D01*
X161857334Y-90331968D01*
X161761105Y-90061206D01*
X161761106Y-90061206D01*
X161628901Y-89806064D01*
X161463187Y-89571299D01*
X161384554Y-89487105D01*
X161267053Y-89361292D01*
X161055640Y-89189295D01*
X161044146Y-89179944D01*
X160798617Y-89030634D01*
X160535063Y-88916158D01*
X160535061Y-88916157D01*
X160535058Y-88916156D01*
X160405578Y-88879877D01*
X160258364Y-88838630D01*
X160258359Y-88838629D01*
X160258358Y-88838629D01*
X160116018Y-88819064D01*
X159973679Y-88799500D01*
X159973678Y-88799500D01*
X159686322Y-88799500D01*
X159686321Y-88799500D01*
X159401642Y-88838629D01*
X159401635Y-88838630D01*
X159193861Y-88896845D01*
X159124942Y-88916156D01*
X159124939Y-88916156D01*
X159124936Y-88916158D01*
X159124935Y-88916158D01*
X158861382Y-89030634D01*
X158615853Y-89179944D01*
X158392950Y-89361289D01*
X158392947Y-89361291D01*
X158392947Y-89361292D01*
X158384215Y-89370642D01*
X158196812Y-89571299D01*
X158031098Y-89806064D01*
X157898894Y-90061206D01*
X157802667Y-90331962D01*
X157802666Y-90331965D01*
X157744201Y-90613319D01*
X157724592Y-90900000D01*
X146235427Y-90900000D01*
X146234500Y-90891374D01*
X146234500Y-86287994D01*
X147592859Y-86287994D01*
X147592859Y-86288005D01*
X147613385Y-86535729D01*
X147613387Y-86535738D01*
X147674412Y-86776717D01*
X147774266Y-87004364D01*
X147874564Y-87157882D01*
X148574212Y-86458234D01*
X148585482Y-86500292D01*
X148657890Y-86625708D01*
X148760292Y-86728110D01*
X148885708Y-86800518D01*
X148927765Y-86811787D01*
X148227942Y-87511609D01*
X148274768Y-87548055D01*
X148274770Y-87548056D01*
X148493385Y-87666364D01*
X148493396Y-87666369D01*
X148728506Y-87747083D01*
X148973707Y-87788000D01*
X149222293Y-87788000D01*
X149467493Y-87747083D01*
X149702603Y-87666369D01*
X149702614Y-87666364D01*
X149921228Y-87548057D01*
X149921231Y-87548055D01*
X149968056Y-87511609D01*
X149268234Y-86811787D01*
X149310292Y-86800518D01*
X149435708Y-86728110D01*
X149538110Y-86625708D01*
X149610518Y-86500292D01*
X149621787Y-86458235D01*
X150321434Y-87157882D01*
X150421731Y-87004369D01*
X150521587Y-86776717D01*
X150582612Y-86535738D01*
X150582614Y-86535729D01*
X150603141Y-86288005D01*
X150603141Y-86287994D01*
X150582614Y-86040270D01*
X150582612Y-86040261D01*
X150521587Y-85799282D01*
X150421731Y-85571630D01*
X150321434Y-85418116D01*
X149621787Y-86117764D01*
X149610518Y-86075708D01*
X149538110Y-85950292D01*
X149435708Y-85847890D01*
X149310292Y-85775482D01*
X149268235Y-85764212D01*
X149968057Y-85064390D01*
X149968056Y-85064389D01*
X149921229Y-85027943D01*
X149702614Y-84909635D01*
X149702603Y-84909630D01*
X149467493Y-84828916D01*
X149222293Y-84788000D01*
X148973707Y-84788000D01*
X148728506Y-84828916D01*
X148493396Y-84909630D01*
X148493390Y-84909632D01*
X148274761Y-85027949D01*
X148227942Y-85064388D01*
X148227942Y-85064390D01*
X148927765Y-85764212D01*
X148885708Y-85775482D01*
X148760292Y-85847890D01*
X148657890Y-85950292D01*
X148585482Y-86075708D01*
X148574212Y-86117764D01*
X147874564Y-85418116D01*
X147774267Y-85571632D01*
X147674412Y-85799282D01*
X147613387Y-86040261D01*
X147613385Y-86040270D01*
X147592859Y-86287994D01*
X146234500Y-86287994D01*
X146234500Y-79915513D01*
X146204940Y-79728881D01*
X146146545Y-79549163D01*
X146060759Y-79380800D01*
X145949690Y-79227927D01*
X145816073Y-79094310D01*
X143103758Y-76381994D01*
X149474859Y-76381994D01*
X149474859Y-76382005D01*
X149495385Y-76629729D01*
X149495387Y-76629738D01*
X149556412Y-76870717D01*
X149656266Y-77098364D01*
X149756564Y-77251882D01*
X150456212Y-76552234D01*
X150467482Y-76594292D01*
X150539890Y-76719708D01*
X150642292Y-76822110D01*
X150767708Y-76894518D01*
X150809765Y-76905787D01*
X150109942Y-77605609D01*
X150156768Y-77642055D01*
X150156770Y-77642056D01*
X150375385Y-77760364D01*
X150375396Y-77760369D01*
X150610506Y-77841083D01*
X150855707Y-77882000D01*
X151104293Y-77882000D01*
X151349493Y-77841083D01*
X151584603Y-77760369D01*
X151584614Y-77760364D01*
X151803228Y-77642057D01*
X151803231Y-77642055D01*
X151850056Y-77605609D01*
X151150234Y-76905787D01*
X151192292Y-76894518D01*
X151317708Y-76822110D01*
X151420110Y-76719708D01*
X151492518Y-76594292D01*
X151503787Y-76552235D01*
X152203434Y-77251882D01*
X152303731Y-77098369D01*
X152403587Y-76870717D01*
X152464612Y-76629738D01*
X152464614Y-76629729D01*
X152485141Y-76382005D01*
X152485141Y-76381994D01*
X155974859Y-76381994D01*
X155974859Y-76382005D01*
X155995385Y-76629729D01*
X155995387Y-76629738D01*
X156056412Y-76870717D01*
X156156266Y-77098364D01*
X156256564Y-77251882D01*
X156956212Y-76552234D01*
X156967482Y-76594292D01*
X157039890Y-76719708D01*
X157142292Y-76822110D01*
X157267708Y-76894518D01*
X157309765Y-76905787D01*
X156609942Y-77605609D01*
X156656768Y-77642055D01*
X156656770Y-77642056D01*
X156875385Y-77760364D01*
X156875396Y-77760369D01*
X157110506Y-77841083D01*
X157355707Y-77882000D01*
X157604293Y-77882000D01*
X157849493Y-77841083D01*
X158084603Y-77760369D01*
X158084614Y-77760364D01*
X158303228Y-77642057D01*
X158303231Y-77642055D01*
X158350056Y-77605609D01*
X157650234Y-76905787D01*
X157692292Y-76894518D01*
X157817708Y-76822110D01*
X157920110Y-76719708D01*
X157992518Y-76594292D01*
X158003787Y-76552235D01*
X158703434Y-77251882D01*
X158803731Y-77098369D01*
X158903587Y-76870717D01*
X158964612Y-76629738D01*
X158964614Y-76629729D01*
X158985141Y-76382005D01*
X158985141Y-76381994D01*
X158964614Y-76134270D01*
X158964612Y-76134261D01*
X158903587Y-75893282D01*
X158803731Y-75665630D01*
X158703434Y-75512116D01*
X158003787Y-76211764D01*
X157992518Y-76169708D01*
X157920110Y-76044292D01*
X157817708Y-75941890D01*
X157692292Y-75869482D01*
X157650235Y-75858212D01*
X158350057Y-75158390D01*
X158350056Y-75158389D01*
X158303229Y-75121943D01*
X158084614Y-75003635D01*
X158084603Y-75003630D01*
X157849493Y-74922916D01*
X157604293Y-74882000D01*
X157355707Y-74882000D01*
X157110506Y-74922916D01*
X156875396Y-75003630D01*
X156875390Y-75003632D01*
X156656761Y-75121949D01*
X156609942Y-75158388D01*
X156609942Y-75158390D01*
X157309765Y-75858212D01*
X157267708Y-75869482D01*
X157142292Y-75941890D01*
X157039890Y-76044292D01*
X156967482Y-76169708D01*
X156956212Y-76211764D01*
X156256564Y-75512116D01*
X156156267Y-75665632D01*
X156056412Y-75893282D01*
X155995387Y-76134261D01*
X155995385Y-76134270D01*
X155974859Y-76381994D01*
X152485141Y-76381994D01*
X152464614Y-76134270D01*
X152464612Y-76134261D01*
X152403587Y-75893282D01*
X152303731Y-75665630D01*
X152203434Y-75512116D01*
X151503787Y-76211764D01*
X151492518Y-76169708D01*
X151420110Y-76044292D01*
X151317708Y-75941890D01*
X151192292Y-75869482D01*
X151150235Y-75858212D01*
X151850057Y-75158390D01*
X151850056Y-75158389D01*
X151803229Y-75121943D01*
X151584614Y-75003635D01*
X151584603Y-75003630D01*
X151349493Y-74922916D01*
X151104293Y-74882000D01*
X150855707Y-74882000D01*
X150610506Y-74922916D01*
X150375396Y-75003630D01*
X150375390Y-75003632D01*
X150156761Y-75121949D01*
X150109942Y-75158388D01*
X150109942Y-75158390D01*
X150809765Y-75858212D01*
X150767708Y-75869482D01*
X150642292Y-75941890D01*
X150539890Y-76044292D01*
X150467482Y-76169708D01*
X150456212Y-76211764D01*
X149756564Y-75512116D01*
X149656267Y-75665632D01*
X149556412Y-75893282D01*
X149495387Y-76134261D01*
X149495385Y-76134270D01*
X149474859Y-76381994D01*
X143103758Y-76381994D01*
X142188074Y-75466310D01*
X142035199Y-75355240D01*
X141866836Y-75269454D01*
X141687118Y-75211059D01*
X141500486Y-75181500D01*
X141500481Y-75181500D01*
X141208935Y-75181500D01*
X141141896Y-75161815D01*
X141124594Y-75148399D01*
X141017217Y-75048768D01*
X140951019Y-75003635D01*
X140806634Y-74905195D01*
X140806630Y-74905193D01*
X140806627Y-74905191D01*
X140806626Y-74905190D01*
X140577006Y-74794612D01*
X140577008Y-74794612D01*
X140333466Y-74719489D01*
X140333462Y-74719488D01*
X140333458Y-74719487D01*
X140212231Y-74701214D01*
X140081440Y-74681500D01*
X140081435Y-74681500D01*
X139826565Y-74681500D01*
X139826559Y-74681500D01*
X139669609Y-74705157D01*
X139574542Y-74719487D01*
X139574539Y-74719488D01*
X139574533Y-74719489D01*
X139330992Y-74794612D01*
X139101373Y-74905190D01*
X139101372Y-74905191D01*
X138890782Y-75048768D01*
X138703952Y-75222121D01*
X138703950Y-75222123D01*
X138545041Y-75421388D01*
X138417608Y-75642109D01*
X138324492Y-75879362D01*
X138324490Y-75879369D01*
X138267777Y-76127845D01*
X138248732Y-76381995D01*
X138248732Y-76382004D01*
X138267777Y-76636154D01*
X138321314Y-76870717D01*
X138324492Y-76884637D01*
X138417607Y-77121888D01*
X138545041Y-77342612D01*
X138703950Y-77541877D01*
X138890783Y-77715232D01*
X139101366Y-77858805D01*
X139101371Y-77858807D01*
X139101372Y-77858808D01*
X139101373Y-77858809D01*
X139223328Y-77917538D01*
X139330992Y-77969387D01*
X139330993Y-77969387D01*
X139330996Y-77969389D01*
X139574542Y-78044513D01*
X139826565Y-78082500D01*
X140081435Y-78082500D01*
X140333458Y-78044513D01*
X140577004Y-77969389D01*
X140806634Y-77858805D01*
X140946751Y-77763274D01*
X141013229Y-77741774D01*
X141080779Y-77759628D01*
X141104283Y-77778047D01*
X143309721Y-79983485D01*
X143343206Y-80044808D01*
X143338222Y-80114500D01*
X143296350Y-80170433D01*
X143230886Y-80194850D01*
X143185493Y-80189657D01*
X143066960Y-80153094D01*
X142977466Y-80125489D01*
X142977462Y-80125488D01*
X142977458Y-80125487D01*
X142856231Y-80107214D01*
X142725440Y-80087500D01*
X142725435Y-80087500D01*
X142470565Y-80087500D01*
X142470559Y-80087500D01*
X142313609Y-80111157D01*
X142218542Y-80125487D01*
X142218539Y-80125488D01*
X142218533Y-80125489D01*
X141974992Y-80200612D01*
X141745373Y-80311190D01*
X141745372Y-80311191D01*
X141534782Y-80454768D01*
X141347952Y-80628121D01*
X141347950Y-80628123D01*
X141189041Y-80827388D01*
X141061608Y-81048109D01*
X140968492Y-81285362D01*
X140968490Y-81285369D01*
X140911777Y-81533845D01*
X140892732Y-81787995D01*
X140892732Y-81788004D01*
X140911777Y-82042154D01*
X140963799Y-82270078D01*
X140968492Y-82290637D01*
X141061607Y-82527888D01*
X141189041Y-82748612D01*
X141347950Y-82947877D01*
X141534783Y-83121232D01*
X141745366Y-83264805D01*
X141745371Y-83264807D01*
X141745372Y-83264808D01*
X141745373Y-83264809D01*
X141867328Y-83323538D01*
X141974992Y-83375387D01*
X141974993Y-83375387D01*
X141974996Y-83375389D01*
X142218542Y-83450513D01*
X142470565Y-83488500D01*
X142725435Y-83488500D01*
X142977458Y-83450513D01*
X143221004Y-83375389D01*
X143450634Y-83264805D01*
X143639649Y-83135936D01*
X143706127Y-83114436D01*
X143773677Y-83132290D01*
X143820852Y-83183830D01*
X143833500Y-83238390D01*
X143833500Y-85354689D01*
X143813815Y-85421728D01*
X143797181Y-85442370D01*
X143121787Y-86117764D01*
X143110518Y-86075708D01*
X143038110Y-85950292D01*
X142935708Y-85847890D01*
X142810292Y-85775482D01*
X142768235Y-85764212D01*
X143468057Y-85064390D01*
X143468056Y-85064389D01*
X143421229Y-85027943D01*
X143202614Y-84909635D01*
X143202603Y-84909630D01*
X142967493Y-84828916D01*
X142722293Y-84788000D01*
X142473707Y-84788000D01*
X142228506Y-84828916D01*
X141993396Y-84909630D01*
X141993390Y-84909632D01*
X141774761Y-85027949D01*
X141727942Y-85064388D01*
X141727942Y-85064390D01*
X142427765Y-85764212D01*
X142385708Y-85775482D01*
X142260292Y-85847890D01*
X142157890Y-85950292D01*
X142085482Y-86075708D01*
X142074212Y-86117764D01*
X141374564Y-85418116D01*
X141274267Y-85571632D01*
X141174412Y-85799282D01*
X141113387Y-86040261D01*
X141113385Y-86040270D01*
X141092859Y-86287994D01*
X141092859Y-86288005D01*
X141113385Y-86535729D01*
X141113387Y-86535738D01*
X141174412Y-86776717D01*
X141274266Y-87004364D01*
X141374564Y-87157882D01*
X142074212Y-86458234D01*
X142085482Y-86500292D01*
X142157890Y-86625708D01*
X142260292Y-86728110D01*
X142385708Y-86800518D01*
X142427765Y-86811787D01*
X141727942Y-87511609D01*
X141774768Y-87548055D01*
X141774770Y-87548056D01*
X141993385Y-87666364D01*
X141993396Y-87666369D01*
X142228506Y-87747083D01*
X142473707Y-87788000D01*
X142722293Y-87788000D01*
X142967493Y-87747083D01*
X143202603Y-87666369D01*
X143202614Y-87666364D01*
X143421228Y-87548057D01*
X143421231Y-87548055D01*
X143468056Y-87511609D01*
X142768234Y-86811787D01*
X142810292Y-86800518D01*
X142935708Y-86728110D01*
X143038110Y-86625708D01*
X143110518Y-86500292D01*
X143121787Y-86458235D01*
X143797181Y-87133629D01*
X143830666Y-87194952D01*
X143833500Y-87221310D01*
X143833500Y-91534486D01*
X143863059Y-91721118D01*
X143921454Y-91900836D01*
X143974101Y-92004160D01*
X144007240Y-92069199D01*
X144118310Y-92222074D01*
X153137784Y-101241548D01*
X160917591Y-109021354D01*
X160951076Y-109082677D01*
X160946092Y-109152369D01*
X160904220Y-109208302D01*
X160838756Y-109232719D01*
X160780509Y-109222769D01*
X160535063Y-109116158D01*
X160535061Y-109116157D01*
X160535058Y-109116156D01*
X160405578Y-109079877D01*
X160258364Y-109038630D01*
X160258359Y-109038629D01*
X160258358Y-109038629D01*
X160116018Y-109019064D01*
X159973679Y-108999500D01*
X159973678Y-108999500D01*
X159686322Y-108999500D01*
X159686321Y-108999500D01*
X159401642Y-109038629D01*
X159401635Y-109038630D01*
X159232014Y-109086156D01*
X159124942Y-109116156D01*
X159124939Y-109116156D01*
X159124936Y-109116158D01*
X159124935Y-109116158D01*
X158861382Y-109230634D01*
X158615853Y-109379944D01*
X158392950Y-109561289D01*
X158196812Y-109771299D01*
X158031098Y-110006064D01*
X157898894Y-110261206D01*
X157802667Y-110531962D01*
X157802666Y-110531965D01*
X157744201Y-110813319D01*
X157724592Y-111100000D01*
X157744201Y-111386680D01*
X157802666Y-111668034D01*
X157802667Y-111668037D01*
X157898894Y-111938793D01*
X157898893Y-111938793D01*
X158031098Y-112193935D01*
X158196812Y-112428700D01*
X158281923Y-112519831D01*
X158392947Y-112638708D01*
X158615853Y-112820055D01*
X158812042Y-112939361D01*
X158861382Y-112969365D01*
X159048237Y-113050526D01*
X159124942Y-113083844D01*
X159401642Y-113161371D01*
X159651920Y-113195771D01*
X159686321Y-113200500D01*
X159686322Y-113200500D01*
X159973679Y-113200500D01*
X160004370Y-113196281D01*
X160258358Y-113161371D01*
X160535058Y-113083844D01*
X160648015Y-113034779D01*
X160798617Y-112969365D01*
X160798620Y-112969363D01*
X160798625Y-112969361D01*
X161044147Y-112820055D01*
X161267053Y-112638708D01*
X161463189Y-112428698D01*
X161628901Y-112193936D01*
X161761104Y-111938797D01*
X161857334Y-111668032D01*
X161915798Y-111386686D01*
X161935408Y-111100000D01*
X161915798Y-110813314D01*
X161857334Y-110531968D01*
X161785296Y-110329272D01*
X161761107Y-110261209D01*
X161761104Y-110261203D01*
X161703217Y-110149487D01*
X161689853Y-110080910D01*
X161715687Y-110015992D01*
X161772517Y-109975345D01*
X161842300Y-109971876D01*
X161900997Y-110004760D01*
X162339181Y-110442944D01*
X162372666Y-110504267D01*
X162375500Y-110530625D01*
X162375500Y-122333918D01*
X162355815Y-122400957D01*
X162303011Y-122446712D01*
X162233853Y-122456656D01*
X162170297Y-122427631D01*
X162163819Y-122421599D01*
X142076532Y-102334312D01*
X142076530Y-102334310D01*
X141923655Y-102223240D01*
X141755292Y-102137454D01*
X141575574Y-102079059D01*
X141388942Y-102049500D01*
X141388937Y-102049500D01*
X133655519Y-102049500D01*
X133655514Y-102049500D01*
X133478733Y-102077499D01*
X133468887Y-102079058D01*
X133468877Y-102079061D01*
X133289163Y-102137454D01*
X133120800Y-102223240D01*
X132967923Y-102334312D01*
X130459055Y-104843181D01*
X130397732Y-104876666D01*
X130371374Y-104879500D01*
X130102557Y-104879500D01*
X130035518Y-104859815D01*
X129989763Y-104807011D01*
X129979819Y-104737853D01*
X130008844Y-104674297D01*
X130026395Y-104657647D01*
X130056907Y-104633897D01*
X130075169Y-104619684D01*
X130239323Y-104441365D01*
X130371888Y-104238459D01*
X130469248Y-104016500D01*
X130528747Y-103781545D01*
X130548762Y-103540000D01*
X130528747Y-103298455D01*
X130469248Y-103063500D01*
X130371888Y-102841541D01*
X130239325Y-102638637D01*
X130218263Y-102615758D01*
X130075169Y-102460316D01*
X129956372Y-102367852D01*
X129915560Y-102311143D01*
X129911885Y-102241370D01*
X129946516Y-102180687D01*
X129956367Y-102172150D01*
X130075169Y-102079684D01*
X130239323Y-101901365D01*
X130371888Y-101698459D01*
X130469248Y-101476500D01*
X130528747Y-101241545D01*
X130548762Y-101000000D01*
X130528747Y-100758455D01*
X130469248Y-100523500D01*
X130371888Y-100301541D01*
X130239325Y-100098637D01*
X130218263Y-100075758D01*
X130075169Y-99920316D01*
X129956372Y-99827852D01*
X129915560Y-99771143D01*
X129911885Y-99701370D01*
X129946516Y-99640687D01*
X129956367Y-99632150D01*
X130075169Y-99539684D01*
X130239323Y-99361365D01*
X130371888Y-99158459D01*
X130469248Y-98936500D01*
X130528747Y-98701545D01*
X130548762Y-98460000D01*
X130528747Y-98218455D01*
X130469248Y-97983500D01*
X130371888Y-97761541D01*
X130239325Y-97558637D01*
X130220658Y-97538359D01*
X130075169Y-97380316D01*
X130075164Y-97380312D01*
X130075162Y-97380310D01*
X129883911Y-97231453D01*
X129883905Y-97231449D01*
X129792272Y-97181860D01*
X129742682Y-97132640D01*
X129727574Y-97064424D01*
X129751744Y-96998868D01*
X129779419Y-96971957D01*
X129779438Y-96971741D01*
X129269039Y-96461342D01*
X129301841Y-96452553D01*
X129432159Y-96377313D01*
X129538563Y-96270909D01*
X129613803Y-96140591D01*
X129622592Y-96107789D01*
X130132991Y-96618188D01*
X130178344Y-96553417D01*
X130178350Y-96553407D01*
X130271669Y-96353284D01*
X130271674Y-96353270D01*
X130328823Y-96139986D01*
X130328825Y-96139976D01*
X130348071Y-95920000D01*
X130348071Y-95919999D01*
X130328825Y-95700023D01*
X130328823Y-95700013D01*
X130271674Y-95486729D01*
X130271670Y-95486720D01*
X130178346Y-95286586D01*
X130132991Y-95221811D01*
X130132990Y-95221810D01*
X129622591Y-95732209D01*
X129613803Y-95699409D01*
X129538563Y-95569091D01*
X129432159Y-95462687D01*
X129301841Y-95387447D01*
X129269039Y-95378657D01*
X129779438Y-94868259D01*
X129779437Y-94868258D01*
X129714661Y-94822901D01*
X129714655Y-94822898D01*
X129514534Y-94729580D01*
X129514520Y-94729575D01*
X129301236Y-94672426D01*
X129301226Y-94672424D01*
X129081251Y-94653179D01*
X129081249Y-94653179D01*
X128861273Y-94672424D01*
X128861263Y-94672426D01*
X128647979Y-94729575D01*
X128647970Y-94729579D01*
X128447840Y-94822901D01*
X128383061Y-94868258D01*
X128893460Y-95378657D01*
X128860659Y-95387447D01*
X128730341Y-95462687D01*
X128623937Y-95569091D01*
X128548697Y-95699409D01*
X128539907Y-95732210D01*
X128029508Y-95221811D01*
X127984151Y-95286590D01*
X127890829Y-95486720D01*
X127890825Y-95486729D01*
X127833676Y-95700013D01*
X127833674Y-95700023D01*
X127814429Y-95919999D01*
X127814429Y-95920000D01*
X127833674Y-96139976D01*
X127833676Y-96139986D01*
X127890825Y-96353270D01*
X127890830Y-96353284D01*
X127984148Y-96553405D01*
X127984151Y-96553411D01*
X128029508Y-96618187D01*
X128029509Y-96618188D01*
X128539907Y-96107789D01*
X128548697Y-96140591D01*
X128623937Y-96270909D01*
X128730341Y-96377313D01*
X128860659Y-96452553D01*
X128893460Y-96461342D01*
X128383060Y-96971740D01*
X128383099Y-96972190D01*
X128425957Y-97025806D01*
X128433151Y-97095304D01*
X128401629Y-97157659D01*
X128370227Y-97181859D01*
X128278606Y-97231441D01*
X128278595Y-97231449D01*
X128276147Y-97233355D01*
X128274966Y-97233820D01*
X128274311Y-97234249D01*
X128274222Y-97234114D01*
X128211152Y-97258996D01*
X128199987Y-97259500D01*
X127909134Y-97259500D01*
X127722501Y-97289059D01*
X127542783Y-97347454D01*
X127374420Y-97433240D01*
X127287199Y-97496610D01*
X127221547Y-97544310D01*
X127221545Y-97544312D01*
X127221544Y-97544312D01*
X122570181Y-102195675D01*
X122508858Y-102229160D01*
X122439166Y-102224176D01*
X122383233Y-102182304D01*
X122358816Y-102116840D01*
X122358500Y-102107994D01*
X122358500Y-90909350D01*
X131594592Y-90909350D01*
X131614201Y-91196030D01*
X131672666Y-91477384D01*
X131672667Y-91477387D01*
X131768894Y-91748143D01*
X131768893Y-91748143D01*
X131901098Y-92003285D01*
X132066812Y-92238050D01*
X132108257Y-92282426D01*
X132262947Y-92448058D01*
X132485853Y-92629405D01*
X132716006Y-92769365D01*
X132731382Y-92778715D01*
X132918237Y-92859876D01*
X132994942Y-92893194D01*
X133271642Y-92970721D01*
X133521920Y-93005121D01*
X133556321Y-93009850D01*
X133556322Y-93009850D01*
X133843679Y-93009850D01*
X133874370Y-93005631D01*
X134128358Y-92970721D01*
X134405058Y-92893194D01*
X134518015Y-92844129D01*
X134668617Y-92778715D01*
X134668620Y-92778713D01*
X134668625Y-92778711D01*
X134914147Y-92629405D01*
X135137053Y-92448058D01*
X135333189Y-92238048D01*
X135498901Y-92003286D01*
X135631104Y-91748147D01*
X135727334Y-91477382D01*
X135785798Y-91196036D01*
X135805408Y-90909350D01*
X135785798Y-90622664D01*
X135727334Y-90341318D01*
X135631105Y-90070556D01*
X135631106Y-90070556D01*
X135498901Y-89815414D01*
X135333187Y-89580649D01*
X135254554Y-89496455D01*
X135137053Y-89370642D01*
X134914147Y-89189295D01*
X134914146Y-89189294D01*
X134668617Y-89039984D01*
X134405063Y-88925508D01*
X134405061Y-88925507D01*
X134405058Y-88925506D01*
X134275578Y-88889227D01*
X134128364Y-88847980D01*
X134128359Y-88847979D01*
X134128358Y-88847979D01*
X133986018Y-88828414D01*
X133843679Y-88808850D01*
X133843678Y-88808850D01*
X133556322Y-88808850D01*
X133556321Y-88808850D01*
X133271642Y-88847979D01*
X133271635Y-88847980D01*
X133063861Y-88906195D01*
X132994942Y-88925506D01*
X132994939Y-88925506D01*
X132994936Y-88925508D01*
X132994935Y-88925508D01*
X132731382Y-89039984D01*
X132485853Y-89189294D01*
X132262950Y-89370639D01*
X132066812Y-89580649D01*
X131901098Y-89815414D01*
X131768894Y-90070556D01*
X131672667Y-90341312D01*
X131672666Y-90341315D01*
X131614201Y-90622669D01*
X131594592Y-90909350D01*
X122358500Y-90909350D01*
X122358500Y-80489998D01*
X132154773Y-80489998D01*
X132154773Y-80490001D01*
X132173657Y-80754027D01*
X132173658Y-80754034D01*
X132229921Y-81012673D01*
X132322426Y-81260690D01*
X132322428Y-81260694D01*
X132449280Y-81493005D01*
X132449285Y-81493013D01*
X132607906Y-81704907D01*
X132607922Y-81704925D01*
X132795074Y-81892077D01*
X132795092Y-81892093D01*
X133006986Y-82050714D01*
X133006994Y-82050719D01*
X133239305Y-82177571D01*
X133239309Y-82177573D01*
X133239311Y-82177574D01*
X133487322Y-82270077D01*
X133487325Y-82270077D01*
X133487326Y-82270078D01*
X133581803Y-82290630D01*
X133745974Y-82326343D01*
X133989660Y-82343772D01*
X134009999Y-82345227D01*
X134010000Y-82345227D01*
X134010001Y-82345227D01*
X134028885Y-82343876D01*
X134274026Y-82326343D01*
X134532678Y-82270077D01*
X134780689Y-82177574D01*
X135013011Y-82050716D01*
X135224915Y-81892087D01*
X135412087Y-81704915D01*
X135570716Y-81493011D01*
X135697574Y-81260689D01*
X135790077Y-81012678D01*
X135846343Y-80754026D01*
X135865227Y-80490000D01*
X135846343Y-80225974D01*
X135790077Y-79967322D01*
X135697574Y-79719311D01*
X135604668Y-79549168D01*
X135570719Y-79486994D01*
X135570714Y-79486986D01*
X135412093Y-79275092D01*
X135412077Y-79275074D01*
X135224925Y-79087922D01*
X135224907Y-79087906D01*
X135013013Y-78929285D01*
X135013005Y-78929280D01*
X134780694Y-78802428D01*
X134780690Y-78802426D01*
X134532673Y-78709921D01*
X134274034Y-78653658D01*
X134274027Y-78653657D01*
X134010001Y-78634773D01*
X134009999Y-78634773D01*
X133745972Y-78653657D01*
X133745965Y-78653658D01*
X133487326Y-78709921D01*
X133239309Y-78802426D01*
X133239305Y-78802428D01*
X133006994Y-78929280D01*
X133006986Y-78929285D01*
X132795092Y-79087906D01*
X132795074Y-79087922D01*
X132607922Y-79275074D01*
X132607906Y-79275092D01*
X132449285Y-79486986D01*
X132449280Y-79486994D01*
X132322428Y-79719305D01*
X132322426Y-79719309D01*
X132229921Y-79967326D01*
X132173658Y-80225965D01*
X132173657Y-80225972D01*
X132154773Y-80489998D01*
X122358500Y-80489998D01*
X122358500Y-76381995D01*
X131748732Y-76381995D01*
X131748732Y-76382004D01*
X131767777Y-76636154D01*
X131821314Y-76870717D01*
X131824492Y-76884637D01*
X131917607Y-77121888D01*
X132045041Y-77342612D01*
X132203950Y-77541877D01*
X132390783Y-77715232D01*
X132601366Y-77858805D01*
X132601371Y-77858807D01*
X132601372Y-77858808D01*
X132601373Y-77858809D01*
X132723328Y-77917538D01*
X132830992Y-77969387D01*
X132830993Y-77969387D01*
X132830996Y-77969389D01*
X133074542Y-78044513D01*
X133326565Y-78082500D01*
X133581435Y-78082500D01*
X133833458Y-78044513D01*
X134077004Y-77969389D01*
X134306634Y-77858805D01*
X134517217Y-77715232D01*
X134704050Y-77541877D01*
X134862959Y-77342612D01*
X134990393Y-77121888D01*
X135083508Y-76884637D01*
X135140222Y-76636157D01*
X135159268Y-76382000D01*
X135140222Y-76127843D01*
X135083508Y-75879363D01*
X134990393Y-75642112D01*
X134862959Y-75421388D01*
X134704050Y-75222123D01*
X134517217Y-75048768D01*
X134306634Y-74905195D01*
X134306630Y-74905193D01*
X134306627Y-74905191D01*
X134306626Y-74905190D01*
X134077006Y-74794612D01*
X134077008Y-74794612D01*
X133833466Y-74719489D01*
X133833462Y-74719488D01*
X133833458Y-74719487D01*
X133712231Y-74701214D01*
X133581440Y-74681500D01*
X133581435Y-74681500D01*
X133326565Y-74681500D01*
X133326559Y-74681500D01*
X133169609Y-74705157D01*
X133074542Y-74719487D01*
X133074539Y-74719488D01*
X133074533Y-74719489D01*
X132830992Y-74794612D01*
X132601373Y-74905190D01*
X132601372Y-74905191D01*
X132390782Y-75048768D01*
X132203952Y-75222121D01*
X132203950Y-75222123D01*
X132045041Y-75421388D01*
X131917608Y-75642109D01*
X131824492Y-75879362D01*
X131824490Y-75879369D01*
X131767777Y-76127845D01*
X131748732Y-76381995D01*
X122358500Y-76381995D01*
X122358500Y-71881994D01*
X131948859Y-71881994D01*
X131948859Y-71882005D01*
X131969385Y-72129729D01*
X131969387Y-72129738D01*
X132030412Y-72370717D01*
X132130266Y-72598364D01*
X132230564Y-72751882D01*
X132930212Y-72052234D01*
X132941482Y-72094292D01*
X133013890Y-72219708D01*
X133116292Y-72322110D01*
X133241708Y-72394518D01*
X133283765Y-72405787D01*
X132583942Y-73105609D01*
X132630768Y-73142055D01*
X132630770Y-73142056D01*
X132849385Y-73260364D01*
X132849396Y-73260369D01*
X133084506Y-73341083D01*
X133329707Y-73382000D01*
X133578293Y-73382000D01*
X133823493Y-73341083D01*
X134058603Y-73260369D01*
X134058614Y-73260364D01*
X134277228Y-73142057D01*
X134277231Y-73142055D01*
X134324056Y-73105609D01*
X133624234Y-72405787D01*
X133666292Y-72394518D01*
X133791708Y-72322110D01*
X133894110Y-72219708D01*
X133966518Y-72094292D01*
X133977787Y-72052235D01*
X134677434Y-72751882D01*
X134777731Y-72598369D01*
X134877587Y-72370717D01*
X134938612Y-72129738D01*
X134938614Y-72129729D01*
X134959141Y-71882005D01*
X134959141Y-71881994D01*
X138448859Y-71881994D01*
X138448859Y-71882005D01*
X138469385Y-72129729D01*
X138469387Y-72129738D01*
X138530412Y-72370717D01*
X138630266Y-72598364D01*
X138730564Y-72751882D01*
X139430212Y-72052234D01*
X139441482Y-72094292D01*
X139513890Y-72219708D01*
X139616292Y-72322110D01*
X139741708Y-72394518D01*
X139783765Y-72405787D01*
X139083942Y-73105609D01*
X139130768Y-73142055D01*
X139130770Y-73142056D01*
X139349385Y-73260364D01*
X139349396Y-73260369D01*
X139584506Y-73341083D01*
X139829707Y-73382000D01*
X140078293Y-73382000D01*
X140323493Y-73341083D01*
X140558603Y-73260369D01*
X140558614Y-73260364D01*
X140777228Y-73142057D01*
X140777231Y-73142055D01*
X140824056Y-73105609D01*
X140124234Y-72405787D01*
X140166292Y-72394518D01*
X140291708Y-72322110D01*
X140394110Y-72219708D01*
X140466518Y-72094292D01*
X140477787Y-72052235D01*
X141177434Y-72751882D01*
X141277731Y-72598369D01*
X141377587Y-72370717D01*
X141438612Y-72129738D01*
X141438614Y-72129729D01*
X141459141Y-71882005D01*
X141459141Y-71881995D01*
X149274732Y-71881995D01*
X149274732Y-71882004D01*
X149293777Y-72136154D01*
X149347314Y-72370717D01*
X149350492Y-72384637D01*
X149443607Y-72621888D01*
X149571041Y-72842612D01*
X149729950Y-73041877D01*
X149916783Y-73215232D01*
X150127366Y-73358805D01*
X150127371Y-73358807D01*
X150127372Y-73358808D01*
X150127373Y-73358809D01*
X150249328Y-73417538D01*
X150356992Y-73469387D01*
X150356993Y-73469387D01*
X150356996Y-73469389D01*
X150600542Y-73544513D01*
X150852565Y-73582500D01*
X151107435Y-73582500D01*
X151359458Y-73544513D01*
X151603004Y-73469389D01*
X151832634Y-73358805D01*
X152043217Y-73215232D01*
X152230050Y-73041877D01*
X152388959Y-72842612D01*
X152516393Y-72621888D01*
X152609508Y-72384637D01*
X152666222Y-72136157D01*
X152685268Y-71882000D01*
X152683718Y-71861322D01*
X152669359Y-71669708D01*
X152666222Y-71627843D01*
X152609508Y-71379363D01*
X152516393Y-71142112D01*
X152388959Y-70921388D01*
X152230050Y-70722123D01*
X152043217Y-70548768D01*
X151832634Y-70405195D01*
X151832630Y-70405193D01*
X151832627Y-70405191D01*
X151832626Y-70405190D01*
X151603006Y-70294612D01*
X151603008Y-70294612D01*
X151359466Y-70219489D01*
X151359462Y-70219488D01*
X151359458Y-70219487D01*
X151238231Y-70201214D01*
X151107440Y-70181500D01*
X151107435Y-70181500D01*
X150852565Y-70181500D01*
X150852559Y-70181500D01*
X150695609Y-70205157D01*
X150600542Y-70219487D01*
X150600539Y-70219488D01*
X150600533Y-70219489D01*
X150356992Y-70294612D01*
X150127373Y-70405190D01*
X150127372Y-70405191D01*
X149916782Y-70548768D01*
X149729952Y-70722121D01*
X149729950Y-70722123D01*
X149571041Y-70921388D01*
X149443608Y-71142109D01*
X149350492Y-71379362D01*
X149350490Y-71379369D01*
X149293777Y-71627845D01*
X149274732Y-71881995D01*
X141459141Y-71881995D01*
X141459141Y-71881994D01*
X141438614Y-71634270D01*
X141438612Y-71634261D01*
X141377587Y-71393282D01*
X141277731Y-71165630D01*
X141177434Y-71012116D01*
X140477787Y-71711764D01*
X140466518Y-71669708D01*
X140394110Y-71544292D01*
X140291708Y-71441890D01*
X140166292Y-71369482D01*
X140124235Y-71358212D01*
X140824057Y-70658390D01*
X140824056Y-70658389D01*
X140777229Y-70621943D01*
X140558614Y-70503635D01*
X140558603Y-70503630D01*
X140323493Y-70422916D01*
X140078293Y-70382000D01*
X139829707Y-70382000D01*
X139584506Y-70422916D01*
X139349396Y-70503630D01*
X139349390Y-70503632D01*
X139130761Y-70621949D01*
X139083942Y-70658388D01*
X139083942Y-70658390D01*
X139783765Y-71358212D01*
X139741708Y-71369482D01*
X139616292Y-71441890D01*
X139513890Y-71544292D01*
X139441482Y-71669708D01*
X139430212Y-71711764D01*
X138730564Y-71012116D01*
X138630267Y-71165632D01*
X138530412Y-71393282D01*
X138469387Y-71634261D01*
X138469385Y-71634270D01*
X138448859Y-71881994D01*
X134959141Y-71881994D01*
X134938614Y-71634270D01*
X134938612Y-71634261D01*
X134877587Y-71393282D01*
X134777731Y-71165630D01*
X134677434Y-71012116D01*
X133977787Y-71711764D01*
X133966518Y-71669708D01*
X133894110Y-71544292D01*
X133791708Y-71441890D01*
X133666292Y-71369482D01*
X133624235Y-71358212D01*
X134324057Y-70658390D01*
X134324056Y-70658389D01*
X134277229Y-70621943D01*
X134058614Y-70503635D01*
X134058603Y-70503630D01*
X133823493Y-70422916D01*
X133578293Y-70382000D01*
X133329707Y-70382000D01*
X133084506Y-70422916D01*
X132849396Y-70503630D01*
X132849390Y-70503632D01*
X132630761Y-70621949D01*
X132583942Y-70658388D01*
X132583942Y-70658390D01*
X133283765Y-71358212D01*
X133241708Y-71369482D01*
X133116292Y-71441890D01*
X133013890Y-71544292D01*
X132941482Y-71669708D01*
X132930212Y-71711764D01*
X132230564Y-71012116D01*
X132130267Y-71165632D01*
X132030412Y-71393282D01*
X131969387Y-71634261D01*
X131969385Y-71634270D01*
X131948859Y-71881994D01*
X122358500Y-71881994D01*
X122358500Y-68890625D01*
X122378185Y-68823586D01*
X122394819Y-68802944D01*
X123498154Y-67699609D01*
X124665690Y-66532073D01*
X124706434Y-66475994D01*
X141092859Y-66475994D01*
X141092859Y-66476005D01*
X141113385Y-66723729D01*
X141113387Y-66723738D01*
X141174412Y-66964717D01*
X141274266Y-67192364D01*
X141374564Y-67345882D01*
X142074212Y-66646234D01*
X142085482Y-66688292D01*
X142157890Y-66813708D01*
X142260292Y-66916110D01*
X142385708Y-66988518D01*
X142427765Y-66999787D01*
X141727942Y-67699609D01*
X141774768Y-67736055D01*
X141774770Y-67736056D01*
X141993385Y-67854364D01*
X141993396Y-67854369D01*
X142228506Y-67935083D01*
X142473707Y-67976000D01*
X142722293Y-67976000D01*
X142967493Y-67935083D01*
X143202603Y-67854369D01*
X143202614Y-67854364D01*
X143421228Y-67736057D01*
X143421231Y-67736055D01*
X143468056Y-67699609D01*
X142768234Y-66999787D01*
X142810292Y-66988518D01*
X142935708Y-66916110D01*
X143038110Y-66813708D01*
X143110518Y-66688292D01*
X143121787Y-66646234D01*
X143821434Y-67345882D01*
X143921731Y-67192369D01*
X144021587Y-66964717D01*
X144082612Y-66723738D01*
X144082614Y-66723729D01*
X144103141Y-66476005D01*
X144103141Y-66475994D01*
X147592859Y-66475994D01*
X147592859Y-66476005D01*
X147613385Y-66723729D01*
X147613387Y-66723738D01*
X147674412Y-66964717D01*
X147774266Y-67192364D01*
X147874564Y-67345882D01*
X148574212Y-66646234D01*
X148585482Y-66688292D01*
X148657890Y-66813708D01*
X148760292Y-66916110D01*
X148885708Y-66988518D01*
X148927765Y-66999787D01*
X148227942Y-67699609D01*
X148274768Y-67736055D01*
X148274770Y-67736056D01*
X148493385Y-67854364D01*
X148493396Y-67854369D01*
X148728506Y-67935083D01*
X148973707Y-67976000D01*
X149222293Y-67976000D01*
X149467493Y-67935083D01*
X149702603Y-67854369D01*
X149702614Y-67854364D01*
X149921228Y-67736057D01*
X149921231Y-67736055D01*
X149968056Y-67699609D01*
X149268234Y-66999787D01*
X149310292Y-66988518D01*
X149435708Y-66916110D01*
X149538110Y-66813708D01*
X149610518Y-66688292D01*
X149621787Y-66646235D01*
X150321434Y-67345882D01*
X150421731Y-67192369D01*
X150521587Y-66964717D01*
X150582612Y-66723738D01*
X150582614Y-66723729D01*
X150603141Y-66476005D01*
X150603141Y-66475994D01*
X150582614Y-66228270D01*
X150582612Y-66228261D01*
X150521587Y-65987282D01*
X150421731Y-65759630D01*
X150321434Y-65606116D01*
X149621787Y-66305764D01*
X149610518Y-66263708D01*
X149538110Y-66138292D01*
X149435708Y-66035890D01*
X149310292Y-65963482D01*
X149268235Y-65952212D01*
X149968057Y-65252390D01*
X149968056Y-65252389D01*
X149921229Y-65215943D01*
X149702614Y-65097635D01*
X149702603Y-65097630D01*
X149467493Y-65016916D01*
X149222293Y-64976000D01*
X148973707Y-64976000D01*
X148728506Y-65016916D01*
X148493396Y-65097630D01*
X148493390Y-65097632D01*
X148274761Y-65215949D01*
X148227942Y-65252388D01*
X148227942Y-65252390D01*
X148927765Y-65952212D01*
X148885708Y-65963482D01*
X148760292Y-66035890D01*
X148657890Y-66138292D01*
X148585482Y-66263708D01*
X148574212Y-66305764D01*
X147874564Y-65606116D01*
X147774267Y-65759632D01*
X147674412Y-65987282D01*
X147613387Y-66228261D01*
X147613385Y-66228270D01*
X147592859Y-66475994D01*
X144103141Y-66475994D01*
X144082614Y-66228270D01*
X144082612Y-66228261D01*
X144021587Y-65987282D01*
X143921731Y-65759630D01*
X143821434Y-65606116D01*
X143121787Y-66305764D01*
X143110518Y-66263708D01*
X143038110Y-66138292D01*
X142935708Y-66035890D01*
X142810292Y-65963482D01*
X142768235Y-65952212D01*
X143468057Y-65252390D01*
X143468056Y-65252389D01*
X143421229Y-65215943D01*
X143202614Y-65097635D01*
X143202603Y-65097630D01*
X142967493Y-65016916D01*
X142722293Y-64976000D01*
X142473707Y-64976000D01*
X142228506Y-65016916D01*
X141993396Y-65097630D01*
X141993390Y-65097632D01*
X141774761Y-65215949D01*
X141727942Y-65252388D01*
X141727942Y-65252390D01*
X142427765Y-65952212D01*
X142385708Y-65963482D01*
X142260292Y-66035890D01*
X142157890Y-66138292D01*
X142085482Y-66263708D01*
X142074212Y-66305764D01*
X141374564Y-65606116D01*
X141274267Y-65759632D01*
X141174412Y-65987282D01*
X141113387Y-66228261D01*
X141113385Y-66228270D01*
X141092859Y-66475994D01*
X124706434Y-66475994D01*
X124776760Y-66379199D01*
X124862547Y-66210832D01*
X124920940Y-66031118D01*
X124927883Y-65987282D01*
X124950500Y-65844486D01*
X124950500Y-61685995D01*
X125496732Y-61685995D01*
X125496732Y-61686004D01*
X125515777Y-61940154D01*
X125567037Y-62164740D01*
X125572492Y-62188637D01*
X125665607Y-62425888D01*
X125793041Y-62646612D01*
X125951950Y-62845877D01*
X126138783Y-63019232D01*
X126349366Y-63162805D01*
X126349371Y-63162807D01*
X126349372Y-63162808D01*
X126349373Y-63162809D01*
X126418680Y-63196185D01*
X126578992Y-63273387D01*
X126578993Y-63273387D01*
X126578996Y-63273389D01*
X126822542Y-63348513D01*
X127074565Y-63386500D01*
X127329435Y-63386500D01*
X127581458Y-63348513D01*
X127825004Y-63273389D01*
X128054634Y-63162805D01*
X128265217Y-63019232D01*
X128452050Y-62845877D01*
X128610959Y-62646612D01*
X128738393Y-62425888D01*
X128831508Y-62188637D01*
X128880042Y-61975995D01*
X140892732Y-61975995D01*
X140892732Y-61976004D01*
X140911777Y-62230154D01*
X140956452Y-62425890D01*
X140968492Y-62478637D01*
X141061607Y-62715888D01*
X141189041Y-62936612D01*
X141347950Y-63135877D01*
X141534783Y-63309232D01*
X141745366Y-63452805D01*
X141745371Y-63452807D01*
X141745372Y-63452808D01*
X141745373Y-63452809D01*
X141867328Y-63511538D01*
X141974992Y-63563387D01*
X141974993Y-63563387D01*
X141974996Y-63563389D01*
X142218542Y-63638513D01*
X142470565Y-63676500D01*
X142725435Y-63676500D01*
X142977458Y-63638513D01*
X143221004Y-63563389D01*
X143450634Y-63452805D01*
X143661217Y-63309232D01*
X143848050Y-63135877D01*
X144006959Y-62936612D01*
X144134393Y-62715888D01*
X144227508Y-62478637D01*
X144284222Y-62230157D01*
X144303268Y-61976000D01*
X144284222Y-61721843D01*
X144227508Y-61473363D01*
X144134393Y-61236112D01*
X144006959Y-61015388D01*
X143848050Y-60816123D01*
X143661217Y-60642768D01*
X143450634Y-60499195D01*
X143450630Y-60499193D01*
X143450627Y-60499191D01*
X143450626Y-60499190D01*
X143221006Y-60388612D01*
X143221008Y-60388612D01*
X142977466Y-60313489D01*
X142977462Y-60313488D01*
X142977458Y-60313487D01*
X142856231Y-60295214D01*
X142725440Y-60275500D01*
X142725435Y-60275500D01*
X142470565Y-60275500D01*
X142470559Y-60275500D01*
X142313609Y-60299157D01*
X142218542Y-60313487D01*
X142218539Y-60313488D01*
X142218533Y-60313489D01*
X141974992Y-60388612D01*
X141745373Y-60499190D01*
X141745372Y-60499191D01*
X141534782Y-60642768D01*
X141347952Y-60816121D01*
X141347950Y-60816123D01*
X141189041Y-61015388D01*
X141061608Y-61236109D01*
X140968492Y-61473362D01*
X140968490Y-61473369D01*
X140911777Y-61721845D01*
X140892732Y-61975995D01*
X128880042Y-61975995D01*
X128888222Y-61940157D01*
X128907268Y-61686000D01*
X128888222Y-61431843D01*
X128831508Y-61183363D01*
X128738393Y-60946112D01*
X128610959Y-60725388D01*
X128452050Y-60526123D01*
X128265217Y-60352768D01*
X128054634Y-60209195D01*
X128054630Y-60209193D01*
X128054627Y-60209191D01*
X128054626Y-60209190D01*
X127825006Y-60098612D01*
X127825008Y-60098612D01*
X127581466Y-60023489D01*
X127581462Y-60023488D01*
X127581458Y-60023487D01*
X127460231Y-60005214D01*
X127329440Y-59985500D01*
X127329435Y-59985500D01*
X127074565Y-59985500D01*
X127074559Y-59985500D01*
X126917609Y-60009157D01*
X126822542Y-60023487D01*
X126822539Y-60023488D01*
X126822533Y-60023489D01*
X126578992Y-60098612D01*
X126349373Y-60209190D01*
X126349372Y-60209191D01*
X126138782Y-60352768D01*
X125951952Y-60526121D01*
X125951950Y-60526123D01*
X125793041Y-60725388D01*
X125665608Y-60946109D01*
X125572492Y-61183362D01*
X125572490Y-61183369D01*
X125515777Y-61431845D01*
X125496732Y-61685995D01*
X124950500Y-61685995D01*
X124950500Y-57185994D01*
X125696859Y-57185994D01*
X125696859Y-57186005D01*
X125717385Y-57433729D01*
X125717387Y-57433738D01*
X125778412Y-57674717D01*
X125878266Y-57902364D01*
X125978564Y-58055882D01*
X126678212Y-57356234D01*
X126689482Y-57398292D01*
X126761890Y-57523708D01*
X126864292Y-57626110D01*
X126989708Y-57698518D01*
X127031765Y-57709787D01*
X126331942Y-58409609D01*
X126378768Y-58446055D01*
X126378770Y-58446056D01*
X126597385Y-58564364D01*
X126597396Y-58564369D01*
X126832506Y-58645083D01*
X127077707Y-58686000D01*
X127326293Y-58686000D01*
X127571493Y-58645083D01*
X127806603Y-58564369D01*
X127806614Y-58564364D01*
X128025228Y-58446057D01*
X128025231Y-58446055D01*
X128072056Y-58409609D01*
X127372234Y-57709787D01*
X127414292Y-57698518D01*
X127539708Y-57626110D01*
X127642110Y-57523708D01*
X127714518Y-57398292D01*
X127725787Y-57356235D01*
X128425434Y-58055882D01*
X128525731Y-57902369D01*
X128625587Y-57674717D01*
X128686612Y-57433738D01*
X128686614Y-57433729D01*
X128707141Y-57186005D01*
X128707141Y-57185994D01*
X128686614Y-56938270D01*
X128686612Y-56938261D01*
X128625587Y-56697282D01*
X128525731Y-56469630D01*
X128425434Y-56316116D01*
X127725787Y-57015764D01*
X127714518Y-56973708D01*
X127642110Y-56848292D01*
X127539708Y-56745890D01*
X127414292Y-56673482D01*
X127372235Y-56662212D01*
X128072057Y-55962390D01*
X128072056Y-55962389D01*
X128025229Y-55925943D01*
X127806614Y-55807635D01*
X127806603Y-55807630D01*
X127571493Y-55726916D01*
X127326293Y-55686000D01*
X127077707Y-55686000D01*
X126832506Y-55726916D01*
X126597396Y-55807630D01*
X126597390Y-55807632D01*
X126378761Y-55925949D01*
X126331942Y-55962388D01*
X126331942Y-55962390D01*
X127031765Y-56662212D01*
X126989708Y-56673482D01*
X126864292Y-56745890D01*
X126761890Y-56848292D01*
X126689482Y-56973708D01*
X126678212Y-57015764D01*
X125978564Y-56316116D01*
X125878267Y-56469632D01*
X125778412Y-56697282D01*
X125717387Y-56938261D01*
X125717385Y-56938270D01*
X125696859Y-57185994D01*
X124950500Y-57185994D01*
X124950500Y-56206625D01*
X124970185Y-56139586D01*
X124986819Y-56118944D01*
X127547769Y-53557994D01*
X147390859Y-53557994D01*
X147390859Y-53558005D01*
X147411385Y-53805729D01*
X147411387Y-53805738D01*
X147472412Y-54046717D01*
X147572266Y-54274364D01*
X147672564Y-54427882D01*
X148372212Y-53728234D01*
X148383482Y-53770292D01*
X148455890Y-53895708D01*
X148558292Y-53998110D01*
X148683708Y-54070518D01*
X148725765Y-54081787D01*
X148025942Y-54781609D01*
X148072768Y-54818055D01*
X148072770Y-54818056D01*
X148291385Y-54936364D01*
X148291396Y-54936369D01*
X148526506Y-55017083D01*
X148771707Y-55058000D01*
X149020293Y-55058000D01*
X149265493Y-55017083D01*
X149500603Y-54936369D01*
X149500614Y-54936364D01*
X149719228Y-54818057D01*
X149719231Y-54818055D01*
X149766056Y-54781609D01*
X149066234Y-54081787D01*
X149108292Y-54070518D01*
X149233708Y-53998110D01*
X149336110Y-53895708D01*
X149408518Y-53770292D01*
X149419787Y-53728235D01*
X150119434Y-54427882D01*
X150219731Y-54274369D01*
X150319587Y-54046717D01*
X150380612Y-53805738D01*
X150380614Y-53805729D01*
X150401141Y-53558005D01*
X150401141Y-53557994D01*
X153890859Y-53557994D01*
X153890859Y-53558005D01*
X153911385Y-53805729D01*
X153911387Y-53805738D01*
X153972412Y-54046717D01*
X154072266Y-54274364D01*
X154172564Y-54427882D01*
X154872212Y-53728234D01*
X154883482Y-53770292D01*
X154955890Y-53895708D01*
X155058292Y-53998110D01*
X155183708Y-54070518D01*
X155225765Y-54081787D01*
X154525942Y-54781609D01*
X154572768Y-54818055D01*
X154572770Y-54818056D01*
X154791385Y-54936364D01*
X154791396Y-54936369D01*
X155026506Y-55017083D01*
X155271707Y-55058000D01*
X155520293Y-55058000D01*
X155765493Y-55017083D01*
X156000603Y-54936369D01*
X156000614Y-54936364D01*
X156219228Y-54818057D01*
X156219231Y-54818055D01*
X156266056Y-54781609D01*
X155566234Y-54081787D01*
X155608292Y-54070518D01*
X155733708Y-53998110D01*
X155836110Y-53895708D01*
X155908518Y-53770292D01*
X155919787Y-53728235D01*
X156619434Y-54427882D01*
X156719731Y-54274369D01*
X156819587Y-54046717D01*
X156880612Y-53805738D01*
X156880614Y-53805729D01*
X156901141Y-53558005D01*
X156901141Y-53557994D01*
X156880614Y-53310270D01*
X156880612Y-53310261D01*
X156819587Y-53069282D01*
X156719731Y-52841630D01*
X156619434Y-52688116D01*
X155919787Y-53387764D01*
X155908518Y-53345708D01*
X155836110Y-53220292D01*
X155733708Y-53117890D01*
X155608292Y-53045482D01*
X155566235Y-53034212D01*
X156266057Y-52334390D01*
X156266056Y-52334389D01*
X156219229Y-52297943D01*
X156000614Y-52179635D01*
X156000603Y-52179630D01*
X155765493Y-52098916D01*
X155520293Y-52058000D01*
X155271707Y-52058000D01*
X155026506Y-52098916D01*
X154791396Y-52179630D01*
X154791390Y-52179632D01*
X154572761Y-52297949D01*
X154525942Y-52334388D01*
X154525942Y-52334390D01*
X155225765Y-53034212D01*
X155183708Y-53045482D01*
X155058292Y-53117890D01*
X154955890Y-53220292D01*
X154883482Y-53345708D01*
X154872212Y-53387764D01*
X154172564Y-52688116D01*
X154072267Y-52841632D01*
X153972412Y-53069282D01*
X153911387Y-53310261D01*
X153911385Y-53310270D01*
X153890859Y-53557994D01*
X150401141Y-53557994D01*
X150380614Y-53310270D01*
X150380612Y-53310261D01*
X150319587Y-53069282D01*
X150219731Y-52841630D01*
X150119434Y-52688116D01*
X149419787Y-53387764D01*
X149408518Y-53345708D01*
X149336110Y-53220292D01*
X149233708Y-53117890D01*
X149108292Y-53045482D01*
X149066235Y-53034212D01*
X149766057Y-52334390D01*
X149766056Y-52334389D01*
X149719229Y-52297943D01*
X149500614Y-52179635D01*
X149500603Y-52179630D01*
X149265493Y-52098916D01*
X149020293Y-52058000D01*
X148771707Y-52058000D01*
X148526506Y-52098916D01*
X148291396Y-52179630D01*
X148291390Y-52179632D01*
X148072761Y-52297949D01*
X148025942Y-52334388D01*
X148025942Y-52334390D01*
X148725765Y-53034212D01*
X148683708Y-53045482D01*
X148558292Y-53117890D01*
X148455890Y-53220292D01*
X148383482Y-53345708D01*
X148372212Y-53387764D01*
X147672564Y-52688116D01*
X147572267Y-52841632D01*
X147472412Y-53069282D01*
X147411387Y-53310261D01*
X147411385Y-53310270D01*
X147390859Y-53557994D01*
X127547769Y-53557994D01*
X130220505Y-50885258D01*
X164249500Y-50885258D01*
X164249500Y-51114741D01*
X164274446Y-51304215D01*
X164279452Y-51342238D01*
X164279453Y-51342240D01*
X164338842Y-51563887D01*
X164426650Y-51775876D01*
X164426657Y-51775890D01*
X164541392Y-51974617D01*
X164681081Y-52156661D01*
X164681089Y-52156670D01*
X164843330Y-52318911D01*
X164843338Y-52318918D01*
X164843339Y-52318919D01*
X164863500Y-52334389D01*
X165025382Y-52458607D01*
X165025385Y-52458608D01*
X165025388Y-52458611D01*
X165224112Y-52573344D01*
X165224117Y-52573346D01*
X165224123Y-52573349D01*
X165315480Y-52611190D01*
X165436113Y-52661158D01*
X165657762Y-52720548D01*
X165885266Y-52750500D01*
X165885273Y-52750500D01*
X166114727Y-52750500D01*
X166114734Y-52750500D01*
X166342238Y-52720548D01*
X166563887Y-52661158D01*
X166775888Y-52573344D01*
X166974612Y-52458611D01*
X167156661Y-52318919D01*
X167156665Y-52318914D01*
X167156670Y-52318911D01*
X167318911Y-52156670D01*
X167318914Y-52156665D01*
X167318919Y-52156661D01*
X167458611Y-51974612D01*
X167573344Y-51775888D01*
X167661158Y-51563887D01*
X167720548Y-51342238D01*
X167750500Y-51114734D01*
X167750500Y-50885266D01*
X167720548Y-50657762D01*
X167661158Y-50436113D01*
X167573344Y-50224112D01*
X167458611Y-50025388D01*
X167458608Y-50025385D01*
X167458607Y-50025382D01*
X167318918Y-49843338D01*
X167318911Y-49843330D01*
X167156670Y-49681089D01*
X167156661Y-49681081D01*
X166974617Y-49541392D01*
X166775890Y-49426657D01*
X166775876Y-49426650D01*
X166563887Y-49338842D01*
X166342238Y-49279452D01*
X166304215Y-49274446D01*
X166114741Y-49249500D01*
X166114734Y-49249500D01*
X165885266Y-49249500D01*
X165885258Y-49249500D01*
X165668715Y-49278009D01*
X165657762Y-49279452D01*
X165564076Y-49304554D01*
X165436112Y-49338842D01*
X165224123Y-49426650D01*
X165224109Y-49426657D01*
X165025382Y-49541392D01*
X164843338Y-49681081D01*
X164681081Y-49843338D01*
X164541392Y-50025382D01*
X164426657Y-50224109D01*
X164426650Y-50224123D01*
X164338842Y-50436112D01*
X164279453Y-50657759D01*
X164279451Y-50657770D01*
X164249500Y-50885258D01*
X130220505Y-50885258D01*
X130810944Y-50294819D01*
X130872267Y-50261334D01*
X130898625Y-50258500D01*
X147641065Y-50258500D01*
X147708104Y-50278185D01*
X147725403Y-50291599D01*
X147832783Y-50391232D01*
X148043366Y-50534805D01*
X148043371Y-50534807D01*
X148043372Y-50534808D01*
X148043373Y-50534809D01*
X148165328Y-50593538D01*
X148272992Y-50645387D01*
X148272993Y-50645387D01*
X148272996Y-50645389D01*
X148516542Y-50720513D01*
X148768565Y-50758500D01*
X149023435Y-50758500D01*
X149275458Y-50720513D01*
X149519004Y-50645389D01*
X149748634Y-50534805D01*
X149959217Y-50391232D01*
X150146050Y-50217877D01*
X150304959Y-50018612D01*
X150432393Y-49797888D01*
X150525508Y-49560637D01*
X150582222Y-49312157D01*
X150601268Y-49058000D01*
X150582222Y-48803843D01*
X150525508Y-48555363D01*
X150432393Y-48318112D01*
X150304959Y-48097388D01*
X150146050Y-47898123D01*
X149959217Y-47724768D01*
X149959214Y-47724766D01*
X149959211Y-47724763D01*
X149955587Y-47721873D01*
X149956905Y-47720219D01*
X149918129Y-47672945D01*
X149910058Y-47603543D01*
X149940789Y-47540795D01*
X150000567Y-47504622D01*
X150032274Y-47500500D01*
X154259726Y-47500500D01*
X154326765Y-47520185D01*
G37*
%TD.AperFunction*%
%TA.AperFunction,Conductor*%
G36*
X147826765Y-47520185D02*
G01*
X147872520Y-47572989D01*
X147882464Y-47642147D01*
X147853439Y-47705703D01*
X147835942Y-47721282D01*
X147836413Y-47721873D01*
X147832787Y-47724764D01*
X147725406Y-47824399D01*
X147662874Y-47855567D01*
X147641065Y-47857500D01*
X130255514Y-47857500D01*
X130068881Y-47887059D01*
X129889163Y-47945454D01*
X129720800Y-48031240D01*
X129633579Y-48094610D01*
X129567927Y-48142310D01*
X129567925Y-48142312D01*
X129567924Y-48142312D01*
X122834312Y-54875923D01*
X122723240Y-55028800D01*
X122637454Y-55197163D01*
X122579059Y-55376881D01*
X122549500Y-55563513D01*
X122549500Y-61083442D01*
X122529815Y-61150481D01*
X122477011Y-61196236D01*
X122407853Y-61206180D01*
X122344297Y-61177155D01*
X122310072Y-61128745D01*
X122297220Y-61095999D01*
X122238393Y-60946112D01*
X122110959Y-60725388D01*
X121952050Y-60526123D01*
X121765217Y-60352768D01*
X121554634Y-60209195D01*
X121554630Y-60209193D01*
X121554627Y-60209191D01*
X121554626Y-60209190D01*
X121325006Y-60098612D01*
X121325008Y-60098612D01*
X121081466Y-60023489D01*
X121081462Y-60023488D01*
X121081458Y-60023487D01*
X120960231Y-60005214D01*
X120829440Y-59985500D01*
X120829435Y-59985500D01*
X120574565Y-59985500D01*
X120574559Y-59985500D01*
X120417609Y-60009157D01*
X120322542Y-60023487D01*
X120322539Y-60023488D01*
X120322533Y-60023489D01*
X120078992Y-60098612D01*
X119849373Y-60209190D01*
X119849372Y-60209191D01*
X119638782Y-60352768D01*
X119451952Y-60526121D01*
X119451950Y-60526123D01*
X119293041Y-60725388D01*
X119165608Y-60946109D01*
X119072492Y-61183362D01*
X119072490Y-61183369D01*
X119015777Y-61431845D01*
X118999562Y-61648230D01*
X118974923Y-61713611D01*
X118963590Y-61726645D01*
X117712181Y-62978054D01*
X117650858Y-63011539D01*
X117581166Y-63006555D01*
X117525233Y-62964683D01*
X117500816Y-62899219D01*
X117500500Y-62890373D01*
X117500500Y-57185994D01*
X119196859Y-57185994D01*
X119196859Y-57186005D01*
X119217385Y-57433729D01*
X119217387Y-57433738D01*
X119278412Y-57674717D01*
X119378266Y-57902364D01*
X119478564Y-58055882D01*
X120178212Y-57356234D01*
X120189482Y-57398292D01*
X120261890Y-57523708D01*
X120364292Y-57626110D01*
X120489708Y-57698518D01*
X120531765Y-57709787D01*
X119831942Y-58409609D01*
X119878768Y-58446055D01*
X119878770Y-58446056D01*
X120097385Y-58564364D01*
X120097396Y-58564369D01*
X120332506Y-58645083D01*
X120577707Y-58686000D01*
X120826293Y-58686000D01*
X121071493Y-58645083D01*
X121306603Y-58564369D01*
X121306614Y-58564364D01*
X121525228Y-58446057D01*
X121525231Y-58446055D01*
X121572056Y-58409609D01*
X120872234Y-57709787D01*
X120914292Y-57698518D01*
X121039708Y-57626110D01*
X121142110Y-57523708D01*
X121214518Y-57398292D01*
X121225787Y-57356235D01*
X121925434Y-58055882D01*
X122025731Y-57902369D01*
X122125587Y-57674717D01*
X122186612Y-57433738D01*
X122186614Y-57433729D01*
X122207141Y-57186005D01*
X122207141Y-57185994D01*
X122186614Y-56938270D01*
X122186612Y-56938261D01*
X122125587Y-56697282D01*
X122025731Y-56469630D01*
X121925434Y-56316116D01*
X121225787Y-57015764D01*
X121214518Y-56973708D01*
X121142110Y-56848292D01*
X121039708Y-56745890D01*
X120914292Y-56673482D01*
X120872235Y-56662212D01*
X121572057Y-55962390D01*
X121572056Y-55962389D01*
X121525229Y-55925943D01*
X121306614Y-55807635D01*
X121306603Y-55807630D01*
X121071493Y-55726916D01*
X120826293Y-55686000D01*
X120577707Y-55686000D01*
X120332506Y-55726916D01*
X120097396Y-55807630D01*
X120097390Y-55807632D01*
X119878761Y-55925949D01*
X119831942Y-55962388D01*
X119831942Y-55962390D01*
X120531765Y-56662212D01*
X120489708Y-56673482D01*
X120364292Y-56745890D01*
X120261890Y-56848292D01*
X120189482Y-56973708D01*
X120178212Y-57015764D01*
X119478564Y-56316116D01*
X119378267Y-56469632D01*
X119278412Y-56697282D01*
X119217387Y-56938261D01*
X119217385Y-56938270D01*
X119196859Y-57185994D01*
X117500500Y-57185994D01*
X117500500Y-50885258D01*
X119249500Y-50885258D01*
X119249500Y-51114741D01*
X119274446Y-51304215D01*
X119279452Y-51342238D01*
X119279453Y-51342240D01*
X119338842Y-51563887D01*
X119426650Y-51775876D01*
X119426657Y-51775890D01*
X119541392Y-51974617D01*
X119681081Y-52156661D01*
X119681089Y-52156670D01*
X119843330Y-52318911D01*
X119843338Y-52318918D01*
X119843339Y-52318919D01*
X119863500Y-52334389D01*
X120025382Y-52458607D01*
X120025385Y-52458608D01*
X120025388Y-52458611D01*
X120224112Y-52573344D01*
X120224117Y-52573346D01*
X120224123Y-52573349D01*
X120315480Y-52611190D01*
X120436113Y-52661158D01*
X120657762Y-52720548D01*
X120885266Y-52750500D01*
X120885273Y-52750500D01*
X121114727Y-52750500D01*
X121114734Y-52750500D01*
X121342238Y-52720548D01*
X121563887Y-52661158D01*
X121775888Y-52573344D01*
X121974612Y-52458611D01*
X122156661Y-52318919D01*
X122156665Y-52318914D01*
X122156670Y-52318911D01*
X122318911Y-52156670D01*
X122318914Y-52156665D01*
X122318919Y-52156661D01*
X122458611Y-51974612D01*
X122573344Y-51775888D01*
X122661158Y-51563887D01*
X122720548Y-51342238D01*
X122750500Y-51114734D01*
X122750500Y-50885266D01*
X122720548Y-50657762D01*
X122661158Y-50436113D01*
X122573344Y-50224112D01*
X122458611Y-50025388D01*
X122458608Y-50025385D01*
X122458607Y-50025382D01*
X122318918Y-49843338D01*
X122318911Y-49843330D01*
X122156670Y-49681089D01*
X122156661Y-49681081D01*
X121974617Y-49541392D01*
X121775890Y-49426657D01*
X121775876Y-49426650D01*
X121563887Y-49338842D01*
X121342238Y-49279452D01*
X121304215Y-49274446D01*
X121114741Y-49249500D01*
X121114734Y-49249500D01*
X120885266Y-49249500D01*
X120885258Y-49249500D01*
X120668715Y-49278009D01*
X120657762Y-49279452D01*
X120564076Y-49304554D01*
X120436112Y-49338842D01*
X120224123Y-49426650D01*
X120224109Y-49426657D01*
X120025382Y-49541392D01*
X119843338Y-49681081D01*
X119681081Y-49843338D01*
X119541392Y-50025382D01*
X119426657Y-50224109D01*
X119426650Y-50224123D01*
X119338842Y-50436112D01*
X119279453Y-50657759D01*
X119279451Y-50657770D01*
X119249500Y-50885258D01*
X117500500Y-50885258D01*
X117500500Y-47624500D01*
X117520185Y-47557461D01*
X117572989Y-47511706D01*
X117624500Y-47500500D01*
X147759726Y-47500500D01*
X147826765Y-47520185D01*
G37*
%TD.AperFunction*%
%TD*%
M02*
